<svg width="960" height="751" viewBox="0 0 960 751" fill="none" xmlns="http://www.w3.org/2000/svg">
<g clip-path="url(#clip0_36_3965)">
<rect x="0.5" y="0.5" width="959" height="750" fill="white" fill-opacity="0.8" stroke="#DDE1E6"/>
<rect opacity="0.4" x="94" y="502.156" width="827" height="79.026" fill="#F2F4F8"/>
<rect opacity="0.4" x="94" y="344.104" width="827" height="79.026" fill="#F2F4F8"/>
<rect opacity="0.4" x="94" y="186.053" width="827" height="79.026" fill="#F2F4F8"/>
<rect opacity="0.4" x="94" y="28" width="827" height="79.026" fill="#F2F4F8"/>
<line x1="211.5" y1="28" x2="211.5" y2="657" stroke="#DDE1E6"/>
<line x1="330.5" y1="28" x2="330.5" y2="657" stroke="#DDE1E6"/>
<line x1="449.5" y1="28" x2="449.5" y2="657" stroke="#DDE1E6"/>
<line x1="568.5" y1="28" x2="568.5" y2="657" stroke="#DDE1E6"/>
<line x1="688.5" y1="28" x2="688.5" y2="657" stroke="#DDE1E6"/>
<line x1="807.5" y1="28" x2="807.5" y2="657" stroke="#DDE1E6"/>
<path d="M94.5 657L95 28" stroke="black"/>
<path d="M921 657L921 28" stroke="black"/>
<path d="M94 657H921" stroke="black"/>
<path d="M94 28H921" stroke="black"/>
<path d="M464.462 723V721.6H459.786V718.744H464.028V717.344H459.786V714.628H464.462V713.228H458.204V723H464.462ZM468.861 723.168C470.611 723.168 471.745 722.23 471.745 720.83C471.745 719.654 471.031 718.954 469.435 718.716L468.763 718.632C467.993 718.506 467.643 718.254 467.643 717.694C467.643 717.148 468.035 716.784 468.875 716.784C469.659 716.784 470.275 717.162 470.653 717.61L471.591 716.714C470.933 715.986 470.191 715.552 468.875 715.552C467.279 715.552 466.173 716.378 466.173 717.792C466.173 719.136 467.083 719.78 468.567 719.962L469.239 720.046C469.995 720.144 470.275 720.494 470.275 720.956C470.275 721.572 469.827 721.936 468.945 721.936C468.077 721.936 467.419 721.544 466.887 720.9L465.907 721.796C466.593 722.65 467.489 723.168 468.861 723.168ZM476.879 723V721.754H475.465V716.966H476.991V715.72H475.465V713.732H474.093V715.006C474.093 715.51 473.925 715.72 473.421 715.72H472.805V716.966H473.939V721.418C473.939 722.412 474.499 723 475.549 723H476.879ZM479.576 714.418C480.206 714.418 480.472 714.082 480.472 713.62V713.382C480.472 712.92 480.206 712.584 479.576 712.584C478.946 712.584 478.666 712.92 478.666 713.382V713.62C478.666 714.082 478.946 714.418 479.576 714.418ZM478.806 723H480.332V715.72H478.806V723ZM484.197 723V718.114C484.197 717.274 484.939 716.868 485.695 716.868C486.591 716.868 487.025 717.428 487.025 718.562V723H488.551V718.114C488.551 717.274 489.265 716.868 490.035 716.868C490.959 716.868 491.379 717.442 491.379 718.562V723H492.905V718.38C492.905 716.588 492.051 715.552 490.609 715.552C489.433 715.552 488.677 716.224 488.411 717.036H488.369C488.019 716.028 487.193 715.552 486.213 715.552C485.107 715.552 484.561 716.168 484.267 716.924H484.197V715.72H482.671V723H484.197ZM501.365 723V721.754H500.595V718.1C500.595 716.476 499.545 715.552 497.669 715.552C496.255 715.552 495.401 716.154 494.925 716.966L495.835 717.792C496.199 717.218 496.717 716.798 497.571 716.798C498.593 716.798 499.069 717.316 499.069 718.198V718.814H497.753C495.723 718.814 494.645 719.556 494.645 720.998C494.645 722.314 495.499 723.168 496.997 723.168C498.061 723.168 498.845 722.692 499.125 721.782H499.195C499.293 722.496 499.713 723 500.511 723H501.365ZM497.431 722.006C496.675 722.006 496.199 721.67 496.199 721.026V720.774C496.199 720.144 496.717 719.794 497.781 719.794H499.069V720.844C499.069 721.558 498.369 722.006 497.431 722.006ZM506.326 723V721.754H504.912V716.966H506.438V715.72H504.912V713.732H503.54V715.006C503.54 715.51 503.372 715.72 502.868 715.72H502.252V716.966H503.386V721.418C503.386 722.412 503.946 723 504.996 723H506.326ZM511.054 723.168C512.412 723.168 513.476 722.58 514.022 721.698L513.126 720.816C512.706 721.488 512.104 721.908 511.208 721.908C509.976 721.908 509.29 721.11 509.29 719.99V719.752H514.288V719.178C514.288 717.162 513.196 715.552 511.054 715.552C508.982 715.552 507.708 717.036 507.708 719.36C507.708 721.684 508.982 723.168 511.054 723.168ZM511.054 716.742C512.062 716.742 512.678 717.484 512.678 718.604V718.744H509.29V718.646C509.29 717.526 510.004 716.742 511.054 716.742ZM520.716 723H522.242V712.64H520.716V716.924H520.646C520.338 716.056 519.568 715.552 518.602 715.552C516.768 715.552 515.704 716.966 515.704 719.36C515.704 721.754 516.768 723.168 518.602 723.168C519.568 723.168 520.338 722.65 520.646 721.796H520.716V723ZM519.064 721.852C518.014 721.852 517.314 721.11 517.314 719.99V718.73C517.314 717.61 518.014 716.868 519.064 716.868C519.988 716.868 520.716 717.372 520.716 718.114V720.606C520.716 721.348 519.988 721.852 519.064 721.852ZM531.425 723L533.931 715.72H532.475L531.341 719.038L530.599 721.586H530.515L529.773 719.038L528.667 715.72H527.155L529.633 723H531.425ZM541.44 723V721.754H540.67V718.1C540.67 716.476 539.62 715.552 537.744 715.552C536.33 715.552 535.476 716.154 535 716.966L535.91 717.792C536.274 717.218 536.792 716.798 537.646 716.798C538.668 716.798 539.144 717.316 539.144 718.198V718.814H537.828C535.798 718.814 534.72 719.556 534.72 720.998C534.72 722.314 535.574 723.168 537.072 723.168C538.136 723.168 538.92 722.692 539.2 721.782H539.27C539.368 722.496 539.788 723 540.586 723H541.44ZM537.506 722.006C536.75 722.006 536.274 721.67 536.274 721.026V720.774C536.274 720.144 536.792 719.794 537.856 719.794H539.144V720.844C539.144 721.558 538.444 722.006 537.506 722.006ZM545.63 723V721.754H544.622V712.64H543.096V721.488C543.096 722.426 543.614 723 544.65 723H545.63ZM551.658 723H553.184V715.72H551.658V720.592C551.658 721.446 550.888 721.852 550.104 721.852C549.166 721.852 548.704 721.264 548.704 720.158V715.72H547.178V720.354C547.178 722.146 548.06 723.168 549.558 723.168C550.762 723.168 551.336 722.51 551.602 721.796H551.658V723ZM558.385 723.168C559.743 723.168 560.807 722.58 561.353 721.698L560.457 720.816C560.037 721.488 559.435 721.908 558.539 721.908C557.307 721.908 556.621 721.11 556.621 719.99V719.752H561.619V719.178C561.619 717.162 560.527 715.552 558.385 715.552C556.313 715.552 555.039 717.036 555.039 719.36C555.039 721.684 556.313 723.168 558.385 723.168ZM558.385 716.742C559.393 716.742 560.009 717.484 560.009 718.604V718.744H556.621V718.646C556.621 717.526 557.335 716.742 558.385 716.742Z" fill="#121619"/>
<path d="M28 404.214H24.108V401.596C24.108 399.804 22.946 398.754 21.168 398.754C19.39 398.754 18.228 399.804 18.228 401.596V405.796H28V404.214ZM19.614 404.214V401.694C19.614 400.896 20.048 400.42 20.832 400.42H21.504C22.288 400.42 22.722 400.896 22.722 401.694V404.214H19.614ZM28 395.581H23.352C22.596 395.581 22.19 394.909 22.19 393.705V393.103H20.72V393.509C20.72 394.671 21.378 395.301 22.12 395.511V395.581H20.72V397.107H28V395.581ZM28.168 388.8C28.168 386.77 26.684 385.454 24.36 385.454C22.036 385.454 20.552 386.77 20.552 388.8C20.552 390.83 22.036 392.146 24.36 392.146C26.684 392.146 28.168 390.83 28.168 388.8ZM26.908 388.8C26.908 389.836 26.264 390.536 24.976 390.536H23.744C22.456 390.536 21.812 389.836 21.812 388.8C21.812 387.764 22.456 387.064 23.744 387.064H24.976C26.264 387.064 26.908 387.764 26.908 388.8ZM28 383.594V382.068H26.796V381.998C27.65 381.69 28.168 380.92 28.168 379.954C28.168 378.12 26.754 377.056 24.36 377.056C21.966 377.056 20.552 378.12 20.552 379.954C20.552 380.92 21.056 381.69 21.924 381.998V382.068H17.64V383.594H28ZM26.852 380.416C26.852 381.34 26.348 382.068 25.606 382.068H23.114C22.372 382.068 21.868 381.34 21.868 380.416C21.868 379.366 22.61 378.666 23.73 378.666H24.99C26.11 378.666 26.852 379.366 26.852 380.416ZM28 368.961H26.754V369.731H23.1C21.476 369.731 20.552 370.781 20.552 372.657C20.552 374.071 21.154 374.925 21.966 375.401L22.792 374.491C22.218 374.127 21.798 373.609 21.798 372.755C21.798 371.733 22.316 371.257 23.198 371.257H23.814V372.573C23.814 374.603 24.556 375.681 25.998 375.681C27.314 375.681 28.168 374.827 28.168 373.329C28.168 372.265 27.692 371.481 26.782 371.201V371.131C27.496 371.033 28 370.613 28 369.815V368.961ZM27.006 372.895C27.006 373.651 26.67 374.127 26.026 374.127H25.774C25.144 374.127 24.794 373.609 24.794 372.545V371.257H25.844C26.558 371.257 27.006 371.957 27.006 372.895ZM28 367.305V365.779H26.796V365.709C27.65 365.401 28.168 364.631 28.168 363.665C28.168 361.831 26.754 360.767 24.36 360.767C21.966 360.767 20.552 361.831 20.552 363.665C20.552 364.631 21.056 365.401 21.924 365.709V365.779H17.64V367.305H28ZM26.852 364.127C26.852 365.051 26.348 365.779 25.606 365.779H23.114C22.372 365.779 21.868 365.051 21.868 364.127C21.868 363.077 22.61 362.377 23.73 362.377H24.99C26.11 362.377 26.852 363.077 26.852 364.127ZM19.418 358.09C19.418 357.46 19.082 357.194 18.62 357.194H18.382C17.92 357.194 17.584 357.46 17.584 358.09C17.584 358.72 17.92 359 18.382 359H18.62C19.082 359 19.418 358.72 19.418 358.09ZM28 358.86V357.334H20.72V358.86H28ZM28 352.461H26.754V353.469H17.64V354.995H26.488C27.426 354.995 28 354.477 28 353.441V352.461ZM19.418 350.073C19.418 349.443 19.082 349.177 18.62 349.177H18.382C17.92 349.177 17.584 349.443 17.584 350.073C17.584 350.703 17.92 350.983 18.382 350.983H18.62C19.082 350.983 19.418 350.703 19.418 350.073ZM28 350.843V349.317H20.72V350.843H28ZM28 343.632H26.754V345.046H21.966V343.52H20.72V345.046H18.732V346.418H20.006C20.51 346.418 20.72 346.586 20.72 347.09V347.706H21.966V346.572H26.418C27.412 346.572 28 346.012 28 344.962V343.632ZM25.004 338.694L26.586 339.156V339.226L25.004 339.646L20.72 341.102V342.628L28.322 339.982L29.554 340.402V341.634H30.8V340.752C30.8 339.618 30.422 339.184 29.442 338.834L20.72 335.768V337.238L25.004 338.694ZM28 326.306V324.78H17.64V326.306H21.924V326.376C21.056 326.684 20.552 327.454 20.552 328.42C20.552 330.254 21.966 331.318 24.36 331.318C26.754 331.318 28.168 330.254 28.168 328.42C28.168 327.454 27.65 326.684 26.796 326.376V326.306H28ZM26.852 327.958C26.852 329.008 26.11 329.708 24.99 329.708H23.73C22.61 329.708 21.868 329.008 21.868 327.958C21.868 327.034 22.372 326.306 23.114 326.306H25.606C26.348 326.306 26.852 327.034 26.852 327.958ZM28.168 319.583C28.168 318.225 27.58 317.161 26.698 316.615L25.816 317.511C26.488 317.931 26.908 318.533 26.908 319.429C26.908 320.661 26.11 321.347 24.99 321.347H24.752V316.349H24.178C22.162 316.349 20.552 317.441 20.552 319.583C20.552 321.655 22.036 322.929 24.36 322.929C26.684 322.929 28.168 321.655 28.168 319.583ZM21.742 319.583C21.742 318.575 22.484 317.959 23.604 317.959H23.744V321.347H23.646C22.526 321.347 21.742 320.633 21.742 319.583ZM28 312.974H23.128C22.274 312.974 21.868 312.19 21.868 311.392C21.868 310.454 22.442 310.02 23.576 310.02H28V308.494H23.38C21.588 308.494 20.552 309.376 20.552 310.86C20.552 311.98 21.14 312.596 21.924 312.904V312.974H20.72V314.5H28V312.974ZM28.168 303.909C28.168 302.159 27.23 301.025 25.83 301.025C24.654 301.025 23.954 301.739 23.716 303.335L23.632 304.007C23.506 304.777 23.254 305.127 22.694 305.127C22.148 305.127 21.784 304.735 21.784 303.895C21.784 303.111 22.162 302.495 22.61 302.117L21.714 301.179C20.986 301.837 20.552 302.579 20.552 303.895C20.552 305.491 21.378 306.597 22.792 306.597C24.136 306.597 24.78 305.687 24.962 304.203L25.046 303.531C25.144 302.775 25.494 302.495 25.956 302.495C26.572 302.495 26.936 302.943 26.936 303.825C26.936 304.693 26.544 305.351 25.9 305.883L26.796 306.863C27.65 306.177 28.168 305.281 28.168 303.909ZM19.418 298.371C19.418 297.741 19.082 297.475 18.62 297.475H18.382C17.92 297.475 17.584 297.741 17.584 298.371C17.584 299.001 17.92 299.281 18.382 299.281H18.62C19.082 299.281 19.418 299.001 19.418 298.371ZM28 299.141V297.615H20.72V299.141H28ZM28 291.93H26.754V293.344H21.966V291.818H20.72V293.344H18.732V294.716H20.006C20.51 294.716 20.72 294.884 20.72 295.388V296.004H21.966V294.87H26.418C27.412 294.87 28 294.31 28 293.26V291.93ZM25.004 286.993L26.586 287.455V287.525L25.004 287.945L20.72 289.401V290.927L28.322 288.281L29.554 288.701V289.933H30.8V289.051C30.8 287.917 30.422 287.483 29.442 287.133L20.72 284.067V285.537L25.004 286.993Z" fill="#121619"/>
<path d="M95 656C396.479 655.999 368.455 342.441 511.251 344.006C651.821 345.546 637.339 656 920 656" stroke="#0043CE"/>
<path d="M920 656L900.605 656C755.619 656 763.047 32.1064 690.944 29.0117C617.699 25.8679 632.074 655.998 477.435 656L194 656L95.5 656" stroke="#8A3FFC"/>
<rect x="111.5" y="45.5" width="250" height="81" fill="white" stroke="#DDE1E6"/>
<path d="M199.232 62.228V67.996C199.232 70.838 200.1 72.168 202.704 72.168C205.308 72.168 206.26 70.838 206.26 67.996V62.228H205.084V68.276C205.084 70.138 204.482 71.118 202.746 71.118C201.01 71.118 200.408 70.138 200.408 68.276V62.228H199.232ZM209.958 72V66.988C209.958 66.064 210.826 65.616 211.722 65.616C212.8 65.616 213.36 66.274 213.36 67.562V72H214.48V67.366C214.48 65.616 213.542 64.608 212.058 64.608C210.98 64.608 210.364 65.14 210.014 65.952H209.958V64.776H208.838V72H209.958ZM218.075 72V66.988C218.075 66.064 218.915 65.616 219.797 65.616C220.861 65.616 221.351 66.274 221.351 67.562V72H222.471V66.988C222.471 66.064 223.283 65.616 224.165 65.616C225.257 65.616 225.747 66.288 225.747 67.562V72H226.867V67.366C226.867 65.616 225.985 64.608 224.515 64.608C223.283 64.608 222.583 65.294 222.317 66.078H222.289C221.897 65.042 221.029 64.608 220.077 64.608C218.957 64.608 218.453 65.21 218.131 65.952H218.075V64.776H216.955V72H218.075ZM229.898 63.082C230.374 63.082 230.584 62.83 230.584 62.452V62.27C230.584 61.892 230.374 61.64 229.898 61.64C229.422 61.64 229.212 61.892 229.212 62.27V62.452C229.212 62.83 229.422 63.082 229.898 63.082ZM229.338 72H230.458V64.776H229.338V72ZM235.994 72V71.02H234.524V65.756H236.106V64.776H234.524V62.774H233.516V64.118C233.516 64.608 233.362 64.776 232.886 64.776H232.214V65.756H233.404V70.81C233.404 71.51 233.824 72 234.594 72H235.994ZM238.626 63.082C239.102 63.082 239.312 62.83 239.312 62.452V62.27C239.312 61.892 239.102 61.64 238.626 61.64C238.15 61.64 237.94 61.892 237.94 62.27V62.452C237.94 62.83 238.15 63.082 238.626 63.082ZM238.066 72H239.186V64.776H238.066V72ZM247.816 72.798C247.816 71.608 247.046 70.88 245.254 70.88H243.714C243.056 70.88 242.608 70.768 242.608 70.334C242.608 69.886 243.084 69.648 243.56 69.522C243.77 69.564 244.022 69.592 244.26 69.592C245.912 69.592 246.99 68.57 246.99 67.1C246.99 66.33 246.682 65.686 246.164 65.238V64.776H247.536V63.796H246.458C245.856 63.796 245.618 64.202 245.618 64.762V64.888C245.226 64.706 244.764 64.608 244.246 64.608C242.608 64.608 241.53 65.63 241.53 67.1C241.53 68.108 242.034 68.906 242.888 69.312V69.368C242.16 69.55 241.642 69.9 241.642 70.628C241.642 71.118 241.88 71.44 242.286 71.636V71.79C241.572 71.986 241.138 72.406 241.138 73.19C241.138 74.324 242.062 74.968 244.316 74.968C246.64 74.968 247.816 74.282 247.816 72.798ZM246.766 72.882C246.766 73.666 246.038 74.058 244.792 74.058H243.756C242.622 74.058 242.188 73.54 242.188 72.91C242.188 72.462 242.398 72.14 242.86 71.93H245.268C246.388 71.93 246.766 72.308 246.766 72.882ZM244.26 68.696C243.308 68.696 242.706 68.248 242.706 67.296V66.904C242.706 65.952 243.308 65.504 244.26 65.504C245.212 65.504 245.814 65.952 245.814 66.904V67.296C245.814 68.248 245.212 68.696 244.26 68.696ZM255.122 72V71.02H254.296V67.044C254.296 65.518 253.26 64.608 251.524 64.608C250.222 64.608 249.354 65.252 248.962 66.022L249.634 66.652C250.026 65.994 250.6 65.574 251.468 65.574C252.616 65.574 253.176 66.134 253.176 67.156V67.87H251.748C249.648 67.87 248.668 68.626 248.668 69.984C248.668 71.328 249.564 72.168 251.09 72.168C252.098 72.168 252.868 71.706 253.176 70.824H253.246C253.33 71.496 253.666 72 254.492 72H255.122ZM251.272 71.216C250.404 71.216 249.844 70.81 249.844 70.096V69.802C249.844 69.102 250.418 68.71 251.692 68.71H253.176V69.9C253.176 70.642 252.378 71.216 251.272 71.216ZM259.876 72V71.02H258.406V65.756H259.988V64.776H258.406V62.774H257.398V64.118C257.398 64.608 257.244 64.776 256.768 64.776H256.096V65.756H257.286V70.81C257.286 71.51 257.706 72 258.476 72H259.876ZM264.61 72.168C265.968 72.168 267.004 71.496 267.466 70.516L266.668 69.942C266.29 70.74 265.59 71.188 264.68 71.188C263.336 71.188 262.538 70.25 262.538 69.004V68.668H267.732V68.136C267.732 66.092 266.542 64.608 264.61 64.608C262.65 64.608 261.362 66.092 261.362 68.388C261.362 70.684 262.65 72.168 264.61 72.168ZM264.61 65.546C265.758 65.546 266.528 66.4 266.528 67.674V67.828H262.538V67.73C262.538 66.47 263.392 65.546 264.61 65.546ZM274.357 72H275.477V61.64H274.357V65.952H274.301C273.923 65.042 273.181 64.608 272.187 64.608C270.381 64.608 269.247 66.078 269.247 68.388C269.247 70.698 270.381 72.168 272.187 72.168C273.181 72.168 273.867 71.72 274.301 70.824H274.357V72ZM272.495 71.16C271.235 71.16 270.451 70.292 270.451 69.004V67.772C270.451 66.484 271.235 65.616 272.495 65.616C273.517 65.616 274.357 66.204 274.357 67.002V69.69C274.357 70.628 273.517 71.16 272.495 71.16ZM278.872 72.168C279.46 72.168 279.726 71.832 279.726 71.356V71.174C279.726 70.698 279.46 70.362 278.872 70.362C278.284 70.362 278.018 70.698 278.018 71.174V71.356C278.018 71.832 278.284 72.168 278.872 72.168ZM278.872 66.414C279.46 66.414 279.726 66.078 279.726 65.602V65.42C279.726 64.944 279.46 64.608 278.872 64.608C278.284 64.608 278.018 64.944 278.018 65.42V65.602C278.018 66.078 278.284 66.414 278.872 66.414Z" fill="#121619"/>
<path d="M318.65 76V72.42C318.65 71.76 319.27 71.44 319.91 71.44C320.68 71.44 321.08 71.91 321.08 72.83V76H321.88V72.69C321.88 71.44 321.21 70.72 320.15 70.72C319.38 70.72 318.94 71.1 318.69 71.68H318.65V70.84H317.85V76H318.65ZM325.644 76.12C327.024 76.12 327.974 75.06 327.974 73.42C327.974 71.78 327.024 70.72 325.644 70.72C324.264 70.72 323.314 71.78 323.314 73.42C323.314 75.06 324.264 76.12 325.644 76.12ZM325.644 75.41C324.784 75.41 324.174 74.88 324.174 73.79V73.05C324.174 71.96 324.784 71.43 325.644 71.43C326.504 71.43 327.114 71.96 327.114 73.05V73.79C327.114 74.88 326.504 75.41 325.644 75.41ZM329.849 69.63C330.189 69.63 330.339 69.45 330.339 69.18V69.05C330.339 68.78 330.189 68.6 329.849 68.6C329.509 68.6 329.359 68.78 329.359 69.05V69.18C329.359 69.45 329.509 69.63 329.849 69.63ZM329.449 76H330.249V70.84H329.449V76ZM333.659 76.12C334.839 76.12 335.569 75.51 335.569 74.51C335.569 73.73 335.129 73.23 333.989 73.06L333.589 73C332.949 72.9 332.599 72.7 332.599 72.2C332.599 71.71 332.949 71.4 333.609 71.4C334.269 71.4 334.709 71.71 334.939 72.03L335.469 71.55C335.049 71.03 334.499 70.72 333.669 70.72C332.619 70.72 331.829 71.22 331.829 72.24C331.829 73.2 332.539 73.59 333.489 73.73L333.899 73.79C334.579 73.89 334.799 74.2 334.799 74.6C334.799 75.13 334.399 75.44 333.719 75.44C333.069 75.44 332.589 75.15 332.189 74.65L331.619 75.11C332.079 75.72 332.709 76.12 333.659 76.12ZM338.897 74.35L338.617 75.19H338.567L338.327 74.35L337.087 70.84H336.287L338.217 76.2L337.827 77.3H337.017V78H337.427C338.187 78 338.397 77.82 338.627 77.2L340.937 70.84H340.147L338.897 74.35Z" fill="#121619"/>
<path d="M300.79 111.12C301.76 111.12 302.5 110.64 302.83 109.94L302.26 109.53C301.99 110.1 301.49 110.42 300.84 110.42C299.88 110.42 299.31 109.75 299.31 108.86V108.62H303.02V108.24C303.02 106.78 302.17 105.72 300.79 105.72C299.39 105.72 298.47 106.78 298.47 108.42C298.47 110.06 299.39 111.12 300.79 111.12ZM300.79 106.39C301.61 106.39 302.16 107 302.16 107.91V108.02H299.31V107.95C299.31 107.05 299.92 106.39 300.79 106.39ZM305.298 111V107.42C305.298 106.76 305.898 106.44 306.528 106.44C307.288 106.44 307.638 106.91 307.638 107.83V111H308.438V107.42C308.438 106.76 309.018 106.44 309.648 106.44C310.428 106.44 310.778 106.92 310.778 107.83V111H311.578V107.69C311.578 106.44 310.948 105.72 309.898 105.72C309.018 105.72 308.518 106.21 308.328 106.77H308.308C308.028 106.03 307.408 105.72 306.728 105.72C305.928 105.72 305.568 106.15 305.338 106.68H305.298V105.84H304.498V111H305.298Z" fill="#121619"/>
<path d="M199.302 106H200.45V97.768H200.52L201.346 99.406L203.684 103.662L206.022 99.406L206.848 97.768H206.918V106H208.066V96.228H206.554L203.74 101.492H203.67L200.87 96.228H199.302V106ZM211.271 97.082C211.747 97.082 211.957 96.83 211.957 96.452V96.27C211.957 95.892 211.747 95.64 211.271 95.64C210.795 95.64 210.585 95.892 210.585 96.27V96.452C210.585 96.83 210.795 97.082 211.271 97.082ZM210.711 106H211.831V98.776H210.711V106ZM217.367 106V105.02H215.897V99.756H217.479V98.776H215.897V96.774H214.889V98.118C214.889 98.608 214.735 98.776 214.259 98.776H213.587V99.756H214.777V104.81C214.777 105.51 215.197 106 215.967 106H217.367ZM220 97.082C220.476 97.082 220.686 96.83 220.686 96.452V96.27C220.686 95.892 220.476 95.64 220 95.64C219.524 95.64 219.314 95.892 219.314 96.27V96.452C219.314 96.83 219.524 97.082 220 97.082ZM219.44 106H220.56V98.776H219.44V106ZM229.19 106.798C229.19 105.608 228.42 104.88 226.628 104.88H225.088C224.43 104.88 223.982 104.768 223.982 104.334C223.982 103.886 224.458 103.648 224.934 103.522C225.144 103.564 225.396 103.592 225.634 103.592C227.286 103.592 228.364 102.57 228.364 101.1C228.364 100.33 228.056 99.686 227.538 99.238V98.776H228.91V97.796H227.832C227.23 97.796 226.992 98.202 226.992 98.762V98.888C226.6 98.706 226.138 98.608 225.62 98.608C223.982 98.608 222.904 99.63 222.904 101.1C222.904 102.108 223.408 102.906 224.262 103.312V103.368C223.534 103.55 223.016 103.9 223.016 104.628C223.016 105.118 223.254 105.44 223.66 105.636V105.79C222.946 105.986 222.512 106.406 222.512 107.19C222.512 108.324 223.436 108.968 225.69 108.968C228.014 108.968 229.19 108.282 229.19 106.798ZM228.14 106.882C228.14 107.666 227.412 108.058 226.166 108.058H225.13C223.996 108.058 223.562 107.54 223.562 106.91C223.562 106.462 223.772 106.14 224.234 105.93H226.642C227.762 105.93 228.14 106.308 228.14 106.882ZM225.634 102.696C224.682 102.696 224.08 102.248 224.08 101.296V100.904C224.08 99.952 224.682 99.504 225.634 99.504C226.586 99.504 227.188 99.952 227.188 100.904V101.296C227.188 102.248 226.586 102.696 225.634 102.696ZM236.495 106V105.02H235.669V101.044C235.669 99.518 234.633 98.608 232.897 98.608C231.595 98.608 230.727 99.252 230.335 100.022L231.007 100.652C231.399 99.994 231.973 99.574 232.841 99.574C233.989 99.574 234.549 100.134 234.549 101.156V101.87H233.121C231.021 101.87 230.041 102.626 230.041 103.984C230.041 105.328 230.937 106.168 232.463 106.168C233.471 106.168 234.241 105.706 234.549 104.824H234.619C234.703 105.496 235.039 106 235.865 106H236.495ZM232.645 105.216C231.777 105.216 231.217 104.81 231.217 104.096V103.802C231.217 103.102 231.791 102.71 233.065 102.71H234.549V103.9C234.549 104.642 233.751 105.216 232.645 105.216ZM241.25 106V105.02H239.78V99.756H241.362V98.776H239.78V96.774H238.772V98.118C238.772 98.608 238.618 98.776 238.142 98.776H237.47V99.756H238.66V104.81C238.66 105.51 239.08 106 239.85 106H241.25ZM245.983 106.168C247.341 106.168 248.377 105.496 248.839 104.516L248.041 103.942C247.663 104.74 246.963 105.188 246.053 105.188C244.709 105.188 243.911 104.25 243.911 103.004V102.668H249.105V102.136C249.105 100.092 247.915 98.608 245.983 98.608C244.023 98.608 242.735 100.092 242.735 102.388C242.735 104.684 244.023 106.168 245.983 106.168ZM245.983 99.546C247.131 99.546 247.901 100.4 247.901 101.674V101.828H243.911V101.73C243.911 100.47 244.765 99.546 245.983 99.546ZM255.731 106H256.851V95.64H255.731V99.952H255.675C255.297 99.042 254.555 98.608 253.561 98.608C251.755 98.608 250.621 100.078 250.621 102.388C250.621 104.698 251.755 106.168 253.561 106.168C254.555 106.168 255.241 105.72 255.675 104.824H255.731V106ZM253.869 105.16C252.609 105.16 251.825 104.292 251.825 103.004V101.772C251.825 100.484 252.609 99.616 253.869 99.616C254.891 99.616 255.731 100.204 255.731 101.002V103.69C255.731 104.628 254.891 105.16 253.869 105.16ZM260.246 106.168C260.834 106.168 261.1 105.832 261.1 105.356V105.174C261.1 104.698 260.834 104.362 260.246 104.362C259.658 104.362 259.392 104.698 259.392 105.174V105.356C259.392 105.832 259.658 106.168 260.246 106.168ZM260.246 100.414C260.834 100.414 261.1 100.078 261.1 99.602V99.42C261.1 98.944 260.834 98.608 260.246 98.608C259.658 98.608 259.392 98.944 259.392 99.42V99.602C259.392 100.078 259.658 100.414 260.246 100.414Z" fill="#121619"/>
<path d="M407.462 308V306.6H402.786V303.744H407.028V302.344H402.786V299.628H407.462V298.228H401.204V308H407.462ZM408.739 308H410.363L412.113 305.354H412.155L413.835 308H415.599L413.065 304.304L415.557 300.72H413.933L412.253 303.254H412.211L410.573 300.72H408.809L411.301 304.318L408.739 308ZM423.323 308V306.754H422.553V303.1C422.553 301.476 421.503 300.552 419.627 300.552C418.213 300.552 417.359 301.154 416.883 301.966L417.793 302.792C418.157 302.218 418.675 301.798 419.529 301.798C420.551 301.798 421.027 302.316 421.027 303.198V303.814H419.711C417.681 303.814 416.603 304.556 416.603 305.998C416.603 307.314 417.457 308.168 418.955 308.168C420.019 308.168 420.803 307.692 421.083 306.782H421.153C421.251 307.496 421.671 308 422.469 308H423.323ZM419.389 307.006C418.633 307.006 418.157 306.67 418.157 306.026V305.774C418.157 305.144 418.675 304.794 419.739 304.794H421.027V305.844C421.027 306.558 420.327 307.006 419.389 307.006ZM427.792 308.168C429.192 308.168 430.186 307.51 430.662 306.32L429.5 305.704C429.192 306.432 428.674 306.908 427.792 306.908C426.672 306.908 426.098 306.138 426.098 305.018V303.716C426.098 302.596 426.672 301.826 427.792 301.826C428.618 301.826 429.136 302.26 429.346 302.932L430.606 302.344C430.172 301.266 429.248 300.552 427.792 300.552C425.692 300.552 424.488 302.036 424.488 304.36C424.488 306.684 425.692 308.168 427.792 308.168ZM435.621 308V306.754H434.207V301.966H435.733V300.72H434.207V298.732H432.835V300.006C432.835 300.51 432.667 300.72 432.163 300.72H431.547V301.966H432.681V306.418C432.681 307.412 433.241 308 434.291 308H435.621ZM445.217 308L448.465 298.228H446.869L445.315 303.058L444.363 306.46H444.307L443.369 303.058L441.815 298.228H440.177L443.383 308H445.217ZM455.677 308V306.754H454.907V303.1C454.907 301.476 453.857 300.552 451.981 300.552C450.567 300.552 449.713 301.154 449.237 301.966L450.147 302.792C450.511 302.218 451.029 301.798 451.883 301.798C452.905 301.798 453.381 302.316 453.381 303.198V303.814H452.065C450.035 303.814 448.957 304.556 448.957 305.998C448.957 307.314 449.811 308.168 451.309 308.168C452.373 308.168 453.157 307.692 453.437 306.782H453.507C453.605 307.496 454.025 308 454.823 308H455.677ZM451.743 307.006C450.987 307.006 450.511 306.67 450.511 306.026V305.774C450.511 305.144 451.029 304.794 452.093 304.794H453.381V305.844C453.381 306.558 452.681 307.006 451.743 307.006ZM459.867 308V306.754H458.859V297.64H457.333V306.488C457.333 307.426 457.851 308 458.887 308H459.867ZM465.895 308H467.421V300.72H465.895V305.592C465.895 306.446 465.125 306.852 464.341 306.852C463.403 306.852 462.941 306.264 462.941 305.158V300.72H461.415V305.354C461.415 307.146 462.297 308.168 463.795 308.168C464.999 308.168 465.573 307.51 465.839 306.796H465.895V308ZM472.622 308.168C473.98 308.168 475.044 307.58 475.59 306.698L474.694 305.816C474.274 306.488 473.672 306.908 472.776 306.908C471.544 306.908 470.858 306.11 470.858 304.99V304.752H475.856V304.178C475.856 302.162 474.764 300.552 472.622 300.552C470.55 300.552 469.276 302.036 469.276 304.36C469.276 306.684 470.55 308.168 472.622 308.168ZM472.622 301.742C473.63 301.742 474.246 302.484 474.246 303.604V303.744H470.858V303.646C470.858 302.526 471.572 301.742 472.622 301.742Z" fill="#198038"/>
<line x1="211.5" y1="657" x2="211.5" y2="663" stroke="black"/>
<line x1="330.5" y1="657" x2="330.5" y2="663" stroke="black"/>
<line x1="449.5" y1="657" x2="449.5" y2="663" stroke="black"/>
<line x1="568.5" y1="657" x2="568.5" y2="663" stroke="black"/>
<line x1="688.5" y1="657" x2="688.5" y2="663" stroke="black"/>
<line x1="807.5" y1="657" x2="807.5" y2="663" stroke="black"/>
<line x1="921" y1="657" x2="921" y2="663" stroke="black"/>
<path d="M198.62 677.346V676.142H194.966V677.346H198.62ZM203.952 681.168C206.29 681.168 207.312 679.306 207.312 676.114C207.312 672.922 206.29 671.06 203.952 671.06C201.614 671.06 200.592 672.922 200.592 676.114C200.592 679.306 201.614 681.168 203.952 681.168ZM203.952 680.146C202.426 680.146 201.824 678.802 201.824 676.912V675.316C201.824 673.426 202.426 672.082 203.952 672.082C205.478 672.082 206.08 673.426 206.08 675.316V676.912C206.08 678.802 205.478 680.146 203.952 680.146ZM210.21 681.168C210.798 681.168 211.064 680.832 211.064 680.356V680.174C211.064 679.698 210.798 679.362 210.21 679.362C209.622 679.362 209.356 679.698 209.356 680.174V680.356C209.356 680.832 209.622 681.168 210.21 681.168ZM218.651 681V679.082H220.065V678.102H218.651V671.228H216.901L212.813 678.046V679.082H217.531V681H218.651ZM217.461 672.138H217.531V678.102H213.919L217.461 672.138Z" fill="#121619"/>
<path d="M62.2 661.168C64.538 661.168 65.56 659.306 65.56 656.114C65.56 652.922 64.538 651.06 62.2 651.06C59.862 651.06 58.84 652.922 58.84 656.114C58.84 659.306 59.862 661.168 62.2 661.168ZM62.2 660.146C60.674 660.146 60.072 658.802 60.072 656.912V655.316C60.072 653.426 60.674 652.082 62.2 652.082C63.726 652.082 64.328 653.426 64.328 655.316V656.912C64.328 658.802 63.726 660.146 62.2 660.146ZM68.4585 661.168C69.0465 661.168 69.3125 660.832 69.3125 660.356V660.174C69.3125 659.698 69.0465 659.362 68.4585 659.362C67.8705 659.362 67.6045 659.698 67.6045 660.174V660.356C67.6045 660.832 67.8705 661.168 68.4585 661.168ZM74.729 661.168C77.067 661.168 78.089 659.306 78.089 656.114C78.089 652.922 77.067 651.06 74.729 651.06C72.391 651.06 71.369 652.922 71.369 656.114C71.369 659.306 72.391 661.168 74.729 661.168ZM74.729 660.146C73.203 660.146 72.601 658.802 72.601 656.912V655.316C72.601 653.426 73.203 652.082 74.729 652.082C76.255 652.082 76.857 653.426 76.857 655.316V656.912C76.857 658.802 76.255 660.146 74.729 660.146Z" fill="#121619"/>
<path d="M62.2 585.168C64.538 585.168 65.56 583.306 65.56 580.114C65.56 576.922 64.538 575.06 62.2 575.06C59.862 575.06 58.84 576.922 58.84 580.114C58.84 583.306 59.862 585.168 62.2 585.168ZM62.2 584.146C60.674 584.146 60.072 582.802 60.072 580.912V579.316C60.072 577.426 60.674 576.082 62.2 576.082C63.726 576.082 64.328 577.426 64.328 579.316V580.912C64.328 582.802 63.726 584.146 62.2 584.146ZM68.4585 585.168C69.0465 585.168 69.3125 584.832 69.3125 584.356V584.174C69.3125 583.698 69.0465 583.362 68.4585 583.362C67.8705 583.362 67.6045 583.698 67.6045 584.174V584.356C67.6045 584.832 67.8705 585.168 68.4585 585.168ZM77.501 575.228H72.265L71.915 580.604L72.909 580.744C73.315 580.296 73.763 579.918 74.659 579.918C75.989 579.918 76.703 580.66 76.703 581.948V582.088C76.703 583.376 75.989 584.118 74.659 584.118C73.483 584.118 72.993 583.6 72.489 582.83L71.607 583.502C72.195 584.342 73.035 585.168 74.659 585.168C76.717 585.168 77.949 583.838 77.949 581.934C77.949 580.044 76.717 578.91 75.037 578.91C74.015 578.91 73.497 579.33 73.035 579.988H72.937L73.217 576.264H77.501V575.228Z" fill="#121619"/>
<path d="M65.658 509V507.964H63.138V499.228H61.304L58.714 501.65L59.4 502.392L61.864 500.096H61.962V507.964H59.232V509H65.658ZM68.4585 509.168C69.0465 509.168 69.3125 508.832 69.3125 508.356V508.174C69.3125 507.698 69.0465 507.362 68.4585 507.362C67.8705 507.362 67.6045 507.698 67.6045 508.174V508.356C67.6045 508.832 67.8705 509.168 68.4585 509.168ZM74.729 509.168C77.067 509.168 78.089 507.306 78.089 504.114C78.089 500.922 77.067 499.06 74.729 499.06C72.391 499.06 71.369 500.922 71.369 504.114C71.369 507.306 72.391 509.168 74.729 509.168ZM74.729 508.146C73.203 508.146 72.601 506.802 72.601 504.912V503.316C72.601 501.426 73.203 500.082 74.729 500.082C76.255 500.082 76.857 501.426 76.857 503.316V504.912C76.857 506.802 76.255 508.146 74.729 508.146Z" fill="#121619"/>
<path d="M65.658 427V425.964H63.138V417.228H61.304L58.714 419.65L59.4 420.392L61.864 418.096H61.962V425.964H59.232V427H65.658ZM68.4585 427.168C69.0465 427.168 69.3125 426.832 69.3125 426.356V426.174C69.3125 425.698 69.0465 425.362 68.4585 425.362C67.8705 425.362 67.6045 425.698 67.6045 426.174V426.356C67.6045 426.832 67.8705 427.168 68.4585 427.168ZM77.501 417.228H72.265L71.915 422.604L72.909 422.744C73.315 422.296 73.763 421.918 74.659 421.918C75.989 421.918 76.703 422.66 76.703 423.948V424.088C76.703 425.376 75.989 426.118 74.659 426.118C73.483 426.118 72.993 425.6 72.489 424.83L71.607 425.502C72.195 426.342 73.035 427.168 74.659 427.168C76.717 427.168 77.949 425.838 77.949 423.934C77.949 422.044 76.717 420.91 75.037 420.91C74.015 420.91 73.497 421.33 73.035 421.988H72.937L73.217 418.264H77.501V417.228Z" fill="#121619"/>
<path d="M65.462 348.964H60.324L62.956 346.598C64.202 345.478 65.098 344.414 65.098 342.902C65.098 341.236 64.006 340.06 62.102 340.06C60.212 340.06 59.344 341.208 58.966 342.356L60.016 342.762C60.282 341.838 60.842 341.11 62.046 341.11C63.25 341.11 63.852 341.852 63.852 342.93V343.098C63.852 344.036 63.152 345.016 62.242 345.856L59.05 348.796V350H65.462V348.964ZM68.4585 350.168C69.0465 350.168 69.3125 349.832 69.3125 349.356V349.174C69.3125 348.698 69.0465 348.362 68.4585 348.362C67.8705 348.362 67.6045 348.698 67.6045 349.174V349.356C67.6045 349.832 67.8705 350.168 68.4585 350.168ZM74.729 350.168C77.067 350.168 78.089 348.306 78.089 345.114C78.089 341.922 77.067 340.06 74.729 340.06C72.391 340.06 71.369 341.922 71.369 345.114C71.369 348.306 72.391 350.168 74.729 350.168ZM74.729 349.146C73.203 349.146 72.601 347.802 72.601 345.912V344.316C72.601 342.426 73.203 341.082 74.729 341.082C76.255 341.082 76.857 342.426 76.857 344.316V345.912C76.857 347.802 76.255 349.146 74.729 349.146Z" fill="#121619"/>
<path d="M65.462 266.964H60.324L62.956 264.598C64.202 263.478 65.098 262.414 65.098 260.902C65.098 259.236 64.006 258.06 62.102 258.06C60.212 258.06 59.344 259.208 58.966 260.356L60.016 260.762C60.282 259.838 60.842 259.11 62.046 259.11C63.25 259.11 63.852 259.852 63.852 260.93V261.098C63.852 262.036 63.152 263.016 62.242 263.856L59.05 266.796V268H65.462V266.964ZM68.4585 268.168C69.0465 268.168 69.3125 267.832 69.3125 267.356V267.174C69.3125 266.698 69.0465 266.362 68.4585 266.362C67.8705 266.362 67.6045 266.698 67.6045 267.174V267.356C67.6045 267.832 67.8705 268.168 68.4585 268.168ZM77.501 258.228H72.265L71.915 263.604L72.909 263.744C73.315 263.296 73.763 262.918 74.659 262.918C75.989 262.918 76.703 263.66 76.703 264.948V265.088C76.703 266.376 75.989 267.118 74.659 267.118C73.483 267.118 72.993 266.6 72.489 265.83L71.607 266.502C72.195 267.342 73.035 268.168 74.659 268.168C76.717 268.168 77.949 266.838 77.949 264.934C77.949 263.044 76.717 261.91 75.037 261.91C74.015 261.91 73.497 262.33 73.035 262.988H72.937L73.217 259.264H77.501V258.228Z" fill="#121619"/>
<path d="M60.59 185.372V186.394H61.738C63.11 186.394 63.838 187.052 63.838 188.2V188.312C63.838 189.46 63.11 190.118 61.738 190.118C60.548 190.118 59.974 189.6 59.47 188.83L58.588 189.502C59.19 190.342 60.058 191.168 61.752 191.168C63.74 191.168 65.07 190.006 65.07 188.326C65.07 186.856 64.062 186.072 63.012 185.862V185.806C64.048 185.54 64.888 184.784 64.888 183.524C64.888 181.942 63.572 181.06 61.92 181.06C60.352 181.06 59.498 181.872 59.008 182.656L59.876 183.328C60.282 182.586 60.884 182.11 61.892 182.11C62.928 182.11 63.642 182.628 63.642 183.65V183.748C63.642 184.686 62.97 185.372 61.654 185.372H60.59ZM68.4585 191.168C69.0465 191.168 69.3125 190.832 69.3125 190.356V190.174C69.3125 189.698 69.0465 189.362 68.4585 189.362C67.8705 189.362 67.6045 189.698 67.6045 190.174V190.356C67.6045 190.832 67.8705 191.168 68.4585 191.168ZM74.729 191.168C77.067 191.168 78.089 189.306 78.089 186.114C78.089 182.922 77.067 181.06 74.729 181.06C72.391 181.06 71.369 182.922 71.369 186.114C71.369 189.306 72.391 191.168 74.729 191.168ZM74.729 190.146C73.203 190.146 72.601 188.802 72.601 186.912V185.316C72.601 183.426 73.203 182.082 74.729 182.082C76.255 182.082 76.857 183.426 76.857 185.316V186.912C76.857 188.802 76.255 190.146 74.729 190.146Z" fill="#121619"/>
<path d="M60.59 107.372V108.394H61.738C63.11 108.394 63.838 109.052 63.838 110.2V110.312C63.838 111.46 63.11 112.118 61.738 112.118C60.548 112.118 59.974 111.6 59.47 110.83L58.588 111.502C59.19 112.342 60.058 113.168 61.752 113.168C63.74 113.168 65.07 112.006 65.07 110.326C65.07 108.856 64.062 108.072 63.012 107.862V107.806C64.048 107.54 64.888 106.784 64.888 105.524C64.888 103.942 63.572 103.06 61.92 103.06C60.352 103.06 59.498 103.872 59.008 104.656L59.876 105.328C60.282 104.586 60.884 104.11 61.892 104.11C62.928 104.11 63.642 104.628 63.642 105.65V105.748C63.642 106.686 62.97 107.372 61.654 107.372H60.59ZM68.4585 113.168C69.0465 113.168 69.3125 112.832 69.3125 112.356V112.174C69.3125 111.698 69.0465 111.362 68.4585 111.362C67.8705 111.362 67.6045 111.698 67.6045 112.174V112.356C67.6045 112.832 67.8705 113.168 68.4585 113.168ZM77.501 103.228H72.265L71.915 108.604L72.909 108.744C73.315 108.296 73.763 107.918 74.659 107.918C75.989 107.918 76.703 108.66 76.703 109.948V110.088C76.703 111.376 75.989 112.118 74.659 112.118C73.483 112.118 72.993 111.6 72.489 110.83L71.607 111.502C72.195 112.342 73.035 113.168 74.659 113.168C76.717 113.168 77.949 111.838 77.949 109.934C77.949 108.044 76.717 106.91 75.037 106.91C74.015 106.91 73.497 107.33 73.035 107.988H72.937L73.217 104.264H77.501V103.228Z" fill="#121619"/>
<path d="M64.37 32V30.082H65.784V29.102H64.37V22.228H62.62L58.532 29.046V30.082H63.25V32H64.37ZM63.18 23.138H63.25V29.102H59.638L63.18 23.138ZM68.4585 32.168C69.0465 32.168 69.3125 31.832 69.3125 31.356V31.174C69.3125 30.698 69.0465 30.362 68.4585 30.362C67.8705 30.362 67.6045 30.698 67.6045 31.174V31.356C67.6045 31.832 67.8705 32.168 68.4585 32.168ZM74.729 32.168C77.067 32.168 78.089 30.306 78.089 27.114C78.089 23.922 77.067 22.06 74.729 22.06C72.391 22.06 71.369 23.922 71.369 27.114C71.369 30.306 72.391 32.168 74.729 32.168ZM74.729 31.146C73.203 31.146 72.601 29.802 72.601 27.912V26.316C72.601 24.426 73.203 23.082 74.729 23.082C76.255 23.082 76.857 24.426 76.857 26.316V27.912C76.857 29.802 76.255 31.146 74.729 31.146Z" fill="#121619"/>
<path d="M318.62 677.346V676.142H314.966V677.346H318.62ZM323.952 681.168C326.29 681.168 327.312 679.306 327.312 676.114C327.312 672.922 326.29 671.06 323.952 671.06C321.614 671.06 320.592 672.922 320.592 676.114C320.592 679.306 321.614 681.168 323.952 681.168ZM323.952 680.146C322.426 680.146 321.824 678.802 321.824 676.912V675.316C321.824 673.426 322.426 672.082 323.952 672.082C325.478 672.082 326.08 673.426 326.08 675.316V676.912C326.08 678.802 325.478 680.146 323.952 680.146ZM330.21 681.168C330.798 681.168 331.064 680.832 331.064 680.356V680.174C331.064 679.698 330.798 679.362 330.21 679.362C329.622 679.362 329.356 679.698 329.356 680.174V680.356C329.356 680.832 329.622 681.168 330.21 681.168ZM339.743 679.964H334.605L337.237 677.598C338.483 676.478 339.379 675.414 339.379 673.902C339.379 672.236 338.287 671.06 336.383 671.06C334.493 671.06 333.625 672.208 333.247 673.356L334.297 673.762C334.563 672.838 335.123 672.11 336.327 672.11C337.531 672.11 338.133 672.852 338.133 673.93V674.098C338.133 675.036 337.433 676.016 336.523 676.856L333.331 679.796V681H339.743V679.964Z" fill="#121619"/>
<path d="M444.2 681.168C446.538 681.168 447.56 679.306 447.56 676.114C447.56 672.922 446.538 671.06 444.2 671.06C441.862 671.06 440.84 672.922 440.84 676.114C440.84 679.306 441.862 681.168 444.2 681.168ZM444.2 680.146C442.674 680.146 442.072 678.802 442.072 676.912V675.316C442.072 673.426 442.674 672.082 444.2 672.082C445.726 672.082 446.328 673.426 446.328 675.316V676.912C446.328 678.802 445.726 680.146 444.2 680.146ZM450.459 681.168C451.047 681.168 451.313 680.832 451.313 680.356V680.174C451.313 679.698 451.047 679.362 450.459 679.362C449.871 679.362 449.605 679.698 449.605 680.174V680.356C449.605 680.832 449.871 681.168 450.459 681.168ZM456.729 681.168C459.067 681.168 460.089 679.306 460.089 676.114C460.089 672.922 459.067 671.06 456.729 671.06C454.391 671.06 453.369 672.922 453.369 676.114C453.369 679.306 454.391 681.168 456.729 681.168ZM456.729 680.146C455.203 680.146 454.601 678.802 454.601 676.912V675.316C454.601 673.426 455.203 672.082 456.729 672.082C458.255 672.082 458.857 673.426 458.857 675.316V676.912C458.857 678.802 458.255 680.146 456.729 680.146Z" fill="#121619"/>
<path d="M564.2 681.168C566.538 681.168 567.56 679.306 567.56 676.114C567.56 672.922 566.538 671.06 564.2 671.06C561.862 671.06 560.84 672.922 560.84 676.114C560.84 679.306 561.862 681.168 564.2 681.168ZM564.2 680.146C562.674 680.146 562.072 678.802 562.072 676.912V675.316C562.072 673.426 562.674 672.082 564.2 672.082C565.726 672.082 566.328 673.426 566.328 675.316V676.912C566.328 678.802 565.726 680.146 564.2 680.146ZM570.459 681.168C571.047 681.168 571.313 680.832 571.313 680.356V680.174C571.313 679.698 571.047 679.362 570.459 679.362C569.871 679.362 569.605 679.698 569.605 680.174V680.356C569.605 680.832 569.871 681.168 570.459 681.168ZM579.991 679.964H574.853L577.485 677.598C578.731 676.478 579.627 675.414 579.627 673.902C579.627 672.236 578.535 671.06 576.631 671.06C574.741 671.06 573.873 672.208 573.495 673.356L574.545 673.762C574.811 672.838 575.371 672.11 576.575 672.11C577.779 672.11 578.381 672.852 578.381 673.93V674.098C578.381 675.036 577.681 676.016 576.771 676.856L573.579 679.796V681H579.991V679.964Z" fill="#121619"/>
<path d="M683.2 681.168C685.538 681.168 686.56 679.306 686.56 676.114C686.56 672.922 685.538 671.06 683.2 671.06C680.862 671.06 679.84 672.922 679.84 676.114C679.84 679.306 680.862 681.168 683.2 681.168ZM683.2 680.146C681.674 680.146 681.072 678.802 681.072 676.912V675.316C681.072 673.426 681.674 672.082 683.2 672.082C684.726 672.082 685.328 673.426 685.328 675.316V676.912C685.328 678.802 684.726 680.146 683.2 680.146ZM689.459 681.168C690.047 681.168 690.313 680.832 690.313 680.356V680.174C690.313 679.698 690.047 679.362 689.459 679.362C688.871 679.362 688.605 679.698 688.605 680.174V680.356C688.605 680.832 688.871 681.168 689.459 681.168ZM697.899 681V679.082H699.313V678.102H697.899V671.228H696.149L692.061 678.046V679.082H696.779V681H697.899ZM696.709 672.138H696.779V678.102H693.167L696.709 672.138Z" fill="#121619"/>
<path d="M802.2 681.168C804.538 681.168 805.56 679.306 805.56 676.114C805.56 672.922 804.538 671.06 802.2 671.06C799.862 671.06 798.84 672.922 798.84 676.114C798.84 679.306 799.862 681.168 802.2 681.168ZM802.2 680.146C800.674 680.146 800.072 678.802 800.072 676.912V675.316C800.072 673.426 800.674 672.082 802.2 672.082C803.726 672.082 804.328 673.426 804.328 675.316V676.912C804.328 678.802 803.726 680.146 802.2 680.146ZM808.459 681.168C809.047 681.168 809.313 680.832 809.313 680.356V680.174C809.313 679.698 809.047 679.362 808.459 679.362C807.871 679.362 807.605 679.698 807.605 680.174V680.356C807.605 680.832 807.871 681.168 808.459 681.168ZM814.743 681.168C816.703 681.168 817.991 679.852 817.991 677.934C817.991 676.086 816.787 674.924 815.107 674.924C813.917 674.924 813.217 675.526 812.755 676.324L812.685 676.296C813.217 674.028 814.379 672.754 816.465 671.228H814.953C813.385 672.25 811.467 674.518 811.467 677.416C811.467 679.74 812.713 681.168 814.743 681.168ZM814.729 680.146C813.441 680.146 812.685 679.404 812.685 678.088V677.976C812.685 676.66 813.441 675.918 814.729 675.918C816.017 675.918 816.773 676.66 816.773 677.976V678.088C816.773 679.404 816.017 680.146 814.729 680.146Z" fill="#121619"/>
<path d="M914.2 681.168C916.538 681.168 917.56 679.306 917.56 676.114C917.56 672.922 916.538 671.06 914.2 671.06C911.862 671.06 910.84 672.922 910.84 676.114C910.84 679.306 911.862 681.168 914.2 681.168ZM914.2 680.146C912.674 680.146 912.072 678.802 912.072 676.912V675.316C912.072 673.426 912.674 672.082 914.2 672.082C915.726 672.082 916.328 673.426 916.328 675.316V676.912C916.328 678.802 915.726 680.146 914.2 680.146ZM920.459 681.168C921.047 681.168 921.313 680.832 921.313 680.356V680.174C921.313 679.698 921.047 679.362 920.459 679.362C919.871 679.362 919.605 679.698 919.605 680.174V680.356C919.605 680.832 919.871 681.168 920.459 681.168ZM926.729 681.168C928.955 681.168 930.117 679.95 930.117 678.34C930.117 677.01 929.319 676.24 928.143 675.918V675.806C929.165 675.456 929.823 674.63 929.823 673.51C929.823 672.026 928.675 671.06 926.729 671.06C924.783 671.06 923.635 672.026 923.635 673.51C923.635 674.63 924.293 675.456 925.315 675.806V675.918C924.139 676.24 923.341 677.01 923.341 678.34C923.341 679.95 924.503 681.168 926.729 681.168ZM926.729 680.146C925.371 680.146 924.587 679.502 924.587 678.396V678.102C924.587 676.996 925.371 676.352 926.729 676.352C928.087 676.352 928.871 676.996 928.871 678.102V678.396C928.871 679.502 928.087 680.146 926.729 680.146ZM926.729 675.372C925.511 675.372 924.853 674.826 924.853 673.832V673.622C924.853 672.628 925.511 672.082 926.729 672.082C927.947 672.082 928.605 672.628 928.605 673.622V673.832C928.605 674.826 927.947 675.372 926.729 675.372Z" fill="#121619"/>
<line x1="95" y1="581.5" x2="89" y2="581.5" stroke="black"/>
<line x1="95" y1="502.5" x2="89" y2="502.5" stroke="black"/>
<line x1="95" y1="423.5" x2="89" y2="423.5" stroke="black"/>
<line x1="95" y1="344.5" x2="89" y2="344.5" stroke="black"/>
<line x1="95" y1="264.5" x2="89" y2="264.5" stroke="black"/>
<line x1="95" y1="186.5" x2="89" y2="186.5" stroke="black"/>
<line x1="95" y1="107.5" x2="89" y2="107.5" stroke="black"/>
<line x1="95" y1="28" x2="89" y2="28" stroke="black"/>
<path d="M448.646 651.354C448.842 651.549 449.158 651.549 449.354 651.354L452.536 648.172C452.731 647.976 452.731 647.66 452.536 647.464C452.34 647.269 452.024 647.269 451.828 647.464L449 650.293L446.172 647.464C445.976 647.269 445.66 647.269 445.464 647.464C445.269 647.66 445.269 647.976 445.464 648.172L448.646 651.354ZM448.5 320L448.5 651L449.5 651L449.5 320L448.5 320Z" fill="#198038"/>
<path d="M490.962 309.932V309.05H489.632V305.55C489.632 304.668 489.086 303.912 488.302 303.758V303.534C489.086 303.38 489.632 302.624 489.632 301.742V298.242H490.962V297.36H489.786C489.044 297.36 488.666 297.864 488.666 298.508V301.868C488.666 302.666 488.092 303.1 487.308 303.1V304.192C488.092 304.192 488.666 304.626 488.666 305.424V308.784C488.666 309.428 489.044 309.932 489.786 309.932H490.962ZM506.673 297.36V298.242H508.003V301.742C508.003 302.624 508.549 303.38 509.333 303.534V303.758C508.549 303.912 508.003 304.668 508.003 305.55V309.05H506.673V309.932H507.849C508.591 309.932 508.969 309.428 508.969 308.784V305.424C508.969 304.626 509.543 304.192 510.327 304.192V303.1C509.543 303.1 508.969 302.666 508.969 301.868V298.508C508.969 297.864 508.591 297.36 507.849 297.36H506.673Z" fill="#198038"/>
<line x1="505.5" y1="344" x2="505.5" y2="653" stroke="#0043CE" stroke-dasharray="6 6"/>
<line x1="688.5" y1="33" x2="688.5" y2="653" stroke="#8A3FFC" stroke-dasharray="6 6"/>
<line x1="125" y1="68.5" x2="181" y2="68.5" stroke="#8A3FFC"/>
<line x1="125" y1="102.5" x2="181" y2="102.5" stroke="#0043CE"/>
<path d="M294.962 73.932V73.05H293.632V69.55C293.632 68.668 293.086 67.912 292.302 67.758V67.534C293.086 67.38 293.632 66.624 293.632 65.742V62.242H294.962V61.36H293.786C293.044 61.36 292.666 61.864 292.666 62.508V65.868C292.666 66.666 292.092 67.1 291.308 67.1V68.192C292.092 68.192 292.666 68.626 292.666 69.424V72.784C292.666 73.428 293.044 73.932 293.786 73.932H294.962ZM310.673 61.36V62.242H312.003V65.742C312.003 66.624 312.549 67.38 313.333 67.534V67.758C312.549 67.912 312.003 68.668 312.003 69.55V73.05H310.673V73.932H311.849C312.591 73.932 312.969 73.428 312.969 72.784V69.424C312.969 68.626 313.543 68.192 314.327 68.192V67.1C313.543 67.1 312.969 66.666 312.969 65.868V62.508C312.969 61.864 312.591 61.36 311.849 61.36H310.673Z" fill="black"/>
<path d="M307.682 66.3145C307.682 63.6382 306.144 62 304.15 62C301.101 62 298.025 65.7306 298.025 69.4773C298.025 72.0239 299.506 73.7594 301.571 73.7594C304.563 73.7594 307.682 70.2072 307.682 66.3145ZM301.657 73.3863C300.489 73.3863 299.25 72.4131 299.25 69.8828C299.25 68.4068 299.72 65.9901 300.888 64.3681C301.928 62.9408 303.124 62.3568 304.078 62.3568C305.332 62.3568 306.543 63.3949 306.543 65.7306C306.543 67.1741 306.001 69.4287 305.047 70.9696C304.007 72.624 302.711 73.3863 301.657 73.3863Z" fill="black"/>
<path d="M275.962 107.932V107.05H274.632V103.55C274.632 102.668 274.086 101.912 273.302 101.758V101.534C274.086 101.38 274.632 100.624 274.632 99.742V96.242H275.962V95.36H274.786C274.044 95.36 273.666 95.864 273.666 96.508V99.868C273.666 100.666 273.092 101.1 272.308 101.1V102.192C273.092 102.192 273.666 102.626 273.666 103.424V106.784C273.666 107.428 274.044 107.932 274.786 107.932H275.962ZM291.673 95.36V96.242H293.003V99.742C293.003 100.624 293.549 101.38 294.333 101.534V101.758C293.549 101.912 293.003 102.668 293.003 103.55V107.05H291.673V107.932H292.849C293.591 107.932 293.969 107.428 293.969 106.784V103.424C293.969 102.626 294.543 102.192 295.327 102.192V101.1C294.543 101.1 293.969 100.666 293.969 99.868V96.508C293.969 95.864 293.591 95.36 292.849 95.36H291.673Z" fill="black"/>
<path d="M288.657 99.9307C288.657 97.2544 287.119 95.6162 285.125 95.6162C282.077 95.6162 279 99.3468 279 103.094C279 105.64 280.481 107.376 282.547 107.376C285.538 107.376 288.657 103.823 288.657 99.9307ZM282.632 107.003C281.464 107.003 280.225 106.029 280.225 103.499C280.225 102.023 280.695 99.6063 281.863 97.9843C282.903 96.557 284.099 95.973 285.054 95.973C286.307 95.973 287.518 97.0111 287.518 99.3468C287.518 100.79 286.977 103.045 286.022 104.586C284.982 106.24 283.686 107.003 282.632 107.003Z" fill="black"/>
<path d="M503.674 301.828C503.674 299.151 502.135 297.513 500.141 297.513C497.093 297.513 494.016 301.244 494.016 304.991C494.016 307.537 495.498 309.273 497.563 309.273C500.554 309.273 503.674 305.72 503.674 301.828ZM497.649 308.9C496.481 308.9 495.241 307.926 495.241 305.396C495.241 303.92 495.711 301.503 496.879 299.881C497.919 298.454 499.116 297.87 500.07 297.87C501.324 297.87 502.534 298.908 502.534 301.244C502.534 302.687 501.993 304.942 501.039 306.483C499.999 308.137 498.703 308.9 497.649 308.9Z" fill="#198038"/>
</g>
<defs>
<clipPath id="clip0_36_3965">
<rect width="960" height="751" fill="white"/>
</clipPath>
</defs>
</svg>
