<svg width="979" height="637" viewBox="0 0 979 637" fill="none" xmlns="http://www.w3.org/2000/svg">
<g clip-path="url(#clip0_35_3901)">
<rect x="0.5" y="0.5" width="978" height="636" fill="white" fill-opacity="0.8" stroke="#DDE1E6"/>
<rect opacity="0.4" y="578.013" width="1079" height="82.9596" fill="#F2F4F8"/>
<rect opacity="0.4" y="412.094" width="1079" height="82.9596" fill="#F2F4F8"/>
<rect opacity="0.4" y="246.175" width="1079" height="82.9596" fill="#F2F4F8"/>
<rect opacity="0.4" y="80.2559" width="1079" height="82.9596" fill="#F2F4F8"/>
<path d="M85 551L85 44" stroke="black"/>
<path d="M85 551H782" stroke="black"/>
<path d="M114 511C387.134 468.396 545.466 352.515 656 79" stroke="black"/>
<path d="M138 551C397.349 551 433.014 379.559 457 79" stroke="#A2191F"/>
<path d="M346.136 583.319H344.638V582.311C346.71 581.961 348.012 580.239 348.012 577.327C348.012 574.037 346.346 572.273 343.798 572.273C341.25 572.273 339.584 574.037 339.584 577.327C339.584 580.323 340.97 582.059 343.154 582.339V583.081C343.154 584.033 343.658 584.635 344.75 584.635H346.136V583.319ZM343.798 580.967C342.286 580.967 341.278 579.875 341.278 578.097V576.557C341.278 574.779 342.286 573.687 343.798 573.687C345.31 573.687 346.318 574.779 346.318 576.557V578.097C346.318 579.875 345.31 580.967 343.798 580.967ZM354.443 582.213H355.969V574.933H354.443V579.805C354.443 580.659 353.673 581.065 352.889 581.065C351.951 581.065 351.489 580.477 351.489 579.371V574.933H349.963V579.567C349.963 581.359 350.845 582.381 352.343 582.381C353.547 582.381 354.121 581.723 354.387 581.009H354.443V582.213ZM364.502 582.213V580.967H363.732V577.313C363.732 575.689 362.682 574.765 360.806 574.765C359.392 574.765 358.538 575.367 358.062 576.179L358.972 577.005C359.336 576.431 359.854 576.011 360.708 576.011C361.73 576.011 362.206 576.529 362.206 577.411V578.027H360.89C358.86 578.027 357.782 578.769 357.782 580.211C357.782 581.527 358.636 582.381 360.134 582.381C361.198 582.381 361.982 581.905 362.262 580.995H362.332C362.43 581.709 362.85 582.213 363.648 582.213H364.502ZM360.568 581.219C359.812 581.219 359.336 580.883 359.336 580.239V579.987C359.336 579.357 359.854 579.007 360.918 579.007H362.206V580.057C362.206 580.771 361.506 581.219 360.568 581.219ZM367.684 582.213V577.341C367.684 576.487 368.468 576.081 369.266 576.081C370.204 576.081 370.638 576.655 370.638 577.789V582.213H372.164V577.593C372.164 575.801 371.282 574.765 369.798 574.765C368.678 574.765 368.062 575.353 367.754 576.137H367.684V574.933H366.158V582.213H367.684ZM377.785 582.213V580.967H376.371V576.179H377.897V574.933H376.371V572.945H374.999V574.219C374.999 574.723 374.831 574.933 374.327 574.933H373.711V576.179H374.845V580.631C374.845 581.625 375.405 582.213 376.455 582.213H377.785ZM384.122 582.213H385.648V574.933H384.122V579.805C384.122 580.659 383.352 581.065 382.568 581.065C381.63 581.065 381.168 580.477 381.168 579.371V574.933H379.642V579.567C379.642 581.359 380.524 582.381 382.022 582.381C383.226 582.381 383.8 581.723 384.066 581.009H384.122V582.213ZM389.519 582.213V577.327C389.519 576.487 390.261 576.081 391.017 576.081C391.913 576.081 392.347 576.641 392.347 577.775V582.213H393.873V577.327C393.873 576.487 394.587 576.081 395.357 576.081C396.281 576.081 396.701 576.655 396.701 577.775V582.213H398.227V577.593C398.227 575.801 397.373 574.765 395.931 574.765C394.755 574.765 393.999 575.437 393.733 576.249H393.691C393.341 575.241 392.515 574.765 391.535 574.765C390.429 574.765 389.883 575.381 389.589 576.137H389.519V574.933H387.993V582.213H389.519ZM406.782 582.381C408.182 582.381 409.176 581.723 409.652 580.533L408.49 579.917C408.182 580.645 407.664 581.121 406.782 581.121C405.662 581.121 405.088 580.351 405.088 579.231V577.929C405.088 576.809 405.662 576.039 406.782 576.039C407.608 576.039 408.126 576.473 408.336 577.145L409.596 576.557C409.162 575.479 408.238 574.765 406.782 574.765C404.682 574.765 403.478 576.249 403.478 578.573C403.478 580.897 404.682 582.381 406.782 582.381ZM412.034 573.631C412.664 573.631 412.93 573.295 412.93 572.833V572.595C412.93 572.133 412.664 571.797 412.034 571.797C411.404 571.797 411.124 572.133 411.124 572.595V572.833C411.124 573.295 411.404 573.631 412.034 573.631ZM411.264 582.213H412.79V574.933H411.264V582.213ZM416.655 582.213V577.565C416.655 576.809 417.327 576.403 418.531 576.403H419.133V574.933H418.727C417.565 574.933 416.935 575.591 416.725 576.333H416.655V574.933H415.129V582.213H416.655ZM423.395 582.381C424.795 582.381 425.789 581.723 426.265 580.533L425.103 579.917C424.795 580.645 424.277 581.121 423.395 581.121C422.275 581.121 421.701 580.351 421.701 579.231V577.929C421.701 576.809 422.275 576.039 423.395 576.039C424.221 576.039 424.739 576.473 424.949 577.145L426.209 576.557C425.775 575.479 424.851 574.765 423.395 574.765C421.295 574.765 420.091 576.249 420.091 578.573C420.091 580.897 421.295 582.381 423.395 582.381ZM432.287 582.213H433.813V574.933H432.287V579.805C432.287 580.659 431.517 581.065 430.733 581.065C429.795 581.065 429.333 580.477 429.333 579.371V574.933H427.807V579.567C427.807 581.359 428.689 582.381 430.187 582.381C431.391 582.381 431.965 581.723 432.231 581.009H432.287V582.213ZM436.928 573.631C437.558 573.631 437.824 573.295 437.824 572.833V572.595C437.824 572.133 437.558 571.797 436.928 571.797C436.298 571.797 436.018 572.133 436.018 572.595V572.833C436.018 573.295 436.298 573.631 436.928 573.631ZM436.158 582.213H437.684V574.933H436.158V582.213ZM443.369 582.213V580.967H441.955V576.179H443.481V574.933H441.955V572.945H440.583V574.219C440.583 574.723 440.415 574.933 439.911 574.933H439.295V576.179H440.429V580.631C440.429 581.625 440.989 582.213 442.039 582.213H443.369ZM451.579 582.381C452.979 582.381 453.973 581.723 454.449 580.533L453.287 579.917C452.979 580.645 452.461 581.121 451.579 581.121C450.459 581.121 449.885 580.351 449.885 579.231V577.929C449.885 576.809 450.459 576.039 451.579 576.039C452.405 576.039 452.923 576.473 453.133 577.145L454.393 576.557C453.959 575.479 453.035 574.765 451.579 574.765C449.479 574.765 448.275 576.249 448.275 578.573C448.275 580.897 449.479 582.381 451.579 582.381ZM458.836 582.381C460.866 582.381 462.182 580.897 462.182 578.573C462.182 576.249 460.866 574.765 458.836 574.765C456.806 574.765 455.49 576.249 455.49 578.573C455.49 580.897 456.806 582.381 458.836 582.381ZM458.836 581.121C457.8 581.121 457.1 580.477 457.1 579.189V577.957C457.1 576.669 457.8 576.025 458.836 576.025C459.872 576.025 460.572 576.669 460.572 577.957V579.189C460.572 580.477 459.872 581.121 458.836 581.121ZM465.568 582.213V577.327C465.568 576.487 466.31 576.081 467.066 576.081C467.962 576.081 468.396 576.641 468.396 577.775V582.213H469.922V577.327C469.922 576.487 470.636 576.081 471.406 576.081C472.33 576.081 472.75 576.655 472.75 577.775V582.213H474.276V577.593C474.276 575.801 473.422 574.765 471.98 574.765C470.804 574.765 470.048 575.437 469.782 576.249H469.74C469.39 575.241 468.564 574.765 467.584 574.765C466.478 574.765 465.932 575.381 465.638 576.137H465.568V574.933H464.042V582.213H465.568ZM476.548 585.013H478.074V581.009H478.144C478.452 581.863 479.222 582.381 480.188 582.381C482.022 582.381 483.086 580.967 483.086 578.573C483.086 576.179 482.022 574.765 480.188 574.765C479.222 574.765 478.452 575.269 478.144 576.137H478.074V574.933H476.548V585.013ZM479.726 581.065C478.802 581.065 478.074 580.561 478.074 579.819V577.327C478.074 576.585 478.802 576.081 479.726 576.081C480.776 576.081 481.476 576.823 481.476 577.943V579.203C481.476 580.323 480.776 581.065 479.726 581.065ZM487.527 582.213V580.967H486.519V571.853H484.993V580.701C484.993 581.639 485.511 582.213 486.547 582.213H487.527ZM492.001 582.381C493.359 582.381 494.423 581.793 494.969 580.911L494.073 580.029C493.653 580.701 493.051 581.121 492.155 581.121C490.923 581.121 490.237 580.323 490.237 579.203V578.965H495.235V578.391C495.235 576.375 494.143 574.765 492.001 574.765C489.929 574.765 488.655 576.249 488.655 578.573C488.655 580.897 489.929 582.381 492.001 582.381ZM492.001 575.955C493.009 575.955 493.625 576.697 493.625 577.817V577.957H490.237V577.859C490.237 576.739 490.951 575.955 492.001 575.955ZM496.081 582.213H497.705L499.455 579.567H499.497L501.177 582.213H502.941L500.407 578.517L502.899 574.933H501.275L499.595 577.467H499.553L497.915 574.933H496.151L498.643 578.531L496.081 582.213ZM505.247 573.631C505.877 573.631 506.143 573.295 506.143 572.833V572.595C506.143 572.133 505.877 571.797 505.247 571.797C504.617 571.797 504.337 572.133 504.337 572.595V572.833C504.337 573.295 504.617 573.631 505.247 573.631ZM504.477 582.213H506.003V574.933H504.477V582.213ZM511.688 582.213V580.967H510.274V576.179H511.8V574.933H510.274V572.945H508.902V574.219C508.902 574.723 508.734 574.933 508.23 574.933H507.614V576.179H508.748V580.631C508.748 581.625 509.308 582.213 510.358 582.213H511.688ZM516.625 579.217L516.163 580.799H516.093L515.673 579.217L514.217 574.933H512.691L515.337 582.535L514.917 583.767H513.685V585.013H514.567C515.701 585.013 516.135 584.635 516.485 583.655L519.551 574.933H518.081L516.625 579.217Z" fill="#121619"/>
<path d="M401.746 59.168C403.37 59.168 404.56 58.314 405.176 56.942L404.238 56.354C403.846 57.418 402.992 58.118 401.746 58.118C400.066 58.118 399.072 56.9 399.072 54.898V53.442C399.072 51.44 400.066 50.11 401.746 50.11C402.95 50.11 403.762 50.768 404.154 51.776L405.106 51.202C404.49 49.844 403.37 49.06 401.746 49.06C399.282 49.06 397.812 50.908 397.812 54.17C397.812 57.432 399.282 59.168 401.746 59.168ZM409.229 59V58.02H408.165V48.64H407.045V57.838C407.045 58.51 407.465 59 408.235 59H409.229ZM416.9 59V58.02H416.074V54.044C416.074 52.518 415.038 51.608 413.302 51.608C412 51.608 411.132 52.252 410.74 53.022L411.412 53.652C411.804 52.994 412.378 52.574 413.246 52.574C414.394 52.574 414.954 53.134 414.954 54.156V54.87H413.526C411.426 54.87 410.446 55.626 410.446 56.984C410.446 58.328 411.342 59.168 412.868 59.168C413.876 59.168 414.646 58.706 414.954 57.824H415.024C415.108 58.496 415.444 59 416.27 59H416.9ZM413.05 58.216C412.182 58.216 411.622 57.81 411.622 57.096V56.802C411.622 56.102 412.196 55.71 413.47 55.71H414.954V56.9C414.954 57.642 414.156 58.216 413.05 58.216ZM420.828 59.168C422.48 59.168 423.502 58.314 423.502 56.914C423.502 55.822 422.886 55.122 421.29 54.884L420.73 54.8C419.834 54.66 419.344 54.38 419.344 53.68C419.344 52.994 419.834 52.56 420.758 52.56C421.682 52.56 422.298 52.994 422.62 53.442L423.362 52.77C422.774 52.042 422.004 51.608 420.842 51.608C419.372 51.608 418.266 52.308 418.266 53.736C418.266 55.08 419.26 55.626 420.59 55.822L421.164 55.906C422.116 56.046 422.424 56.48 422.424 57.04C422.424 57.782 421.864 58.216 420.912 58.216C420.002 58.216 419.33 57.81 418.77 57.11L417.972 57.754C418.616 58.608 419.498 59.168 420.828 59.168ZM427.729 59.168C429.381 59.168 430.403 58.314 430.403 56.914C430.403 55.822 429.787 55.122 428.191 54.884L427.631 54.8C426.735 54.66 426.245 54.38 426.245 53.68C426.245 52.994 426.735 52.56 427.659 52.56C428.583 52.56 429.199 52.994 429.521 53.442L430.263 52.77C429.675 52.042 428.905 51.608 427.743 51.608C426.273 51.608 425.167 52.308 425.167 53.736C425.167 55.08 426.161 55.626 427.491 55.822L428.065 55.906C429.017 56.046 429.325 56.48 429.325 57.04C429.325 57.782 428.765 58.216 427.813 58.216C426.903 58.216 426.231 57.81 425.671 57.11L424.873 57.754C425.517 58.608 426.399 59.168 427.729 59.168ZM433.101 50.082C433.577 50.082 433.787 49.83 433.787 49.452V49.27C433.787 48.892 433.577 48.64 433.101 48.64C432.625 48.64 432.415 48.892 432.415 49.27V49.452C432.415 49.83 432.625 50.082 433.101 50.082ZM432.541 59H433.661V51.776H432.541V59ZM438.889 59.168C440.261 59.168 441.199 58.496 441.661 57.46L440.849 56.914C440.457 57.74 439.799 58.174 438.889 58.174C437.559 58.174 436.873 57.264 436.873 56.004V54.772C436.873 53.512 437.559 52.602 438.889 52.602C439.771 52.602 440.387 53.036 440.653 53.778L441.591 53.302C441.171 52.308 440.317 51.608 438.889 51.608C436.859 51.608 435.669 53.078 435.669 55.388C435.669 57.698 436.859 59.168 438.889 59.168ZM449.282 59V58.02H448.456V54.044C448.456 52.518 447.42 51.608 445.684 51.608C444.382 51.608 443.514 52.252 443.122 53.022L443.794 53.652C444.186 52.994 444.76 52.574 445.628 52.574C446.776 52.574 447.336 53.134 447.336 54.156V54.87H445.908C443.808 54.87 442.828 55.626 442.828 56.984C442.828 58.328 443.724 59.168 445.25 59.168C446.258 59.168 447.028 58.706 447.336 57.824H447.406C447.49 58.496 447.826 59 448.652 59H449.282ZM445.432 58.216C444.564 58.216 444.004 57.81 444.004 57.096V56.802C444.004 56.102 444.578 55.71 445.852 55.71H447.336V56.9C447.336 57.642 446.538 58.216 445.432 58.216ZM453.224 59V58.02H452.16V48.64H451.04V57.838C451.04 58.51 451.46 59 452.23 59H453.224ZM461.171 59.168C462.543 59.168 463.481 58.496 463.943 57.46L463.131 56.914C462.739 57.74 462.081 58.174 461.171 58.174C459.841 58.174 459.155 57.264 459.155 56.004V54.772C459.155 53.512 459.841 52.602 461.171 52.602C462.053 52.602 462.669 53.036 462.935 53.778L463.873 53.302C463.453 52.308 462.599 51.608 461.171 51.608C459.141 51.608 457.951 53.078 457.951 55.388C457.951 57.698 459.141 59.168 461.171 59.168ZM468.332 59.168C470.264 59.168 471.594 57.684 471.594 55.388C471.594 53.092 470.264 51.608 468.332 51.608C466.4 51.608 465.07 53.092 465.07 55.388C465.07 57.684 466.4 59.168 468.332 59.168ZM468.332 58.174C467.128 58.174 466.274 57.432 466.274 55.906V54.87C466.274 53.344 467.128 52.602 468.332 52.602C469.536 52.602 470.39 53.344 470.39 54.87V55.906C470.39 57.432 469.536 58.174 468.332 58.174ZM474.716 59V53.988C474.716 53.064 475.556 52.616 476.438 52.616C477.502 52.616 477.992 53.274 477.992 54.562V59H479.112V53.988C479.112 53.064 479.924 52.616 480.806 52.616C481.898 52.616 482.388 53.288 482.388 54.562V59H483.508V54.366C483.508 52.616 482.626 51.608 481.156 51.608C479.924 51.608 479.224 52.294 478.958 53.078H478.93C478.538 52.042 477.67 51.608 476.718 51.608C475.598 51.608 475.094 52.21 474.772 52.952H474.716V51.776H473.596V59H474.716ZM485.979 61.8H487.099V57.824H487.155C487.589 58.72 488.275 59.168 489.269 59.168C491.075 59.168 492.209 57.698 492.209 55.388C492.209 53.078 491.075 51.608 489.269 51.608C488.275 51.608 487.533 52.042 487.155 52.952H487.099V51.776H485.979V61.8ZM488.961 58.16C487.939 58.16 487.099 57.628 487.099 56.69V54.002C487.099 53.204 487.939 52.616 488.961 52.616C490.221 52.616 491.005 53.484 491.005 54.772V56.004C491.005 57.292 490.221 58.16 488.961 58.16ZM498.712 59H499.832V51.776H498.712V56.774C498.712 57.726 497.844 58.16 496.962 58.16C495.884 58.16 495.31 57.502 495.31 56.214V51.776H494.19V56.41C494.19 58.16 495.142 59.168 496.626 59.168C497.83 59.168 498.376 58.51 498.656 57.824H498.712V59ZM505.373 59V58.02H503.903V52.756H505.485V51.776H503.903V49.774H502.895V51.118C502.895 51.608 502.741 51.776 502.265 51.776H501.593V52.756H502.783V57.81C502.783 58.51 503.203 59 503.973 59H505.373ZM510.107 59.168C511.465 59.168 512.501 58.496 512.963 57.516L512.165 56.942C511.787 57.74 511.087 58.188 510.177 58.188C508.833 58.188 508.035 57.25 508.035 56.004V55.668H513.229V55.136C513.229 53.092 512.039 51.608 510.107 51.608C508.147 51.608 506.859 53.092 506.859 55.388C506.859 57.684 508.147 59.168 510.107 59.168ZM510.107 52.546C511.255 52.546 512.025 53.4 512.025 54.674V54.828H508.035V54.73C508.035 53.47 508.889 52.546 510.107 52.546ZM516.354 59V54.1C516.354 53.414 517.082 52.896 518.286 52.896H518.944V51.776H518.51C517.334 51.776 516.676 52.42 516.424 53.106H516.354V51.776H515.234V59H516.354Z" fill="#A2191F"/>
<path d="M642.112 164.316H640.614V163.126C642.756 162.832 644.1 161.096 644.1 158.114C644.1 154.838 642.476 153.06 639.956 153.06C637.436 153.06 635.812 154.838 635.812 158.114C635.812 161.18 637.24 162.944 639.494 163.154V164.148C639.494 164.806 639.9 165.296 640.67 165.296H642.112V164.316ZM639.956 162.118C638.262 162.118 637.072 160.858 637.072 158.926V157.302C637.072 155.37 638.262 154.11 639.956 154.11C641.65 154.11 642.84 155.37 642.84 157.302V158.926C642.84 160.858 641.65 162.118 639.956 162.118ZM650.714 163H651.834V155.776H650.714V160.774C650.714 161.726 649.846 162.16 648.964 162.16C647.886 162.16 647.312 161.502 647.312 160.214V155.776H646.192V160.41C646.192 162.16 647.144 163.168 648.628 163.168C649.832 163.168 650.378 162.51 650.658 161.824H650.714V163ZM660.259 163V162.02H659.433V158.044C659.433 156.518 658.397 155.608 656.661 155.608C655.359 155.608 654.491 156.252 654.099 157.022L654.771 157.652C655.163 156.994 655.737 156.574 656.605 156.574C657.753 156.574 658.313 157.134 658.313 158.156V158.87H656.885C654.785 158.87 653.805 159.626 653.805 160.984C653.805 162.328 654.701 163.168 656.227 163.168C657.235 163.168 658.005 162.706 658.313 161.824H658.383C658.467 162.496 658.803 163 659.629 163H660.259ZM656.409 162.216C655.541 162.216 654.981 161.81 654.981 161.096V160.802C654.981 160.102 655.555 159.71 656.829 159.71H658.313V160.9C658.313 161.642 657.515 162.216 656.409 162.216ZM663.138 163V157.988C663.138 157.064 664.006 156.616 664.902 156.616C665.98 156.616 666.54 157.274 666.54 158.562V163H667.66V158.366C667.66 156.616 666.722 155.608 665.238 155.608C664.16 155.608 663.544 156.14 663.194 156.952H663.138V155.776H662.018V163H663.138ZM673.131 163V162.02H671.661V156.756H673.243V155.776H671.661V153.774H670.653V155.118C670.653 155.608 670.499 155.776 670.023 155.776H669.351V156.756H670.541V161.81C670.541 162.51 670.961 163 671.731 163H673.131ZM679.655 163H680.775V155.776H679.655V160.774C679.655 161.726 678.787 162.16 677.905 162.16C676.827 162.16 676.253 161.502 676.253 160.214V155.776H675.133V160.41C675.133 162.16 676.085 163.168 677.569 163.168C678.773 163.168 679.319 162.51 679.599 161.824H679.655V163ZM684.44 163V157.988C684.44 157.064 685.28 156.616 686.162 156.616C687.226 156.616 687.716 157.274 687.716 158.562V163H688.836V157.988C688.836 157.064 689.648 156.616 690.53 156.616C691.622 156.616 692.112 157.288 692.112 158.562V163H693.232V158.366C693.232 156.616 692.35 155.608 690.88 155.608C689.648 155.608 688.948 156.294 688.682 157.078H688.654C688.262 156.042 687.394 155.608 686.442 155.608C685.322 155.608 684.818 156.21 684.496 156.952H684.44V155.776H683.32V163H684.44ZM701.887 163.168C703.245 163.168 704.281 162.496 704.743 161.516L703.945 160.942C703.567 161.74 702.867 162.188 701.957 162.188C700.613 162.188 699.815 161.25 699.815 160.004V159.668H705.009V159.136C705.009 157.092 703.819 155.608 701.887 155.608C699.927 155.608 698.639 157.092 698.639 159.388C698.639 161.684 699.927 163.168 701.887 163.168ZM701.887 156.546C703.035 156.546 703.805 157.4 703.805 158.674V158.828H699.815V158.73C699.815 157.47 700.669 156.546 701.887 156.546ZM708.135 163V158.1C708.135 157.414 708.863 156.896 710.067 156.896H710.725V155.776H710.291C709.115 155.776 708.457 156.42 708.205 157.106H708.135V155.776H707.015V163H708.135ZM713.435 163V158.1C713.435 157.414 714.163 156.896 715.367 156.896H716.025V155.776H715.591C714.415 155.776 713.757 156.42 713.505 157.106H713.435V155.776H712.315V163H713.435ZM720.278 163.168C722.21 163.168 723.54 161.684 723.54 159.388C723.54 157.092 722.21 155.608 720.278 155.608C718.346 155.608 717.016 157.092 717.016 159.388C717.016 161.684 718.346 163.168 720.278 163.168ZM720.278 162.174C719.074 162.174 718.22 161.432 718.22 159.906V158.87C718.22 157.344 719.074 156.602 720.278 156.602C721.482 156.602 722.336 157.344 722.336 158.87V159.906C722.336 161.432 721.482 162.174 720.278 162.174ZM726.662 163V158.1C726.662 157.414 727.39 156.896 728.594 156.896H729.252V155.776H728.818C727.642 155.776 726.984 156.42 726.732 157.106H726.662V155.776H725.542V163H726.662ZM736.999 163.168C738.371 163.168 739.309 162.496 739.771 161.46L738.959 160.914C738.567 161.74 737.909 162.174 736.999 162.174C735.669 162.174 734.983 161.264 734.983 160.004V158.772C734.983 157.512 735.669 156.602 736.999 156.602C737.881 156.602 738.497 157.036 738.763 157.778L739.701 157.302C739.281 156.308 738.427 155.608 736.999 155.608C734.969 155.608 733.779 157.078 733.779 159.388C733.779 161.698 734.969 163.168 736.999 163.168ZM744.16 163.168C746.092 163.168 747.422 161.684 747.422 159.388C747.422 157.092 746.092 155.608 744.16 155.608C742.228 155.608 740.898 157.092 740.898 159.388C740.898 161.684 742.228 163.168 744.16 163.168ZM744.16 162.174C742.956 162.174 742.102 161.432 742.102 159.906V158.87C742.102 157.344 742.956 156.602 744.16 156.602C745.364 156.602 746.218 157.344 746.218 158.87V159.906C746.218 161.432 745.364 162.174 744.16 162.174ZM750.544 163V158.1C750.544 157.414 751.272 156.896 752.476 156.896H753.134V155.776H752.7C751.524 155.776 750.866 156.42 750.614 157.106H750.544V155.776H749.424V163H750.544ZM755.844 163V158.1C755.844 157.414 756.572 156.896 757.776 156.896H758.434V155.776H758C756.824 155.776 756.166 156.42 755.914 157.106H755.844V155.776H754.724V163H755.844ZM762.673 163.168C764.031 163.168 765.067 162.496 765.529 161.516L764.731 160.942C764.353 161.74 763.653 162.188 762.743 162.188C761.399 162.188 760.601 161.25 760.601 160.004V159.668H765.795V159.136C765.795 157.092 764.605 155.608 762.673 155.608C760.713 155.608 759.425 157.092 759.425 159.388C759.425 161.684 760.713 163.168 762.673 163.168ZM762.673 156.546C763.821 156.546 764.591 157.4 764.591 158.674V158.828H760.601V158.73C760.601 157.47 761.455 156.546 762.673 156.546ZM770.488 163.168C771.86 163.168 772.798 162.496 773.26 161.46L772.448 160.914C772.056 161.74 771.398 162.174 770.488 162.174C769.158 162.174 768.472 161.264 768.472 160.004V158.772C768.472 157.512 769.158 156.602 770.488 156.602C771.37 156.602 771.986 157.036 772.252 157.778L773.19 157.302C772.77 156.308 771.916 155.608 770.488 155.608C768.458 155.608 767.268 157.078 767.268 159.388C767.268 161.698 768.458 163.168 770.488 163.168ZM777.997 163V162.02H776.527V156.756H778.109V155.776H776.527V153.774H775.519V155.118C775.519 155.608 775.365 155.776 774.889 155.776H774.217V156.756H775.407V161.81C775.407 162.51 775.827 163 776.597 163H777.997ZM780.63 154.082C781.106 154.082 781.316 153.83 781.316 153.452V153.27C781.316 152.892 781.106 152.64 780.63 152.64C780.154 152.64 779.944 152.892 779.944 153.27V153.452C779.944 153.83 780.154 154.082 780.63 154.082ZM780.07 163H781.19V155.776H780.07V163ZM786.46 163.168C788.392 163.168 789.722 161.684 789.722 159.388C789.722 157.092 788.392 155.608 786.46 155.608C784.528 155.608 783.198 157.092 783.198 159.388C783.198 161.684 784.528 163.168 786.46 163.168ZM786.46 162.174C785.256 162.174 784.402 161.432 784.402 159.906V158.87C784.402 157.344 785.256 156.602 786.46 156.602C787.664 156.602 788.518 157.344 788.518 158.87V159.906C788.518 161.432 787.664 162.174 786.46 162.174ZM792.844 163V157.988C792.844 157.064 793.712 156.616 794.608 156.616C795.686 156.616 796.246 157.274 796.246 158.562V163H797.366V158.366C797.366 156.616 796.428 155.608 794.944 155.608C793.866 155.608 793.25 156.14 792.9 156.952H792.844V155.776H791.724V163H792.844Z" fill="#0043CE"/>
<path d="M503.322 390.319H501.824V389.311C503.896 388.961 505.198 387.239 505.198 384.327C505.198 381.037 503.532 379.273 500.984 379.273C498.436 379.273 496.77 381.037 496.77 384.327C496.77 387.323 498.156 389.059 500.34 389.339V390.081C500.34 391.033 500.844 391.635 501.936 391.635H503.322V390.319ZM500.984 387.967C499.472 387.967 498.464 386.875 498.464 385.097V383.557C498.464 381.779 499.472 380.687 500.984 380.687C502.496 380.687 503.504 381.779 503.504 383.557V385.097C503.504 386.875 502.496 387.967 500.984 387.967ZM511.629 389.213H513.155V381.933H511.629V386.805C511.629 387.659 510.859 388.065 510.075 388.065C509.137 388.065 508.675 387.477 508.675 386.371V381.933H507.149V386.567C507.149 388.359 508.031 389.381 509.529 389.381C510.733 389.381 511.307 388.723 511.573 388.009H511.629V389.213ZM521.688 389.213V387.967H520.918V384.313C520.918 382.689 519.868 381.765 517.992 381.765C516.578 381.765 515.724 382.367 515.248 383.179L516.158 384.005C516.522 383.431 517.04 383.011 517.894 383.011C518.916 383.011 519.392 383.529 519.392 384.411V385.027H518.076C516.046 385.027 514.968 385.769 514.968 387.211C514.968 388.527 515.822 389.381 517.32 389.381C518.384 389.381 519.168 388.905 519.448 387.995H519.518C519.616 388.709 520.036 389.213 520.834 389.213H521.688ZM517.754 388.219C516.998 388.219 516.522 387.883 516.522 387.239V386.987C516.522 386.357 517.04 386.007 518.104 386.007H519.392V387.057C519.392 387.771 518.692 388.219 517.754 388.219ZM524.869 389.213V384.341C524.869 383.487 525.653 383.081 526.451 383.081C527.389 383.081 527.823 383.655 527.823 384.789V389.213H529.349V384.593C529.349 382.801 528.467 381.765 526.983 381.765C525.863 381.765 525.247 382.353 524.939 383.137H524.869V381.933H523.343V389.213H524.869ZM534.971 389.213V387.967H533.557V383.179H535.083V381.933H533.557V379.945H532.185V381.219C532.185 381.723 532.017 381.933 531.513 381.933H530.897V383.179H532.031V387.631C532.031 388.625 532.591 389.213 533.641 389.213H534.971ZM541.308 389.213H542.834V381.933H541.308V386.805C541.308 387.659 540.538 388.065 539.754 388.065C538.816 388.065 538.354 387.477 538.354 386.371V381.933H536.828V386.567C536.828 388.359 537.71 389.381 539.208 389.381C540.412 389.381 540.986 388.723 541.252 388.009H541.308V389.213ZM546.705 389.213V384.327C546.705 383.487 547.447 383.081 548.203 383.081C549.099 383.081 549.533 383.641 549.533 384.775V389.213H551.059V384.327C551.059 383.487 551.773 383.081 552.543 383.081C553.467 383.081 553.887 383.655 553.887 384.775V389.213H555.413V384.593C555.413 382.801 554.559 381.765 553.117 381.765C551.941 381.765 551.185 382.437 550.919 383.249H550.877C550.527 382.241 549.701 381.765 548.721 381.765C547.615 381.765 547.069 382.381 546.775 383.137H546.705V381.933H545.179V389.213H546.705ZM564.009 389.381C565.367 389.381 566.431 388.793 566.977 387.911L566.081 387.029C565.661 387.701 565.059 388.121 564.163 388.121C562.931 388.121 562.245 387.323 562.245 386.203V385.965H567.243V385.391C567.243 383.375 566.151 381.765 564.009 381.765C561.937 381.765 560.663 383.249 560.663 385.573C560.663 387.897 561.937 389.381 564.009 389.381ZM564.009 382.955C565.017 382.955 565.633 383.697 565.633 384.817V384.957H562.245V384.859C562.245 383.739 562.959 382.955 564.009 382.955ZM570.619 389.213V384.565C570.619 383.809 571.291 383.403 572.495 383.403H573.097V381.933H572.691C571.529 381.933 570.899 382.591 570.689 383.333H570.619V381.933H569.093V389.213H570.619ZM576.138 389.213V384.565C576.138 383.809 576.81 383.403 578.014 383.403H578.616V381.933H578.21C577.048 381.933 576.418 382.591 576.208 383.333H576.138V381.933H574.612V389.213H576.138ZM582.919 389.381C584.949 389.381 586.265 387.897 586.265 385.573C586.265 383.249 584.949 381.765 582.919 381.765C580.889 381.765 579.573 383.249 579.573 385.573C579.573 387.897 580.889 389.381 582.919 389.381ZM582.919 388.121C581.883 388.121 581.183 387.477 581.183 386.189V384.957C581.183 383.669 581.883 383.025 582.919 383.025C583.955 383.025 584.655 383.669 584.655 384.957V386.189C584.655 387.477 583.955 388.121 582.919 388.121ZM589.651 389.213V384.565C589.651 383.809 590.323 383.403 591.527 383.403H592.129V381.933H591.723C590.561 381.933 589.931 382.591 589.721 383.333H589.651V381.933H588.125V389.213H589.651ZM598.639 389.213V384.327C598.639 383.487 599.381 383.081 600.137 383.081C601.033 383.081 601.467 383.641 601.467 384.775V389.213H602.993V384.327C602.993 383.487 603.707 383.081 604.477 383.081C605.401 383.081 605.821 383.655 605.821 384.775V389.213H607.347V384.593C607.347 382.801 606.493 381.765 605.051 381.765C603.875 381.765 603.119 382.437 602.853 383.249H602.811C602.461 382.241 601.635 381.765 600.655 381.765C599.549 381.765 599.003 382.381 598.709 383.137H598.639V381.933H597.113V389.213H598.639ZM610.389 380.631C611.019 380.631 611.285 380.295 611.285 379.833V379.595C611.285 379.133 611.019 378.797 610.389 378.797C609.759 378.797 609.479 379.133 609.479 379.595V379.833C609.479 380.295 609.759 380.631 610.389 380.631ZM609.619 389.213H611.145V381.933H609.619V389.213ZM616.83 389.213V387.967H615.416V383.179H616.942V381.933H615.416V379.945H614.044V381.219C614.044 381.723 613.876 381.933 613.372 381.933H612.756V383.179H613.89V387.631C613.89 388.625 614.45 389.213 615.5 389.213H616.83ZM619.527 380.631C620.157 380.631 620.423 380.295 620.423 379.833V379.595C620.423 379.133 620.157 378.797 619.527 378.797C618.897 378.797 618.617 379.133 618.617 379.595V379.833C618.617 380.295 618.897 380.631 619.527 380.631ZM618.757 389.213H620.283V381.933H618.757V389.213ZM629.006 389.899C629.006 388.639 628.25 387.883 626.458 387.883H624.666C624.022 387.883 623.644 387.729 623.644 387.337C623.644 386.973 623.98 386.735 624.344 386.609C624.61 386.679 624.946 386.721 625.296 386.721C627.144 386.721 628.208 385.727 628.208 384.257C628.208 383.417 627.844 382.717 627.186 382.283V381.989H628.67V380.757H627.55C626.906 380.757 626.598 381.149 626.598 381.793V381.989C626.22 381.835 625.772 381.765 625.282 381.765C623.434 381.765 622.384 382.773 622.384 384.257C622.384 385.237 622.86 386.007 623.714 386.413V386.469C623.014 386.637 622.426 387.001 622.426 387.757C622.426 388.303 622.72 388.709 623.252 388.877V389.031C622.482 389.199 622.006 389.633 622.006 390.431C622.006 391.537 622.93 392.181 625.31 392.181C627.928 392.181 629.006 391.411 629.006 389.899ZM627.578 390.067C627.578 390.739 626.99 391.075 625.8 391.075H624.848C623.714 391.075 623.28 390.669 623.28 390.081C623.28 389.731 623.448 389.437 623.784 389.241H626.248C627.242 389.241 627.578 389.563 627.578 390.067ZM625.296 385.615C624.4 385.615 623.882 385.209 623.882 384.383V384.103C623.882 383.277 624.4 382.871 625.296 382.871C626.192 382.871 626.71 383.277 626.71 384.103V384.383C626.71 385.209 626.192 385.615 625.296 385.615ZM636.449 389.213V387.967H635.679V384.313C635.679 382.689 634.629 381.765 632.753 381.765C631.339 381.765 630.485 382.367 630.009 383.179L630.919 384.005C631.283 383.431 631.801 383.011 632.655 383.011C633.677 383.011 634.153 383.529 634.153 384.411V385.027H632.837C630.807 385.027 629.729 385.769 629.729 387.211C629.729 388.527 630.583 389.381 632.081 389.381C633.145 389.381 633.929 388.905 634.209 387.995H634.279C634.377 388.709 634.797 389.213 635.595 389.213H636.449ZM632.515 388.219C631.759 388.219 631.283 387.883 631.283 387.239V386.987C631.283 386.357 631.801 386.007 632.865 386.007H634.153V387.057C634.153 387.771 633.453 388.219 632.515 388.219ZM641.409 389.213V387.967H639.995V383.179H641.521V381.933H639.995V379.945H638.623V381.219C638.623 381.723 638.455 381.933 637.951 381.933H637.335V383.179H638.469V387.631C638.469 388.625 639.029 389.213 640.079 389.213H641.409ZM644.107 380.631C644.737 380.631 645.003 380.295 645.003 379.833V379.595C645.003 379.133 644.737 378.797 644.107 378.797C643.477 378.797 643.197 379.133 643.197 379.595V379.833C643.197 380.295 643.477 380.631 644.107 380.631ZM643.337 389.213H644.863V381.933H643.337V389.213ZM650.058 389.381C652.088 389.381 653.404 387.897 653.404 385.573C653.404 383.249 652.088 381.765 650.058 381.765C648.028 381.765 646.712 383.249 646.712 385.573C646.712 387.897 648.028 389.381 650.058 389.381ZM650.058 388.121C649.022 388.121 648.322 387.477 648.322 386.189V384.957C648.322 383.669 649.022 383.025 650.058 383.025C651.094 383.025 651.794 383.669 651.794 384.957V386.189C651.794 387.477 651.094 388.121 650.058 388.121ZM656.79 389.213V384.341C656.79 383.487 657.574 383.081 658.372 383.081C659.31 383.081 659.744 383.655 659.744 384.789V389.213H661.27V384.593C661.27 382.801 660.388 381.765 658.904 381.765C657.784 381.765 657.168 382.353 656.86 383.137H656.79V381.933H655.264V389.213H656.79Z" fill="black"/>
<path d="M786.424 321L787.698 315.946L788.44 312.978H788.468L789.196 315.946L790.442 321H792.22L794.628 311.228H793.074L792.052 315.932L791.338 319.166H791.296L790.526 315.932L789.378 311.228H787.614L786.452 315.932L785.668 319.18H785.626L784.94 315.932L783.946 311.228H782.336L784.646 321H786.424ZM798.809 321.168C800.167 321.168 801.231 320.58 801.777 319.698L800.881 318.816C800.461 319.488 799.859 319.908 798.963 319.908C797.731 319.908 797.045 319.11 797.045 317.99V317.752H802.043V317.178C802.043 315.162 800.951 313.552 798.809 313.552C796.737 313.552 795.463 315.036 795.463 317.36C795.463 319.684 796.737 321.168 798.809 321.168ZM798.809 314.742C799.817 314.742 800.433 315.484 800.433 316.604V316.744H797.045V316.646C797.045 315.526 797.759 314.742 798.809 314.742ZM808.621 321H810.301L811.267 317.682L811.841 315.638H811.869L812.457 317.682L813.409 321H815.131L817.091 313.72H815.677L814.921 316.772L814.277 319.53H814.235L813.465 316.772L812.569 313.72H811.197L810.315 316.772L809.559 319.53H809.517L808.859 316.772L808.117 313.72H806.633L808.621 321ZM824.742 321V319.754H823.972V316.1C823.972 314.476 822.922 313.552 821.046 313.552C819.632 313.552 818.778 314.154 818.302 314.966L819.212 315.792C819.576 315.218 820.094 314.798 820.948 314.798C821.97 314.798 822.446 315.316 822.446 316.198V316.814H821.13C819.1 316.814 818.022 317.556 818.022 318.998C818.022 320.314 818.876 321.168 820.374 321.168C821.438 321.168 822.222 320.692 822.502 319.782H822.572C822.67 320.496 823.09 321 823.888 321H824.742ZM820.808 320.006C820.052 320.006 819.576 319.67 819.576 319.026V318.774C819.576 318.144 820.094 317.794 821.158 317.794H822.446V318.844C822.446 319.558 821.746 320.006 820.808 320.006ZM827.924 321V316.128C827.924 315.274 828.708 314.868 829.506 314.868C830.444 314.868 830.878 315.442 830.878 316.576V321H832.404V316.38C832.404 314.588 831.522 313.552 830.038 313.552C828.918 313.552 828.302 314.14 827.994 314.924H827.924V313.72H826.398V321H827.924ZM838.025 321V319.754H836.611V314.966H838.137V313.72H836.611V311.732H835.239V313.006C835.239 313.51 835.071 313.72 834.567 313.72H833.951V314.966H835.085V319.418C835.085 320.412 835.645 321 836.695 321H838.025ZM846.767 321V319.754H845.353V314.966H846.879V313.72H845.353V311.732H843.981V313.006C843.981 313.51 843.813 313.72 843.309 313.72H842.693V314.966H843.827V319.418C843.827 320.412 844.387 321 845.437 321H846.767ZM851.495 321.168C853.525 321.168 854.841 319.684 854.841 317.36C854.841 315.036 853.525 313.552 851.495 313.552C849.465 313.552 848.149 315.036 848.149 317.36C848.149 319.684 849.465 321.168 851.495 321.168ZM851.495 319.908C850.459 319.908 849.759 319.264 849.759 317.976V316.744C849.759 315.456 850.459 314.812 851.495 314.812C852.531 314.812 853.231 315.456 853.231 316.744V317.976C853.231 319.264 852.531 319.908 851.495 319.908ZM866.554 321.686C866.554 320.426 865.798 319.67 864.006 319.67H862.214C861.57 319.67 861.192 319.516 861.192 319.124C861.192 318.76 861.528 318.522 861.892 318.396C862.158 318.466 862.494 318.508 862.844 318.508C864.692 318.508 865.756 317.514 865.756 316.044C865.756 315.204 865.392 314.504 864.734 314.07V313.776H866.218V312.544H865.098C864.454 312.544 864.146 312.936 864.146 313.58V313.776C863.768 313.622 863.32 313.552 862.83 313.552C860.982 313.552 859.932 314.56 859.932 316.044C859.932 317.024 860.408 317.794 861.262 318.2V318.256C860.562 318.424 859.974 318.788 859.974 319.544C859.974 320.09 860.268 320.496 860.8 320.664V320.818C860.03 320.986 859.554 321.42 859.554 322.218C859.554 323.324 860.478 323.968 862.858 323.968C865.476 323.968 866.554 323.198 866.554 321.686ZM865.126 321.854C865.126 322.526 864.538 322.862 863.348 322.862H862.396C861.262 322.862 860.828 322.456 860.828 321.868C860.828 321.518 860.996 321.224 861.332 321.028H863.796C864.79 321.028 865.126 321.35 865.126 321.854ZM862.844 317.402C861.948 317.402 861.43 316.996 861.43 316.17V315.89C861.43 315.064 861.948 314.658 862.844 314.658C863.74 314.658 864.258 315.064 864.258 315.89V316.17C864.258 316.996 863.74 317.402 862.844 317.402ZM870.624 321.168C871.982 321.168 873.046 320.58 873.592 319.698L872.696 318.816C872.276 319.488 871.674 319.908 870.778 319.908C869.546 319.908 868.86 319.11 868.86 317.99V317.752H873.858V317.178C873.858 315.162 872.766 313.552 870.624 313.552C868.552 313.552 867.278 315.036 867.278 317.36C867.278 319.684 868.552 321.168 870.624 321.168ZM870.624 314.742C871.632 314.742 872.248 315.484 872.248 316.604V316.744H868.86V316.646C868.86 315.526 869.574 314.742 870.624 314.742ZM879.053 321V319.754H877.639V314.966H879.165V313.72H877.639V311.732H876.267V313.006C876.267 313.51 876.099 313.72 875.595 313.72H874.979V314.966H876.113V319.418C876.113 320.412 876.673 321 877.723 321H879.053ZM884.449 321H885.975V316.114C885.975 315.274 886.759 314.868 887.557 314.868C888.495 314.868 888.929 315.442 888.929 316.562V321H890.455V316.38C890.455 314.588 889.573 313.552 888.089 313.552C886.969 313.552 886.353 314.14 886.045 314.924H885.975V310.64H884.449V321ZM895.586 321.168C896.944 321.168 898.008 320.58 898.554 319.698L897.658 318.816C897.238 319.488 896.636 319.908 895.74 319.908C894.508 319.908 893.822 319.11 893.822 317.99V317.752H898.82V317.178C898.82 315.162 897.728 313.552 895.586 313.552C893.514 313.552 892.24 315.036 892.24 317.36C892.24 319.684 893.514 321.168 895.586 321.168ZM895.586 314.742C896.594 314.742 897.21 315.484 897.21 316.604V316.744H893.822V316.646C893.822 315.526 894.536 314.742 895.586 314.742ZM902.195 321V316.352C902.195 315.596 902.867 315.19 904.071 315.19H904.673V313.72H904.267C903.105 313.72 902.475 314.378 902.265 315.12H902.195V313.72H900.669V321H902.195ZM908.976 321.168C910.334 321.168 911.398 320.58 911.944 319.698L911.048 318.816C910.628 319.488 910.026 319.908 909.13 319.908C907.898 319.908 907.212 319.11 907.212 317.99V317.752H912.21V317.178C912.21 315.162 911.118 313.552 908.976 313.552C906.904 313.552 905.63 315.036 905.63 317.36C905.63 319.684 906.904 321.168 908.976 321.168ZM908.976 314.742C909.984 314.742 910.6 315.484 910.6 316.604V316.744H907.212V316.646C907.212 315.526 907.926 314.742 908.976 314.742ZM915.404 318.2L915.866 314.014V311.228H914.214V314.014L914.704 318.2H915.404ZM915.054 321.168C915.768 321.168 916.076 320.776 916.076 320.244V320.006C916.076 319.474 915.768 319.082 915.054 319.082C914.34 319.082 914.032 319.474 914.032 320.006V320.244C914.032 320.776 914.34 321.168 915.054 321.168Z" fill="black"/>
<path d="M59.9825 326.083C59.9825 323.843 58.7645 322.541 56.9445 322.541C55.3905 322.541 54.5225 323.423 54.1445 325.369L53.9625 326.237C53.7525 327.287 53.4025 327.791 52.5905 327.791C51.7365 327.791 51.2745 327.147 51.2745 326.027C51.2745 324.949 51.6945 324.249 52.3525 323.745L51.3725 322.639C50.4065 323.395 49.8745 324.473 49.8745 325.943C49.8745 328.015 50.9385 329.359 52.6745 329.359C54.2285 329.359 55.1105 328.393 55.4605 326.503L55.6145 325.635C55.8385 324.501 56.2725 324.109 57.0285 324.109C57.9665 324.109 58.5825 324.753 58.5825 325.999C58.5825 327.063 58.1485 327.875 57.3085 328.561L58.3305 329.653C59.3385 328.841 59.9825 327.721 59.9825 326.083ZM51.2325 319.824C51.2325 319.194 50.8965 318.928 50.4345 318.928H50.1965C49.7345 318.928 49.3985 319.194 49.3985 319.824C49.3985 320.454 49.7345 320.734 50.1965 320.734H50.4345C50.8965 320.734 51.2325 320.454 51.2325 319.824ZM59.8145 320.594V319.068H52.5345V320.594H59.8145ZM59.8145 315.203H54.9285C54.0885 315.203 53.6825 314.461 53.6825 313.705C53.6825 312.809 54.2425 312.375 55.3765 312.375H59.8145V310.849H54.9285C54.0885 310.849 53.6825 310.135 53.6825 309.365C53.6825 308.441 54.2565 308.021 55.3765 308.021H59.8145V306.495H55.1945C53.4025 306.495 52.3665 307.349 52.3665 308.791C52.3665 309.967 53.0385 310.723 53.8505 310.989V311.031C52.8425 311.381 52.3665 312.207 52.3665 313.187C52.3665 314.293 52.9825 314.839 53.7385 315.133V315.203H52.5345V316.729H59.8145V315.203ZM59.8145 299.813V298.287H52.5345V299.813H57.4065C58.2605 299.813 58.6665 300.583 58.6665 301.367C58.6665 302.305 58.0785 302.767 56.9725 302.767H52.5345V304.293H57.1685C58.9605 304.293 59.9825 303.411 59.9825 301.913C59.9825 300.709 59.3245 300.135 58.6105 299.869V299.813H59.8145ZM59.8145 293.408H58.5685V294.416H49.4545V295.942H58.3025C59.2405 295.942 59.8145 295.424 59.8145 294.388V293.408ZM59.8145 285.602H58.5685V286.372H54.9145C53.2905 286.372 52.3665 287.422 52.3665 289.298C52.3665 290.712 52.9685 291.566 53.7805 292.042L54.6065 291.132C54.0325 290.768 53.6125 290.25 53.6125 289.396C53.6125 288.374 54.1305 287.898 55.0125 287.898H55.6285V289.214C55.6285 291.244 56.3705 292.322 57.8125 292.322C59.1285 292.322 59.9825 291.468 59.9825 289.97C59.9825 288.906 59.5065 288.122 58.5965 287.842V287.772C59.3105 287.674 59.8145 287.254 59.8145 286.456V285.602ZM58.8205 289.536C58.8205 290.292 58.4845 290.768 57.8405 290.768H57.5885C56.9585 290.768 56.6085 290.25 56.6085 289.186V287.898H57.6585C58.3725 287.898 58.8205 288.598 58.8205 289.536ZM59.8145 280.641H58.5685V282.055H53.7805V280.529H52.5345L52.5345 282.055H50.5465V283.427H51.8205C52.3245 283.427 52.5345 283.595 52.5345 284.099V284.715H53.7805V283.581H58.2325C59.2265 283.581 59.8145 283.021 59.8145 281.971V280.641ZM51.2325 277.944C51.2325 277.314 50.8965 277.048 50.4345 277.048H50.1965C49.7345 277.048 49.3985 277.314 49.3985 277.944C49.3985 278.574 49.7345 278.854 50.1965 278.854H50.4345C50.8965 278.854 51.2325 278.574 51.2325 277.944ZM59.8145 278.714V277.188H52.5345V278.714H59.8145ZM59.9825 271.993C59.9825 269.963 58.4985 268.647 56.1745 268.647C53.8505 268.647 52.3665 269.963 52.3665 271.993C52.3665 274.023 53.8505 275.339 56.1745 275.339C58.4985 275.339 59.9825 274.023 59.9825 271.993ZM58.7225 271.993C58.7225 273.029 58.0785 273.729 56.7905 273.729H55.5585C54.2705 273.729 53.6265 273.029 53.6265 271.993C53.6265 270.957 54.2705 270.257 55.5585 270.257H56.7905C58.0785 270.257 58.7225 270.957 58.7225 271.993ZM59.8145 265.26H54.9425C54.0885 265.26 53.6825 264.476 53.6825 263.678C53.6825 262.74 54.2565 262.306 55.3905 262.306H59.8145V260.78H55.1945C53.4025 260.78 52.3665 261.662 52.3665 263.146C52.3665 264.266 52.9545 264.882 53.7385 265.19V265.26H52.5345V266.786H59.8145V265.26ZM59.9825 252.223C59.9825 250.823 59.3245 249.829 58.1345 249.353L57.5185 250.515C58.2465 250.823 58.7225 251.341 58.7225 252.223C58.7225 253.343 57.9525 253.917 56.8325 253.917H55.5305C54.4105 253.917 53.6405 253.343 53.6405 252.223C53.6405 251.397 54.0745 250.879 54.7465 250.669L54.1585 249.409C53.0805 249.843 52.3665 250.767 52.3665 252.223C52.3665 254.323 53.8505 255.527 56.1745 255.527C58.4985 255.527 59.9825 254.323 59.9825 252.223ZM59.9825 244.966C59.9825 242.936 58.4985 241.62 56.1745 241.62C53.8505 241.62 52.3665 242.936 52.3665 244.966C52.3665 246.996 53.8505 248.312 56.1745 248.312C58.4985 248.312 59.9825 246.996 59.9825 244.966ZM58.7225 244.966C58.7225 246.002 58.0785 246.702 56.7905 246.702H55.5585C54.2705 246.702 53.6265 246.002 53.6265 244.966C53.6265 243.93 54.2705 243.23 55.5585 243.23H56.7905C58.0785 243.23 58.7225 243.93 58.7225 244.966ZM59.9825 237.45C59.9825 235.7 59.0445 234.566 57.6445 234.566C56.4685 234.566 55.7685 235.28 55.5305 236.876L55.4465 237.548C55.3205 238.318 55.0685 238.668 54.5085 238.668C53.9625 238.668 53.5985 238.276 53.5985 237.436C53.5985 236.652 53.9765 236.036 54.4245 235.658L53.5285 234.72C52.8005 235.378 52.3665 236.12 52.3665 237.436C52.3665 239.032 53.1925 240.138 54.6065 240.138C55.9505 240.138 56.5945 239.228 56.7765 237.744L56.8605 237.072C56.9585 236.316 57.3085 236.036 57.7705 236.036C58.3865 236.036 58.7505 236.484 58.7505 237.366C58.7505 238.234 58.3585 238.892 57.7145 239.424L58.6105 240.404C59.4645 239.718 59.9825 238.822 59.9825 237.45ZM59.8145 229.431H58.5685V230.845H53.7805V229.319H52.5345V230.845H50.5465V232.217H51.8205C52.3245 232.217 52.5345 232.385 52.5345 232.889V233.505H53.7805V232.371H58.2325C59.2265 232.371 59.8145 231.811 59.8145 230.761V229.431Z" fill="#121619"/>
<line x1="113.869" y1="283.517" x2="748.869" y2="111.517" stroke="#0043CE"/>
<circle cx="470.5" cy="359.5" r="17" fill="white" stroke="black"/>
<path d="M505.599 355.914C505.434 356.136 505.48 356.449 505.701 356.614L509.309 359.303C509.531 359.468 509.844 359.422 510.009 359.201C510.174 358.979 510.128 358.666 509.907 358.501L506.7 356.111L509.09 352.904C509.255 352.682 509.209 352.369 508.988 352.204C508.767 352.039 508.453 352.085 508.288 352.306L505.599 355.914ZM760.928 318.505L505.928 355.718L506.072 356.708L761.072 319.495L760.928 318.505Z" fill="black"/>
</g>
<defs>
<clipPath id="clip0_35_3901">
<rect width="979" height="637" fill="white"/>
</clipPath>
</defs>
</svg>
