<svg width="699" height="267" viewBox="0 0 699 267" fill="none" xmlns="http://www.w3.org/2000/svg">
<g clip-path="url(#clip0_40_14400)">
<rect x="0.5" y="0.5" width="698" height="266" fill="white" fill-opacity="0.8" stroke="#DDE1E6"/>
<rect opacity="0.4" y="163" width="699" height="55" fill="#F2F4F8"/>
<rect opacity="0.4" y="54" width="699" height="54" fill="#F2F4F8"/>
<line x1="69" y1="72.5" x2="618" y2="72.5" stroke="black"/>
<line x1="69" y1="130.5" x2="618" y2="130.5" stroke="black"/>
<line x1="69" y1="200.5" x2="618" y2="200.5" stroke="black"/>
<rect x="586" y="57" width="32" height="32" fill="#121619"/>
<path d="M609 72.89L611.427 68.6667L609.408 67.5L606.865 71.8983C602.573 70.3076 597.774 70.9158 594.014 73.5269C590.254 76.1381 588.008 80.4224 588 84.9999H590.333C590.336 81.2518 592.14 77.7333 595.181 75.5426C598.222 73.3518 602.131 72.7556 605.687 73.94L602 80.3333C600.944 80.3322 600.018 81.0409 599.744 82.061C599.47 83.0811 599.915 84.1581 600.83 84.6867C601.744 85.2154 602.9 85.0637 603.647 84.317C604.394 83.5702 604.546 82.4147 604.018 81.5L607.833 74.9083C611.439 76.9902 613.662 80.8361 613.667 84.9999H616C615.995 80.0034 613.327 75.3883 609 72.89Z" fill="white"/>
<rect x="586" y="115" width="32" height="32" fill="#121619"/>
<path d="M609 130.89L611.427 126.667L609.408 125.5L606.865 129.898C602.573 128.308 597.774 128.916 594.014 131.527C590.254 134.138 588.008 138.422 588 143H590.333C590.336 139.252 592.14 135.733 595.181 133.543C598.222 131.352 602.131 130.756 605.687 131.94L602 138.333C600.944 138.332 600.018 139.041 599.744 140.061C599.47 141.081 599.915 142.158 600.83 142.687C601.744 143.215 602.9 143.064 603.647 142.317C604.394 141.57 604.546 140.415 604.018 139.5L607.833 132.908C611.439 134.99 613.662 138.836 613.667 143H616C615.995 138.003 613.327 133.388 609 130.89Z" fill="white"/>
<rect x="586" y="184" width="32" height="32" fill="#121619"/>
<path d="M609 199.89L611.427 195.667L609.408 194.5L606.865 198.898C602.573 197.308 597.774 197.916 594.014 200.527C590.254 203.138 588.008 207.422 588 212H590.333C590.336 208.252 592.14 204.733 595.181 202.543C598.222 200.352 602.131 199.756 605.687 200.94L602 207.333C600.944 207.332 600.018 208.041 599.744 209.061C599.47 210.081 599.915 211.158 600.83 211.687C601.744 212.215 602.9 212.064 603.647 211.317C604.394 210.57 604.546 209.415 604.018 208.5L607.833 201.908C611.439 203.99 613.662 207.836 613.667 212H616C615.995 207.003 613.327 202.388 609 199.89Z" fill="white"/>
<line x1="112" y1="158" x2="112" y2="171" stroke="black" stroke-width="2" stroke-linecap="round" stroke-dasharray="0.1 6"/>
<rect width="32" height="32" transform="translate(97 57)" fill="#0043CE"/>
<rect width="32" height="32" transform="translate(97 115)" fill="#0043CE"/>
<rect width="32" height="159" transform="translate(166 57)" fill="#007D79"/>
<rect width="32" height="159" transform="translate(211 57)" fill="#0043CE"/>
<rect width="32" height="32" transform="translate(97 184)" fill="#0043CE"/>
<rect x="155.5" y="46.5" width="99" height="180" rx="4.5" stroke="black" stroke-dasharray="6 6"/>
<line x1="284" y1="158" x2="284" y2="171" stroke="black" stroke-width="2" stroke-linecap="round" stroke-dasharray="0.1 6"/>
<rect width="32" height="32" transform="translate(269 57)" fill="#6929C4"/>
<rect width="32" height="32" transform="translate(269 115)" fill="#6929C4"/>
<rect width="32" height="159" transform="translate(326 57)" fill="#007D79"/>
<rect width="32" height="159" transform="translate(371 57)" fill="#0043CE"/>
<rect width="32" height="32" transform="translate(269 184)" fill="#6929C4"/>
<rect x="315.5" y="46.5" width="99" height="180" rx="4.5" stroke="black" stroke-dasharray="6 6"/>
<line x1="505" y1="158" x2="505" y2="171" stroke="black" stroke-width="2" stroke-linecap="round" stroke-dasharray="0.1 6"/>
<rect width="32" height="32" transform="translate(490 57)" fill="#0043CE"/>
<rect width="32" height="32" transform="translate(490 115)" fill="#0043CE"/>
<rect width="32" height="32" transform="translate(490 184)" fill="#0043CE"/>
<line x1="444" y1="158" x2="444" y2="171" stroke="black" stroke-width="2" stroke-linecap="round" stroke-dasharray="0.1 6"/>
<rect width="32" height="32" transform="translate(429 57)" fill="#6929C4"/>
<rect width="32" height="32" transform="translate(429 115)" fill="#6929C4"/>
<rect width="32" height="32" transform="translate(429 184)" fill="#6929C4"/>
<line x1="553" y1="158" x2="553" y2="171" stroke="black" stroke-width="2" stroke-linecap="round" stroke-dasharray="0.1 6"/>
<line x1="602" y1="158" x2="602" y2="171" stroke="black" stroke-width="2" stroke-linecap="round" stroke-dasharray="0.1 6"/>
<rect width="32" height="32" transform="translate(538 57)" fill="#0043CE"/>
<rect width="32" height="32" transform="translate(538 115)" fill="#0043CE"/>
<rect width="32" height="32" transform="translate(538 184)" fill="#0043CE"/>
<path d="M161 241H148C145.239 241 143 238.739 143 235.978C143 159.911 143 115.089 143 39.0223C143 36.2608 145.239 34 148 34H161" stroke="#343A3F"/>
<path d="M458 34H471C473.761 34 476 36.2608 476 39.0222C476 115.089 476 159.911 476 235.978C476 238.739 473.761 241 471 241H458" stroke="#343A3F"/>
<path d="M178.843 136.154C178.375 136.897 177.949 137.227 177.248 137.282C177.11 137.296 177 137.296 177 137.543C177 137.598 177.028 137.681 177.151 137.681C177.399 137.681 177.99 137.653 178.238 137.653C178.636 137.653 179.049 137.681 179.434 137.681C179.544 137.681 179.682 137.681 179.682 137.419C179.682 137.296 179.558 137.282 179.503 137.282C178.994 137.241 178.939 136.993 178.939 136.828C178.939 136.622 179.131 136.306 179.145 136.292L183.463 129.444L184.426 136.856C184.426 137.254 183.711 137.282 183.559 137.282C183.353 137.282 183.229 137.282 183.229 137.543C183.229 137.681 183.381 137.681 183.422 137.681C183.656 137.681 183.931 137.653 184.164 137.653H184.934C185.938 137.653 186.351 137.681 186.365 137.681C186.447 137.681 186.612 137.681 186.612 137.433C186.612 137.282 186.516 137.282 186.296 137.282C185.594 137.282 185.553 137.158 185.512 136.814L184.412 128.33C184.371 128.041 184.371 128 184.178 128C184.013 128 183.944 128.041 183.807 128.261L178.843 136.154Z" fill="white"/>
<path d="M228.647 135.875C228.116 138 226.355 139.244 224.929 139.244C223.836 139.244 223.093 138.516 223.093 137.256C223.093 137.195 223.093 136.74 223.26 136.073L224.747 130.109C224.883 129.593 224.914 129.441 225.991 129.441C226.264 129.441 226.416 129.441 226.416 129.168C226.416 129.001 226.279 129.001 226.188 129.001C225.915 129.001 225.596 129.031 225.308 129.031H223.518C223.229 129.031 222.911 129.001 222.622 129.001C222.516 129.001 222.334 129.001 222.334 129.289C222.334 129.441 222.44 129.441 222.728 129.441C223.639 129.441 223.639 129.562 223.639 129.729C223.639 129.82 223.533 130.261 223.457 130.518L222.137 135.83C222.091 135.997 222 136.406 222 136.816C222 138.485 223.199 139.684 224.853 139.684C226.386 139.684 228.085 138.47 228.859 136.543C228.965 136.285 229.102 135.754 229.193 135.344C229.345 134.798 229.663 133.462 229.77 133.068L230.346 130.792C230.544 130.003 230.665 129.502 232 129.441C232.122 129.426 232.182 129.304 232.182 129.168C232.182 129.001 232.046 129.001 231.985 129.001C231.773 129.001 231.5 129.031 231.287 129.031H230.574C229.633 129.031 229.147 129.001 229.132 129.001C229.041 129.001 228.859 129.001 228.859 129.289C228.859 129.441 228.981 129.441 229.087 129.441C229.997 129.471 230.058 129.82 230.058 130.094C230.058 130.23 230.058 130.276 229.997 130.488L228.647 135.875Z" fill="white"/>
<path d="M390.647 135.875C390.116 138 388.356 139.244 386.93 139.244C385.837 139.244 385.093 138.516 385.093 137.256C385.093 137.195 385.093 136.74 385.26 136.073L386.747 130.109C386.884 129.593 386.914 129.441 387.992 129.441C388.265 129.441 388.417 129.441 388.417 129.168C388.417 129.001 388.28 129.001 388.189 129.001C387.916 129.001 387.597 129.031 387.309 129.031H385.518C385.23 129.031 384.911 129.001 384.623 129.001C384.517 129.001 384.335 129.001 384.335 129.289C384.335 129.441 384.441 129.441 384.729 129.441C385.64 129.441 385.64 129.562 385.64 129.729C385.64 129.82 385.533 130.261 385.458 130.518L384.137 135.83C384.092 135.997 384.001 136.406 384.001 136.816C384.001 138.485 385.2 139.684 386.854 139.684C388.386 139.684 390.086 138.47 390.86 136.543C390.966 136.285 391.103 135.754 391.194 135.344C391.345 134.798 391.664 133.462 391.77 133.068L392.347 130.792C392.544 130.003 392.666 129.502 394.001 129.441C394.122 129.426 394.183 129.304 394.183 129.168C394.183 129.001 394.047 129.001 393.986 129.001C393.773 129.001 393.5 129.031 393.288 129.031H392.575C391.634 129.031 391.148 129.001 391.133 129.001C391.042 129.001 390.86 129.001 390.86 129.289C390.86 129.441 390.981 129.441 391.087 129.441C391.998 129.471 392.059 129.82 392.059 130.094C392.059 130.23 392.059 130.276 391.998 130.488L390.647 135.875Z" fill="white"/>
<path d="M338.843 136.154C338.375 136.897 337.949 137.227 337.248 137.282C337.11 137.296 337 137.296 337 137.543C337 137.598 337.028 137.681 337.151 137.681C337.399 137.681 337.99 137.653 338.238 137.653C338.636 137.653 339.049 137.681 339.434 137.681C339.544 137.681 339.682 137.681 339.682 137.419C339.682 137.296 339.558 137.282 339.503 137.282C338.994 137.241 338.939 136.993 338.939 136.828C338.939 136.622 339.131 136.306 339.145 136.292L343.463 129.444L344.426 136.856C344.426 137.254 343.711 137.282 343.559 137.282C343.353 137.282 343.229 137.282 343.229 137.543C343.229 137.681 343.381 137.681 343.422 137.681C343.656 137.681 343.931 137.653 344.164 137.653H344.934C345.938 137.653 346.351 137.681 346.365 137.681C346.447 137.681 346.612 137.681 346.612 137.433C346.612 137.282 346.516 137.282 346.296 137.282C345.594 137.282 345.553 137.158 345.512 136.814L344.412 128.33C344.371 128.041 344.371 128 344.178 128C344.013 128 343.944 128.041 343.807 128.261L338.843 136.154Z" fill="white"/>
<path d="M119.863 75.2526C119.863 75.009 119.846 75 119.615 75C119.265 75.3609 118.812 75.5774 118 75.5774V75.8752C118.231 75.8752 118.692 75.8752 119.188 75.6316V80.2602C119.188 80.594 119.162 80.7023 118.35 80.7023H118.051V81C118.402 80.9729 119.137 80.9729 119.521 80.9729C119.906 80.9729 120.65 80.9729 121 81V80.7023H120.701C119.889 80.7023 119.863 80.594 119.863 80.2602V75.2526Z" fill="#FBFBFB"/>
<path d="M121 137.484H120.775C120.744 137.638 120.662 138.134 120.56 138.278C120.488 138.359 119.905 138.359 119.598 138.359H117.706C117.982 138.152 118.606 137.574 118.872 137.358C120.427 136.095 121 135.626 121 134.732C121 133.695 120.069 133 118.882 133C117.696 133 117 133.893 117 134.669C117 135.129 117.45 135.129 117.481 135.129C117.696 135.129 117.962 134.994 117.962 134.705C117.962 134.453 117.767 134.281 117.481 134.281C117.389 134.281 117.368 134.281 117.338 134.29C117.532 133.677 118.084 133.262 118.749 133.262C119.619 133.262 120.151 133.902 120.151 134.732C120.151 135.499 119.65 136.167 119.066 136.744L117 138.783V139H120.734L121 137.484Z" fill="white"/>
<path d="M60.8632 76.2526C60.8632 76.009 60.8462 76 60.6154 76C60.265 76.3609 59.812 76.5774 59 76.5774V76.8752C59.2308 76.8752 59.6923 76.8752 60.188 76.6316V81.2602C60.188 81.594 60.1624 81.7023 59.3504 81.7023H59.0513V82C59.4017 81.9729 60.1368 81.9729 60.5214 81.9729C60.906 81.9729 61.6496 81.9729 62 82V81.7023H61.7009C60.8889 81.7023 60.8632 81.594 60.8632 81.2602V76.2526Z" fill="black"/>
<path d="M62 138.484H61.7749C61.7442 138.638 61.6624 139.134 61.5601 139.278C61.4885 139.359 60.9054 139.359 60.5985 139.359H58.7059C58.9821 139.152 59.6061 138.574 59.8721 138.358C61.4271 137.095 62 136.626 62 135.732C62 134.695 61.0691 134 59.8824 134C58.6957 134 58 134.893 58 135.669C58 136.129 58.4501 136.129 58.4808 136.129C58.6957 136.129 58.9616 135.994 58.9616 135.705C58.9616 135.453 58.7673 135.281 58.4808 135.281C58.3887 135.281 58.3683 135.281 58.3376 135.29C58.532 134.677 59.0844 134.262 59.7494 134.262C60.6189 134.262 61.1509 134.902 61.1509 135.732C61.1509 136.499 60.6496 137.167 60.0665 137.744L58 139.783V140H61.734L62 138.484Z" fill="black"/>
<path d="M290.863 75.2526C290.863 75.009 290.846 75 290.615 75C290.265 75.3609 289.812 75.5774 289 75.5774V75.8752C289.231 75.8752 289.692 75.8752 290.188 75.6316V80.2602C290.188 80.594 290.162 80.7023 289.35 80.7023H289.051V81C289.402 80.9729 290.137 80.9729 290.521 80.9729C290.906 80.9729 291.65 80.9729 292 81V80.7023H291.701C290.889 80.7023 290.863 80.594 290.863 80.2602V75.2526Z" fill="#FBFBFB"/>
<path d="M292 137.484H291.775C291.744 137.638 291.662 138.134 291.56 138.278C291.488 138.359 290.905 138.359 290.598 138.359H288.706C288.982 138.152 289.606 137.574 289.872 137.358C291.427 136.095 292 135.626 292 134.732C292 133.695 291.069 133 289.882 133C288.696 133 288 133.893 288 134.669C288 135.129 288.45 135.129 288.481 135.129C288.696 135.129 288.962 134.994 288.962 134.705C288.962 134.453 288.767 134.281 288.481 134.281C288.389 134.281 288.368 134.281 288.338 134.29C288.532 133.677 289.084 133.262 289.749 133.262C290.619 133.262 291.151 133.902 291.151 134.732C291.151 135.499 290.65 136.167 290.066 136.744L288 138.783V139H291.734L292 137.484Z" fill="white"/>
<path d="M560.863 77.2526C560.863 77.009 560.846 77 560.615 77C560.265 77.3609 559.812 77.5774 559 77.5774V77.8752C559.231 77.8752 559.692 77.8752 560.188 77.6316V82.2602C560.188 82.594 560.162 82.7023 559.35 82.7023H559.051V83C559.402 82.9729 560.137 82.9729 560.521 82.9729C560.906 82.9729 561.65 82.9729 562 83V82.7023H561.701C560.889 82.7023 560.863 82.594 560.863 82.2602V77.2526Z" fill="#FBFBFB"/>
<path d="M563 139.484H562.775C562.744 139.638 562.662 140.134 562.56 140.278C562.488 140.359 561.905 140.359 561.598 140.359H559.706C559.982 140.152 560.606 139.574 560.872 139.358C562.427 138.095 563 137.626 563 136.732C563 135.695 562.069 135 560.882 135C559.696 135 559 135.893 559 136.669C559 137.129 559.45 137.129 559.481 137.129C559.696 137.129 559.962 136.994 559.962 136.705C559.962 136.453 559.767 136.281 559.481 136.281C559.389 136.281 559.368 136.281 559.338 136.29C559.532 135.677 560.084 135.262 560.749 135.262C561.619 135.262 562.151 135.902 562.151 136.732C562.151 137.499 561.65 138.167 561.066 138.744L559 140.783V141H562.734L563 139.484Z" fill="white"/>
<path d="M58 205.268C58.0083 205.218 58.0209 205.151 58.0376 205.068C58.0543 204.984 58.1044 204.826 58.1878 204.592C58.2713 204.358 58.3548 204.162 58.4383 204.004C58.5218 203.845 58.6595 203.691 58.8515 203.54C59.0435 203.39 59.2355 203.319 59.4275 203.327C59.7281 203.327 59.9785 203.403 60.1789 203.553C60.3792 203.703 60.5045 203.845 60.5546 203.979C60.6047 204.112 60.6297 204.2 60.6297 204.242C60.6297 204.258 60.6339 204.267 60.6422 204.267L60.78 204.129C61.2892 203.595 61.8694 203.327 62.5206 203.327C62.9714 203.327 63.3345 203.44 63.61 203.665C63.8855 203.891 64.0274 204.221 64.0358 204.655C64.0441 205.089 63.8855 205.744 63.5599 206.621C63.2343 207.497 63.0757 208.027 63.0841 208.211C63.0841 208.428 63.155 208.537 63.297 208.537C63.347 208.537 63.3846 208.532 63.4097 208.524C63.6518 208.482 63.8688 208.324 64.0608 208.048C64.2528 207.773 64.3989 207.439 64.4991 207.047C64.5158 206.98 64.5993 206.946 64.7496 206.946C64.9165 206.946 65 206.98 65 207.047C65 207.055 64.9833 207.117 64.9499 207.234C64.8831 207.476 64.7913 207.714 64.6744 207.948C64.5575 208.182 64.3655 208.416 64.0984 208.649C63.8312 208.883 63.5432 208.996 63.2343 208.987C62.842 208.987 62.5581 208.875 62.3828 208.649C62.2075 208.424 62.1199 208.19 62.1199 207.948C62.1199 207.79 62.2701 207.289 62.5707 206.445C62.8712 205.602 63.0256 204.968 63.034 204.542C63.034 204.049 62.8503 203.803 62.483 203.803H62.4204C61.7024 203.803 61.0972 204.225 60.6047 205.068L60.517 205.218L60.1038 206.896C59.8283 207.99 59.6696 208.578 59.6279 208.662C59.5194 208.887 59.3399 209 59.0894 209C58.9809 209 58.8933 208.975 58.8265 208.925C58.7597 208.875 58.7138 208.825 58.6887 208.775C58.6637 208.725 58.6553 208.683 58.6637 208.649C58.6637 208.541 58.8223 207.86 59.1395 206.608C59.4568 205.356 59.6237 204.676 59.6404 204.567C59.6488 204.525 59.653 204.429 59.653 204.279C59.653 203.953 59.5528 203.791 59.3524 203.791C59.0352 203.791 58.7722 204.208 58.5635 205.043C58.5134 205.21 58.4884 205.298 58.4884 205.306C58.4717 205.356 58.3924 205.381 58.2504 205.381H58.0751C58.025 205.331 58 205.293 58 205.268Z" fill="black"/>
<path d="M116 204.584C116.008 204.534 116.021 204.467 116.038 204.383C116.054 204.3 116.104 204.141 116.188 203.908C116.271 203.674 116.355 203.478 116.438 203.319C116.522 203.16 116.66 203.006 116.852 202.856C117.044 202.705 117.236 202.634 117.428 202.643C117.728 202.643 117.979 202.718 118.179 202.868C118.379 203.018 118.504 203.16 118.555 203.294C118.605 203.428 118.63 203.515 118.63 203.557C118.63 203.574 118.634 203.582 118.642 203.582L118.78 203.444C119.289 202.91 119.869 202.643 120.521 202.643C120.971 202.643 121.335 202.756 121.61 202.981C121.886 203.206 122.027 203.536 122.036 203.97C122.044 204.404 121.886 205.06 121.56 205.936C121.234 206.813 121.076 207.343 121.084 207.527C121.084 207.744 121.155 207.852 121.297 207.852C121.347 207.852 121.385 207.848 121.41 207.84C121.652 207.798 121.869 207.639 122.061 207.364C122.253 207.088 122.399 206.754 122.499 206.362C122.516 206.295 122.599 206.262 122.75 206.262C122.917 206.262 123 206.295 123 206.362C123 206.37 122.983 206.433 122.95 206.55C122.883 206.792 122.791 207.03 122.674 207.264C122.558 207.497 122.366 207.731 122.098 207.965C121.831 208.199 121.543 208.311 121.234 208.303C120.842 208.303 120.558 208.19 120.383 207.965C120.208 207.739 120.12 207.506 120.12 207.264C120.12 207.105 120.27 206.604 120.571 205.761C120.871 204.918 121.026 204.283 121.034 203.857C121.034 203.365 120.85 203.119 120.483 203.119H120.42C119.702 203.119 119.097 203.54 118.605 204.383L118.517 204.534L118.104 206.212C117.828 207.305 117.67 207.894 117.628 207.977C117.519 208.203 117.34 208.315 117.089 208.315C116.981 208.315 116.893 208.29 116.826 208.24C116.76 208.19 116.714 208.14 116.689 208.09C116.664 208.04 116.655 207.998 116.664 207.965C116.664 207.856 116.822 207.176 117.14 205.924C117.457 204.671 117.624 203.991 117.64 203.883C117.649 203.841 117.653 203.745 117.653 203.594C117.653 203.269 117.553 203.106 117.352 203.106C117.035 203.106 116.772 203.524 116.564 204.358C116.513 204.525 116.488 204.613 116.488 204.621C116.472 204.671 116.392 204.696 116.25 204.696H116.075C116.025 204.646 116 204.609 116 204.584Z" fill="white"/>
<path d="M287 204.941C287.008 204.891 287.021 204.824 287.038 204.741C287.054 204.657 287.104 204.499 287.188 204.265C287.271 204.031 287.355 203.835 287.438 203.676C287.522 203.518 287.66 203.363 287.852 203.213C288.044 203.063 288.236 202.992 288.428 203C288.728 203 288.979 203.075 289.179 203.226C289.379 203.376 289.504 203.518 289.555 203.651C289.605 203.785 289.63 203.873 289.63 203.914C289.63 203.931 289.634 203.939 289.642 203.939L289.78 203.802C290.289 203.267 290.869 203 291.521 203C291.971 203 292.335 203.113 292.61 203.338C292.886 203.564 293.027 203.893 293.036 204.328C293.044 204.762 292.886 205.417 292.56 206.294C292.234 207.17 292.076 207.7 292.084 207.884C292.084 208.101 292.155 208.21 292.297 208.21C292.347 208.21 292.385 208.205 292.41 208.197C292.652 208.155 292.869 207.997 293.061 207.721C293.253 207.446 293.399 207.112 293.499 206.719C293.516 206.653 293.599 206.619 293.75 206.619C293.917 206.619 294 206.653 294 206.719C294 206.728 293.983 206.79 293.95 206.907C293.883 207.149 293.791 207.387 293.674 207.621C293.558 207.855 293.366 208.088 293.098 208.322C292.831 208.556 292.543 208.669 292.234 208.66C291.842 208.66 291.558 208.548 291.383 208.322C291.208 208.097 291.12 207.863 291.12 207.621C291.12 207.462 291.27 206.961 291.571 206.118C291.871 205.275 292.026 204.641 292.034 204.215C292.034 203.722 291.85 203.476 291.483 203.476H291.42C290.702 203.476 290.097 203.898 289.605 204.741L289.517 204.891L289.104 206.569C288.828 207.663 288.67 208.251 288.628 208.335C288.519 208.56 288.34 208.673 288.089 208.673C287.981 208.673 287.893 208.648 287.826 208.598C287.76 208.548 287.714 208.498 287.689 208.447C287.664 208.397 287.655 208.356 287.664 208.322C287.664 208.214 287.822 207.533 288.14 206.281C288.457 205.029 288.624 204.348 288.64 204.24C288.649 204.198 288.653 204.102 288.653 203.952C288.653 203.626 288.553 203.464 288.352 203.464C288.035 203.464 287.772 203.881 287.564 204.716C287.513 204.883 287.488 204.97 287.488 204.979C287.472 205.029 287.392 205.054 287.25 205.054H287.075C287.025 205.004 287 204.966 287 204.941Z" fill="white"/>
<path d="M557 206.161C557.009 206.106 557.023 206.031 557.042 205.938C557.06 205.845 557.116 205.669 557.209 205.409C557.302 205.148 557.395 204.93 557.488 204.753C557.581 204.577 557.734 204.405 557.948 204.238C558.162 204.07 558.375 203.991 558.589 204.001C558.924 204.001 559.202 204.084 559.426 204.252C559.649 204.419 559.788 204.577 559.844 204.726C559.899 204.874 559.927 204.972 559.927 205.018C559.927 205.037 559.932 205.046 559.941 205.046L560.095 204.893C560.662 204.298 561.307 204.001 562.032 204.001C562.534 204.001 562.938 204.126 563.245 204.377C563.552 204.628 563.71 204.995 563.719 205.478C563.728 205.962 563.552 206.691 563.189 207.667C562.827 208.643 562.65 209.233 562.66 209.437C562.66 209.679 562.739 209.8 562.897 209.8C562.952 209.8 562.994 209.795 563.022 209.786C563.291 209.739 563.533 209.563 563.747 209.256C563.961 208.949 564.123 208.578 564.235 208.141C564.253 208.066 564.346 208.029 564.514 208.029C564.699 208.029 564.792 208.066 564.792 208.141C564.792 208.15 564.774 208.22 564.737 208.35C564.662 208.619 564.56 208.884 564.43 209.144C564.3 209.405 564.086 209.665 563.789 209.925C563.491 210.185 563.171 210.311 562.827 210.301C562.39 210.301 562.074 210.176 561.879 209.925C561.684 209.674 561.586 209.414 561.586 209.144C561.586 208.968 561.753 208.41 562.088 207.472C562.423 206.533 562.594 205.827 562.604 205.353C562.604 204.805 562.399 204.53 561.99 204.53H561.921C561.122 204.53 560.448 205 559.899 205.938L559.802 206.106L559.342 207.974C559.035 209.191 558.859 209.846 558.812 209.939C558.691 210.19 558.492 210.315 558.213 210.315C558.092 210.315 557.994 210.288 557.92 210.232C557.846 210.176 557.795 210.12 557.767 210.065C557.739 210.009 557.73 209.962 557.739 209.925C557.739 209.804 557.915 209.047 558.269 207.653C558.622 206.259 558.808 205.502 558.826 205.381C558.835 205.334 558.84 205.227 558.84 205.06C558.84 204.698 558.729 204.517 558.505 204.517C558.152 204.517 557.86 204.981 557.627 205.91C557.572 206.096 557.544 206.194 557.544 206.203C557.525 206.259 557.437 206.287 557.279 206.287H557.084C557.028 206.231 557 206.189 557 206.161Z" fill="white"/>
<path d="M53.8087 75.5727C56.9069 74.3298 59.2124 71.0516 59.2124 67.7913C59.2124 64.8193 57.2671 63 54.7454 63C50.8907 63 47 67.1429 47 71.3037C47 74.1317 48.8733 76.059 51.4851 76.059C52.0975 76.059 52.6919 75.969 53.2683 75.7888C53.1603 76.8696 53.1603 76.9597 53.1603 77.3019C53.1603 77.8242 53.1603 79.1752 54.6013 79.1752C56.7447 79.1752 57.5373 75.8069 57.5373 75.6988C57.5373 75.5907 57.4652 75.5187 57.3752 75.5187C57.2671 75.5187 57.2311 75.6087 57.177 75.8069C56.7808 76.9416 55.8441 77.5901 55.0516 77.5901C54.1329 77.5901 53.8988 76.9597 53.8087 75.5727ZM50.5665 75.4826C49.1435 74.9963 48.459 73.5013 48.459 71.8441C48.459 70.5832 48.9273 68.1876 50.1162 66.3683C51.4491 64.3149 53.2323 63.3963 54.6373 63.3963C56.5106 63.3963 57.7714 64.9093 57.7714 67.2509C57.7714 68.5839 57.141 73.0509 53.7547 75.0323C53.6646 74.1137 53.4124 73.0329 52.2236 73.0329C51.2509 73.0329 50.4224 74.0056 50.4224 74.8882C50.4224 75.0864 50.4944 75.3565 50.5665 75.4826ZM53.3044 75.2665C52.6559 75.5547 52.0975 75.6628 51.5932 75.6628C51.4131 75.6628 50.7826 75.6628 50.7826 74.8702C50.7826 74.2218 51.4131 73.3932 52.2236 73.3932C53.1242 73.3932 53.3224 74.0056 53.3224 74.9062C53.3224 75.0143 53.3224 75.1584 53.3044 75.2665Z" fill="black"/>
<path d="M52.8087 133.573C55.9069 132.33 58.2124 129.052 58.2124 125.791C58.2124 122.819 56.2671 121 53.7454 121C49.8907 121 46 125.143 46 129.304C46 132.132 47.8733 134.059 50.4851 134.059C51.0975 134.059 51.6919 133.969 52.2683 133.789C52.1603 134.87 52.1603 134.96 52.1603 135.302C52.1603 135.824 52.1603 137.175 53.6013 137.175C55.7447 137.175 56.5373 133.807 56.5373 133.699C56.5373 133.591 56.4652 133.519 56.3752 133.519C56.2671 133.519 56.2311 133.609 56.177 133.807C55.7808 134.942 54.8441 135.59 54.0516 135.59C53.1329 135.59 52.8988 134.96 52.8087 133.573ZM49.5665 133.483C48.1435 132.996 47.459 131.501 47.459 129.844C47.459 128.583 47.9273 126.188 49.1162 124.368C50.4491 122.315 52.2323 121.396 53.6373 121.396C55.5106 121.396 56.7714 122.909 56.7714 125.251C56.7714 126.584 56.141 131.051 52.7547 133.032C52.6646 132.114 52.4124 131.033 51.2236 131.033C50.2509 131.033 49.4224 132.006 49.4224 132.888C49.4224 133.086 49.4944 133.357 49.5665 133.483ZM52.3044 133.266C51.6559 133.555 51.0975 133.663 50.5932 133.663C50.4131 133.663 49.7826 133.663 49.7826 132.87C49.7826 132.222 50.4131 131.393 51.2236 131.393C52.1242 131.393 52.3224 132.006 52.3224 132.906C52.3224 133.014 52.3224 133.158 52.3044 133.266Z" fill="black"/>
<path d="M52.8087 203.573C55.9069 202.33 58.2124 199.052 58.2124 195.791C58.2124 192.819 56.2671 191 53.7454 191C49.8907 191 46 195.143 46 199.304C46 202.132 47.8733 204.059 50.4851 204.059C51.0975 204.059 51.6919 203.969 52.2683 203.789C52.1603 204.87 52.1603 204.96 52.1603 205.302C52.1603 205.824 52.1603 207.175 53.6013 207.175C55.7447 207.175 56.5373 203.807 56.5373 203.699C56.5373 203.591 56.4652 203.519 56.3752 203.519C56.2671 203.519 56.2311 203.609 56.177 203.807C55.7808 204.942 54.8441 205.59 54.0516 205.59C53.1329 205.59 52.8988 204.96 52.8087 203.573ZM49.5665 203.483C48.1435 202.996 47.459 201.501 47.459 199.844C47.459 198.583 47.9273 196.188 49.1162 194.368C50.4491 192.315 52.2323 191.396 53.6373 191.396C55.5106 191.396 56.7714 192.909 56.7714 195.251C56.7714 196.584 56.141 201.051 52.7547 203.032C52.6646 202.114 52.4124 201.033 51.2236 201.033C50.2509 201.033 49.4224 202.006 49.4224 202.888C49.4224 203.086 49.4944 203.357 49.5665 203.483ZM52.3044 203.266C51.6559 203.555 51.0975 203.663 50.5932 203.663C50.4131 203.663 49.7826 203.663 49.7826 202.87C49.7826 202.222 50.4131 201.393 51.2236 201.393C52.1242 201.393 52.3224 202.006 52.3224 202.906C52.3224 203.014 52.3224 203.158 52.3044 203.266Z" fill="black"/>
<path d="M110.728 66.2248C110.89 65.5584 110.962 65.5224 111.665 65.5224H114.006C116.042 65.5224 116.042 67.2516 116.042 67.4137C116.042 68.8727 114.583 70.728 112.205 70.728H109.611L110.728 66.2248ZM113.772 70.8721C115.735 70.5118 117.519 69.1429 117.519 67.4857C117.519 66.0807 116.276 65 114.24 65H108.458C108.116 65 107.954 65 107.954 65.3422C107.954 65.5224 108.116 65.5224 108.386 65.5224C109.485 65.5224 109.485 65.6665 109.485 65.8646C109.485 65.9006 109.485 66.0087 109.413 66.2789L106.981 75.9696C106.819 76.6 106.783 76.7801 105.522 76.7801C105.18 76.7801 105 76.7801 105 77.1044C105 77.3025 105.108 77.3025 105.468 77.3025H111.647C114.403 77.3025 116.528 75.2131 116.528 73.3938C116.528 71.9168 115.231 71.0162 113.772 70.8721ZM111.214 76.7801H108.783C108.53 76.7801 108.494 76.7801 108.386 76.7621C108.188 76.7441 108.17 76.7081 108.17 76.564C108.17 76.4379 108.206 76.3298 108.242 76.1677L109.503 71.0882H112.889C115.015 71.0882 115.015 73.0696 115.015 73.2137C115.015 74.9429 113.448 76.7801 111.214 76.7801Z" fill="white"/>
<path d="M110.728 124.225C110.89 123.558 110.962 123.522 111.665 123.522H114.006C116.042 123.522 116.042 125.252 116.042 125.414C116.042 126.873 114.583 128.728 112.205 128.728H109.611L110.728 124.225ZM113.772 128.872C115.735 128.512 117.519 127.143 117.519 125.486C117.519 124.081 116.276 123 114.24 123H108.458C108.116 123 107.954 123 107.954 123.342C107.954 123.522 108.116 123.522 108.386 123.522C109.485 123.522 109.485 123.666 109.485 123.865C109.485 123.901 109.485 124.009 109.413 124.279L106.981 133.97C106.819 134.6 106.783 134.78 105.522 134.78C105.18 134.78 105 134.78 105 135.104C105 135.303 105.108 135.303 105.468 135.303H111.647C114.403 135.303 116.528 133.213 116.528 131.394C116.528 129.917 115.231 129.016 113.772 128.872ZM111.214 134.78H108.783C108.53 134.78 108.494 134.78 108.386 134.762C108.188 134.744 108.17 134.708 108.17 134.564C108.17 134.438 108.206 134.33 108.242 134.168L109.503 129.088H112.889C115.015 129.088 115.015 131.07 115.015 131.214C115.015 132.943 113.448 134.78 111.214 134.78Z" fill="white"/>
<path d="M109.728 194.225C109.89 193.558 109.962 193.522 110.665 193.522H113.006C115.042 193.522 115.042 195.252 115.042 195.414C115.042 196.873 113.583 198.728 111.205 198.728H108.611L109.728 194.225ZM112.772 198.872C114.735 198.512 116.519 197.143 116.519 195.486C116.519 194.081 115.276 193 113.24 193H107.458C107.116 193 106.954 193 106.954 193.342C106.954 193.522 107.116 193.522 107.386 193.522C108.485 193.522 108.485 193.666 108.485 193.865C108.485 193.901 108.485 194.009 108.413 194.279L105.981 203.97C105.819 204.6 105.783 204.78 104.522 204.78C104.18 204.78 104 204.78 104 205.104C104 205.303 104.108 205.303 104.468 205.303H110.647C113.403 205.303 115.528 203.213 115.528 201.394C115.528 199.917 114.231 199.016 112.772 198.872ZM110.214 204.78H107.783C107.53 204.78 107.494 204.78 107.386 204.762C107.188 204.744 107.17 204.708 107.17 204.564C107.17 204.438 107.206 204.33 107.242 204.168L108.503 199.088H111.889C114.015 199.088 114.015 201.07 114.015 201.214C114.015 202.943 112.448 204.78 110.214 204.78Z" fill="white"/>
<path d="M289.519 65.1621C289.519 65 289.393 65 289.357 65C289.285 65 289.267 65.018 289.051 65.2882C288.943 65.4143 288.204 66.3509 288.186 66.3689C287.592 65.1981 286.403 65 285.647 65C283.359 65 281.288 67.0894 281.288 69.1249C281.288 70.4758 282.098 71.2683 282.981 71.5745C283.179 71.6466 284.242 71.9348 284.782 72.0609C285.701 72.3131 285.935 72.3851 286.313 72.7814C286.385 72.8714 286.745 73.2857 286.745 74.1323C286.745 75.8075 285.196 77.5367 283.395 77.5367C281.918 77.5367 280.279 76.9062 280.279 74.8888C280.279 74.5466 280.351 74.1143 280.405 73.9342C280.405 73.8801 280.423 73.7901 280.423 73.7541C280.423 73.682 280.387 73.5919 280.243 73.5919C280.081 73.5919 280.063 73.628 279.991 73.9342L279.072 77.6267C279.072 77.6447 279 77.8789 279 77.8969C279 78.059 279.144 78.059 279.18 78.059C279.252 78.059 279.27 78.041 279.486 77.7708L280.315 76.6901C280.747 77.3385 281.684 78.059 283.359 78.059C285.683 78.059 287.808 75.8075 287.808 73.5559C287.808 72.7994 287.628 72.1329 286.943 71.4665C286.565 71.0882 286.241 70.9981 284.584 70.5658C283.377 70.2416 283.215 70.1876 282.891 69.8994C282.584 69.5932 282.35 69.1609 282.35 68.5485C282.35 67.0354 283.881 65.4863 285.593 65.4863C287.358 65.4863 288.186 66.5671 288.186 68.2783C288.186 68.7466 288.096 69.2329 288.096 69.305C288.096 69.4671 288.24 69.4671 288.294 69.4671C288.457 69.4671 288.475 69.4131 288.547 69.1249L289.519 65.1621Z" fill="white"/>
<path d="M288.519 123.162C288.519 123 288.393 123 288.357 123C288.285 123 288.267 123.018 288.051 123.288C287.943 123.414 287.204 124.351 287.186 124.369C286.592 123.198 285.403 123 284.647 123C282.359 123 280.288 125.089 280.288 127.125C280.288 128.476 281.098 129.268 281.981 129.575C282.179 129.647 283.242 129.935 283.782 130.061C284.701 130.313 284.935 130.385 285.313 130.781C285.385 130.871 285.745 131.286 285.745 132.132C285.745 133.807 284.196 135.537 282.395 135.537C280.918 135.537 279.279 134.906 279.279 132.889C279.279 132.547 279.351 132.114 279.405 131.934C279.405 131.88 279.423 131.79 279.423 131.754C279.423 131.682 279.387 131.592 279.243 131.592C279.081 131.592 279.063 131.628 278.991 131.934L278.072 135.627C278.072 135.645 278 135.879 278 135.897C278 136.059 278.144 136.059 278.18 136.059C278.252 136.059 278.27 136.041 278.486 135.771L279.315 134.69C279.747 135.339 280.684 136.059 282.359 136.059C284.683 136.059 286.808 133.807 286.808 131.556C286.808 130.799 286.628 130.133 285.943 129.466C285.565 129.088 285.241 128.998 283.584 128.566C282.377 128.242 282.215 128.188 281.891 127.899C281.584 127.593 281.35 127.161 281.35 126.548C281.35 125.035 282.881 123.486 284.593 123.486C286.358 123.486 287.186 124.567 287.186 126.278C287.186 126.747 287.096 127.233 287.096 127.305C287.096 127.467 287.24 127.467 287.294 127.467C287.457 127.467 287.475 127.413 287.547 127.125L288.519 123.162Z" fill="white"/>
<path d="M287.519 192.162C287.519 192 287.393 192 287.357 192C287.285 192 287.267 192.018 287.051 192.288C286.943 192.414 286.204 193.351 286.186 193.369C285.592 192.198 284.403 192 283.647 192C281.359 192 279.288 194.089 279.288 196.125C279.288 197.476 280.098 198.268 280.981 198.575C281.179 198.647 282.242 198.935 282.782 199.061C283.701 199.313 283.935 199.385 284.313 199.781C284.385 199.871 284.745 200.286 284.745 201.132C284.745 202.807 283.196 204.537 281.395 204.537C279.918 204.537 278.279 203.906 278.279 201.889C278.279 201.547 278.351 201.114 278.405 200.934C278.405 200.88 278.423 200.79 278.423 200.754C278.423 200.682 278.387 200.592 278.243 200.592C278.081 200.592 278.063 200.628 277.991 200.934L277.072 204.627C277.072 204.645 277 204.879 277 204.897C277 205.059 277.144 205.059 277.18 205.059C277.252 205.059 277.27 205.041 277.486 204.771L278.315 203.69C278.747 204.339 279.684 205.059 281.359 205.059C283.683 205.059 285.808 202.807 285.808 200.556C285.808 199.799 285.628 199.133 284.943 198.466C284.565 198.088 284.241 197.998 282.584 197.566C281.377 197.242 281.215 197.188 280.891 196.899C280.584 196.593 280.35 196.161 280.35 195.548C280.35 194.035 281.881 192.486 283.593 192.486C285.358 192.486 286.186 193.567 286.186 195.278C286.186 195.747 286.096 196.233 286.096 196.305C286.096 196.467 286.24 196.467 286.294 196.467C286.457 196.467 286.475 196.413 286.547 196.125L287.519 192.162Z" fill="white"/>
<path d="M550.782 68.2248C550.944 67.5584 551.016 67.5224 551.719 67.5224H553.016C554.565 67.5224 555.717 67.9907 555.717 69.3957C555.717 70.3143 555.249 72.9621 551.629 72.9621H549.593L550.782 68.2248ZM553.286 73.1783C555.519 72.6919 557.266 71.2509 557.266 69.7019C557.266 68.2969 555.843 67 553.34 67H548.458C548.098 67 547.936 67 547.936 67.3422C547.936 67.5224 548.062 67.5224 548.404 67.5224C549.485 67.5224 549.485 67.6665 549.485 67.8646C549.485 67.9006 549.485 68.0087 549.413 68.2789L546.981 77.9696C546.819 78.6 546.783 78.7801 545.54 78.7801C545.126 78.7801 545 78.7801 545 79.1224C545 79.3025 545.198 79.3025 545.252 79.3025C545.576 79.3025 545.955 79.2665 546.297 79.2665H548.422C548.747 79.2665 549.125 79.3025 549.449 79.3025C549.593 79.3025 549.791 79.3025 549.791 78.9603C549.791 78.7801 549.629 78.7801 549.359 78.7801C548.26 78.7801 548.26 78.636 548.26 78.4559C548.26 78.4379 548.26 78.3118 548.296 78.1677L549.503 73.3224H551.665C553.376 73.3224 553.7 74.4031 553.7 74.9975C553.7 75.2677 553.52 75.9702 553.394 76.4385C553.196 77.2671 553.142 77.4652 553.142 77.8075C553.142 79.0864 554.186 79.6808 555.393 79.6808C556.852 79.6808 557.483 77.8975 557.483 77.6454C557.483 77.5193 557.393 77.4652 557.284 77.4652C557.14 77.4652 557.104 77.5733 557.068 77.7174C556.636 78.9963 555.898 79.3205 555.447 79.3205C554.997 79.3205 554.709 79.1224 554.709 78.3118C554.709 77.8795 554.925 76.2404 554.943 76.1503C555.033 75.4839 555.033 75.4118 555.033 75.2677C555.033 73.9528 553.97 73.3944 553.286 73.1783Z" fill="white"/>
<path d="M511.863 77.2526C511.863 77.009 511.846 77 511.615 77C511.265 77.3609 510.812 77.5774 510 77.5774V77.8752C510.231 77.8752 510.692 77.8752 511.188 77.6316V82.2602C511.188 82.594 511.162 82.7023 510.35 82.7023H510.051V83C510.402 82.9729 511.137 82.9729 511.521 82.9729C511.906 82.9729 512.65 82.9729 513 83V82.7023H512.701C511.889 82.7023 511.863 82.594 511.863 82.2602V77.2526Z" fill="#FBFBFB"/>
<path d="M513 139.484H512.775C512.744 139.638 512.662 140.134 512.56 140.278C512.488 140.359 511.905 140.359 511.598 140.359H509.706C509.982 140.152 510.606 139.574 510.872 139.358C512.427 138.095 513 137.626 513 136.732C513 135.695 512.069 135 510.882 135C509.696 135 509 135.893 509 136.669C509 137.129 509.45 137.129 509.481 137.129C509.696 137.129 509.962 136.994 509.962 136.705C509.962 136.453 509.767 136.281 509.481 136.281C509.389 136.281 509.368 136.281 509.338 136.29C509.532 135.677 510.084 135.262 510.749 135.262C511.619 135.262 512.151 135.902 512.151 136.732C512.151 137.499 511.65 138.167 511.066 138.744L509 140.783V141H512.734L513 139.484Z" fill="white"/>
<path d="M508 205.584C508.008 205.534 508.021 205.467 508.038 205.383C508.054 205.3 508.104 205.141 508.188 204.908C508.271 204.674 508.355 204.478 508.438 204.319C508.522 204.16 508.66 204.006 508.852 203.856C509.044 203.705 509.236 203.634 509.428 203.643C509.728 203.643 509.979 203.718 510.179 203.868C510.379 204.018 510.504 204.16 510.555 204.294C510.605 204.428 510.63 204.515 510.63 204.557C510.63 204.574 510.634 204.582 510.642 204.582L510.78 204.444C511.289 203.91 511.869 203.643 512.521 203.643C512.971 203.643 513.335 203.756 513.61 203.981C513.886 204.206 514.027 204.536 514.036 204.97C514.044 205.404 513.886 206.06 513.56 206.936C513.234 207.813 513.076 208.343 513.084 208.527C513.084 208.744 513.155 208.852 513.297 208.852C513.347 208.852 513.385 208.848 513.41 208.84C513.652 208.798 513.869 208.639 514.061 208.364C514.253 208.088 514.399 207.754 514.499 207.362C514.516 207.295 514.599 207.262 514.75 207.262C514.917 207.262 515 207.295 515 207.362C515 207.37 514.983 207.433 514.95 207.55C514.883 207.792 514.791 208.03 514.674 208.264C514.558 208.497 514.366 208.731 514.098 208.965C513.831 209.199 513.543 209.311 513.234 209.303C512.842 209.303 512.558 209.19 512.383 208.965C512.208 208.739 512.12 208.506 512.12 208.264C512.12 208.105 512.27 207.604 512.571 206.761C512.871 205.918 513.026 205.283 513.034 204.857C513.034 204.365 512.85 204.119 512.483 204.119H512.42C511.702 204.119 511.097 204.54 510.605 205.383L510.517 205.534L510.104 207.212C509.828 208.305 509.67 208.894 509.628 208.977C509.519 209.203 509.34 209.315 509.089 209.315C508.981 209.315 508.893 209.29 508.826 209.24C508.76 209.19 508.714 209.14 508.689 209.09C508.664 209.04 508.655 208.998 508.664 208.965C508.664 208.856 508.822 208.176 509.14 206.924C509.457 205.671 509.624 204.991 509.64 204.883C509.649 204.841 509.653 204.745 509.653 204.594C509.653 204.269 509.553 204.106 509.352 204.106C509.035 204.106 508.772 204.524 508.564 205.358C508.513 205.525 508.488 205.613 508.488 205.621C508.472 205.671 508.392 205.696 508.25 205.696H508.075C508.025 205.646 508 205.609 508 205.584Z" fill="white"/>
<path d="M502.728 68.2248C502.89 67.5584 502.962 67.5224 503.665 67.5224H506.006C508.042 67.5224 508.042 69.2516 508.042 69.4137C508.042 70.8727 506.583 72.728 504.205 72.728H501.611L502.728 68.2248ZM505.772 72.8721C507.735 72.5118 509.519 71.1429 509.519 69.4857C509.519 68.0807 508.276 67 506.24 67H500.458C500.116 67 499.954 67 499.954 67.3422C499.954 67.5224 500.116 67.5224 500.386 67.5224C501.485 67.5224 501.485 67.6665 501.485 67.8646C501.485 67.9006 501.485 68.0087 501.413 68.2789L498.981 77.9696C498.819 78.6 498.783 78.7801 497.522 78.7801C497.18 78.7801 497 78.7801 497 79.1044C497 79.3025 497.108 79.3025 497.468 79.3025H503.647C506.403 79.3025 508.528 77.2131 508.528 75.3938C508.528 73.9168 507.231 73.0162 505.772 72.8721ZM503.214 78.7801H500.783C500.53 78.7801 500.494 78.7801 500.386 78.7621C500.188 78.7441 500.17 78.7081 500.17 78.564C500.17 78.4379 500.206 78.3298 500.242 78.1677L501.503 73.0882H504.889C507.015 73.0882 507.015 75.0696 507.015 75.2137C507.015 76.9429 505.448 78.7801 503.214 78.7801Z" fill="white"/>
<path d="M502.728 126.225C502.89 125.558 502.962 125.522 503.665 125.522H506.006C508.042 125.522 508.042 127.252 508.042 127.414C508.042 128.873 506.583 130.728 504.205 130.728H501.611L502.728 126.225ZM505.772 130.872C507.735 130.512 509.519 129.143 509.519 127.486C509.519 126.081 508.276 125 506.24 125H500.458C500.116 125 499.954 125 499.954 125.342C499.954 125.522 500.116 125.522 500.386 125.522C501.485 125.522 501.485 125.666 501.485 125.865C501.485 125.901 501.485 126.009 501.413 126.279L498.981 135.97C498.819 136.6 498.783 136.78 497.522 136.78C497.18 136.78 497 136.78 497 137.104C497 137.303 497.108 137.303 497.468 137.303H503.647C506.403 137.303 508.528 135.213 508.528 133.394C508.528 131.917 507.231 131.016 505.772 130.872ZM503.214 136.78H500.783C500.53 136.78 500.494 136.78 500.386 136.762C500.188 136.744 500.17 136.708 500.17 136.564C500.17 136.438 500.206 136.33 500.242 136.168L501.503 131.088H504.889C507.015 131.088 507.015 133.07 507.015 133.214C507.015 134.943 505.448 136.78 503.214 136.78Z" fill="white"/>
<path d="M501.728 195.225C501.89 194.558 501.962 194.522 502.665 194.522H505.006C507.042 194.522 507.042 196.252 507.042 196.414C507.042 197.873 505.583 199.728 503.205 199.728H500.611L501.728 195.225ZM504.772 199.872C506.735 199.512 508.519 198.143 508.519 196.486C508.519 195.081 507.276 194 505.24 194H499.458C499.116 194 498.954 194 498.954 194.342C498.954 194.522 499.116 194.522 499.386 194.522C500.485 194.522 500.485 194.666 500.485 194.865C500.485 194.901 500.485 195.009 500.413 195.279L497.981 204.97C497.819 205.6 497.783 205.78 496.522 205.78C496.18 205.78 496 205.78 496 206.104C496 206.303 496.108 206.303 496.468 206.303H502.647C505.403 206.303 507.528 204.213 507.528 202.394C507.528 200.917 506.231 200.016 504.772 199.872ZM502.214 205.78H499.783C499.53 205.78 499.494 205.78 499.386 205.762C499.188 205.744 499.17 205.708 499.17 205.564C499.17 205.438 499.206 205.33 499.242 205.168L500.503 200.088H503.889C506.015 200.088 506.015 202.07 506.015 202.214C506.015 203.943 504.448 205.78 502.214 205.78Z" fill="white"/>
<path d="M448.863 77.2526C448.863 77.009 448.846 77 448.615 77C448.265 77.3609 447.812 77.5774 447 77.5774V77.8752C447.231 77.8752 447.692 77.8752 448.188 77.6316V82.2602C448.188 82.594 448.162 82.7023 447.35 82.7023H447.051V83C447.402 82.9729 448.137 82.9729 448.521 82.9729C448.906 82.9729 449.65 82.9729 450 83V82.7023H449.701C448.889 82.7023 448.863 82.594 448.863 82.2602V77.2526Z" fill="#FBFBFB"/>
<path d="M451 139.484H450.775C450.744 139.638 450.662 140.134 450.56 140.278C450.488 140.359 449.905 140.359 449.598 140.359H447.706C447.982 140.152 448.606 139.574 448.872 139.358C450.427 138.095 451 137.626 451 136.732C451 135.695 450.069 135 448.882 135C447.696 135 447 135.893 447 136.669C447 137.129 447.45 137.129 447.481 137.129C447.696 137.129 447.962 136.994 447.962 136.705C447.962 136.453 447.767 136.281 447.481 136.281C447.389 136.281 447.368 136.281 447.338 136.29C447.532 135.677 448.084 135.262 448.749 135.262C449.619 135.262 450.151 135.902 450.151 136.732C450.151 137.499 449.65 138.167 449.066 138.744L447 140.783V141H450.734L451 139.484Z" fill="white"/>
<path d="M447 206.941C447.008 206.891 447.021 206.824 447.038 206.741C447.054 206.657 447.104 206.499 447.188 206.265C447.271 206.031 447.355 205.835 447.438 205.676C447.522 205.518 447.66 205.363 447.852 205.213C448.044 205.063 448.236 204.992 448.428 205C448.728 205 448.979 205.075 449.179 205.226C449.379 205.376 449.504 205.518 449.555 205.651C449.605 205.785 449.63 205.873 449.63 205.914C449.63 205.931 449.634 205.939 449.642 205.939L449.78 205.802C450.289 205.267 450.869 205 451.521 205C451.971 205 452.335 205.113 452.61 205.338C452.886 205.564 453.027 205.893 453.036 206.328C453.044 206.762 452.886 207.417 452.56 208.294C452.234 209.17 452.076 209.7 452.084 209.884C452.084 210.101 452.155 210.21 452.297 210.21C452.347 210.21 452.385 210.205 452.41 210.197C452.652 210.155 452.869 209.997 453.061 209.721C453.253 209.446 453.399 209.112 453.499 208.719C453.516 208.653 453.599 208.619 453.75 208.619C453.917 208.619 454 208.653 454 208.719C454 208.728 453.983 208.79 453.95 208.907C453.883 209.149 453.791 209.387 453.674 209.621C453.558 209.855 453.366 210.088 453.098 210.322C452.831 210.556 452.543 210.669 452.234 210.66C451.842 210.66 451.558 210.548 451.383 210.322C451.208 210.097 451.12 209.863 451.12 209.621C451.12 209.462 451.27 208.961 451.571 208.118C451.871 207.275 452.026 206.641 452.034 206.215C452.034 205.722 451.85 205.476 451.483 205.476H451.42C450.702 205.476 450.097 205.898 449.605 206.741L449.517 206.891L449.104 208.569C448.828 209.663 448.67 210.251 448.628 210.335C448.519 210.56 448.34 210.673 448.089 210.673C447.981 210.673 447.893 210.648 447.826 210.598C447.76 210.548 447.714 210.498 447.689 210.447C447.664 210.397 447.655 210.356 447.664 210.322C447.664 210.214 447.822 209.533 448.14 208.281C448.457 207.029 448.624 206.348 448.64 206.24C448.649 206.198 448.653 206.102 448.653 205.952C448.653 205.626 448.553 205.464 448.352 205.464C448.035 205.464 447.772 205.881 447.564 206.716C447.513 206.883 447.488 206.97 447.488 206.979C447.472 207.029 447.392 207.054 447.25 207.054H447.075C447.025 207.004 447 206.966 447 206.941Z" fill="white"/>
<path d="M447.519 67.1621C447.519 67 447.393 67 447.357 67C447.285 67 447.267 67.018 447.051 67.2882C446.943 67.4143 446.204 68.3509 446.186 68.3689C445.592 67.1981 444.403 67 443.647 67C441.359 67 439.288 69.0894 439.288 71.1249C439.288 72.4758 440.098 73.2683 440.981 73.5745C441.179 73.6466 442.242 73.9348 442.782 74.0609C443.701 74.3131 443.935 74.3851 444.313 74.7814C444.385 74.8714 444.745 75.2857 444.745 76.1323C444.745 77.8075 443.196 79.5367 441.395 79.5367C439.918 79.5367 438.279 78.9062 438.279 76.8888C438.279 76.5466 438.351 76.1143 438.405 75.9342C438.405 75.8801 438.423 75.7901 438.423 75.7541C438.423 75.682 438.387 75.5919 438.243 75.5919C438.081 75.5919 438.063 75.628 437.991 75.9342L437.072 79.6267C437.072 79.6447 437 79.8789 437 79.8969C437 80.059 437.144 80.059 437.18 80.059C437.252 80.059 437.27 80.041 437.486 79.7708L438.315 78.6901C438.747 79.3385 439.684 80.059 441.359 80.059C443.683 80.059 445.808 77.8075 445.808 75.5559C445.808 74.7994 445.628 74.1329 444.943 73.4665C444.565 73.0882 444.241 72.9981 442.584 72.5658C441.377 72.2416 441.215 72.1876 440.891 71.8994C440.584 71.5932 440.35 71.1609 440.35 70.5485C440.35 69.0354 441.881 67.4863 443.593 67.4863C445.358 67.4863 446.186 68.5671 446.186 70.2783C446.186 70.7466 446.096 71.2329 446.096 71.305C446.096 71.4671 446.24 71.4671 446.294 71.4671C446.457 71.4671 446.475 71.4131 446.547 71.1249L447.519 67.1621Z" fill="white"/>
<path d="M447.519 125.162C447.519 125 447.393 125 447.357 125C447.285 125 447.267 125.018 447.051 125.288C446.943 125.414 446.204 126.351 446.186 126.369C445.592 125.198 444.403 125 443.647 125C441.359 125 439.288 127.089 439.288 129.125C439.288 130.476 440.098 131.268 440.981 131.575C441.179 131.647 442.242 131.935 442.782 132.061C443.701 132.313 443.935 132.385 444.313 132.781C444.385 132.871 444.745 133.286 444.745 134.132C444.745 135.807 443.196 137.537 441.395 137.537C439.918 137.537 438.279 136.906 438.279 134.889C438.279 134.547 438.351 134.114 438.405 133.934C438.405 133.88 438.423 133.79 438.423 133.754C438.423 133.682 438.387 133.592 438.243 133.592C438.081 133.592 438.063 133.628 437.991 133.934L437.072 137.627C437.072 137.645 437 137.879 437 137.897C437 138.059 437.144 138.059 437.18 138.059C437.252 138.059 437.27 138.041 437.486 137.771L438.315 136.69C438.747 137.339 439.684 138.059 441.359 138.059C443.683 138.059 445.808 135.807 445.808 133.556C445.808 132.799 445.628 132.133 444.943 131.466C444.565 131.088 444.241 130.998 442.584 130.566C441.377 130.242 441.215 130.188 440.891 129.899C440.584 129.593 440.35 129.161 440.35 128.548C440.35 127.035 441.881 125.486 443.593 125.486C445.358 125.486 446.186 126.567 446.186 128.278C446.186 128.747 446.096 129.233 446.096 129.305C446.096 129.467 446.24 129.467 446.294 129.467C446.457 129.467 446.475 129.413 446.547 129.125L447.519 125.162Z" fill="white"/>
<path d="M447.519 194.162C447.519 194 447.393 194 447.357 194C447.285 194 447.267 194.018 447.051 194.288C446.943 194.414 446.204 195.351 446.186 195.369C445.592 194.198 444.403 194 443.647 194C441.359 194 439.288 196.089 439.288 198.125C439.288 199.476 440.098 200.268 440.981 200.575C441.179 200.647 442.242 200.935 442.782 201.061C443.701 201.313 443.935 201.385 444.313 201.781C444.385 201.871 444.745 202.286 444.745 203.132C444.745 204.807 443.196 206.537 441.395 206.537C439.918 206.537 438.279 205.906 438.279 203.889C438.279 203.547 438.351 203.114 438.405 202.934C438.405 202.88 438.423 202.79 438.423 202.754C438.423 202.682 438.387 202.592 438.243 202.592C438.081 202.592 438.063 202.628 437.991 202.934L437.072 206.627C437.072 206.645 437 206.879 437 206.897C437 207.059 437.144 207.059 437.18 207.059C437.252 207.059 437.27 207.041 437.486 206.771L438.315 205.69C438.747 206.339 439.684 207.059 441.359 207.059C443.683 207.059 445.808 204.807 445.808 202.556C445.808 201.799 445.628 201.133 444.943 200.466C444.565 200.088 444.241 199.998 442.584 199.566C441.377 199.242 441.215 199.188 440.891 198.899C440.584 198.593 440.35 198.161 440.35 197.548C440.35 196.035 441.881 194.486 443.593 194.486C445.358 194.486 446.186 195.567 446.186 197.278C446.186 197.747 446.096 198.233 446.096 198.305C446.096 198.467 446.24 198.467 446.294 198.467C446.457 198.467 446.475 198.413 446.547 198.125L447.519 194.162Z" fill="white"/>
<path d="M450.606 65.4984C450.81 65.5245 450.827 65.5245 451.201 65.6289C451.329 65.6638 451.516 65.7073 451.652 65.7073C451.983 65.7073 452 65.42 452 65.3852C452 65.2894 451.958 65.0544 451.652 65.0544C451.456 65.0544 451.201 65.124 451.048 65.1763C450.827 65.2372 450.776 65.2459 450.606 65.2633C450.623 65.0109 450.649 64.7497 450.734 64.2013C450.785 63.9314 450.819 63.6616 450.819 63.3917C450.819 63.2612 450.785 63 450.504 63C450.181 63 450.181 63.3134 450.181 63.3917C450.181 63.4178 450.181 63.7225 450.266 64.2013C450.334 64.654 450.377 64.9499 450.394 65.2633C450.19 65.2372 450.173 65.2372 449.799 65.1328C449.671 65.0979 449.484 65.0544 449.348 65.0544C449.017 65.0544 449 65.3417 449 65.3765C449 65.4723 449.042 65.7073 449.348 65.7073C449.544 65.7073 449.799 65.6376 449.952 65.5854C450.173 65.5245 450.224 65.5158 450.394 65.4984C450.377 65.7334 450.343 65.9075 450.292 66.1338C450.181 66.691 450.181 66.778 450.181 67.222C450.181 68.8498 450.334 70.5735 450.36 70.8172C450.377 70.9391 450.377 71 450.496 71C450.615 71 450.623 70.9391 450.64 70.8346C450.683 70.469 450.717 69.9119 450.742 69.5288C450.768 69.1632 450.819 68.0664 450.819 67.222C450.819 66.8303 450.819 66.6823 450.717 66.2122C450.717 66.1861 450.623 65.7508 450.606 65.4984Z" fill="white"/>
<path d="M450.606 123.498C450.81 123.524 450.827 123.524 451.201 123.629C451.329 123.664 451.516 123.707 451.652 123.707C451.983 123.707 452 123.42 452 123.385C452 123.289 451.958 123.054 451.652 123.054C451.456 123.054 451.201 123.124 451.048 123.176C450.827 123.237 450.776 123.246 450.606 123.263C450.623 123.011 450.649 122.75 450.734 122.201C450.785 121.931 450.819 121.662 450.819 121.392C450.819 121.261 450.785 121 450.504 121C450.181 121 450.181 121.313 450.181 121.392C450.181 121.418 450.181 121.723 450.266 122.201C450.334 122.654 450.377 122.95 450.394 123.263C450.19 123.237 450.173 123.237 449.799 123.133C449.671 123.098 449.484 123.054 449.348 123.054C449.017 123.054 449 123.342 449 123.376C449 123.472 449.042 123.707 449.348 123.707C449.544 123.707 449.799 123.638 449.952 123.585C450.173 123.524 450.224 123.516 450.394 123.498C450.377 123.733 450.343 123.908 450.292 124.134C450.181 124.691 450.181 124.778 450.181 125.222C450.181 126.85 450.334 128.573 450.36 128.817C450.377 128.939 450.377 129 450.496 129C450.615 129 450.623 128.939 450.64 128.835C450.683 128.469 450.717 127.912 450.742 127.529C450.768 127.163 450.819 126.066 450.819 125.222C450.819 124.83 450.819 124.682 450.717 124.212C450.717 124.186 450.623 123.751 450.606 123.498Z" fill="white"/>
<path d="M450.606 192.498C450.81 192.524 450.827 192.524 451.201 192.629C451.329 192.664 451.516 192.707 451.652 192.707C451.983 192.707 452 192.42 452 192.385C452 192.289 451.958 192.054 451.652 192.054C451.456 192.054 451.201 192.124 451.048 192.176C450.827 192.237 450.776 192.246 450.606 192.263C450.623 192.011 450.649 191.75 450.734 191.201C450.785 190.931 450.819 190.662 450.819 190.392C450.819 190.261 450.785 190 450.504 190C450.181 190 450.181 190.313 450.181 190.392C450.181 190.418 450.181 190.723 450.266 191.201C450.334 191.654 450.377 191.95 450.394 192.263C450.19 192.237 450.173 192.237 449.799 192.133C449.671 192.098 449.484 192.054 449.348 192.054C449.017 192.054 449 192.342 449 192.376C449 192.472 449.042 192.707 449.348 192.707C449.544 192.707 449.799 192.638 449.952 192.585C450.173 192.524 450.224 192.516 450.394 192.498C450.377 192.733 450.343 192.908 450.292 193.134C450.181 193.691 450.181 193.778 450.181 194.222C450.181 195.85 450.334 197.573 450.36 197.817C450.377 197.939 450.377 198 450.496 198C450.615 198 450.623 197.939 450.64 197.835C450.683 197.469 450.717 196.912 450.742 196.529C450.768 196.163 450.819 195.066 450.819 194.222C450.819 193.83 450.819 193.682 450.717 193.212C450.717 193.186 450.623 192.751 450.606 192.498Z" fill="white"/>
<path d="M512.606 65.4984C512.81 65.5245 512.827 65.5245 513.201 65.6289C513.329 65.6638 513.516 65.7073 513.652 65.7073C513.983 65.7073 514 65.42 514 65.3852C514 65.2894 513.958 65.0544 513.652 65.0544C513.456 65.0544 513.201 65.124 513.048 65.1763C512.827 65.2372 512.776 65.2459 512.606 65.2633C512.623 65.0109 512.649 64.7497 512.734 64.2013C512.785 63.9314 512.819 63.6616 512.819 63.3917C512.819 63.2612 512.785 63 512.504 63C512.181 63 512.181 63.3134 512.181 63.3917C512.181 63.4178 512.181 63.7225 512.266 64.2013C512.334 64.654 512.377 64.9499 512.394 65.2633C512.19 65.2372 512.173 65.2372 511.799 65.1328C511.671 65.0979 511.484 65.0544 511.348 65.0544C511.017 65.0544 511 65.3417 511 65.3765C511 65.4723 511.042 65.7073 511.348 65.7073C511.544 65.7073 511.799 65.6376 511.952 65.5854C512.173 65.5245 512.224 65.5158 512.394 65.4984C512.377 65.7334 512.343 65.9075 512.292 66.1338C512.181 66.691 512.181 66.778 512.181 67.222C512.181 68.8498 512.334 70.5735 512.36 70.8172C512.377 70.9391 512.377 71 512.496 71C512.615 71 512.623 70.9391 512.64 70.8346C512.683 70.469 512.717 69.9119 512.742 69.5288C512.768 69.1632 512.819 68.0664 512.819 67.222C512.819 66.8303 512.819 66.6823 512.717 66.2122C512.717 66.1861 512.623 65.7508 512.606 65.4984Z" fill="white"/>
<path d="M560.606 65.4984C560.81 65.5245 560.827 65.5245 561.201 65.6289C561.329 65.6638 561.516 65.7073 561.652 65.7073C561.983 65.7073 562 65.42 562 65.3852C562 65.2894 561.958 65.0544 561.652 65.0544C561.456 65.0544 561.201 65.124 561.048 65.1763C560.827 65.2372 560.776 65.2459 560.606 65.2633C560.623 65.0109 560.649 64.7497 560.734 64.2013C560.785 63.9314 560.819 63.6616 560.819 63.3917C560.819 63.2612 560.785 63 560.504 63C560.181 63 560.181 63.3134 560.181 63.3917C560.181 63.4178 560.181 63.7225 560.266 64.2013C560.334 64.654 560.377 64.9499 560.394 65.2633C560.19 65.2372 560.173 65.2372 559.799 65.1328C559.671 65.0979 559.484 65.0544 559.348 65.0544C559.017 65.0544 559 65.3417 559 65.3765C559 65.4723 559.042 65.7073 559.348 65.7073C559.544 65.7073 559.799 65.6376 559.952 65.5854C560.173 65.5245 560.224 65.5158 560.394 65.4984C560.377 65.7334 560.343 65.9075 560.292 66.1338C560.181 66.691 560.181 66.778 560.181 67.222C560.181 68.8498 560.334 70.5735 560.36 70.8172C560.377 70.9391 560.377 71 560.496 71C560.615 71 560.623 70.9391 560.64 70.8346C560.683 70.469 560.717 69.9119 560.742 69.5288C560.768 69.1632 560.819 68.0664 560.819 67.222C560.819 66.8303 560.819 66.6823 560.717 66.2122C560.717 66.1861 560.623 65.7508 560.606 65.4984Z" fill="white"/>
<path d="M550.782 126.225C550.944 125.558 551.016 125.522 551.719 125.522H553.016C554.565 125.522 555.717 125.991 555.717 127.396C555.717 128.314 555.249 130.962 551.629 130.962H549.593L550.782 126.225ZM553.286 131.178C555.519 130.692 557.266 129.251 557.266 127.702C557.266 126.297 555.843 125 553.34 125H548.458C548.098 125 547.936 125 547.936 125.342C547.936 125.522 548.062 125.522 548.404 125.522C549.485 125.522 549.485 125.666 549.485 125.865C549.485 125.901 549.485 126.009 549.413 126.279L546.981 135.97C546.819 136.6 546.783 136.78 545.54 136.78C545.126 136.78 545 136.78 545 137.122C545 137.303 545.198 137.303 545.252 137.303C545.576 137.303 545.955 137.266 546.297 137.266H548.422C548.747 137.266 549.125 137.303 549.449 137.303C549.593 137.303 549.791 137.303 549.791 136.96C549.791 136.78 549.629 136.78 549.359 136.78C548.26 136.78 548.26 136.636 548.26 136.456C548.26 136.438 548.26 136.312 548.296 136.168L549.503 131.322H551.665C553.376 131.322 553.7 132.403 553.7 132.998C553.7 133.268 553.52 133.97 553.394 134.439C553.196 135.267 553.142 135.465 553.142 135.807C553.142 137.086 554.186 137.681 555.393 137.681C556.852 137.681 557.483 135.898 557.483 135.645C557.483 135.519 557.393 135.465 557.284 135.465C557.14 135.465 557.104 135.573 557.068 135.717C556.636 136.996 555.898 137.321 555.447 137.321C554.997 137.321 554.709 137.122 554.709 136.312C554.709 135.88 554.925 134.24 554.943 134.15C555.033 133.484 555.033 133.412 555.033 133.268C555.033 131.953 553.97 131.394 553.286 131.178Z" fill="white"/>
<path d="M560.606 123.498C560.81 123.524 560.827 123.524 561.201 123.629C561.329 123.664 561.516 123.707 561.652 123.707C561.983 123.707 562 123.42 562 123.385C562 123.289 561.958 123.054 561.652 123.054C561.456 123.054 561.201 123.124 561.048 123.176C560.827 123.237 560.776 123.246 560.606 123.263C560.623 123.011 560.649 122.75 560.734 122.201C560.785 121.931 560.819 121.662 560.819 121.392C560.819 121.261 560.785 121 560.504 121C560.181 121 560.181 121.313 560.181 121.392C560.181 121.418 560.181 121.723 560.266 122.201C560.334 122.654 560.377 122.95 560.394 123.263C560.19 123.237 560.173 123.237 559.799 123.133C559.671 123.098 559.484 123.054 559.348 123.054C559.017 123.054 559 123.342 559 123.376C559 123.472 559.042 123.707 559.348 123.707C559.544 123.707 559.799 123.638 559.952 123.585C560.173 123.524 560.224 123.516 560.394 123.498C560.377 123.733 560.343 123.908 560.292 124.134C560.181 124.691 560.181 124.778 560.181 125.222C560.181 126.85 560.334 128.573 560.36 128.817C560.377 128.939 560.377 129 560.496 129C560.615 129 560.623 128.939 560.64 128.835C560.683 128.469 560.717 127.912 560.742 127.529C560.768 127.163 560.819 126.066 560.819 125.222C560.819 124.83 560.819 124.682 560.717 124.212C560.717 124.186 560.623 123.751 560.606 123.498Z" fill="white"/>
<path d="M548.782 195.225C548.944 194.558 549.016 194.522 549.719 194.522H551.016C552.565 194.522 553.717 194.991 553.717 196.396C553.717 197.314 553.249 199.962 549.629 199.962H547.593L548.782 195.225ZM551.286 200.178C553.519 199.692 555.266 198.251 555.266 196.702C555.266 195.297 553.843 194 551.34 194H546.458C546.098 194 545.936 194 545.936 194.342C545.936 194.522 546.062 194.522 546.404 194.522C547.485 194.522 547.485 194.666 547.485 194.865C547.485 194.901 547.485 195.009 547.413 195.279L544.981 204.97C544.819 205.6 544.783 205.78 543.54 205.78C543.126 205.78 543 205.78 543 206.122C543 206.303 543.198 206.303 543.252 206.303C543.576 206.303 543.955 206.266 544.297 206.266H546.422C546.747 206.266 547.125 206.303 547.449 206.303C547.593 206.303 547.791 206.303 547.791 205.96C547.791 205.78 547.629 205.78 547.359 205.78C546.26 205.78 546.26 205.636 546.26 205.456C546.26 205.438 546.26 205.312 546.296 205.168L547.503 200.322H549.665C551.376 200.322 551.7 201.403 551.7 201.998C551.7 202.268 551.52 202.97 551.394 203.439C551.196 204.267 551.142 204.465 551.142 204.807C551.142 206.086 552.186 206.681 553.393 206.681C554.852 206.681 555.483 204.898 555.483 204.645C555.483 204.519 555.393 204.465 555.284 204.465C555.14 204.465 555.104 204.573 555.068 204.717C554.636 205.996 553.898 206.321 553.447 206.321C552.997 206.321 552.709 206.122 552.709 205.312C552.709 204.88 552.925 203.24 552.943 203.15C553.033 202.484 553.033 202.412 553.033 202.268C553.033 200.953 551.97 200.394 551.286 200.178Z" fill="white"/>
<path d="M558.606 192.498C558.81 192.524 558.827 192.524 559.201 192.629C559.329 192.664 559.516 192.707 559.652 192.707C559.983 192.707 560 192.42 560 192.385C560 192.289 559.958 192.054 559.652 192.054C559.456 192.054 559.201 192.124 559.048 192.176C558.827 192.237 558.776 192.246 558.606 192.263C558.623 192.011 558.649 191.75 558.734 191.201C558.785 190.931 558.819 190.662 558.819 190.392C558.819 190.261 558.785 190 558.504 190C558.181 190 558.181 190.313 558.181 190.392C558.181 190.418 558.181 190.723 558.266 191.201C558.334 191.654 558.377 191.95 558.394 192.263C558.19 192.237 558.173 192.237 557.799 192.133C557.671 192.098 557.484 192.054 557.348 192.054C557.017 192.054 557 192.342 557 192.376C557 192.472 557.042 192.707 557.348 192.707C557.544 192.707 557.799 192.638 557.952 192.585C558.173 192.524 558.224 192.516 558.394 192.498C558.377 192.733 558.343 192.908 558.292 193.134C558.181 193.691 558.181 193.778 558.181 194.222C558.181 195.85 558.334 197.573 558.36 197.817C558.377 197.939 558.377 198 558.496 198C558.615 198 558.623 197.939 558.64 197.835C558.683 197.469 558.717 196.912 558.742 196.529C558.768 196.163 558.819 195.066 558.819 194.222C558.819 193.83 558.819 193.682 558.717 193.212C558.717 193.186 558.623 192.751 558.606 192.498Z" fill="white"/>
<path d="M512.606 123.498C512.81 123.524 512.827 123.524 513.201 123.629C513.329 123.664 513.516 123.707 513.652 123.707C513.983 123.707 514 123.42 514 123.385C514 123.289 513.958 123.054 513.652 123.054C513.456 123.054 513.201 123.124 513.048 123.176C512.827 123.237 512.776 123.246 512.606 123.263C512.623 123.011 512.649 122.75 512.734 122.201C512.785 121.931 512.819 121.662 512.819 121.392C512.819 121.261 512.785 121 512.504 121C512.181 121 512.181 121.313 512.181 121.392C512.181 121.418 512.181 121.723 512.266 122.201C512.334 122.654 512.377 122.95 512.394 123.263C512.19 123.237 512.173 123.237 511.799 123.133C511.671 123.098 511.484 123.054 511.348 123.054C511.017 123.054 511 123.342 511 123.376C511 123.472 511.042 123.707 511.348 123.707C511.544 123.707 511.799 123.638 511.952 123.585C512.173 123.524 512.224 123.516 512.394 123.498C512.377 123.733 512.343 123.908 512.292 124.134C512.181 124.691 512.181 124.778 512.181 125.222C512.181 126.85 512.334 128.573 512.36 128.817C512.377 128.939 512.377 129 512.496 129C512.615 129 512.623 128.939 512.64 128.835C512.683 128.469 512.717 127.912 512.742 127.529C512.768 127.163 512.819 126.066 512.819 125.222C512.819 124.83 512.819 124.682 512.717 124.212C512.717 124.186 512.623 123.751 512.606 123.498Z" fill="white"/>
<path d="M511.606 192.498C511.81 192.524 511.827 192.524 512.201 192.629C512.329 192.664 512.516 192.707 512.652 192.707C512.983 192.707 513 192.42 513 192.385C513 192.289 512.958 192.054 512.652 192.054C512.456 192.054 512.201 192.124 512.048 192.176C511.827 192.237 511.776 192.246 511.606 192.263C511.623 192.011 511.649 191.75 511.734 191.201C511.785 190.931 511.819 190.662 511.819 190.392C511.819 190.261 511.785 190 511.504 190C511.181 190 511.181 190.313 511.181 190.392C511.181 190.418 511.181 190.723 511.266 191.201C511.334 191.654 511.377 191.95 511.394 192.263C511.19 192.237 511.173 192.237 510.799 192.133C510.671 192.098 510.484 192.054 510.348 192.054C510.017 192.054 510 192.342 510 192.376C510 192.472 510.042 192.707 510.348 192.707C510.544 192.707 510.799 192.638 510.952 192.585C511.173 192.524 511.224 192.516 511.394 192.498C511.377 192.733 511.343 192.908 511.292 193.134C511.181 193.691 511.181 193.778 511.181 194.222C511.181 195.85 511.334 197.573 511.36 197.817C511.377 197.939 511.377 198 511.496 198C511.615 198 511.623 197.939 511.64 197.835C511.683 197.469 511.717 196.912 511.742 196.529C511.768 196.163 511.819 195.066 511.819 194.222C511.819 193.83 511.819 193.682 511.717 193.212C511.717 193.186 511.623 192.751 511.606 192.498Z" fill="white"/>
</g>
<defs>
<clipPath id="clip0_40_14400">
<rect width="699" height="267" fill="white"/>
</clipPath>
</defs>
</svg>
