<svg width="369" height="283" viewBox="0 0 369 283" fill="none" xmlns="http://www.w3.org/2000/svg">
<g clip-path="url(#clip0_40_13761)">
<rect x="0.5" y="0.5" width="368" height="282" fill="white" fill-opacity="0.8" stroke="#DDE1E6"/>
<rect opacity="0.4" y="175.82" width="369" height="59.3258" fill="#F2F4F8"/>
<rect opacity="0.4" y="58.2471" width="369" height="58.2472" fill="#F2F4F8"/>
<line x1="56" y1="54.5" x2="310" y2="54.5" stroke="black"/>
<line x1="56" y1="102.5" x2="310" y2="102.5" stroke="black"/>
<rect width="32" height="32" transform="translate(89 40)" fill="#0043CE"/>
<rect width="32" height="32" transform="translate(89 87)" fill="#0043CE"/>
<line x1="56" y1="150.5" x2="310" y2="150.5" stroke="black"/>
<line x1="56" y1="198.5" x2="310" y2="198.5" stroke="black"/>
<rect width="32" height="32" transform="translate(89 135)" fill="#0043CE"/>
<rect width="32" height="32" transform="translate(89 183)" fill="#0043CE"/>
<rect width="32" height="32" transform="translate(240 40)" fill="#0043CE"/>
<rect width="32" height="32" transform="translate(240 87)" fill="#0043CE"/>
<rect width="32" height="32" transform="translate(240 135)" fill="#0043CE"/>
<rect width="32" height="32" transform="translate(240 183)" fill="#0043CE"/>
<rect width="32" height="175" transform="translate(137 40)" fill="#0043CE"/>
<g filter="url(#filter0_d_40_13761)">
<rect x="185.25" y="40.25" width="39.5" height="83.5" stroke="#0043CE" stroke-width="0.5" shape-rendering="crispEdges"/>
</g>
<rect x="185.25" y="137.25" width="39.5" height="81.5" stroke="#0043CE" stroke-width="0.5"/>
<path d="M146.842 129.153C146.374 129.896 145.948 130.226 145.247 130.281C145.109 130.295 144.999 130.295 144.999 130.542C144.999 130.597 145.027 130.68 145.151 130.68C145.398 130.68 145.989 130.652 146.237 130.652C146.636 130.652 147.048 130.68 147.433 130.68C147.543 130.68 147.681 130.68 147.681 130.418C147.681 130.295 147.557 130.281 147.502 130.281C146.993 130.24 146.938 129.992 146.938 129.827C146.938 129.621 147.131 129.305 147.144 129.291L151.462 122.443L152.425 129.855C152.425 130.253 151.71 130.281 151.559 130.281C151.352 130.281 151.229 130.281 151.229 130.542C151.229 130.68 151.38 130.68 151.421 130.68C151.655 130.68 151.93 130.652 152.164 130.652H152.934C153.938 130.652 154.35 130.68 154.364 130.68C154.446 130.68 154.611 130.68 154.611 130.432C154.611 130.281 154.515 130.281 154.295 130.281C153.594 130.281 153.552 130.157 153.511 129.813L152.411 121.329C152.37 121.04 152.37 120.999 152.177 120.999C152.012 120.999 151.944 121.04 151.806 121.26L146.842 129.153Z" fill="white"/>
<rect x="189" y="87" width="32" height="32" rx="16" fill="#1192E8"/>
<path d="M206 102V94H204V102H196V104H204V112H206V104H214V102H206Z" fill="white"/>
<rect x="199" y="49" width="12" height="12" rx="6" fill="#1192E8"/>
<line x1="205" y1="89" x2="205" y2="60" stroke="#1192E8" stroke-width="2"/>
<rect x="189" y="183" width="32" height="32" rx="16" fill="#1192E8"/>
<path d="M206 198V190H204V198H196V200H204V208H206V200H214V198H206Z" fill="white"/>
<rect x="199" y="145" width="12" height="12" rx="6" fill="#1192E8"/>
<line x1="205" y1="185" x2="205" y2="156" stroke="#1192E8" stroke-width="2"/>
<path d="M158.863 130.253C158.863 130.009 158.846 130 158.615 130C158.265 130.361 157.812 130.577 157 130.577V130.875C157.231 130.875 157.692 130.875 158.188 130.632V135.26C158.188 135.594 158.162 135.702 157.35 135.702H157.051V136C157.402 135.973 158.137 135.973 158.521 135.973C158.906 135.973 159.65 135.973 160 136V135.702H159.701C158.889 135.702 158.863 135.594 158.863 135.26V130.253Z" fill="#FBFBFB"/>
<path d="M109.863 58.2526C109.863 58.009 109.846 58 109.615 58C109.265 58.3609 108.812 58.5774 108 58.5774V58.8752C108.231 58.8752 108.692 58.8752 109.188 58.6316V63.2602C109.188 63.594 109.162 63.7023 108.35 63.7023H108.051V64C108.402 63.9729 109.137 63.9729 109.521 63.9729C109.906 63.9729 110.65 63.9729 111 64V63.7023H110.701C109.889 63.7023 109.863 63.594 109.863 63.2602V58.2526Z" fill="#FBFBFB"/>
<path d="M258.863 59.2526C258.863 59.009 258.846 59 258.615 59C258.265 59.3609 257.812 59.5774 257 59.5774V59.8752C257.231 59.8752 257.692 59.8752 258.188 59.6316V64.2602C258.188 64.594 258.162 64.7023 257.35 64.7023H257.051V65C257.402 64.9729 258.137 64.9729 258.521 64.9729C258.906 64.9729 259.65 64.9729 260 65V64.7023H259.701C258.889 64.7023 258.863 64.594 258.863 64.2602V59.2526Z" fill="#FBFBFB"/>
<line x1="137" y1="54.5" x2="169" y2="54.5" stroke="white" stroke-dasharray="6 6"/>
<line x1="140" y1="102.5" x2="169" y2="102.5" stroke="white" stroke-dasharray="6 6"/>
<line x1="137" y1="150.5" x2="169" y2="150.5" stroke="white" stroke-dasharray="6 6"/>
<line x1="137" y1="198.5" x2="169" y2="198.5" stroke="white" stroke-dasharray="6 6"/>
<path d="M252.485 55.5745H255.511C257.997 55.5745 260.483 53.7373 260.483 51.6839C260.483 50.2789 259.294 49 257.024 49H251.458C251.116 49 250.954 49 250.954 49.3422C250.954 49.5224 251.116 49.5224 251.386 49.5224C252.485 49.5224 252.485 49.6665 252.485 49.8646C252.485 49.9006 252.485 50.0087 252.413 50.2789L249.981 59.9696C249.819 60.6 249.783 60.7801 248.522 60.7801C248.18 60.7801 248 60.7801 248 61.1044C248 61.3025 248.162 61.3025 248.27 61.3025C248.612 61.3025 248.973 61.2665 249.315 61.2665H251.422C251.765 61.2665 252.143 61.3025 252.485 61.3025C252.629 61.3025 252.827 61.3025 252.827 60.9603C252.827 60.7801 252.665 60.7801 252.395 60.7801C251.314 60.7801 251.296 60.6541 251.296 60.4739C251.296 60.3839 251.314 60.2578 251.332 60.1677L252.485 55.5745ZM253.782 50.2248C253.944 49.5584 254.016 49.5224 254.719 49.5224H256.502C257.853 49.5224 258.97 49.9547 258.97 51.3056C258.97 51.7739 258.735 53.305 257.907 54.1335C257.601 54.4578 256.736 55.1422 255.097 55.1422H252.557L253.782 50.2248Z" fill="white"/>
<path d="M103.485 54.5745H106.511C108.997 54.5745 111.483 52.7373 111.483 50.6839C111.483 49.2789 110.294 48 108.024 48H102.458C102.116 48 101.954 48 101.954 48.3422C101.954 48.5224 102.116 48.5224 102.386 48.5224C103.485 48.5224 103.485 48.6665 103.485 48.8646C103.485 48.9006 103.485 49.0087 103.413 49.2789L100.981 58.9696C100.819 59.6 100.783 59.7801 99.5224 59.7801C99.1801 59.7801 99 59.7801 99 60.1044C99 60.3025 99.1621 60.3025 99.2702 60.3025C99.6124 60.3025 99.9727 60.2665 100.315 60.2665H102.422C102.765 60.2665 103.143 60.3025 103.485 60.3025C103.629 60.3025 103.827 60.3025 103.827 59.9603C103.827 59.7801 103.665 59.7801 103.395 59.7801C102.314 59.7801 102.296 59.6541 102.296 59.4739C102.296 59.3839 102.314 59.2578 102.332 59.1677L103.485 54.5745ZM104.782 49.2248C104.944 48.5584 105.016 48.5224 105.719 48.5224H107.502C108.853 48.5224 109.97 48.9547 109.97 50.3056C109.97 50.7739 109.735 52.305 108.907 53.1335C108.601 53.4578 107.736 54.1422 106.097 54.1422H103.557L104.782 49.2248Z" fill="white"/>
<path d="M102.485 102.575H105.511C107.997 102.575 110.483 100.737 110.483 98.6839C110.483 97.2789 109.294 96 107.024 96H101.458C101.116 96 100.954 96 100.954 96.3422C100.954 96.5224 101.116 96.5224 101.386 96.5224C102.485 96.5224 102.485 96.6665 102.485 96.8646C102.485 96.9006 102.485 97.0087 102.413 97.2789L99.9814 106.97C99.8193 107.6 99.7832 107.78 98.5224 107.78C98.1801 107.78 98 107.78 98 108.104C98 108.303 98.1621 108.303 98.2702 108.303C98.6124 108.303 98.9727 108.266 99.3149 108.266H101.422C101.765 108.266 102.143 108.303 102.485 108.303C102.629 108.303 102.827 108.303 102.827 107.96C102.827 107.78 102.665 107.78 102.395 107.78C101.314 107.78 101.296 107.654 101.296 107.474C101.296 107.384 101.314 107.258 101.332 107.168L102.485 102.575ZM103.782 97.2248C103.944 96.5584 104.016 96.5224 104.719 96.5224H106.502C107.853 96.5224 108.97 96.9547 108.97 98.3056C108.97 98.7739 108.735 100.305 107.907 101.134C107.601 101.458 106.736 102.142 105.097 102.142H102.557L103.782 97.2248Z" fill="white"/>
<path d="M102.485 149.575H105.511C107.997 149.575 110.483 147.737 110.483 145.684C110.483 144.279 109.294 143 107.024 143H101.458C101.116 143 100.954 143 100.954 143.342C100.954 143.522 101.116 143.522 101.386 143.522C102.485 143.522 102.485 143.666 102.485 143.865C102.485 143.901 102.485 144.009 102.413 144.279L99.9814 153.97C99.8193 154.6 99.7832 154.78 98.5224 154.78C98.1801 154.78 98 154.78 98 155.104C98 155.303 98.1621 155.303 98.2702 155.303C98.6124 155.303 98.9727 155.266 99.3149 155.266H101.422C101.765 155.266 102.143 155.303 102.485 155.303C102.629 155.303 102.827 155.303 102.827 154.96C102.827 154.78 102.665 154.78 102.395 154.78C101.314 154.78 101.296 154.654 101.296 154.474C101.296 154.384 101.314 154.258 101.332 154.168L102.485 149.575ZM103.782 144.225C103.944 143.558 104.016 143.522 104.719 143.522H106.502C107.853 143.522 108.97 143.955 108.97 145.306C108.97 145.774 108.735 147.305 107.907 148.134C107.601 148.458 106.736 149.142 105.097 149.142H102.557L103.782 144.225Z" fill="white"/>
<path d="M102.485 198.575H105.511C107.997 198.575 110.483 196.737 110.483 194.684C110.483 193.279 109.294 192 107.024 192H101.458C101.116 192 100.954 192 100.954 192.342C100.954 192.522 101.116 192.522 101.386 192.522C102.485 192.522 102.485 192.666 102.485 192.865C102.485 192.901 102.485 193.009 102.413 193.279L99.9814 202.97C99.8193 203.6 99.7832 203.78 98.5224 203.78C98.1801 203.78 98 203.78 98 204.104C98 204.303 98.1621 204.303 98.2702 204.303C98.6124 204.303 98.9727 204.266 99.3149 204.266H101.422C101.765 204.266 102.143 204.303 102.485 204.303C102.629 204.303 102.827 204.303 102.827 203.96C102.827 203.78 102.665 203.78 102.395 203.78C101.314 203.78 101.296 203.654 101.296 203.474C101.296 203.384 101.314 203.258 101.332 203.168L102.485 198.575ZM103.782 193.225C103.944 192.558 104.016 192.522 104.719 192.522H106.502C107.853 192.522 108.97 192.955 108.97 194.306C108.97 194.774 108.735 196.305 107.907 197.134C107.601 197.458 106.736 198.142 105.097 198.142H102.557L103.782 193.225Z" fill="white"/>
<path d="M208.708 245.156C207.613 249.531 203.982 252.094 201.04 252.094C198.787 252.094 197.253 250.594 197.253 248C197.253 247.875 197.253 246.938 197.598 245.563L200.665 233.281C200.946 232.219 201.009 231.906 203.231 231.906C203.794 231.906 204.107 231.906 204.107 231.344C204.107 231 203.826 231 203.638 231C203.075 231 202.417 231.063 201.823 231.063H198.13C197.535 231.063 196.878 231 196.283 231C196.064 231 195.689 231 195.689 231.594C195.689 231.906 195.908 231.906 196.502 231.906C198.38 231.906 198.38 232.156 198.38 232.5C198.38 232.687 198.161 233.594 198.004 234.125L195.282 245.062C195.188 245.406 195 246.25 195 247.094C195 250.531 197.472 253 200.884 253C204.045 253 207.55 250.5 209.146 246.531C209.365 246 209.647 244.906 209.835 244.062C210.148 242.937 210.805 240.188 211.024 239.375L212.213 234.687C212.62 233.062 212.87 232.031 215.624 231.906C215.875 231.875 216 231.625 216 231.344C216 231 215.718 231 215.593 231C215.155 231 214.592 231.063 214.153 231.063H212.683C210.742 231.063 209.741 231 209.709 231C209.522 231 209.146 231 209.146 231.594C209.146 231.906 209.396 231.906 209.615 231.906C211.493 231.969 211.618 232.687 211.618 233.25C211.618 233.531 211.618 233.625 211.493 234.063L208.708 245.156Z" fill="black"/>
<path d="M214.669 247.679C214.669 247.286 214.39 247 213.99 247C213.537 247 213.031 247.429 213.031 247.964C213.031 248.357 213.31 248.643 213.711 248.643C214.164 248.643 214.669 248.214 214.669 247.679ZM212.125 254.232L211.185 256.696C211.098 256.964 211.01 257.179 211.01 257.482C211.01 258.357 211.672 259 212.596 259C214.286 259 215 256.5 215 256.268C215 256.089 214.861 256.036 214.739 256.036C214.53 256.036 214.495 256.161 214.443 256.339C214.042 257.768 213.328 258.5 212.631 258.5C212.422 258.5 212.213 258.411 212.213 257.929C212.213 257.5 212.334 257.179 212.561 256.625C212.735 256.143 212.909 255.661 213.101 255.179L213.641 253.732C213.798 253.321 214.007 252.768 214.007 252.464C214.007 251.571 213.31 250.946 212.422 250.946C210.732 250.946 210 253.446 210 253.679C210 253.839 210.122 253.911 210.261 253.911C210.488 253.911 210.505 253.804 210.557 253.625C211.045 251.929 211.847 251.446 212.369 251.446C212.613 251.446 212.787 251.536 212.787 252.036C212.787 252.214 212.77 252.464 212.596 253L212.125 254.232Z" fill="black"/>
<path d="M106.669 247.679C106.669 247.286 106.39 247 105.99 247C105.537 247 105.031 247.429 105.031 247.964C105.031 248.357 105.31 248.643 105.711 248.643C106.164 248.643 106.669 248.214 106.669 247.679ZM104.125 254.232L103.185 256.696C103.098 256.964 103.01 257.179 103.01 257.482C103.01 258.357 103.672 259 104.596 259C106.286 259 107 256.5 107 256.268C107 256.089 106.861 256.036 106.739 256.036C106.53 256.036 106.495 256.161 106.443 256.339C106.042 257.768 105.328 258.5 104.631 258.5C104.422 258.5 104.213 258.411 104.213 257.929C104.213 257.5 104.334 257.179 104.561 256.625C104.735 256.143 104.909 255.661 105.101 255.179L105.641 253.732C105.798 253.321 106.007 252.768 106.007 252.464C106.007 251.571 105.31 250.946 104.422 250.946C102.732 250.946 102 253.446 102 253.679C102 253.839 102.122 253.911 102.261 253.911C102.488 253.911 102.505 253.804 102.557 253.625C103.045 251.929 103.847 251.446 104.369 251.446C104.613 251.446 104.787 251.536 104.787 252.036C104.787 252.214 104.77 252.464 104.596 253L104.125 254.232Z" fill="black"/>
<path d="M97.1309 242.919H102.617C107.123 242.919 111.629 239.588 111.629 235.865C111.629 233.318 109.474 231 105.36 231H95.2696C94.6492 231 94.3553 231 94.3553 231.62C94.3553 231.947 94.6492 231.947 95.139 231.947C97.1309 231.947 97.1309 232.208 97.1309 232.567C97.1309 232.633 97.1309 232.829 97.0003 233.318L92.592 250.886C92.2981 252.029 92.2328 252.356 89.947 252.356C89.3265 252.356 89 252.356 89 252.944C89 253.303 89.2939 253.303 89.4898 253.303C90.1102 253.303 90.7633 253.238 91.3838 253.238H95.2043C95.8247 253.238 96.5105 253.303 97.1309 253.303C97.3921 253.303 97.7513 253.303 97.7513 252.682C97.7513 252.356 97.4575 252.356 96.9676 252.356C95.0084 252.356 94.9757 252.127 94.9757 251.801C94.9757 251.638 95.0084 251.409 95.041 251.246L97.1309 242.919ZM99.482 233.22C99.7759 232.012 99.9065 231.947 101.18 231.947H104.413C106.862 231.947 108.886 232.731 108.886 235.18C108.886 236.029 108.462 238.804 106.96 240.306C106.405 240.894 104.837 242.135 101.866 242.135H97.2615L99.482 233.22Z" fill="black"/>
<path d="M262.669 247.679C262.669 247.286 262.39 247 261.99 247C261.537 247 261.031 247.429 261.031 247.964C261.031 248.357 261.31 248.643 261.711 248.643C262.164 248.643 262.669 248.214 262.669 247.679ZM260.125 254.232L259.185 256.696C259.098 256.964 259.01 257.179 259.01 257.482C259.01 258.357 259.672 259 260.596 259C262.286 259 263 256.5 263 256.268C263 256.089 262.861 256.036 262.739 256.036C262.53 256.036 262.495 256.161 262.443 256.339C262.042 257.768 261.328 258.5 260.631 258.5C260.422 258.5 260.213 258.411 260.213 257.929C260.213 257.5 260.334 257.179 260.561 256.625C260.735 256.143 260.909 255.661 261.101 255.179L261.641 253.732C261.798 253.321 262.007 252.768 262.007 252.464C262.007 251.571 261.31 250.946 260.422 250.946C258.732 250.946 258 253.446 258 253.679C258 253.839 258.122 253.911 258.261 253.911C258.488 253.911 258.505 253.804 258.557 253.625C259.045 251.929 259.847 251.446 260.369 251.446C260.613 251.446 260.787 251.536 260.787 252.036C260.787 252.214 260.77 252.464 260.596 253L260.125 254.232Z" fill="black"/>
<path d="M253.131 242.919H258.617C263.123 242.919 267.629 239.588 267.629 235.865C267.629 233.318 265.474 231 261.36 231H251.27C250.649 231 250.355 231 250.355 231.62C250.355 231.947 250.649 231.947 251.139 231.947C253.131 231.947 253.131 232.208 253.131 232.567C253.131 232.633 253.131 232.829 253 233.318L248.592 250.886C248.298 252.029 248.233 252.356 245.947 252.356C245.327 252.356 245 252.356 245 252.944C245 253.303 245.294 253.303 245.49 253.303C246.11 253.303 246.763 253.238 247.384 253.238H251.204C251.825 253.238 252.51 253.303 253.131 253.303C253.392 253.303 253.751 253.303 253.751 252.682C253.751 252.356 253.457 252.356 252.968 252.356C251.008 252.356 250.976 252.127 250.976 251.801C250.976 251.638 251.008 251.409 251.041 251.246L253.131 242.919ZM255.482 233.22C255.776 232.012 255.907 231.947 257.18 231.947H260.413C262.862 231.947 264.886 232.731 264.886 235.18C264.886 236.029 264.462 238.804 262.96 240.306C262.405 240.894 260.837 242.135 257.866 242.135H253.262L255.482 233.22Z" fill="black"/>
<path d="M273.822 232.021C273.882 231.865 273.93 231.781 273.93 231.66C273.93 231.264 273.57 231 273.234 231C272.753 231 272.621 231.42 272.573 231.588L271.048 236.764C271 236.908 271 236.944 271 236.956C271 237.064 271.072 237.088 271.192 237.124C271.408 237.22 271.432 237.22 271.456 237.22C271.492 237.22 271.564 237.22 271.648 237.016L273.822 232.021Z" fill="black"/>
<path d="M264.389 47.6564C264.428 47.556 264.459 47.5019 264.459 47.4247C264.459 47.1699 264.227 47 264.011 47C263.702 47 263.617 47.2703 263.586 47.3784L262.606 50.7066C262.575 50.7992 262.575 50.8224 262.575 50.8301C262.575 50.8996 262.621 50.9151 262.698 50.9382C262.837 51 262.853 51 262.868 51C262.891 51 262.938 51 262.992 50.8687L264.389 47.6564Z" fill="white"/>
<path d="M252.485 102.575H255.511C257.997 102.575 260.483 100.737 260.483 98.6839C260.483 97.2789 259.294 96 257.024 96H251.458C251.116 96 250.954 96 250.954 96.3422C250.954 96.5224 251.116 96.5224 251.386 96.5224C252.485 96.5224 252.485 96.6665 252.485 96.8646C252.485 96.9006 252.485 97.0087 252.413 97.2789L249.981 106.97C249.819 107.6 249.783 107.78 248.522 107.78C248.18 107.78 248 107.78 248 108.104C248 108.303 248.162 108.303 248.27 108.303C248.612 108.303 248.973 108.266 249.315 108.266H251.422C251.765 108.266 252.143 108.303 252.485 108.303C252.629 108.303 252.827 108.303 252.827 107.96C252.827 107.78 252.665 107.78 252.395 107.78C251.314 107.78 251.296 107.654 251.296 107.474C251.296 107.384 251.314 107.258 251.332 107.168L252.485 102.575ZM253.782 97.2248C253.944 96.5584 254.016 96.5224 254.719 96.5224H256.502C257.853 96.5224 258.97 96.9547 258.97 98.3056C258.97 98.7739 258.735 100.305 257.907 101.134C257.601 101.458 256.736 102.142 255.097 102.142H252.557L253.782 97.2248Z" fill="white"/>
<path d="M264.389 94.6564C264.428 94.556 264.459 94.5019 264.459 94.4247C264.459 94.1699 264.227 94 264.011 94C263.702 94 263.617 94.2703 263.586 94.3784L262.606 97.7066C262.575 97.7992 262.575 97.8224 262.575 97.8301C262.575 97.8996 262.621 97.9151 262.698 97.9382C262.837 98 262.853 98 262.868 98C262.891 98 262.938 98 262.992 97.8687L264.389 94.6564Z" fill="white"/>
<path d="M252.485 150.575H255.511C257.997 150.575 260.483 148.737 260.483 146.684C260.483 145.279 259.294 144 257.024 144H251.458C251.116 144 250.954 144 250.954 144.342C250.954 144.522 251.116 144.522 251.386 144.522C252.485 144.522 252.485 144.666 252.485 144.865C252.485 144.901 252.485 145.009 252.413 145.279L249.981 154.97C249.819 155.6 249.783 155.78 248.522 155.78C248.18 155.78 248 155.78 248 156.104C248 156.303 248.162 156.303 248.27 156.303C248.612 156.303 248.973 156.266 249.315 156.266H251.422C251.765 156.266 252.143 156.303 252.485 156.303C252.629 156.303 252.827 156.303 252.827 155.96C252.827 155.78 252.665 155.78 252.395 155.78C251.314 155.78 251.296 155.654 251.296 155.474C251.296 155.384 251.314 155.258 251.332 155.168L252.485 150.575ZM253.782 145.225C253.944 144.558 254.016 144.522 254.719 144.522H256.502C257.853 144.522 258.97 144.955 258.97 146.306C258.97 146.774 258.735 148.305 257.907 149.134C257.601 149.458 256.736 150.142 255.097 150.142H252.557L253.782 145.225Z" fill="white"/>
<path d="M264.389 142.656C264.428 142.556 264.459 142.502 264.459 142.425C264.459 142.17 264.227 142 264.011 142C263.702 142 263.617 142.27 263.586 142.378L262.606 145.707C262.575 145.799 262.575 145.822 262.575 145.83C262.575 145.9 262.621 145.915 262.698 145.938C262.837 146 262.853 146 262.868 146C262.891 146 262.938 146 262.992 145.869L264.389 142.656Z" fill="white"/>
<path d="M260 110.484H259.775C259.744 110.638 259.662 111.134 259.56 111.278C259.488 111.359 258.905 111.359 258.598 111.359H256.706C256.982 111.152 257.606 110.574 257.872 110.358C259.427 109.095 260 108.626 260 107.732C260 106.695 259.069 106 257.882 106C256.696 106 256 106.893 256 107.669C256 108.129 256.45 108.129 256.481 108.129C256.696 108.129 256.962 107.994 256.962 107.705C256.962 107.453 256.767 107.281 256.481 107.281C256.389 107.281 256.368 107.281 256.338 107.29C256.532 106.677 257.084 106.262 257.749 106.262C258.619 106.262 259.151 106.902 259.151 107.732C259.151 108.499 258.65 109.167 258.066 109.744L256 111.783V112H259.734L260 110.484Z" fill="white"/>
<path d="M257.405 155.676C257.238 155.685 257.199 155.694 257.199 155.773C257.199 155.86 257.248 155.86 257.425 155.86H257.877C258.713 155.86 259.086 156.472 259.086 157.312C259.086 158.458 258.418 158.764 257.936 158.764C257.464 158.764 256.658 158.563 256.373 157.985C256.688 158.029 256.973 157.872 256.973 157.557C256.973 157.303 256.767 157.128 256.491 157.128C256.256 157.128 256 157.251 256 157.583C256 158.362 256.875 159 257.966 159C259.135 159 260 158.204 260 157.321C260 156.516 259.273 155.886 258.329 155.738C259.184 155.519 259.735 154.88 259.735 154.198C259.735 153.507 258.929 153 257.975 153C256.993 153 256.265 153.534 256.265 154.172C256.265 154.522 256.57 154.592 256.717 154.592C256.924 154.592 257.16 154.461 257.16 154.198C257.16 153.918 256.924 153.796 256.708 153.796C256.649 153.796 256.629 153.796 256.6 153.805C256.973 153.21 257.897 153.21 257.946 153.21C258.27 153.21 258.909 153.341 258.909 154.198C258.909 154.364 258.88 154.854 258.595 155.23C258.3 155.615 257.966 155.641 257.7 155.65L257.405 155.676Z" fill="white"/>
<path d="M259.071 201.213C259.071 201.044 259.071 201 258.943 201C258.869 201 258.841 201 258.768 201.107L256 205.258V205.516H258.418V206.324C258.418 206.653 258.4 206.742 257.729 206.742H257.545V207C257.756 206.982 258.483 206.982 258.74 206.982C258.998 206.982 259.733 206.982 259.945 207V206.742H259.761C259.099 206.742 259.071 206.653 259.071 206.324V205.516H260V205.258H259.071V201.213ZM258.464 201.907V205.258H256.23L258.464 201.907Z" fill="white"/>
<path d="M111 109.484H110.775C110.744 109.638 110.662 110.134 110.56 110.278C110.488 110.359 109.905 110.359 109.598 110.359H107.706C107.982 110.152 108.606 109.574 108.872 109.358C110.427 108.095 111 107.626 111 106.732C111 105.695 110.069 105 108.882 105C107.696 105 107 105.893 107 106.669C107 107.129 107.45 107.129 107.481 107.129C107.696 107.129 107.962 106.994 107.962 106.705C107.962 106.453 107.767 106.281 107.481 106.281C107.389 106.281 107.368 106.281 107.338 106.29C107.532 105.677 108.084 105.262 108.749 105.262C109.619 105.262 110.151 105.902 110.151 106.732C110.151 107.499 109.65 108.167 109.066 108.744L107 110.783V111H110.734L111 109.484Z" fill="white"/>
<path d="M108.405 154.676C108.238 154.685 108.199 154.694 108.199 154.773C108.199 154.86 108.248 154.86 108.425 154.86H108.877C109.713 154.86 110.086 155.472 110.086 156.312C110.086 157.458 109.418 157.764 108.936 157.764C108.464 157.764 107.658 157.563 107.373 156.985C107.688 157.029 107.973 156.872 107.973 156.557C107.973 156.303 107.767 156.128 107.491 156.128C107.256 156.128 107 156.251 107 156.583C107 157.362 107.875 158 108.966 158C110.135 158 111 157.204 111 156.321C111 155.516 110.273 154.886 109.329 154.738C110.184 154.519 110.735 153.88 110.735 153.198C110.735 152.507 109.929 152 108.975 152C107.993 152 107.265 152.534 107.265 153.172C107.265 153.522 107.57 153.592 107.717 153.592C107.924 153.592 108.16 153.461 108.16 153.198C108.16 152.918 107.924 152.796 107.708 152.796C107.649 152.796 107.629 152.796 107.6 152.805C107.973 152.21 108.897 152.21 108.946 152.21C109.27 152.21 109.909 152.341 109.909 153.198C109.909 153.364 109.88 153.854 109.595 154.23C109.3 154.615 108.966 154.641 108.7 154.65L108.405 154.676Z" fill="white"/>
<path d="M110.071 199.213C110.071 199.044 110.071 199 109.943 199C109.869 199 109.841 199 109.768 199.107L107 203.258V203.516H109.418V204.324C109.418 204.653 109.4 204.742 108.729 204.742H108.545V205C108.756 204.982 109.483 204.982 109.74 204.982C109.998 204.982 110.733 204.982 110.945 205V204.742H110.761C110.099 204.742 110.071 204.653 110.071 204.324V203.516H111V203.258H110.071V199.213ZM109.464 199.907V203.258H107.23L109.464 199.907Z" fill="white"/>
<path d="M252.485 198.575H255.511C257.997 198.575 260.483 196.737 260.483 194.684C260.483 193.279 259.294 192 257.024 192H251.458C251.116 192 250.954 192 250.954 192.342C250.954 192.522 251.116 192.522 251.386 192.522C252.485 192.522 252.485 192.666 252.485 192.865C252.485 192.901 252.485 193.009 252.413 193.279L249.981 202.97C249.819 203.6 249.783 203.78 248.522 203.78C248.18 203.78 248 203.78 248 204.104C248 204.303 248.162 204.303 248.27 204.303C248.612 204.303 248.973 204.266 249.315 204.266H251.422C251.765 204.266 252.143 204.303 252.485 204.303C252.629 204.303 252.827 204.303 252.827 203.96C252.827 203.78 252.665 203.78 252.395 203.78C251.314 203.78 251.296 203.654 251.296 203.474C251.296 203.384 251.314 203.258 251.332 203.168L252.485 198.575ZM253.782 193.225C253.944 192.558 254.016 192.522 254.719 192.522H256.502C257.853 192.522 258.97 192.955 258.97 194.306C258.97 194.774 258.735 196.305 257.907 197.134C257.601 197.458 256.736 198.142 255.097 198.142H252.557L253.782 193.225Z" fill="white"/>
<path d="M264.389 190.656C264.428 190.556 264.459 190.502 264.459 190.425C264.459 190.17 264.227 190 264.011 190C263.702 190 263.617 190.27 263.586 190.378L262.606 193.707C262.575 193.799 262.575 193.822 262.575 193.83C262.575 193.9 262.621 193.915 262.698 193.938C262.837 194 262.853 194 262.868 194C262.891 194 262.938 194 262.992 193.869L264.389 190.656Z" fill="white"/>
</g>
<defs>
<filter id="filter0_d_40_13761" x="181" y="40" width="48" height="92" filterUnits="userSpaceOnUse" color-interpolation-filters="sRGB">
<feFlood flood-opacity="0" result="BackgroundImageFix"/>
<feColorMatrix in="SourceAlpha" type="matrix" values="0 0 0 0 0 0 0 0 0 0 0 0 0 0 0 0 0 0 127 0" result="hardAlpha"/>
<feOffset dy="4"/>
<feGaussianBlur stdDeviation="2"/>
<feComposite in2="hardAlpha" operator="out"/>
<feColorMatrix type="matrix" values="0 0 0 0 0 0 0 0 0 0 0 0 0 0 0 0 0 0 0.25 0"/>
<feBlend mode="normal" in2="BackgroundImageFix" result="effect1_dropShadow_40_13761"/>
<feBlend mode="normal" in="SourceGraphic" in2="effect1_dropShadow_40_13761" result="shape"/>
</filter>
<clipPath id="clip0_40_13761">
<rect width="369" height="283" fill="white"/>
</clipPath>
</defs>
</svg>
