<svg width="1365" height="884" viewBox="0 0 1365 884" fill="none" xmlns="http://www.w3.org/2000/svg">
<g clip-path="url(#clip0_62_3459)">
<rect x="0.5" y="0.5" width="1364" height="883" fill="white" fill-opacity="0.8" stroke="#DDE1E6"/>
<rect x="205.5" y="56.5" width="710" height="633" fill="white" stroke="black"/>
<rect x="195.5" y="66.5" width="710" height="633" fill="white" stroke="black"/>
<rect x="185.5" y="76.5" width="710" height="633" fill="white" stroke="black"/>
<rect x="175.5" y="86.5" width="710" height="633" fill="white" stroke="black"/>
<rect x="165.5" y="96.5" width="710" height="633" fill="white" stroke="black"/>
<rect x="155.5" y="106.5" width="710" height="633" fill="white" stroke="black"/>
<rect x="145.5" y="116.5" width="710" height="633" fill="white" stroke="black"/>
<rect x="135.5" y="126.5" width="710" height="633" fill="white" stroke="black"/>
<rect x="126.5" y="136.5" width="708" height="628" fill="white" stroke="#DDE1E6"/>
<rect opacity="0.4" x="126" y="643" width="709" height="84" fill="#F2F4F8"/>
<rect opacity="0.4" x="126" y="475" width="709" height="84" fill="#F2F4F8"/>
<rect opacity="0.4" x="126" y="306" width="709" height="84" fill="#F2F4F8"/>
<rect opacity="0.4" x="126" y="138" width="709" height="84" fill="#F2F4F8"/>
<line x1="264.5" y1="138" x2="264.5" y2="765" stroke="#DDE1E6"/>
<line x1="409.5" y1="138" x2="409.5" y2="765" stroke="#DDE1E6"/>
<line x1="555.5" y1="138" x2="555.5" y2="765" stroke="#DDE1E6"/>
<line x1="699.5" y1="138" x2="699.5" y2="765" stroke="#DDE1E6"/>
<path d="M125.5 765L126 136" stroke="black"/>
<path d="M835 765L835 136" stroke="black"/>
<path d="M125 765H835" stroke="black"/>
<path d="M125 136H835" stroke="black"/>
<path d="M438.204 831H441.662C444.154 831 445.792 829.376 445.792 826.114C445.792 822.852 444.154 821.228 441.662 821.228H438.204V831ZM439.786 829.6V822.628H441.662C443.118 822.628 444.098 823.566 444.098 825.33V826.898C444.098 828.662 443.118 829.6 441.662 829.6H439.786ZM450.665 831.168C452.023 831.168 453.087 830.58 453.633 829.698L452.737 828.816C452.317 829.488 451.715 829.908 450.819 829.908C449.587 829.908 448.901 829.11 448.901 827.99V827.752H453.899V827.178C453.899 825.162 452.807 823.552 450.665 823.552C448.593 823.552 447.319 825.036 447.319 827.36C447.319 829.684 448.593 831.168 450.665 831.168ZM450.665 824.742C451.673 824.742 452.289 825.484 452.289 826.604V826.744H448.901V826.646C448.901 825.526 449.615 824.742 450.665 824.742ZM455.748 833.8H457.274V829.796H457.344C457.652 830.65 458.422 831.168 459.388 831.168C461.222 831.168 462.286 829.754 462.286 827.36C462.286 824.966 461.222 823.552 459.388 823.552C458.422 823.552 457.652 824.056 457.344 824.924H457.274V823.72H455.748V833.8ZM458.926 829.852C458.002 829.852 457.274 829.348 457.274 828.606V826.114C457.274 825.372 458.002 824.868 458.926 824.868C459.976 824.868 460.676 825.61 460.676 826.73V827.99C460.676 829.11 459.976 829.852 458.926 829.852ZM467.457 831V829.754H466.043V824.966H467.569V823.72H466.043V821.732H464.671V823.006C464.671 823.51 464.503 823.72 463.999 823.72H463.383V824.966H464.517V829.418C464.517 830.412 465.077 831 466.127 831H467.457ZM469.384 831H470.91V826.114C470.91 825.274 471.694 824.868 472.492 824.868C473.43 824.868 473.864 825.442 473.864 826.562V831H475.39V826.38C475.39 824.588 474.508 823.552 473.024 823.552C471.904 823.552 471.288 824.14 470.98 824.924H470.91V820.64H469.384V831Z" fill="#121619"/>
<path d="M899.204 764H903.964C905.406 764 906.484 762.768 906.484 761.186C906.484 759.548 905.238 758.932 904.44 758.904V758.82C905.238 758.75 906.134 758.218 906.134 756.748C906.134 755.222 905.14 754.228 903.53 754.228H899.204V764ZM900.786 759.674H903.502C904.314 759.674 904.818 760.122 904.818 760.92V761.396C904.818 762.194 904.314 762.642 903.502 762.642H900.786V759.674ZM900.786 755.586H903.236C904.006 755.586 904.468 756.006 904.468 756.748V757.196C904.468 757.938 904.006 758.358 903.236 758.358H900.786V755.586ZM914.669 764V762.754H913.899V759.1C913.899 757.476 912.849 756.552 910.973 756.552C909.559 756.552 908.705 757.154 908.229 757.966L909.139 758.792C909.503 758.218 910.021 757.798 910.875 757.798C911.897 757.798 912.373 758.316 912.373 759.198V759.814H911.057C909.027 759.814 907.949 760.556 907.949 761.998C907.949 763.314 908.803 764.168 910.301 764.168C911.365 764.168 912.149 763.692 912.429 762.782H912.499C912.597 763.496 913.017 764 913.815 764H914.669ZM910.735 763.006C909.979 763.006 909.503 762.67 909.503 762.026V761.774C909.503 761.144 910.021 760.794 911.085 760.794H912.373V761.844C912.373 762.558 911.673 763.006 910.735 763.006ZM918.634 764.168C920.384 764.168 921.518 763.23 921.518 761.83C921.518 760.654 920.804 759.954 919.208 759.716L918.536 759.632C917.766 759.506 917.416 759.254 917.416 758.694C917.416 758.148 917.808 757.784 918.648 757.784C919.432 757.784 920.048 758.162 920.426 758.61L921.364 757.714C920.706 756.986 919.964 756.552 918.648 756.552C917.052 756.552 915.946 757.378 915.946 758.792C915.946 760.136 916.856 760.78 918.34 760.962L919.012 761.046C919.768 761.144 920.048 761.494 920.048 761.956C920.048 762.572 919.6 762.936 918.718 762.936C917.85 762.936 917.192 762.544 916.66 761.9L915.68 762.796C916.366 763.65 917.262 764.168 918.634 764.168ZM926.258 764.168C927.616 764.168 928.68 763.58 929.226 762.698L928.33 761.816C927.91 762.488 927.308 762.908 926.412 762.908C925.18 762.908 924.494 762.11 924.494 760.99V760.752H929.492V760.178C929.492 758.162 928.4 756.552 926.258 756.552C924.186 756.552 922.912 758.036 922.912 760.36C922.912 762.684 924.186 764.168 926.258 764.168ZM926.258 757.742C927.266 757.742 927.882 758.484 927.882 759.604V759.744H924.494V759.646C924.494 758.526 925.208 757.742 926.258 757.742ZM933.651 764.168C935.401 764.168 936.535 763.23 936.535 761.83C936.535 760.654 935.821 759.954 934.225 759.716L933.553 759.632C932.783 759.506 932.433 759.254 932.433 758.694C932.433 758.148 932.825 757.784 933.665 757.784C934.449 757.784 935.065 758.162 935.443 758.61L936.381 757.714C935.723 756.986 934.981 756.552 933.665 756.552C932.069 756.552 930.963 757.378 930.963 758.792C930.963 760.136 931.873 760.78 933.357 760.962L934.029 761.046C934.785 761.144 935.065 761.494 935.065 761.956C935.065 762.572 934.617 762.936 933.735 762.936C932.867 762.936 932.209 762.544 931.677 761.9L930.697 762.796C931.383 763.65 932.279 764.168 933.651 764.168Z" fill="#121619"/>
<path d="M59 465.708L49.228 462.46V464.056L54.058 465.61L57.46 466.562V466.618L54.058 467.556L49.228 469.11V470.748L59 467.542V465.708ZM59 455.247H57.754V456.017H54.1C52.476 456.017 51.552 457.067 51.552 458.943C51.552 460.358 52.154 461.212 52.966 461.688L53.792 460.778C53.218 460.414 52.798 459.896 52.798 459.041C52.798 458.019 53.316 457.544 54.198 457.544H54.814V458.859C54.814 460.89 55.556 461.968 56.998 461.968C58.314 461.968 59.168 461.114 59.168 459.616C59.168 458.552 58.692 457.768 57.782 457.487V457.418C58.496 457.32 59 456.9 59 456.101V455.247ZM58.006 459.182C58.006 459.938 57.67 460.414 57.026 460.414H56.774C56.144 460.414 55.794 459.896 55.794 458.832V457.544H56.844C57.558 457.544 58.006 458.243 58.006 459.182ZM59 451.058H57.754V452.066H48.64V453.592H57.488C58.426 453.592 59 453.074 59 452.038V451.058ZM59 445.03V443.504H51.72V445.03H56.592C57.446 445.03 57.852 445.8 57.852 446.584C57.852 447.522 57.264 447.984 56.158 447.984H51.72V449.51H56.354C58.146 449.51 59.168 448.628 59.168 447.13C59.168 445.926 58.51 445.352 57.796 445.086V445.03H59ZM59.168 438.303C59.168 436.945 58.58 435.881 57.698 435.335L56.816 436.231C57.488 436.651 57.908 437.253 57.908 438.149C57.908 439.381 57.11 440.067 55.99 440.067H55.752L55.752 435.069H55.178C53.162 435.069 51.552 436.161 51.552 438.303C51.552 440.375 53.036 441.649 55.36 441.649C57.684 441.649 59.168 440.375 59.168 438.303ZM52.742 438.303C52.742 437.295 53.484 436.679 54.604 436.679H54.744L54.744 440.067H54.646C53.526 440.067 52.742 439.353 52.742 438.303Z" fill="#121619"/>
<line x1="264.5" y1="765" x2="264.5" y2="771" stroke="black"/>
<line x1="125.5" y1="765" x2="125.5" y2="771" stroke="black"/>
<line x1="409.5" y1="765" x2="409.5" y2="771" stroke="black"/>
<line x1="555.5" y1="765" x2="555.5" y2="771" stroke="black"/>
<line x1="699.5" y1="765" x2="699.5" y2="771" stroke="black"/>
<path d="M255.462 787.964H250.324L252.956 785.598C254.202 784.478 255.098 783.414 255.098 781.902C255.098 780.236 254.006 779.06 252.102 779.06C250.212 779.06 249.344 780.208 248.966 781.356L250.016 781.762C250.282 780.838 250.842 780.11 252.046 780.11C253.25 780.11 253.852 780.852 253.852 781.93V782.098C253.852 783.036 253.152 784.016 252.242 784.856L249.05 787.796V789H255.462V787.964ZM260.755 789.168C263.093 789.168 264.115 787.306 264.115 784.114C264.115 780.922 263.093 779.06 260.755 779.06C258.417 779.06 257.395 780.922 257.395 784.114C257.395 787.306 258.417 789.168 260.755 789.168ZM260.755 788.146C259.229 788.146 258.627 786.802 258.627 784.912V783.316C258.627 781.426 259.229 780.082 260.755 780.082C262.281 780.082 262.883 781.426 262.883 783.316V784.912C262.883 786.802 262.281 788.146 260.755 788.146Z" fill="#121619"/>
<path d="M119.2 789.168C121.538 789.168 122.56 787.306 122.56 784.114C122.56 780.922 121.538 779.06 119.2 779.06C116.862 779.06 115.84 780.922 115.84 784.114C115.84 787.306 116.862 789.168 119.2 789.168ZM119.2 788.146C117.674 788.146 117.072 786.802 117.072 784.912V783.316C117.072 781.426 117.674 780.082 119.2 780.082C120.726 780.082 121.328 781.426 121.328 783.316V784.912C121.328 786.802 120.726 788.146 119.2 788.146Z" fill="#121619"/>
<path d="M93.2 630.168C95.538 630.168 96.56 628.306 96.56 625.114C96.56 621.922 95.538 620.06 93.2 620.06C90.862 620.06 89.84 621.922 89.84 625.114C89.84 628.306 90.862 630.168 93.2 630.168ZM93.2 629.146C91.674 629.146 91.072 627.802 91.072 625.912V624.316C91.072 622.426 91.674 621.082 93.2 621.082C94.726 621.082 95.328 622.426 95.328 624.316V625.912C95.328 627.802 94.726 629.146 93.2 629.146ZM99.4585 630.168C100.047 630.168 100.313 629.832 100.313 629.356V629.174C100.313 628.698 100.047 628.362 99.4585 628.362C98.8705 628.362 98.6045 628.698 98.6045 629.174V629.356C98.6045 629.832 98.8705 630.168 99.4585 630.168ZM104.119 624.372V625.394H105.267C106.639 625.394 107.367 626.052 107.367 627.2V627.312C107.367 628.46 106.639 629.118 105.267 629.118C104.077 629.118 103.503 628.6 102.999 627.83L102.117 628.502C102.719 629.342 103.587 630.168 105.281 630.168C107.269 630.168 108.599 629.006 108.599 627.326C108.599 625.856 107.591 625.072 106.541 624.862V624.806C107.577 624.54 108.417 623.784 108.417 622.524C108.417 620.942 107.101 620.06 105.449 620.06C103.881 620.06 103.027 620.872 102.537 621.656L103.405 622.328C103.811 621.586 104.413 621.11 105.421 621.11C106.457 621.11 107.171 621.628 107.171 622.65V622.748C107.171 623.686 106.499 624.372 105.183 624.372H104.119Z" fill="#121619"/>
<path d="M93.2 698.168C95.538 698.168 96.56 696.306 96.56 693.114C96.56 689.922 95.538 688.06 93.2 688.06C90.862 688.06 89.84 689.922 89.84 693.114C89.84 696.306 90.862 698.168 93.2 698.168ZM93.2 697.146C91.674 697.146 91.072 695.802 91.072 693.912V692.316C91.072 690.426 91.674 689.082 93.2 689.082C94.726 689.082 95.328 690.426 95.328 692.316V693.912C95.328 695.802 94.726 697.146 93.2 697.146ZM99.4585 698.168C100.047 698.168 100.313 697.832 100.313 697.356V697.174C100.313 696.698 100.047 696.362 99.4585 696.362C98.8705 696.362 98.6045 696.698 98.6045 697.174V697.356C98.6045 697.832 98.8705 698.168 99.4585 698.168ZM108.991 696.964H103.853L106.485 694.598C107.731 693.478 108.627 692.414 108.627 690.902C108.627 689.236 107.535 688.06 105.631 688.06C103.741 688.06 102.873 689.208 102.495 690.356L103.545 690.762C103.811 689.838 104.371 689.11 105.575 689.11C106.779 689.11 107.381 689.852 107.381 690.93V691.098C107.381 692.036 106.681 693.016 105.771 693.856L102.579 696.796V698H108.991V696.964Z" fill="#121619"/>
<path d="M93.2 767.168C95.538 767.168 96.56 765.306 96.56 762.114C96.56 758.922 95.538 757.06 93.2 757.06C90.862 757.06 89.84 758.922 89.84 762.114C89.84 765.306 90.862 767.168 93.2 767.168ZM93.2 766.146C91.674 766.146 91.072 764.802 91.072 762.912V761.316C91.072 759.426 91.674 758.082 93.2 758.082C94.726 758.082 95.328 759.426 95.328 761.316V762.912C95.328 764.802 94.726 766.146 93.2 766.146ZM99.4585 767.168C100.047 767.168 100.313 766.832 100.313 766.356V766.174C100.313 765.698 100.047 765.362 99.4585 765.362C98.8705 765.362 98.6045 765.698 98.6045 766.174V766.356C98.6045 766.832 98.8705 767.168 99.4585 767.168ZM109.187 767V765.964H106.667V757.228H104.833L102.243 759.65L102.929 760.392L105.393 758.096H105.491V765.964H102.761V767H109.187Z" fill="#121619"/>
<path d="M93.2 561.168C95.538 561.168 96.56 559.306 96.56 556.114C96.56 552.922 95.538 551.06 93.2 551.06C90.862 551.06 89.84 552.922 89.84 556.114C89.84 559.306 90.862 561.168 93.2 561.168ZM93.2 560.146C91.674 560.146 91.072 558.802 91.072 556.912V555.316C91.072 553.426 91.674 552.082 93.2 552.082C94.726 552.082 95.328 553.426 95.328 555.316V556.912C95.328 558.802 94.726 560.146 93.2 560.146ZM99.4585 561.168C100.047 561.168 100.313 560.832 100.313 560.356V560.174C100.313 559.698 100.047 559.362 99.4585 559.362C98.8705 559.362 98.6045 559.698 98.6045 560.174V560.356C98.6045 560.832 98.8705 561.168 99.4585 561.168ZM107.899 561V559.082H109.313V558.102H107.899V551.228H106.149L102.061 558.046V559.082H106.779V561H107.899ZM106.709 552.138H106.779V558.102H103.167L106.709 552.138Z" fill="#121619"/>
<path d="M93.2 492.168C95.538 492.168 96.56 490.306 96.56 487.114C96.56 483.922 95.538 482.06 93.2 482.06C90.862 482.06 89.84 483.922 89.84 487.114C89.84 490.306 90.862 492.168 93.2 492.168ZM93.2 491.146C91.674 491.146 91.072 489.802 91.072 487.912V486.316C91.072 484.426 91.674 483.082 93.2 483.082C94.726 483.082 95.328 484.426 95.328 486.316V487.912C95.328 489.802 94.726 491.146 93.2 491.146ZM99.4585 492.168C100.047 492.168 100.313 491.832 100.313 491.356V491.174C100.313 490.698 100.047 490.362 99.4585 490.362C98.8705 490.362 98.6045 490.698 98.6045 491.174V491.356C98.6045 491.832 98.8705 492.168 99.4585 492.168ZM108.501 482.228H103.265L102.915 487.604L103.909 487.744C104.315 487.296 104.763 486.918 105.659 486.918C106.989 486.918 107.703 487.66 107.703 488.948V489.088C107.703 490.376 106.989 491.118 105.659 491.118C104.483 491.118 103.993 490.6 103.489 489.83L102.607 490.502C103.195 491.342 104.035 492.168 105.659 492.168C107.717 492.168 108.949 490.838 108.949 488.934C108.949 487.044 107.717 485.91 106.037 485.91C105.015 485.91 104.497 486.33 104.035 486.988H103.937L104.217 483.264H108.501V482.228Z" fill="#121619"/>
<path d="M93.2 422.168C95.538 422.168 96.56 420.306 96.56 417.114C96.56 413.922 95.538 412.06 93.2 412.06C90.862 412.06 89.84 413.922 89.84 417.114C89.84 420.306 90.862 422.168 93.2 422.168ZM93.2 421.146C91.674 421.146 91.072 419.802 91.072 417.912V416.316C91.072 414.426 91.674 413.082 93.2 413.082C94.726 413.082 95.328 414.426 95.328 416.316V417.912C95.328 419.802 94.726 421.146 93.2 421.146ZM99.4585 422.168C100.047 422.168 100.313 421.832 100.313 421.356V421.174C100.313 420.698 100.047 420.362 99.4585 420.362C98.8705 420.362 98.6045 420.698 98.6045 421.174V421.356C98.6045 421.832 98.8705 422.168 99.4585 422.168ZM105.743 422.168C107.703 422.168 108.991 420.852 108.991 418.934C108.991 417.086 107.787 415.924 106.107 415.924C104.917 415.924 104.217 416.526 103.755 417.324L103.685 417.296C104.217 415.028 105.379 413.754 107.465 412.228H105.953C104.385 413.25 102.467 415.518 102.467 418.416C102.467 420.74 103.713 422.168 105.743 422.168ZM105.729 421.146C104.441 421.146 103.685 420.404 103.685 419.088V418.976C103.685 417.66 104.441 416.918 105.729 416.918C107.017 416.918 107.773 417.66 107.773 418.976V419.088C107.773 420.404 107.017 421.146 105.729 421.146Z" fill="#121619"/>
<path d="M93.2 352.168C95.538 352.168 96.56 350.306 96.56 347.114C96.56 343.922 95.538 342.06 93.2 342.06C90.862 342.06 89.84 343.922 89.84 347.114C89.84 350.306 90.862 352.168 93.2 352.168ZM93.2 351.146C91.674 351.146 91.072 349.802 91.072 347.912V346.316C91.072 344.426 91.674 343.082 93.2 343.082C94.726 343.082 95.328 344.426 95.328 346.316V347.912C95.328 349.802 94.726 351.146 93.2 351.146ZM99.4585 352.168C100.047 352.168 100.313 351.832 100.313 351.356V351.174C100.313 350.698 100.047 350.362 99.4585 350.362C98.8705 350.362 98.6045 350.698 98.6045 351.174V351.356C98.6045 351.832 98.8705 352.168 99.4585 352.168ZM105.239 352L108.907 343.264V342.228H102.495V345.056H103.545V343.236H107.717L103.979 352H105.239Z" fill="#121619"/>
<path d="M93.2 282.168C95.538 282.168 96.56 280.306 96.56 277.114C96.56 273.922 95.538 272.06 93.2 272.06C90.862 272.06 89.84 273.922 89.84 277.114C89.84 280.306 90.862 282.168 93.2 282.168ZM93.2 281.146C91.674 281.146 91.072 279.802 91.072 277.912V276.316C91.072 274.426 91.674 273.082 93.2 273.082C94.726 273.082 95.328 274.426 95.328 276.316V277.912C95.328 279.802 94.726 281.146 93.2 281.146ZM99.4585 282.168C100.047 282.168 100.313 281.832 100.313 281.356V281.174C100.313 280.698 100.047 280.362 99.4585 280.362C98.8705 280.362 98.6045 280.698 98.6045 281.174V281.356C98.6045 281.832 98.8705 282.168 99.4585 282.168ZM105.729 282.168C107.955 282.168 109.117 280.95 109.117 279.34C109.117 278.01 108.319 277.24 107.143 276.918V276.806C108.165 276.456 108.823 275.63 108.823 274.51C108.823 273.026 107.675 272.06 105.729 272.06C103.783 272.06 102.635 273.026 102.635 274.51C102.635 275.63 103.293 276.456 104.315 276.806V276.918C103.139 277.24 102.341 278.01 102.341 279.34C102.341 280.95 103.503 282.168 105.729 282.168ZM105.729 281.146C104.371 281.146 103.587 280.502 103.587 279.396V279.102C103.587 277.996 104.371 277.352 105.729 277.352C107.087 277.352 107.871 277.996 107.871 279.102V279.396C107.871 280.502 107.087 281.146 105.729 281.146ZM105.729 276.372C104.511 276.372 103.853 275.826 103.853 274.832V274.622C103.853 273.628 104.511 273.082 105.729 273.082C106.947 273.082 107.605 273.628 107.605 274.622V274.832C107.605 275.826 106.947 276.372 105.729 276.372Z" fill="#121619"/>
<path d="M93.2 211.168C95.538 211.168 96.56 209.306 96.56 206.114C96.56 202.922 95.538 201.06 93.2 201.06C90.862 201.06 89.84 202.922 89.84 206.114C89.84 209.306 90.862 211.168 93.2 211.168ZM93.2 210.146C91.674 210.146 91.072 208.802 91.072 206.912V205.316C91.072 203.426 91.674 202.082 93.2 202.082C94.726 202.082 95.328 203.426 95.328 205.316V206.912C95.328 208.802 94.726 210.146 93.2 210.146ZM99.4585 211.168C100.047 211.168 100.313 210.832 100.313 210.356V210.174C100.313 209.698 100.047 209.362 99.4585 209.362C98.8705 209.362 98.6045 209.698 98.6045 210.174V210.356C98.6045 210.832 98.8705 211.168 99.4585 211.168ZM108.991 204.812C108.991 202.488 107.745 201.06 105.715 201.06C103.755 201.06 102.467 202.376 102.467 204.294C102.467 206.142 103.671 207.304 105.351 207.304C106.541 207.304 107.241 206.702 107.703 205.904L107.773 205.932C107.241 208.2 106.079 209.474 103.993 211H105.505C107.073 209.978 108.991 207.71 108.991 204.812ZM105.729 206.31C104.441 206.31 103.685 205.568 103.685 204.252V204.14C103.685 202.824 104.441 202.082 105.729 202.082C107.017 202.082 107.773 202.824 107.773 204.14V204.252C107.773 205.568 107.017 206.31 105.729 206.31Z" fill="#121619"/>
<path d="M96.658 141V139.964H94.138V131.228H92.304L89.714 133.65L90.4 134.392L92.864 132.096H92.962V139.964H90.232V141H96.658ZM99.4585 141.168C100.047 141.168 100.313 140.832 100.313 140.356V140.174C100.313 139.698 100.047 139.362 99.4585 139.362C98.8705 139.362 98.6045 139.698 98.6045 140.174V140.356C98.6045 140.832 98.8705 141.168 99.4585 141.168ZM105.729 141.168C108.067 141.168 109.089 139.306 109.089 136.114C109.089 132.922 108.067 131.06 105.729 131.06C103.391 131.06 102.369 132.922 102.369 136.114C102.369 139.306 103.391 141.168 105.729 141.168ZM105.729 140.146C104.203 140.146 103.601 138.802 103.601 136.912V135.316C103.601 133.426 104.203 132.082 105.729 132.082C107.255 132.082 107.857 133.426 107.857 135.316V136.912C107.857 138.802 107.255 140.146 105.729 140.146Z" fill="#121619"/>
<path d="M399.37 789V787.082H400.784V786.102H399.37V779.228H397.62L393.532 786.046V787.082H398.25V789H399.37ZM398.18 780.138H398.25V786.102H394.638L398.18 780.138ZM405.755 789.168C408.093 789.168 409.115 787.306 409.115 784.114C409.115 780.922 408.093 779.06 405.755 779.06C403.417 779.06 402.395 780.922 402.395 784.114C402.395 787.306 403.417 789.168 405.755 789.168ZM405.755 788.146C404.229 788.146 403.627 786.802 403.627 784.912V783.316C403.627 781.426 404.229 780.082 405.755 780.082C407.281 780.082 407.883 781.426 407.883 783.316V784.912C407.883 786.802 407.281 788.146 405.755 788.146Z" fill="#121619"/>
<path d="M549.214 789.168C551.174 789.168 552.462 787.852 552.462 785.934C552.462 784.086 551.258 782.924 549.578 782.924C548.388 782.924 547.688 783.526 547.226 784.324L547.156 784.296C547.688 782.028 548.85 780.754 550.936 779.228H549.424C547.856 780.25 545.938 782.518 545.938 785.416C545.938 787.74 547.184 789.168 549.214 789.168ZM549.2 788.146C547.912 788.146 547.156 787.404 547.156 786.088V785.976C547.156 784.66 547.912 783.918 549.2 783.918C550.488 783.918 551.244 784.66 551.244 785.976V786.088C551.244 787.404 550.488 788.146 549.2 788.146ZM557.755 789.168C560.093 789.168 561.115 787.306 561.115 784.114C561.115 780.922 560.093 779.06 557.755 779.06C555.417 779.06 554.395 780.922 554.395 784.114C554.395 787.306 555.417 789.168 557.755 789.168ZM557.755 788.146C556.229 788.146 555.627 786.802 555.627 784.912V783.316C555.627 781.426 556.229 780.082 557.755 780.082C559.281 780.082 559.883 781.426 559.883 783.316V784.912C559.883 786.802 559.281 788.146 557.755 788.146Z" fill="#121619"/>
<path d="M693.2 789.168C695.426 789.168 696.588 787.95 696.588 786.34C696.588 785.01 695.79 784.24 694.614 783.918V783.806C695.636 783.456 696.294 782.63 696.294 781.51C696.294 780.026 695.146 779.06 693.2 779.06C691.254 779.06 690.106 780.026 690.106 781.51C690.106 782.63 690.764 783.456 691.786 783.806V783.918C690.61 784.24 689.812 785.01 689.812 786.34C689.812 787.95 690.974 789.168 693.2 789.168ZM693.2 788.146C691.842 788.146 691.058 787.502 691.058 786.396V786.102C691.058 784.996 691.842 784.352 693.2 784.352C694.558 784.352 695.342 784.996 695.342 786.102V786.396C695.342 787.502 694.558 788.146 693.2 788.146ZM693.2 783.372C691.982 783.372 691.324 782.826 691.324 781.832V781.622C691.324 780.628 691.982 780.082 693.2 780.082C694.418 780.082 695.076 780.628 695.076 781.622V781.832C695.076 782.826 694.418 783.372 693.2 783.372ZM701.755 789.168C704.093 789.168 705.115 787.306 705.115 784.114C705.115 780.922 704.093 779.06 701.755 779.06C699.417 779.06 698.395 780.922 698.395 784.114C698.395 787.306 699.417 789.168 701.755 789.168ZM701.755 788.146C700.229 788.146 699.627 786.802 699.627 784.912V783.316C699.627 781.426 700.229 780.082 701.755 780.082C703.281 780.082 703.883 781.426 703.883 783.316V784.912C703.883 786.802 703.281 788.146 701.755 788.146Z" fill="#121619"/>
<line x1="126" y1="694.5" x2="120" y2="694.5" stroke="black"/>
<line x1="126" y1="765" x2="120" y2="765" stroke="black"/>
<line x1="126" y1="626.5" x2="120" y2="626.5" stroke="black"/>
<line x1="126" y1="557.5" x2="120" y2="557.5" stroke="black"/>
<line x1="126" y1="488.5" x2="120" y2="488.5" stroke="black"/>
<line x1="126" y1="418.5" x2="120" y2="418.5" stroke="black"/>
<line x1="126" y1="347.5" x2="120" y2="347.5" stroke="black"/>
<line x1="126" y1="277.5" x2="120" y2="277.5" stroke="black"/>
<line x1="126" y1="206.5" x2="120" y2="206.5" stroke="black"/>
<line x1="126" y1="136" x2="120" y2="136" stroke="black"/>
<path d="M131.199 149.541C386.5 261 521.5 400.5 831.199 453.541" stroke="#D12771"/>
<path d="M128 163C383.301 274.459 518.5 416.5 828.5 478" stroke="#6929C4"/>
<path d="M128 161C383.301 272.459 518.5 414.5 828.5 476" stroke="#1192E8"/>
<path d="M128 171C383.301 282.459 519.5 452.5 829.5 514" stroke="#009D9A"/>
<path d="M126.125 181C372.5 301 513 453.5 826.5 549.5" stroke="#0043CE"/>
<path d="M126.125 183C372.5 303 513 455.5 826.5 551.5" stroke="#0043CE"/>
<path d="M129 236.5C322 328.5 377 567.5 826 659.999" stroke="#009D9A"/>
<path d="M128 243.5C309 371 396.5 583.499 826 682.999" stroke="black"/>
<path d="M129 242.5C343 405 356.5 602.5 826 706.527" stroke="black"/>
<circle cx="827" cy="705" r="8" fill="black"/>
<circle cx="827" cy="685" r="8" fill="black"/>
<circle cx="827" cy="660" r="8" fill="#009D9A"/>
<circle cx="827" cy="636" r="8" fill="#1192E8"/>
<circle cx="827" cy="550" r="8" fill="#0043CE"/>
<circle cx="827" cy="547" r="8" fill="#0043CE"/>
<circle cx="827" cy="512" r="8" fill="#009D9A"/>
<circle cx="827" cy="476" r="8" fill="#1192E8"/>
<circle cx="827" cy="454" r="8" fill="#D12771"/>
<circle cx="469" cy="565" r="7" fill="black"/>
<circle cx="469" cy="535" r="7" fill="black"/>
<circle cx="469" cy="513" r="7" fill="#009D9A"/>
<circle cx="469" cy="485" r="7" fill="#1192E8"/>
<circle cx="469" cy="368" r="7" fill="#009D9A"/>
<circle cx="469" cy="386" r="7" fill="#0043CE"/>
<circle cx="469" cy="388" r="7" fill="#0043CE"/>
<circle cx="469" cy="343" r="7" fill="#1192E8"/>
<circle cx="469" cy="329" r="7" fill="#D12771"/>
<circle cx="314" cy="428" r="8" fill="black"/>
<circle cx="314" cy="414" r="8" fill="black"/>
<circle cx="228" cy="332" r="8" fill="black"/>
<circle cx="228" cy="327" r="8" fill="black"/>
<circle cx="193" cy="276" r="8" fill="#009D9A"/>
<circle cx="193" cy="267" r="8" fill="#1192E8"/>
<circle cx="193" cy="177" r="8" fill="#D12771"/>
<circle cx="193" cy="192" r="8" fill="#1192E8"/>
<circle cx="193" cy="297" r="8" fill="black"/>
<circle cx="193" cy="301" r="8" fill="black"/>
<circle cx="158" cy="266" r="8" fill="black"/>
<circle cx="158" cy="257" r="8" fill="#009D9A"/>
<circle cx="158" cy="247" r="8" fill="#1192E8"/>
<circle cx="158" cy="179" r="8" fill="#D9D9D9"/>
<circle cx="158" cy="178" r="8" fill="#1192E8"/>
<circle cx="158" cy="166" r="8" fill="#D12771"/>
<circle cx="142" cy="251" r="8" fill="black"/>
<circle cx="142" cy="192" r="8" fill="#0043CE"/>
<circle cx="142" cy="155" r="8" fill="#D12771"/>
<circle cx="142" cy="170" r="8" fill="#1192E8"/>
<circle cx="134" cy="247" r="8" fill="black"/>
<circle cx="134" cy="166" r="8" fill="#1192E8"/>
<circle cx="134" cy="152" r="8" fill="#D12771"/>
<circle cx="228" cy="306" r="8" fill="#009D9A"/>
<circle cx="228" cy="302" r="8" fill="#009D9A"/>
<circle cx="228" cy="291" r="8" fill="#1192E8"/>
<circle cx="228" cy="198" r="8" fill="#D12771"/>
<circle cx="228" cy="208" r="8" fill="#1192E8"/>
<circle cx="228" cy="211" r="8" fill="#6929C4"/>
<circle cx="228" cy="236" r="8" fill="#0043CE"/>
<circle cx="228" cy="233" r="8" fill="#0043CE"/>
<circle cx="314" cy="382" r="8" fill="#009D9A"/>
<circle cx="314" cy="357" r="8" fill="#1192E8"/>
<circle cx="314" cy="254" r="8" fill="#1192E8"/>
<circle cx="314" cy="288" r="8" fill="#0043CE"/>
<circle cx="314" cy="283" r="8" fill="#0043CE"/>
<circle cx="314" cy="257" r="8" fill="#6929C4"/>
<circle cx="314" cy="240" r="8" fill="#D12771"/>
<rect x="993" y="56" width="22" height="64" fill="#D12771"/>
<rect x="993" y="132" width="22" height="64" fill="#1192E8"/>
<rect x="993" y="208" width="22" height="64" fill="#6929C4"/>
<rect x="993" y="284" width="22" height="64" fill="#009D9A"/>
<rect x="993" y="360" width="22" height="64" fill="#0043CE"/>
<rect x="993" y="436" width="22" height="64" fill="#6929C4"/>
<rect x="993" y="512" width="22" height="64" fill="#1192E8"/>
<rect x="993" y="588" width="22" height="64" fill="#009D9A"/>
<circle cx="827" cy="479" r="8" fill="#6929C4"/>
<circle cx="469" cy="345" r="7" fill="#6929C4"/>
<circle cx="193" cy="193" r="8" fill="#6929C4"/>
<circle cx="158" cy="180" r="8" fill="#6929C4"/>
<circle cx="142" cy="171" r="8" fill="#6929C4"/>
<circle cx="134" cy="168" r="8" fill="#6929C4"/>
<circle cx="193" cy="199" r="8" fill="#009D9A"/>
<circle cx="228" cy="218" r="8" fill="#009D9A"/>
<circle cx="314" cy="267" r="8" fill="#009D9A"/>
<circle cx="158" cy="185" r="8" fill="#009D9A"/>
<circle cx="142" cy="177" r="8" fill="#009D9A"/>
<circle cx="134" cy="172" r="8" fill="#009D9A"/>
<circle cx="193" cy="213" r="8" fill="#0043CE"/>
<circle cx="193" cy="217" r="8" fill="#0043CE"/>
<circle cx="158" cy="200" r="8" fill="#0043CE"/>
<circle cx="158" cy="196" r="8" fill="#0043CE"/>
<circle cx="142" cy="188" r="8" fill="#0043CE"/>
<circle cx="134" cy="185" r="8" fill="#0043CE"/>
<circle cx="134" cy="182" r="8" fill="#0043CE"/>
<circle cx="134" cy="235" r="8" fill="#009D9A"/>
<circle cx="142" cy="242" r="8" fill="#009D9A"/>
<circle cx="134" cy="230" r="8" fill="#1192E8"/>
<circle cx="142" cy="237" r="8" fill="#1192E8"/>
<line x1="993.455" y1="88.2065" x2="827.455" y2="454.207" stroke="#D12771" stroke-dasharray="6 6"/>
<line x1="993.442" y1="165.233" x2="832.443" y2="471.233" stroke="#1192E8" stroke-dasharray="6 6"/>
<line x1="993.415" y1="240.279" x2="832.415" y2="479.279" stroke="#6929C4" stroke-dasharray="6 6"/>
<line x1="993.383" y1="314.321" x2="827.383" y2="512.321" stroke="#009D9A" stroke-dasharray="6 6"/>
<line x1="828.666" y1="543.628" x2="996.666" y2="392.628" stroke="#0043CE" stroke-dasharray="6 6"/>
<line x1="826.662" y1="548.632" x2="996.662" y2="392.632" stroke="#0043CE" stroke-dasharray="6 6"/>
<line x1="825.657" y1="631.636" x2="996.657" y2="470.636" stroke="#6929C4" stroke-dasharray="6 6"/>
<path d="M128.5 227.5C361 351.5 486 581 825.5 633.5" stroke="#6929C4"/>
<path d="M128.5 229.5C361 353.5 486 583 825.5 635.5" stroke="#1192E8"/>
<circle cx="134" cy="226" r="8" fill="#6929C4"/>
<circle cx="469" cy="482" r="7" fill="#6929C4"/>
<circle cx="314" cy="355" r="8" fill="#6929C4"/>
<circle cx="193" cy="264" r="8" fill="#6929C4"/>
<circle cx="158" cy="244" r="8" fill="#6929C4"/>
<circle cx="228" cy="288" r="8" fill="#6929C4"/>
<circle cx="142" cy="234" r="8" fill="#6929C4"/>
<line x1="827.755" y1="637.564" x2="998.755" y2="541.564" stroke="#1192E8" stroke-dasharray="6 6"/>
<circle cx="827" cy="634" r="8" fill="#6929C4"/>
<line x1="826.887" y1="659.513" x2="998.887" y2="619.513" stroke="#009D9A" stroke-dasharray="6 6"/>
<path d="M495.071 819.45C495.089 819.378 495.125 819.27 495.125 819.18C495.125 819 494.945 819 494.909 819C494.891 819 494.242 819.054 493.918 819.09C493.612 819.108 493.342 819.144 493.017 819.162C492.585 819.198 492.459 819.216 492.459 819.54C492.459 819.72 492.639 819.72 492.819 819.72C493.738 819.72 493.738 819.883 493.738 820.063C493.738 820.135 493.738 820.171 493.648 820.495L491.072 830.798C491 831.068 491 831.104 491 831.212C491 831.609 491.306 831.681 491.486 831.681C491.991 831.681 492.099 831.284 492.243 830.726L493.089 827.358C494.386 827.502 495.161 828.042 495.161 828.907C495.161 829.015 495.161 829.087 495.107 829.357C495.035 829.627 495.035 829.843 495.035 829.934C495.035 830.978 495.719 831.681 496.638 831.681C497.466 831.681 497.899 830.924 498.043 830.672C498.421 830.006 498.655 828.997 498.655 828.925C498.655 828.835 498.583 828.763 498.475 828.763C498.313 828.763 498.295 828.835 498.223 829.123C497.971 830.06 497.593 831.321 496.674 831.321C496.314 831.321 496.08 831.14 496.08 830.456C496.08 830.114 496.152 829.717 496.224 829.447C496.296 829.123 496.296 829.105 496.296 828.889C496.296 827.826 495.341 827.232 493.684 827.016C494.332 826.619 494.981 825.917 495.233 825.647C496.26 824.494 496.962 823.917 497.791 823.917C498.205 823.917 498.313 824.025 498.439 824.134C497.773 824.206 497.521 824.674 497.521 825.034C497.521 825.466 497.863 825.611 498.115 825.611C498.601 825.611 499.034 825.196 499.034 824.62C499.034 824.098 498.619 823.557 497.809 823.557C496.818 823.557 496.007 824.26 494.729 825.701C494.548 825.917 493.882 826.601 493.216 826.853L495.071 819.45Z" fill="black"/>
<path d="M487 836.832C487 836.769 487 836.727 486.626 836.371C484.423 834.252 483.189 830.79 483.189 826.51C483.189 822.441 484.225 818.937 486.78 816.462C487 816.273 487 816.231 487 816.168C487 816.042 486.89 816 486.802 816C486.515 816 484.709 817.51 483.63 819.566C482.507 821.685 482 823.93 482 826.51C482 828.378 482.308 830.874 483.454 833.119C484.753 835.636 486.559 837 486.802 837C486.89 837 487 836.958 487 836.832Z" fill="black"/>
<path d="M508 826.51C508 824.916 507.78 822.315 506.546 819.881C505.247 817.364 503.441 816 503.198 816C503.11 816 503 816.042 503 816.168C503 816.231 503 816.273 503.374 816.629C505.577 818.748 506.811 822.21 506.811 826.49C506.811 830.559 505.775 834.063 503.22 836.538C503 836.727 503 836.769 503 836.832C503 836.958 503.11 837 503.198 837C503.485 837 505.291 835.49 506.37 833.434C507.493 831.294 508 829.028 508 826.51Z" fill="black"/>
<path d="M1023.84 82H1031.01V79.522H1030V81.314H1025.24L1030.88 72.914V72.228H1023.97V74.58H1024.97V72.914H1029.48L1023.84 81.314V82ZM1032.84 82H1036.15V81.356H1035.1V72.872H1036.15V72.228H1032.84V72.872H1033.89V81.356H1032.84V82ZM1037.84 82H1041.15V81.356H1040.1V72.872H1041.15V72.228H1037.84V72.872H1038.89V81.356H1037.84V82ZM1042.84 82H1046.15V81.356H1045.1V72.872H1046.15V72.228H1042.84V72.872H1043.89V81.356H1042.84V82ZM1023.84 102H1031.01V99.522H1030V101.314H1025.24L1030.88 92.914V92.228H1023.97V94.58H1024.97V92.914H1029.48L1023.84 101.314V102ZM1032.84 102H1036.15V101.356H1035.1V92.872H1036.15V92.228H1032.84V92.872H1033.89V101.356H1032.84V102ZM1037.84 102H1041.15V101.356H1040.1V92.872H1041.15V92.228H1037.84V92.872H1038.89V101.356H1037.84V102ZM1042.84 102H1046.15V101.356H1045.1V92.872H1046.15V92.228H1042.84V92.872H1043.89V101.356H1042.84V102Z" fill="black"/>
<path d="M1083.2 92.168C1085.54 92.168 1086.56 90.306 1086.56 87.114C1086.56 83.922 1085.54 82.06 1083.2 82.06C1080.86 82.06 1079.84 83.922 1079.84 87.114C1079.84 90.306 1080.86 92.168 1083.2 92.168ZM1083.2 91.146C1081.67 91.146 1081.07 89.802 1081.07 87.912V86.316C1081.07 84.426 1081.67 83.082 1083.2 83.082C1084.73 83.082 1085.33 84.426 1085.33 86.316V87.912C1085.33 89.802 1084.73 91.146 1083.2 91.146ZM1089.46 92.168C1090.05 92.168 1090.31 91.832 1090.31 91.356V91.174C1090.31 90.698 1090.05 90.362 1089.46 90.362C1088.87 90.362 1088.6 90.698 1088.6 91.174V91.356C1088.6 91.832 1088.87 92.168 1089.46 92.168ZM1098.99 85.812C1098.99 83.488 1097.74 82.06 1095.71 82.06C1093.75 82.06 1092.47 83.376 1092.47 85.294C1092.47 87.142 1093.67 88.304 1095.35 88.304C1096.54 88.304 1097.24 87.702 1097.7 86.904L1097.77 86.932C1097.24 89.2 1096.08 90.474 1093.99 92H1095.5C1097.07 90.978 1098.99 88.71 1098.99 85.812ZM1095.73 87.31C1094.44 87.31 1093.68 86.568 1093.68 85.252V85.14C1093.68 83.824 1094.44 83.082 1095.73 83.082C1097.02 83.082 1097.77 83.824 1097.77 85.14V85.252C1097.77 86.568 1097.02 87.31 1095.73 87.31ZM1107.55 85.812C1107.55 83.488 1106.3 82.06 1104.27 82.06C1102.31 82.06 1101.02 83.376 1101.02 85.294C1101.02 87.142 1102.23 88.304 1103.91 88.304C1105.1 88.304 1105.8 87.702 1106.26 86.904L1106.33 86.932C1105.8 89.2 1104.63 90.474 1102.55 92H1104.06C1105.63 90.978 1107.55 88.71 1107.55 85.812ZM1104.28 87.31C1103 87.31 1102.24 86.568 1102.24 85.252V85.14C1102.24 83.824 1103 83.082 1104.28 83.082C1105.57 83.082 1106.33 83.824 1106.33 85.14V85.252C1106.33 86.568 1105.57 87.31 1104.28 87.31ZM1115.01 92V90.082H1116.42V89.102H1115.01V82.228H1113.26L1109.17 89.046V90.082H1113.89V92H1115.01ZM1113.82 83.138H1113.89V89.102H1110.28L1113.82 83.138ZM1124.65 90.964H1119.52L1122.15 88.598C1123.39 87.478 1124.29 86.414 1124.29 84.902C1124.29 83.236 1123.2 82.06 1121.29 82.06C1119.4 82.06 1118.54 83.208 1118.16 84.356L1119.21 84.762C1119.47 83.838 1120.03 83.11 1121.24 83.11C1122.44 83.11 1123.04 83.852 1123.04 84.93V85.098C1123.04 86.036 1122.34 87.016 1121.43 87.856L1118.24 90.796V92H1124.65V90.964ZM1143.61 85.812C1143.61 83.488 1142.37 82.06 1140.34 82.06C1138.38 82.06 1137.09 83.376 1137.09 85.294C1137.09 87.142 1138.29 88.304 1139.97 88.304C1141.16 88.304 1141.86 87.702 1142.33 86.904L1142.4 86.932C1141.86 89.2 1140.7 90.474 1138.62 92H1140.13C1141.7 90.978 1143.61 88.71 1143.61 85.812ZM1140.35 87.31C1139.06 87.31 1138.31 86.568 1138.31 85.252V85.14C1138.31 83.824 1139.06 83.082 1140.35 83.082C1141.64 83.082 1142.4 83.824 1142.4 85.14V85.252C1142.4 86.568 1141.64 87.31 1140.35 87.31ZM1146.61 92.168C1147.2 92.168 1147.47 91.832 1147.47 91.356V91.174C1147.47 90.698 1147.2 90.362 1146.61 90.362C1146.02 90.362 1145.76 90.698 1145.76 91.174V91.356C1145.76 91.832 1146.02 92.168 1146.61 92.168ZM1152.88 92.168C1155.11 92.168 1156.27 90.95 1156.27 89.34C1156.27 88.01 1155.47 87.24 1154.3 86.918V86.806C1155.32 86.456 1155.98 85.63 1155.98 84.51C1155.98 83.026 1154.83 82.06 1152.88 82.06C1150.94 82.06 1149.79 83.026 1149.79 84.51C1149.79 85.63 1150.45 86.456 1151.47 86.806V86.918C1150.29 87.24 1149.49 88.01 1149.49 89.34C1149.49 90.95 1150.66 92.168 1152.88 92.168ZM1152.88 91.146C1151.52 91.146 1150.74 90.502 1150.74 89.396V89.102C1150.74 87.996 1151.52 87.352 1152.88 87.352C1154.24 87.352 1155.02 87.996 1155.02 89.102V89.396C1155.02 90.502 1154.24 91.146 1152.88 91.146ZM1152.88 86.372C1151.66 86.372 1151.01 85.826 1151.01 84.832V84.622C1151.01 83.628 1151.66 83.082 1152.88 83.082C1154.1 83.082 1154.76 83.628 1154.76 84.622V84.832C1154.76 85.826 1154.1 86.372 1152.88 86.372ZM1161.14 92.168C1162.5 92.168 1163.54 91.496 1164 90.516L1163.2 89.942C1162.82 90.74 1162.12 91.188 1161.21 91.188C1159.87 91.188 1159.07 90.25 1159.07 89.004V88.668H1164.26V88.136C1164.26 86.092 1163.07 84.608 1161.14 84.608C1159.18 84.608 1157.89 86.092 1157.89 88.388C1157.89 90.684 1159.18 92.168 1161.14 92.168ZM1161.14 85.546C1162.29 85.546 1163.06 86.4 1163.06 87.674V87.828H1159.07V87.73C1159.07 86.47 1159.92 85.546 1161.14 85.546ZM1169.84 88.346V87.142H1166.18V88.346H1169.84ZM1177.94 82.228H1172.7L1172.35 87.604L1173.35 87.744C1173.75 87.296 1174.2 86.918 1175.1 86.918C1176.43 86.918 1177.14 87.66 1177.14 88.948V89.088C1177.14 90.376 1176.43 91.118 1175.1 91.118C1173.92 91.118 1173.43 90.6 1172.93 89.83L1172.05 90.502C1172.63 91.342 1173.47 92.168 1175.1 92.168C1177.16 92.168 1178.39 90.838 1178.39 88.934C1178.39 87.044 1177.16 85.91 1175.48 85.91C1174.45 85.91 1173.94 86.33 1173.47 86.988H1173.38L1173.66 83.264H1177.94V82.228Z" fill="black"/>
<path d="M1023.77 158H1027.07V157.356H1026.02V148.872H1027.07V148.228H1023.77V148.872H1024.82V157.356H1023.77V158ZM1028.77 158H1032.07V157.356H1031.02V148.872H1032.07V148.228H1028.77V148.872H1029.82V157.356H1028.77V158ZM1033.77 158H1037.07V157.356H1036.02V148.872H1037.07V148.228H1033.77V148.872H1034.82V157.356H1033.77V158ZM1040.51 158H1044.37V157.356H1043.04V153.996L1045.85 148.872H1046.6V148.228H1043.75V148.872H1045.01L1042.7 153.212H1042.65L1040.39 148.872H1041.65V148.228H1038.28V148.872H1039.02L1041.84 154.066V157.356H1040.51V158ZM1023.77 178H1027.07V177.356H1026.02V168.872H1027.07V168.228H1023.77V168.872H1024.82V177.356H1023.77V178ZM1028.77 178H1032.07V177.356H1031.02V168.872H1032.07V168.228H1028.77V168.872H1029.82V177.356H1028.77V178ZM1033.84 178H1041.01V175.522H1040V177.314H1035.24L1040.88 168.914V168.228H1033.97V170.58H1034.97V168.914H1039.48L1033.84 177.314V178ZM1042.78 178H1049.95V175.522H1048.94V177.314H1044.18L1049.82 168.914V168.228H1042.9V170.58H1043.91V168.914H1048.42L1042.78 177.314V178Z" fill="black"/>
<path d="M1023.77 234H1027.07V233.356H1026.02V224.872H1027.07V224.228H1023.77V224.872H1024.82V233.356H1023.77V234ZM1028.77 234H1032.07V233.356H1031.02V224.872H1032.07V224.228H1028.77V224.872H1029.82V233.356H1028.77V234ZM1033.25 234H1036V233.356H1035.07L1037.45 229.842H1037.51L1039.78 233.356H1038.74V234H1042.09V233.356H1041.25L1038.29 228.918L1041.18 224.872H1042.02V224.228H1039.3V224.872H1040.22L1037.9 228.33H1037.84L1035.62 224.872H1036.65V224.228H1033.32V224.872H1034.16L1037.05 229.24L1034.09 233.356H1033.25V234ZM1043.29 234H1046.6V233.356H1045.55V224.872H1046.6V224.228H1043.29V224.872H1044.34V233.356H1043.29V234ZM1023.77 254H1027.07V253.356H1026.02V244.872H1027.07V244.228H1023.77V244.872H1024.82V253.356H1023.77V254ZM1028.77 254H1032.07V253.356H1031.02V244.872H1032.07V244.228H1028.77V244.872H1029.82V253.356H1028.77V254ZM1035.51 254H1039.37V253.356H1038.04V249.996L1040.85 244.872H1041.6V244.228H1038.75V244.872H1040.01L1037.7 249.212H1037.65L1035.39 244.872H1036.65V244.228H1033.28V244.872H1034.02L1036.84 250.066V253.356H1035.51V254ZM1042.28 254H1045.03V253.356H1044.1L1046.48 249.842H1046.54L1048.81 253.356H1047.77V254H1051.12V253.356H1050.28L1047.32 248.918L1050.21 244.872H1051.05V244.228H1048.33V244.872H1049.26L1046.93 248.33H1046.88L1044.65 244.872H1045.69V244.228H1042.35V244.872H1043.19L1046.08 249.24L1043.12 253.356H1042.28V254Z" fill="black"/>
<path d="M1023.77 310H1027.07V309.356H1026.02V300.872H1027.07V300.228H1023.77V300.872H1024.82V309.356H1023.77V310ZM1028.77 310H1032.07V309.356H1031.02V300.872H1032.07V300.228H1028.77V300.872H1029.82V309.356H1028.77V310ZM1033.25 310H1036V309.356H1035.07L1037.45 305.842H1037.51L1039.78 309.356H1038.74V310H1042.09V309.356H1041.25L1038.29 304.918L1041.18 300.872H1042.02V300.228H1039.3V300.872H1040.22L1037.9 304.33H1037.84L1035.62 300.872H1036.65V300.228H1033.32V300.872H1034.16L1037.05 305.24L1034.09 309.356H1033.25V310ZM1045.03 310H1048.89V309.356H1047.56V305.996L1050.38 300.872H1051.12V300.228H1048.28V300.872H1049.54L1047.23 305.212H1047.17L1044.92 300.872H1046.18V300.228H1042.8V300.872H1043.55L1046.36 306.066V309.356H1045.03V310ZM1023.77 330H1027.07V329.356H1026.02V320.872H1027.07V320.228H1023.77V320.872H1024.82V329.356H1023.77V330ZM1028.77 330H1032.07V329.356H1031.02V320.872H1032.07V320.228H1028.77V320.872H1029.82V329.356H1028.77V330ZM1033.25 330H1036V329.356H1035.07L1037.45 325.842H1037.51L1039.78 329.356H1038.74V330H1042.09V329.356H1041.25L1038.29 324.918L1041.18 320.872H1042.02V320.228H1039.3V320.872H1040.22L1037.9 324.33H1037.84L1035.62 320.872H1036.65V320.228H1033.32V320.872H1034.16L1037.05 325.24L1034.09 329.356H1033.25V330ZM1045.03 330H1048.89V329.356H1047.56V325.996L1050.38 320.872H1051.12V320.228H1048.28V320.872H1049.54L1047.23 325.212H1047.17L1044.92 320.872H1046.18V320.228H1042.8V320.872H1043.55L1046.36 326.066V329.356H1045.03V330Z" fill="black"/>
<path d="M1023.77 386H1027.07V385.356H1026.02V376.872H1027.07V376.228H1023.77V376.872H1024.82V385.356H1023.77V386ZM1030.51 386H1034.37V385.356H1033.04V381.996L1035.85 376.872H1036.6V376.228H1033.75V376.872H1035.01L1032.7 381.212H1032.65L1030.39 376.872H1031.65V376.228H1028.28V376.872H1029.02L1031.84 382.066V385.356H1030.51V386ZM1037.8 386H1041.11V385.356H1040.06V376.872H1041.11V376.228H1037.8V376.872H1038.85V385.356H1037.8V386ZM1042.8 386H1046.11V385.356H1045.06V376.872H1046.11V376.228H1042.8V376.872H1043.85V385.356H1042.8V386ZM1023.84 406H1031.01V403.522H1030V405.314H1025.24L1030.88 396.914V396.228H1023.97V398.58H1024.97V396.914H1029.48L1023.84 405.314V406ZM1034.58 406H1038.44V405.356H1037.11V401.996L1039.93 396.872H1040.67V396.228H1037.83V396.872H1039.09L1036.78 401.212H1036.72L1034.47 396.872H1035.73V396.228H1032.35V396.872H1033.1L1035.91 402.066V405.356H1034.58V406ZM1041.88 406H1045.18V405.356H1044.13V396.872H1045.18V396.228H1041.88V396.872H1042.93V405.356H1041.88V406ZM1046.88 406H1050.18V405.356H1049.13V396.872H1050.18V396.228H1046.88V396.872H1047.93V405.356H1046.88V406Z" fill="black"/>
<path d="M1023.84 462H1031.01V459.522H1030V461.314H1025.24L1030.88 452.914V452.228H1023.97V454.58H1024.97V452.914H1029.48L1023.84 461.314V462ZM1032.84 462H1036.15V461.356H1035.1V452.872H1036.15V452.228H1032.84V452.872H1033.89V461.356H1032.84V462ZM1037.33 462H1040.07V461.356H1039.15L1041.53 457.842H1041.58L1043.85 461.356H1042.81V462H1046.16V461.356H1045.32L1042.37 456.918L1045.25 452.872H1046.09V452.228H1043.37V452.872H1044.3L1041.97 456.33H1041.92L1039.69 452.872H1040.73V452.228H1037.4V452.872H1038.24L1041.12 457.24L1038.17 461.356H1037.33V462ZM1047.37 462H1050.67V461.356H1049.62V452.872H1050.67V452.228H1047.37V452.872H1048.42V461.356H1047.37V462ZM1023.84 482H1031.01V479.522H1030V481.314H1025.24L1030.88 472.914V472.228H1023.97V474.58H1024.97V472.914H1029.48L1023.84 481.314V482ZM1032.84 482H1036.15V481.356H1035.1V472.872H1036.15V472.228H1032.84V472.872H1033.89V481.356H1032.84V482ZM1039.58 482H1043.44V481.356H1042.11V477.996L1044.93 472.872H1045.67V472.228H1042.83V472.872H1044.09L1041.78 477.212H1041.72L1039.47 472.872H1040.73V472.228H1037.35V472.872H1038.1L1040.91 478.066V481.356H1039.58V482ZM1046.36 482H1049.1V481.356H1048.18L1050.56 477.842H1050.61L1052.88 481.356H1051.85V482H1055.19V481.356H1054.35L1051.4 476.918L1054.28 472.872H1055.12V472.228H1052.41V472.872H1053.33L1051.01 476.33H1050.95L1048.72 472.872H1049.76V472.228H1046.43V472.872H1047.27L1050.15 477.24L1047.2 481.356H1046.36V482Z" fill="black"/>
<path d="M1023.84 538H1031.01V535.522H1030V537.314H1025.24L1030.88 528.914V528.228H1023.97V530.58H1024.97V528.914H1029.48L1023.84 537.314V538ZM1032.84 538H1036.15V537.356H1035.1V528.872H1036.15V528.228H1032.84V528.872H1033.89V537.356H1032.84V538ZM1037.84 538H1041.15V537.356H1040.1V528.872H1041.15V528.228H1037.84V528.872H1038.89V537.356H1037.84V538ZM1044.58 538H1048.44V537.356H1047.11V533.996L1049.93 528.872H1050.67V528.228H1047.83V528.872H1049.09L1046.78 533.212H1046.72L1044.47 528.872H1045.73V528.228H1042.35V528.872H1043.1L1045.91 534.066V537.356H1044.58V538ZM1023.84 558H1031.01V555.522H1030V557.314H1025.24L1030.88 548.914V548.228H1023.97V550.58H1024.97V548.914H1029.48L1023.84 557.314V558ZM1032.84 558H1036.15V557.356H1035.1V548.872H1036.15V548.228H1032.84V548.872H1033.89V557.356H1032.84V558ZM1037.91 558H1045.08V555.522H1044.07V557.314H1039.31L1044.96 548.914V548.228H1038.04V550.58H1039.05V548.914H1043.56L1037.91 557.314V558ZM1046.85 558H1054.02V555.522H1053.01V557.314H1048.25L1053.89 548.914V548.228H1046.98V550.58H1047.99V548.914H1052.49L1046.85 557.314V558Z" fill="black"/>
<path d="M1023.84 614H1031.01V611.522H1030V613.314H1025.24L1030.88 604.914V604.228H1023.97V606.58H1024.97V604.914H1029.48L1023.84 613.314V614ZM1032.84 614H1036.15V613.356H1035.1V604.872H1036.15V604.228H1032.84V604.872H1033.89V613.356H1032.84V614ZM1037.33 614H1040.07V613.356H1039.15L1041.53 609.842H1041.58L1043.85 613.356H1042.81V614H1046.16V613.356H1045.32L1042.37 608.918L1045.25 604.872H1046.09V604.228H1043.37V604.872H1044.3L1041.97 608.33H1041.92L1039.69 604.872H1040.73V604.228H1037.4V604.872H1038.24L1041.12 609.24L1038.17 613.356H1037.33V614ZM1049.11 614H1052.97V613.356H1051.64V609.996L1054.45 604.872H1055.2V604.228H1052.35V604.872H1053.61L1051.3 609.212H1051.25L1048.99 604.872H1050.25V604.228H1046.88V604.872H1047.62L1050.44 610.066V613.356H1049.11V614ZM1023.84 634H1031.01V631.522H1030V633.314H1025.24L1030.88 624.914V624.228H1023.97V626.58H1024.97V624.914H1029.48L1023.84 633.314V634ZM1032.84 634H1036.15V633.356H1035.1V624.872H1036.15V624.228H1032.84V624.872H1033.89V633.356H1032.84V634ZM1037.33 634H1040.07V633.356H1039.15L1041.53 629.842H1041.58L1043.85 633.356H1042.81V634H1046.16V633.356H1045.32L1042.37 628.918L1045.25 624.872H1046.09V624.228H1043.37V624.872H1044.3L1041.97 628.33H1041.92L1039.69 624.872H1040.73V624.228H1037.4V624.872H1038.24L1041.12 629.24L1038.17 633.356H1037.33V634ZM1049.11 634H1052.97V633.356H1051.64V629.996L1054.45 624.872H1055.2V624.228H1052.35V624.872H1053.61L1051.3 629.212H1051.25L1048.99 624.872H1050.25V624.228H1046.88V624.872H1047.62L1050.44 630.066V633.356H1049.11V634Z" fill="black"/>
<path d="M1059 108C1068.07 106.32 1058.7 94.2979 1067 86.668C1060.91 81.616 1067 67.5195 1059 65" stroke="black"/>
<path d="M1127 88.1742C1127 88.1742 1127 88.1219 1127 88.0173C1127 87.9128 1127.06 87.8323 1127.17 87.7761H1130.78V85.9665L1130.79 84.157C1130.87 84.0524 1130.94 84.0001 1131.02 84.0001C1131.12 84.0001 1131.2 84.0604 1131.26 84.1811V87.7761H1134.85C1134.97 87.8404 1135.03 87.9208 1135.03 88.0173C1135.03 88.1138 1134.97 88.1943 1134.85 88.2586H1131.26V91.8536C1131.19 91.9662 1131.12 92.0225 1131.04 92.0225H1131.02H1130.99C1130.9 92.0225 1130.82 91.9662 1130.78 91.8536V88.2586H1127.17C1127.06 88.2023 1127 88.1219 1127 88.0173V88.1742Z" fill="black"/>
<line x1="1127" y1="91.75" x2="1135" y2="91.75" stroke="black" stroke-width="0.5"/>
<path d="M1083.2 168.168C1085.54 168.168 1086.56 166.306 1086.56 163.114C1086.56 159.922 1085.54 158.06 1083.2 158.06C1080.86 158.06 1079.84 159.922 1079.84 163.114C1079.84 166.306 1080.86 168.168 1083.2 168.168ZM1083.2 167.146C1081.67 167.146 1081.07 165.802 1081.07 163.912V162.316C1081.07 160.426 1081.67 159.082 1083.2 159.082C1084.73 159.082 1085.33 160.426 1085.33 162.316V163.912C1085.33 165.802 1084.73 167.146 1083.2 167.146ZM1089.46 168.168C1090.05 168.168 1090.31 167.832 1090.31 167.356V167.174C1090.31 166.698 1090.05 166.362 1089.46 166.362C1088.87 166.362 1088.6 166.698 1088.6 167.174V167.356C1088.6 167.832 1088.87 168.168 1089.46 168.168ZM1098.99 161.812C1098.99 159.488 1097.74 158.06 1095.71 158.06C1093.75 158.06 1092.47 159.376 1092.47 161.294C1092.47 163.142 1093.67 164.304 1095.35 164.304C1096.54 164.304 1097.24 163.702 1097.7 162.904L1097.77 162.932C1097.24 165.2 1096.08 166.474 1093.99 168H1095.5C1097.07 166.978 1098.99 164.71 1098.99 161.812ZM1095.73 163.31C1094.44 163.31 1093.68 162.568 1093.68 161.252V161.14C1093.68 159.824 1094.44 159.082 1095.73 159.082C1097.02 159.082 1097.77 159.824 1097.77 161.14V161.252C1097.77 162.568 1097.02 163.31 1095.73 163.31ZM1107.55 161.812C1107.55 159.488 1106.3 158.06 1104.27 158.06C1102.31 158.06 1101.02 159.376 1101.02 161.294C1101.02 163.142 1102.23 164.304 1103.91 164.304C1105.1 164.304 1105.8 163.702 1106.26 162.904L1106.33 162.932C1105.8 165.2 1104.63 166.474 1102.55 168H1104.06C1105.63 166.978 1107.55 164.71 1107.55 161.812ZM1104.28 163.31C1103 163.31 1102.24 162.568 1102.24 161.252V161.14C1102.24 159.824 1103 159.082 1104.28 159.082C1105.57 159.082 1106.33 159.824 1106.33 161.14V161.252C1106.33 162.568 1105.57 163.31 1104.28 163.31ZM1115.01 168V166.082H1116.42V165.102H1115.01V158.228H1113.26L1109.17 165.046V166.082H1113.89V168H1115.01ZM1113.82 159.138H1113.89V165.102H1110.28L1113.82 159.138ZM1121.39 168.168C1123.73 168.168 1124.75 166.306 1124.75 163.114C1124.75 159.922 1123.73 158.06 1121.39 158.06C1119.05 158.06 1118.03 159.922 1118.03 163.114C1118.03 166.306 1119.05 168.168 1121.39 168.168ZM1121.39 167.146C1119.87 167.146 1119.26 165.802 1119.26 163.912V162.316C1119.26 160.426 1119.87 159.082 1121.39 159.082C1122.92 159.082 1123.52 160.426 1123.52 162.316V163.912C1123.52 165.802 1122.92 167.146 1121.39 167.146ZM1143.81 168V166.964H1141.29V158.228H1139.46L1136.87 160.65L1137.55 161.392L1140.02 159.096H1140.11V166.964H1137.38V168H1143.81ZM1146.61 168.168C1147.2 168.168 1147.47 167.832 1147.47 167.356V167.174C1147.47 166.698 1147.2 166.362 1146.61 166.362C1146.02 166.362 1145.76 166.698 1145.76 167.174V167.356C1145.76 167.832 1146.02 168.168 1146.61 168.168ZM1156.14 166.964H1151.01L1153.64 164.598C1154.88 163.478 1155.78 162.414 1155.78 160.902C1155.78 159.236 1154.69 158.06 1152.78 158.06C1150.89 158.06 1150.03 159.208 1149.65 160.356L1150.7 160.762C1150.96 159.838 1151.52 159.11 1152.73 159.11C1153.93 159.11 1154.53 159.852 1154.53 160.93V161.098C1154.53 162.036 1153.83 163.016 1152.92 163.856L1149.73 166.796V168H1156.14V166.964ZM1161.14 168.168C1162.5 168.168 1163.54 167.496 1164 166.516L1163.2 165.942C1162.82 166.74 1162.12 167.188 1161.21 167.188C1159.87 167.188 1159.07 166.25 1159.07 165.004V164.668H1164.26V164.136C1164.26 162.092 1163.07 160.608 1161.14 160.608C1159.18 160.608 1157.89 162.092 1157.89 164.388C1157.89 166.684 1159.18 168.168 1161.14 168.168ZM1161.14 161.546C1162.29 161.546 1163.06 162.4 1163.06 163.674V163.828H1159.07V163.73C1159.07 162.47 1159.92 161.546 1161.14 161.546ZM1169.84 164.346V163.142H1166.18V164.346H1169.84ZM1177.34 168V166.082H1178.75V165.102H1177.34V158.228H1175.59L1171.5 165.046V166.082H1176.22V168H1177.34ZM1176.15 159.138H1176.22V165.102H1172.61L1176.15 159.138Z" fill="black"/>
<path d="M1059 184C1068.07 182.32 1058.7 170.298 1067 162.668C1060.91 157.616 1067 143.52 1059 141" stroke="black"/>
<path d="M1127 164.174C1127 164.174 1127 164.122 1127 164.017C1127 163.913 1127.06 163.832 1127.17 163.776H1130.78V161.967L1130.79 160.157C1130.87 160.052 1130.94 160 1131.02 160C1131.12 160 1131.2 160.06 1131.26 160.181V163.776H1134.85C1134.97 163.84 1135.03 163.921 1135.03 164.017C1135.03 164.114 1134.97 164.194 1134.85 164.259H1131.26V167.854C1131.19 167.966 1131.12 168.022 1131.04 168.022H1131.02H1130.99C1130.9 168.022 1130.82 167.966 1130.78 167.854V164.259H1127.17C1127.06 164.202 1127 164.122 1127 164.017V164.174Z" fill="black"/>
<line x1="1127" y1="167.75" x2="1135" y2="167.75" stroke="black" stroke-width="0.5"/>
<path d="M1083.2 245.168C1085.54 245.168 1086.56 243.306 1086.56 240.114C1086.56 236.922 1085.54 235.06 1083.2 235.06C1080.86 235.06 1079.84 236.922 1079.84 240.114C1079.84 243.306 1080.86 245.168 1083.2 245.168ZM1083.2 244.146C1081.67 244.146 1081.07 242.802 1081.07 240.912V239.316C1081.07 237.426 1081.67 236.082 1083.2 236.082C1084.73 236.082 1085.33 237.426 1085.33 239.316V240.912C1085.33 242.802 1084.73 244.146 1083.2 244.146ZM1089.46 245.168C1090.05 245.168 1090.31 244.832 1090.31 244.356V244.174C1090.31 243.698 1090.05 243.362 1089.46 243.362C1088.87 243.362 1088.6 243.698 1088.6 244.174V244.356C1088.6 244.832 1088.87 245.168 1089.46 245.168ZM1098.99 238.812C1098.99 236.488 1097.74 235.06 1095.71 235.06C1093.75 235.06 1092.47 236.376 1092.47 238.294C1092.47 240.142 1093.67 241.304 1095.35 241.304C1096.54 241.304 1097.24 240.702 1097.7 239.904L1097.77 239.932C1097.24 242.2 1096.08 243.474 1093.99 245H1095.5C1097.07 243.978 1098.99 241.71 1098.99 238.812ZM1095.73 240.31C1094.44 240.31 1093.68 239.568 1093.68 238.252V238.14C1093.68 236.824 1094.44 236.082 1095.73 236.082C1097.02 236.082 1097.77 236.824 1097.77 238.14V238.252C1097.77 239.568 1097.02 240.31 1095.73 240.31ZM1107.55 238.812C1107.55 236.488 1106.3 235.06 1104.27 235.06C1102.31 235.06 1101.02 236.376 1101.02 238.294C1101.02 240.142 1102.23 241.304 1103.91 241.304C1105.1 241.304 1105.8 240.702 1106.26 239.904L1106.33 239.932C1105.8 242.2 1104.63 243.474 1102.55 245H1104.06C1105.63 243.978 1107.55 241.71 1107.55 238.812ZM1104.28 240.31C1103 240.31 1102.24 239.568 1102.24 238.252V238.14C1102.24 236.824 1103 236.082 1104.28 236.082C1105.57 236.082 1106.33 236.824 1106.33 238.14V238.252C1106.33 239.568 1105.57 240.31 1104.28 240.31ZM1111.23 239.372V240.394H1112.38C1113.75 240.394 1114.48 241.052 1114.48 242.2V242.312C1114.48 243.46 1113.75 244.118 1112.38 244.118C1111.19 244.118 1110.61 243.6 1110.11 242.83L1109.23 243.502C1109.83 244.342 1110.7 245.168 1112.39 245.168C1114.38 245.168 1115.71 244.006 1115.71 242.326C1115.71 240.856 1114.7 240.072 1113.65 239.862V239.806C1114.69 239.54 1115.53 238.784 1115.53 237.524C1115.53 235.942 1114.21 235.06 1112.56 235.06C1110.99 235.06 1110.14 235.872 1109.65 236.656L1110.51 237.328C1110.92 236.586 1111.52 236.11 1112.53 236.11C1113.57 236.11 1114.28 236.628 1114.28 237.65V237.748C1114.28 238.686 1113.61 239.372 1112.29 239.372H1111.23ZM1124.65 238.812C1124.65 236.488 1123.41 235.06 1121.38 235.06C1119.42 235.06 1118.13 236.376 1118.13 238.294C1118.13 240.142 1119.33 241.304 1121.01 241.304C1122.2 241.304 1122.9 240.702 1123.37 239.904L1123.44 239.932C1122.9 242.2 1121.74 243.474 1119.66 245H1121.17C1122.74 243.978 1124.65 241.71 1124.65 238.812ZM1121.39 240.31C1120.1 240.31 1119.35 239.568 1119.35 238.252V238.14C1119.35 236.824 1120.1 236.082 1121.39 236.082C1122.68 236.082 1123.44 236.824 1123.44 238.14V238.252C1123.44 239.568 1122.68 240.31 1121.39 240.31ZM1143.81 245V243.964H1141.29V235.228H1139.46L1136.87 237.65L1137.55 238.392L1140.02 236.096H1140.11V243.964H1137.38V245H1143.81ZM1146.61 245.168C1147.2 245.168 1147.47 244.832 1147.47 244.356V244.174C1147.47 243.698 1147.2 243.362 1146.61 243.362C1146.02 243.362 1145.76 243.698 1145.76 244.174V244.356C1145.76 244.832 1146.02 245.168 1146.61 245.168ZM1151.27 239.372V240.394H1152.42C1153.79 240.394 1154.52 241.052 1154.52 242.2V242.312C1154.52 243.46 1153.79 244.118 1152.42 244.118C1151.23 244.118 1150.66 243.6 1150.15 242.83L1149.27 243.502C1149.87 244.342 1150.74 245.168 1152.43 245.168C1154.42 245.168 1155.75 244.006 1155.75 242.326C1155.75 240.856 1154.74 240.072 1153.69 239.862V239.806C1154.73 239.54 1155.57 238.784 1155.57 237.524C1155.57 235.942 1154.25 235.06 1152.6 235.06C1151.03 235.06 1150.18 235.872 1149.69 236.656L1150.56 237.328C1150.96 236.586 1151.57 236.11 1152.57 236.11C1153.61 236.11 1154.32 236.628 1154.32 237.65V237.748C1154.32 238.686 1153.65 239.372 1152.34 239.372H1151.27ZM1161.14 245.168C1162.5 245.168 1163.54 244.496 1164 243.516L1163.2 242.942C1162.82 243.74 1162.12 244.188 1161.21 244.188C1159.87 244.188 1159.07 243.25 1159.07 242.004V241.668H1164.26V241.136C1164.26 239.092 1163.07 237.608 1161.14 237.608C1159.18 237.608 1157.89 239.092 1157.89 241.388C1157.89 243.684 1159.18 245.168 1161.14 245.168ZM1161.14 238.546C1162.29 238.546 1163.06 239.4 1163.06 240.674V240.828H1159.07V240.73C1159.07 239.47 1159.92 238.546 1161.14 238.546ZM1169.84 241.346V240.142H1166.18V241.346H1169.84ZM1177.34 245V243.082H1178.75V242.102H1177.34V235.228H1175.59L1171.5 242.046V243.082H1176.22V245H1177.34ZM1176.15 236.138H1176.22V242.102H1172.61L1176.15 236.138Z" fill="black"/>
<path d="M1059 261C1068.07 259.32 1058.7 247.298 1067 239.668C1060.91 234.616 1067 220.52 1059 218" stroke="black"/>
<path d="M1127 241.174C1127 241.174 1127 241.122 1127 241.017C1127 240.913 1127.06 240.832 1127.17 240.776H1130.78V238.967L1130.79 237.157C1130.87 237.052 1130.94 237 1131.02 237C1131.12 237 1131.2 237.06 1131.26 237.181V240.776H1134.85C1134.97 240.84 1135.03 240.921 1135.03 241.017C1135.03 241.114 1134.97 241.194 1134.85 241.259H1131.26V244.854C1131.19 244.966 1131.12 245.022 1131.04 245.022H1131.02H1130.99C1130.9 245.022 1130.82 244.966 1130.78 244.854V241.259H1127.17C1127.06 241.202 1127 241.122 1127 241.017V241.174Z" fill="black"/>
<line x1="1127" y1="244.75" x2="1135" y2="244.75" stroke="black" stroke-width="0.5"/>
<path d="M1083.2 321.168C1085.54 321.168 1086.56 319.306 1086.56 316.114C1086.56 312.922 1085.54 311.06 1083.2 311.06C1080.86 311.06 1079.84 312.922 1079.84 316.114C1079.84 319.306 1080.86 321.168 1083.2 321.168ZM1083.2 320.146C1081.67 320.146 1081.07 318.802 1081.07 316.912V315.316C1081.07 313.426 1081.67 312.082 1083.2 312.082C1084.73 312.082 1085.33 313.426 1085.33 315.316V316.912C1085.33 318.802 1084.73 320.146 1083.2 320.146ZM1089.46 321.168C1090.05 321.168 1090.31 320.832 1090.31 320.356V320.174C1090.31 319.698 1090.05 319.362 1089.46 319.362C1088.87 319.362 1088.6 319.698 1088.6 320.174V320.356C1088.6 320.832 1088.87 321.168 1089.46 321.168ZM1098.99 314.812C1098.99 312.488 1097.74 311.06 1095.71 311.06C1093.75 311.06 1092.47 312.376 1092.47 314.294C1092.47 316.142 1093.67 317.304 1095.35 317.304C1096.54 317.304 1097.24 316.702 1097.7 315.904L1097.77 315.932C1097.24 318.2 1096.08 319.474 1093.99 321H1095.5C1097.07 319.978 1098.99 317.71 1098.99 314.812ZM1095.73 316.31C1094.44 316.31 1093.68 315.568 1093.68 314.252V314.14C1093.68 312.824 1094.44 312.082 1095.73 312.082C1097.02 312.082 1097.77 312.824 1097.77 314.14V314.252C1097.77 315.568 1097.02 316.31 1095.73 316.31ZM1107.55 314.812C1107.55 312.488 1106.3 311.06 1104.27 311.06C1102.31 311.06 1101.02 312.376 1101.02 314.294C1101.02 316.142 1102.23 317.304 1103.91 317.304C1105.1 317.304 1105.8 316.702 1106.26 315.904L1106.33 315.932C1105.8 318.2 1104.63 319.474 1102.55 321H1104.06C1105.63 319.978 1107.55 317.71 1107.55 314.812ZM1104.28 316.31C1103 316.31 1102.24 315.568 1102.24 314.252V314.14C1102.24 312.824 1103 312.082 1104.28 312.082C1105.57 312.082 1106.33 312.824 1106.33 314.14V314.252C1106.33 315.568 1105.57 316.31 1104.28 316.31ZM1116.1 319.964H1110.96L1113.59 317.598C1114.84 316.478 1115.74 315.414 1115.74 313.902C1115.74 312.236 1114.64 311.06 1112.74 311.06C1110.85 311.06 1109.98 312.208 1109.6 313.356L1110.65 313.762C1110.92 312.838 1111.48 312.11 1112.68 312.11C1113.89 312.11 1114.49 312.852 1114.49 313.93V314.098C1114.49 315.036 1113.79 316.016 1112.88 316.856L1109.69 319.796V321H1116.1V319.964ZM1121.39 321.168C1123.62 321.168 1124.78 319.95 1124.78 318.34C1124.78 317.01 1123.98 316.24 1122.81 315.918V315.806C1123.83 315.456 1124.49 314.63 1124.49 313.51C1124.49 312.026 1123.34 311.06 1121.39 311.06C1119.45 311.06 1118.3 312.026 1118.3 313.51C1118.3 314.63 1118.96 315.456 1119.98 315.806V315.918C1118.8 316.24 1118 317.01 1118 318.34C1118 319.95 1119.17 321.168 1121.39 321.168ZM1121.39 320.146C1120.03 320.146 1119.25 319.502 1119.25 318.396V318.102C1119.25 316.996 1120.03 316.352 1121.39 316.352C1122.75 316.352 1123.53 316.996 1123.53 318.102V318.396C1123.53 319.502 1122.75 320.146 1121.39 320.146ZM1121.39 315.372C1120.17 315.372 1119.52 314.826 1119.52 313.832V313.622C1119.52 312.628 1120.17 312.082 1121.39 312.082C1122.61 312.082 1123.27 312.628 1123.27 313.622V313.832C1123.27 314.826 1122.61 315.372 1121.39 315.372ZM1143.81 321V319.964H1141.29V311.228H1139.46L1136.87 313.65L1137.55 314.392L1140.02 312.096H1140.11V319.964H1137.38V321H1143.81ZM1146.61 321.168C1147.2 321.168 1147.47 320.832 1147.47 320.356V320.174C1147.47 319.698 1147.2 319.362 1146.61 319.362C1146.02 319.362 1145.76 319.698 1145.76 320.174V320.356C1145.76 320.832 1146.02 321.168 1146.61 321.168ZM1152.39 321L1156.06 312.264V311.228H1149.65V314.056H1150.7V312.236H1154.87L1151.13 321H1152.39ZM1161.14 321.168C1162.5 321.168 1163.54 320.496 1164 319.516L1163.2 318.942C1162.82 319.74 1162.12 320.188 1161.21 320.188C1159.87 320.188 1159.07 319.25 1159.07 318.004V317.668H1164.26V317.136C1164.26 315.092 1163.07 313.608 1161.14 313.608C1159.18 313.608 1157.89 315.092 1157.89 317.388C1157.89 319.684 1159.18 321.168 1161.14 321.168ZM1161.14 314.546C1162.29 314.546 1163.06 315.4 1163.06 316.674V316.828H1159.07V316.73C1159.07 315.47 1159.92 314.546 1161.14 314.546ZM1169.84 317.346V316.142H1166.18V317.346H1169.84ZM1177.34 321V319.082H1178.75V318.102H1177.34V311.228H1175.59L1171.5 318.046V319.082H1176.22V321H1177.34ZM1176.15 312.138H1176.22V318.102H1172.61L1176.15 312.138Z" fill="black"/>
<path d="M1059 337C1068.07 335.32 1058.7 323.298 1067 315.668C1060.91 310.616 1067 296.52 1059 294" stroke="black"/>
<path d="M1127 317.174C1127 317.174 1127 317.122 1127 317.017C1127 316.913 1127.06 316.832 1127.17 316.776H1130.78V314.967L1130.79 313.157C1130.87 313.052 1130.94 313 1131.02 313C1131.12 313 1131.2 313.06 1131.26 313.181V316.776H1134.85C1134.97 316.84 1135.03 316.921 1135.03 317.017C1135.03 317.114 1134.97 317.194 1134.85 317.259H1131.26V320.854C1131.19 320.966 1131.12 321.022 1131.04 321.022H1131.02H1130.99C1130.9 321.022 1130.82 320.966 1130.78 320.854V317.259H1127.17C1127.06 317.202 1127 317.122 1127 317.017V317.174Z" fill="black"/>
<line x1="1127" y1="320.75" x2="1135" y2="320.75" stroke="black" stroke-width="0.5"/>
<path d="M1083.2 397.168C1085.54 397.168 1086.56 395.306 1086.56 392.114C1086.56 388.922 1085.54 387.06 1083.2 387.06C1080.86 387.06 1079.84 388.922 1079.84 392.114C1079.84 395.306 1080.86 397.168 1083.2 397.168ZM1083.2 396.146C1081.67 396.146 1081.07 394.802 1081.07 392.912V391.316C1081.07 389.426 1081.67 388.082 1083.2 388.082C1084.73 388.082 1085.33 389.426 1085.33 391.316V392.912C1085.33 394.802 1084.73 396.146 1083.2 396.146ZM1089.46 397.168C1090.05 397.168 1090.31 396.832 1090.31 396.356V396.174C1090.31 395.698 1090.05 395.362 1089.46 395.362C1088.87 395.362 1088.6 395.698 1088.6 396.174V396.356C1088.6 396.832 1088.87 397.168 1089.46 397.168ZM1098.99 390.812C1098.99 388.488 1097.74 387.06 1095.71 387.06C1093.75 387.06 1092.47 388.376 1092.47 390.294C1092.47 392.142 1093.67 393.304 1095.35 393.304C1096.54 393.304 1097.24 392.702 1097.7 391.904L1097.77 391.932C1097.24 394.2 1096.08 395.474 1093.99 397H1095.5C1097.07 395.978 1098.99 393.71 1098.99 390.812ZM1095.73 392.31C1094.44 392.31 1093.68 391.568 1093.68 390.252V390.14C1093.68 388.824 1094.44 388.082 1095.73 388.082C1097.02 388.082 1097.77 388.824 1097.77 390.14V390.252C1097.77 391.568 1097.02 392.31 1095.73 392.31ZM1107.55 390.812C1107.55 388.488 1106.3 387.06 1104.27 387.06C1102.31 387.06 1101.02 388.376 1101.02 390.294C1101.02 392.142 1102.23 393.304 1103.91 393.304C1105.1 393.304 1105.8 392.702 1106.26 391.904L1106.33 391.932C1105.8 394.2 1104.63 395.474 1102.55 397H1104.06C1105.63 395.978 1107.55 393.71 1107.55 390.812ZM1104.28 392.31C1103 392.31 1102.24 391.568 1102.24 390.252V390.14C1102.24 388.824 1103 388.082 1104.28 388.082C1105.57 388.082 1106.33 388.824 1106.33 390.14V390.252C1106.33 391.568 1105.57 392.31 1104.28 392.31ZM1116.3 397V395.964H1113.78V387.228H1111.94L1109.35 389.65L1110.04 390.392L1112.5 388.096H1112.6V395.964H1109.87V397H1116.3ZM1124.85 397V395.964H1122.33V387.228H1120.5L1117.91 389.65L1118.59 390.392L1121.06 388.096H1121.15V395.964H1118.42V397H1124.85ZM1143.81 397V395.964H1141.29V387.228H1139.46L1136.87 389.65L1137.55 390.392L1140.02 388.096H1140.11V395.964H1137.38V397H1143.81ZM1146.61 397.168C1147.2 397.168 1147.47 396.832 1147.47 396.356V396.174C1147.47 395.698 1147.2 395.362 1146.61 395.362C1146.02 395.362 1145.76 395.698 1145.76 396.174V396.356C1145.76 396.832 1146.02 397.168 1146.61 397.168ZM1152.39 397L1156.06 388.264V387.228H1149.65V390.056H1150.7V388.236H1154.87L1151.13 397H1152.39ZM1161.14 397.168C1162.5 397.168 1163.54 396.496 1164 395.516L1163.2 394.942C1162.82 395.74 1162.12 396.188 1161.21 396.188C1159.87 396.188 1159.07 395.25 1159.07 394.004V393.668H1164.26V393.136C1164.26 391.092 1163.07 389.608 1161.14 389.608C1159.18 389.608 1157.89 391.092 1157.89 393.388C1157.89 395.684 1159.18 397.168 1161.14 397.168ZM1161.14 390.546C1162.29 390.546 1163.06 391.4 1163.06 392.674V392.828H1159.07V392.73C1159.07 391.47 1159.92 390.546 1161.14 390.546ZM1169.84 393.346V392.142H1166.18V393.346H1169.84ZM1177.34 397V395.082H1178.75V394.102H1177.34V387.228H1175.59L1171.5 394.046V395.082H1176.22V397H1177.34ZM1176.15 388.138H1176.22V394.102H1172.61L1176.15 388.138Z" fill="black"/>
<path d="M1059 413C1068.07 411.32 1058.7 399.298 1067 391.668C1060.91 386.616 1067 372.52 1059 370" stroke="black"/>
<path d="M1127 393.174C1127 393.174 1127 393.122 1127 393.017C1127 392.913 1127.06 392.832 1127.17 392.776H1130.78V390.967L1130.79 389.157C1130.87 389.052 1130.94 389 1131.02 389C1131.12 389 1131.2 389.06 1131.26 389.181V392.776H1134.85C1134.97 392.84 1135.03 392.921 1135.03 393.017C1135.03 393.114 1134.97 393.194 1134.85 393.259H1131.26V396.854C1131.19 396.966 1131.12 397.022 1131.04 397.022H1131.02H1130.99C1130.9 397.022 1130.82 396.966 1130.78 396.854V393.259H1127.17C1127.06 393.202 1127 393.122 1127 393.017V393.174Z" fill="black"/>
<line x1="1127" y1="396.75" x2="1135" y2="396.75" stroke="black" stroke-width="0.5"/>
<path d="M1083.2 473.168C1085.54 473.168 1086.56 471.306 1086.56 468.114C1086.56 464.922 1085.54 463.06 1083.2 463.06C1080.86 463.06 1079.84 464.922 1079.84 468.114C1079.84 471.306 1080.86 473.168 1083.2 473.168ZM1083.2 472.146C1081.67 472.146 1081.07 470.802 1081.07 468.912V467.316C1081.07 465.426 1081.67 464.082 1083.2 464.082C1084.73 464.082 1085.33 465.426 1085.33 467.316V468.912C1085.33 470.802 1084.73 472.146 1083.2 472.146ZM1089.46 473.168C1090.05 473.168 1090.31 472.832 1090.31 472.356V472.174C1090.31 471.698 1090.05 471.362 1089.46 471.362C1088.87 471.362 1088.6 471.698 1088.6 472.174V472.356C1088.6 472.832 1088.87 473.168 1089.46 473.168ZM1098.99 466.812C1098.99 464.488 1097.74 463.06 1095.71 463.06C1093.75 463.06 1092.47 464.376 1092.47 466.294C1092.47 468.142 1093.67 469.304 1095.35 469.304C1096.54 469.304 1097.24 468.702 1097.7 467.904L1097.77 467.932C1097.24 470.2 1096.08 471.474 1093.99 473H1095.5C1097.07 471.978 1098.99 469.71 1098.99 466.812ZM1095.73 468.31C1094.44 468.31 1093.68 467.568 1093.68 466.252V466.14C1093.68 464.824 1094.44 464.082 1095.73 464.082C1097.02 464.082 1097.77 464.824 1097.77 466.14V466.252C1097.77 467.568 1097.02 468.31 1095.73 468.31ZM1104.28 473.168C1106.51 473.168 1107.67 471.95 1107.67 470.34C1107.67 469.01 1106.87 468.24 1105.7 467.918V467.806C1106.72 467.456 1107.38 466.63 1107.38 465.51C1107.38 464.026 1106.23 463.06 1104.28 463.06C1102.34 463.06 1101.19 464.026 1101.19 465.51C1101.19 466.63 1101.85 467.456 1102.87 467.806V467.918C1101.69 468.24 1100.9 469.01 1100.9 470.34C1100.9 471.95 1102.06 473.168 1104.28 473.168ZM1104.28 472.146C1102.93 472.146 1102.14 471.502 1102.14 470.396V470.102C1102.14 468.996 1102.93 468.352 1104.28 468.352C1105.64 468.352 1106.43 468.996 1106.43 470.102V470.396C1106.43 471.502 1105.64 472.146 1104.28 472.146ZM1104.28 467.372C1103.07 467.372 1102.41 466.826 1102.41 465.832V465.622C1102.41 464.628 1103.07 464.082 1104.28 464.082C1105.5 464.082 1106.16 464.628 1106.16 465.622V465.832C1106.16 466.826 1105.5 467.372 1104.28 467.372ZM1112.84 473.168C1115.06 473.168 1116.23 471.95 1116.23 470.34C1116.23 469.01 1115.43 468.24 1114.25 467.918V467.806C1115.27 467.456 1115.93 466.63 1115.93 465.51C1115.93 464.026 1114.78 463.06 1112.84 463.06C1110.89 463.06 1109.74 464.026 1109.74 465.51C1109.74 466.63 1110.4 467.456 1111.42 467.806V467.918C1110.25 468.24 1109.45 469.01 1109.45 470.34C1109.45 471.95 1110.61 473.168 1112.84 473.168ZM1112.84 472.146C1111.48 472.146 1110.7 471.502 1110.7 470.396V470.102C1110.7 468.996 1111.48 468.352 1112.84 468.352C1114.2 468.352 1114.98 468.996 1114.98 470.102V470.396C1114.98 471.502 1114.2 472.146 1112.84 472.146ZM1112.84 467.372C1111.62 467.372 1110.96 466.826 1110.96 465.832V465.622C1110.96 464.628 1111.62 464.082 1112.84 464.082C1114.06 464.082 1114.71 464.628 1114.71 465.622V465.832C1114.71 466.826 1114.06 467.372 1112.84 467.372ZM1124.65 471.964H1119.52L1122.15 469.598C1123.39 468.478 1124.29 467.414 1124.29 465.902C1124.29 464.236 1123.2 463.06 1121.29 463.06C1119.4 463.06 1118.54 464.208 1118.16 465.356L1119.21 465.762C1119.47 464.838 1120.03 464.11 1121.24 464.11C1122.44 464.11 1123.04 464.852 1123.04 465.93V466.098C1123.04 467.036 1122.34 468.016 1121.43 468.856L1118.24 471.796V473H1124.65V471.964ZM1143.61 471.964H1138.48L1141.11 469.598C1142.35 468.478 1143.25 467.414 1143.25 465.902C1143.25 464.236 1142.16 463.06 1140.25 463.06C1138.36 463.06 1137.5 464.208 1137.12 465.356L1138.17 465.762C1138.43 464.838 1138.99 464.11 1140.2 464.11C1141.4 464.11 1142 464.852 1142 465.93V466.098C1142 467.036 1141.3 468.016 1140.39 468.856L1137.2 471.796V473H1143.61V471.964ZM1146.61 473.168C1147.2 473.168 1147.47 472.832 1147.47 472.356V472.174C1147.47 471.698 1147.2 471.362 1146.61 471.362C1146.02 471.362 1145.76 471.698 1145.76 472.174V472.356C1145.76 472.832 1146.02 473.168 1146.61 473.168ZM1155.05 473V471.082H1156.47V470.102H1155.05V463.228H1153.3L1149.21 470.046V471.082H1153.93V473H1155.05ZM1153.86 464.138H1153.93V470.102H1150.32L1153.86 464.138ZM1161.14 473.168C1162.5 473.168 1163.54 472.496 1164 471.516L1163.2 470.942C1162.82 471.74 1162.12 472.188 1161.21 472.188C1159.87 472.188 1159.07 471.25 1159.07 470.004V469.668H1164.26V469.136C1164.26 467.092 1163.07 465.608 1161.14 465.608C1159.18 465.608 1157.89 467.092 1157.89 469.388C1157.89 471.684 1159.18 473.168 1161.14 473.168ZM1161.14 466.546C1162.29 466.546 1163.06 467.4 1163.06 468.674V468.828H1159.07V468.73C1159.07 467.47 1159.92 466.546 1161.14 466.546ZM1169.84 469.346V468.142H1166.18V469.346H1169.84ZM1177.34 473V471.082H1178.75V470.102H1177.34V463.228H1175.59L1171.5 470.046V471.082H1176.22V473H1177.34ZM1176.15 464.138H1176.22V470.102H1172.61L1176.15 464.138Z" fill="black"/>
<path d="M1059 489C1068.07 487.32 1058.7 475.298 1067 467.668C1060.91 462.616 1067 448.52 1059 446" stroke="black"/>
<path d="M1127 469.174C1127 469.174 1127 469.122 1127 469.017C1127 468.913 1127.06 468.832 1127.17 468.776H1130.78V466.967L1130.79 465.157C1130.87 465.052 1130.94 465 1131.02 465C1131.12 465 1131.2 465.06 1131.26 465.181V468.776H1134.85C1134.97 468.84 1135.03 468.921 1135.03 469.017C1135.03 469.114 1134.97 469.194 1134.85 469.259H1131.26V472.854C1131.19 472.966 1131.12 473.022 1131.04 473.022H1131.02H1130.99C1130.9 473.022 1130.82 472.966 1130.78 472.854V469.259H1127.17C1127.06 469.202 1127 469.122 1127 469.017V469.174Z" fill="black"/>
<line x1="1127" y1="472.75" x2="1135" y2="472.75" stroke="black" stroke-width="0.5"/>
<path d="M1083.2 543.168C1085.54 543.168 1086.56 541.306 1086.56 538.114C1086.56 534.922 1085.54 533.06 1083.2 533.06C1080.86 533.06 1079.84 534.922 1079.84 538.114C1079.84 541.306 1080.86 543.168 1083.2 543.168ZM1083.2 542.146C1081.67 542.146 1081.07 540.802 1081.07 538.912V537.316C1081.07 535.426 1081.67 534.082 1083.2 534.082C1084.73 534.082 1085.33 535.426 1085.33 537.316V538.912C1085.33 540.802 1084.73 542.146 1083.2 542.146ZM1089.46 543.168C1090.05 543.168 1090.31 542.832 1090.31 542.356V542.174C1090.31 541.698 1090.05 541.362 1089.46 541.362C1088.87 541.362 1088.6 541.698 1088.6 542.174V542.356C1088.6 542.832 1088.87 543.168 1089.46 543.168ZM1098.99 536.812C1098.99 534.488 1097.74 533.06 1095.71 533.06C1093.75 533.06 1092.47 534.376 1092.47 536.294C1092.47 538.142 1093.67 539.304 1095.35 539.304C1096.54 539.304 1097.24 538.702 1097.7 537.904L1097.77 537.932C1097.24 540.2 1096.08 541.474 1093.99 543H1095.5C1097.07 541.978 1098.99 539.71 1098.99 536.812ZM1095.73 538.31C1094.44 538.31 1093.68 537.568 1093.68 536.252V536.14C1093.68 534.824 1094.44 534.082 1095.73 534.082C1097.02 534.082 1097.77 534.824 1097.77 536.14V536.252C1097.77 537.568 1097.02 538.31 1095.73 538.31ZM1104.28 543.168C1106.51 543.168 1107.67 541.95 1107.67 540.34C1107.67 539.01 1106.87 538.24 1105.7 537.918V537.806C1106.72 537.456 1107.38 536.63 1107.38 535.51C1107.38 534.026 1106.23 533.06 1104.28 533.06C1102.34 533.06 1101.19 534.026 1101.19 535.51C1101.19 536.63 1101.85 537.456 1102.87 537.806V537.918C1101.69 538.24 1100.9 539.01 1100.9 540.34C1100.9 541.95 1102.06 543.168 1104.28 543.168ZM1104.28 542.146C1102.93 542.146 1102.14 541.502 1102.14 540.396V540.102C1102.14 538.996 1102.93 538.352 1104.28 538.352C1105.64 538.352 1106.43 538.996 1106.43 540.102V540.396C1106.43 541.502 1105.64 542.146 1104.28 542.146ZM1104.28 537.372C1103.07 537.372 1102.41 536.826 1102.41 535.832V535.622C1102.41 534.628 1103.07 534.082 1104.28 534.082C1105.5 534.082 1106.16 534.628 1106.16 535.622V535.832C1106.16 536.826 1105.5 537.372 1104.28 537.372ZM1112.84 543.168C1115.06 543.168 1116.23 541.95 1116.23 540.34C1116.23 539.01 1115.43 538.24 1114.25 537.918V537.806C1115.27 537.456 1115.93 536.63 1115.93 535.51C1115.93 534.026 1114.78 533.06 1112.84 533.06C1110.89 533.06 1109.74 534.026 1109.74 535.51C1109.74 536.63 1110.4 537.456 1111.42 537.806V537.918C1110.25 538.24 1109.45 539.01 1109.45 540.34C1109.45 541.95 1110.61 543.168 1112.84 543.168ZM1112.84 542.146C1111.48 542.146 1110.7 541.502 1110.7 540.396V540.102C1110.7 538.996 1111.48 538.352 1112.84 538.352C1114.2 538.352 1114.98 538.996 1114.98 540.102V540.396C1114.98 541.502 1114.2 542.146 1112.84 542.146ZM1112.84 537.372C1111.62 537.372 1110.96 536.826 1110.96 535.832V535.622C1110.96 534.628 1111.62 534.082 1112.84 534.082C1114.06 534.082 1114.71 534.628 1114.71 535.622V535.832C1114.71 536.826 1114.06 537.372 1112.84 537.372ZM1124.85 543V541.964H1122.33V533.228H1120.5L1117.91 535.65L1118.59 536.392L1121.06 534.096H1121.15V541.964H1118.42V543H1124.85ZM1143.61 541.964H1138.48L1141.11 539.598C1142.35 538.478 1143.25 537.414 1143.25 535.902C1143.25 534.236 1142.16 533.06 1140.25 533.06C1138.36 533.06 1137.5 534.208 1137.12 535.356L1138.17 535.762C1138.43 534.838 1138.99 534.11 1140.2 534.11C1141.4 534.11 1142 534.852 1142 535.93V536.098C1142 537.036 1141.3 538.016 1140.39 538.856L1137.2 541.796V543H1143.61V541.964ZM1146.61 543.168C1147.2 543.168 1147.47 542.832 1147.47 542.356V542.174C1147.47 541.698 1147.2 541.362 1146.61 541.362C1146.02 541.362 1145.76 541.698 1145.76 542.174V542.356C1145.76 542.832 1146.02 543.168 1146.61 543.168ZM1156.14 536.812C1156.14 534.488 1154.9 533.06 1152.87 533.06C1150.91 533.06 1149.62 534.376 1149.62 536.294C1149.62 538.142 1150.82 539.304 1152.5 539.304C1153.69 539.304 1154.39 538.702 1154.86 537.904L1154.93 537.932C1154.39 540.2 1153.23 541.474 1151.15 543H1152.66C1154.23 541.978 1156.14 539.71 1156.14 536.812ZM1152.88 538.31C1151.59 538.31 1150.84 537.568 1150.84 536.252V536.14C1150.84 534.824 1151.59 534.082 1152.88 534.082C1154.17 534.082 1154.93 534.824 1154.93 536.14V536.252C1154.93 537.568 1154.17 538.31 1152.88 538.31ZM1161.14 543.168C1162.5 543.168 1163.54 542.496 1164 541.516L1163.2 540.942C1162.82 541.74 1162.12 542.188 1161.21 542.188C1159.87 542.188 1159.07 541.25 1159.07 540.004V539.668H1164.26V539.136C1164.26 537.092 1163.07 535.608 1161.14 535.608C1159.18 535.608 1157.89 537.092 1157.89 539.388C1157.89 541.684 1159.18 543.168 1161.14 543.168ZM1161.14 536.546C1162.29 536.546 1163.06 537.4 1163.06 538.674V538.828H1159.07V538.73C1159.07 537.47 1159.92 536.546 1161.14 536.546ZM1169.84 539.346V538.142H1166.18V539.346H1169.84ZM1177.34 543V541.082H1178.75V540.102H1177.34V533.228H1175.59L1171.5 540.046V541.082H1176.22V543H1177.34ZM1176.15 534.138H1176.22V540.102H1172.61L1176.15 534.138Z" fill="black"/>
<path d="M1059 559C1068.07 557.32 1058.7 545.298 1067 537.668C1060.91 532.616 1067 518.52 1059 516" stroke="black"/>
<path d="M1127 539.174C1127 539.174 1127 539.122 1127 539.017C1127 538.913 1127.06 538.832 1127.17 538.776H1130.78V536.967L1130.79 535.157C1130.87 535.052 1130.94 535 1131.02 535C1131.12 535 1131.2 535.06 1131.26 535.181V538.776H1134.85C1134.97 538.84 1135.03 538.921 1135.03 539.017C1135.03 539.114 1134.97 539.194 1134.85 539.259H1131.26V542.854C1131.19 542.966 1131.12 543.022 1131.04 543.022H1131.02H1130.99C1130.9 543.022 1130.82 542.966 1130.78 542.854V539.259H1127.17C1127.06 539.202 1127 539.122 1127 539.017V539.174Z" fill="black"/>
<line x1="1127" y1="542.75" x2="1135" y2="542.75" stroke="black" stroke-width="0.5"/>
<path d="M1083.2 625.168C1085.54 625.168 1086.56 623.306 1086.56 620.114C1086.56 616.922 1085.54 615.06 1083.2 615.06C1080.86 615.06 1079.84 616.922 1079.84 620.114C1079.84 623.306 1080.86 625.168 1083.2 625.168ZM1083.2 624.146C1081.67 624.146 1081.07 622.802 1081.07 620.912V619.316C1081.07 617.426 1081.67 616.082 1083.2 616.082C1084.73 616.082 1085.33 617.426 1085.33 619.316V620.912C1085.33 622.802 1084.73 624.146 1083.2 624.146ZM1089.46 625.168C1090.05 625.168 1090.31 624.832 1090.31 624.356V624.174C1090.31 623.698 1090.05 623.362 1089.46 623.362C1088.87 623.362 1088.6 623.698 1088.6 624.174V624.356C1088.6 624.832 1088.87 625.168 1089.46 625.168ZM1098.99 618.812C1098.99 616.488 1097.74 615.06 1095.71 615.06C1093.75 615.06 1092.47 616.376 1092.47 618.294C1092.47 620.142 1093.67 621.304 1095.35 621.304C1096.54 621.304 1097.24 620.702 1097.7 619.904L1097.77 619.932C1097.24 622.2 1096.08 623.474 1093.99 625H1095.5C1097.07 623.978 1098.99 621.71 1098.99 618.812ZM1095.73 620.31C1094.44 620.31 1093.68 619.568 1093.68 618.252V618.14C1093.68 616.824 1094.44 616.082 1095.73 616.082C1097.02 616.082 1097.77 616.824 1097.77 618.14V618.252C1097.77 619.568 1097.02 620.31 1095.73 620.31ZM1104.28 625.168C1106.51 625.168 1107.67 623.95 1107.67 622.34C1107.67 621.01 1106.87 620.24 1105.7 619.918V619.806C1106.72 619.456 1107.38 618.63 1107.38 617.51C1107.38 616.026 1106.23 615.06 1104.28 615.06C1102.34 615.06 1101.19 616.026 1101.19 617.51C1101.19 618.63 1101.85 619.456 1102.87 619.806V619.918C1101.69 620.24 1100.9 621.01 1100.9 622.34C1100.9 623.95 1102.06 625.168 1104.28 625.168ZM1104.28 624.146C1102.93 624.146 1102.14 623.502 1102.14 622.396V622.102C1102.14 620.996 1102.93 620.352 1104.28 620.352C1105.64 620.352 1106.43 620.996 1106.43 622.102V622.396C1106.43 623.502 1105.64 624.146 1104.28 624.146ZM1104.28 619.372C1103.07 619.372 1102.41 618.826 1102.41 617.832V617.622C1102.41 616.628 1103.07 616.082 1104.28 616.082C1105.5 616.082 1106.16 616.628 1106.16 617.622V617.832C1106.16 618.826 1105.5 619.372 1104.28 619.372ZM1112.35 625L1116.02 616.264V615.228H1109.6V618.056H1110.65V616.236H1114.83L1111.09 625H1112.35ZM1121.39 625.168C1123.73 625.168 1124.75 623.306 1124.75 620.114C1124.75 616.922 1123.73 615.06 1121.39 615.06C1119.05 615.06 1118.03 616.922 1118.03 620.114C1118.03 623.306 1119.05 625.168 1121.39 625.168ZM1121.39 624.146C1119.87 624.146 1119.26 622.802 1119.26 620.912V619.316C1119.26 617.426 1119.87 616.082 1121.39 616.082C1122.92 616.082 1123.52 617.426 1123.52 619.316V620.912C1123.52 622.802 1122.92 624.146 1121.39 624.146ZM1143.61 623.964H1138.48L1141.11 621.598C1142.35 620.478 1143.25 619.414 1143.25 617.902C1143.25 616.236 1142.16 615.06 1140.25 615.06C1138.36 615.06 1137.5 616.208 1137.12 617.356L1138.17 617.762C1138.43 616.838 1138.99 616.11 1140.2 616.11C1141.4 616.11 1142 616.852 1142 617.93V618.098C1142 619.036 1141.3 620.016 1140.39 620.856L1137.2 623.796V625H1143.61V623.964ZM1146.61 625.168C1147.2 625.168 1147.47 624.832 1147.47 624.356V624.174C1147.47 623.698 1147.2 623.362 1146.61 623.362C1146.02 623.362 1145.76 623.698 1145.76 624.174V624.356C1145.76 624.832 1146.02 625.168 1146.61 625.168ZM1152.88 625.168C1155.11 625.168 1156.27 623.95 1156.27 622.34C1156.27 621.01 1155.47 620.24 1154.3 619.918V619.806C1155.32 619.456 1155.98 618.63 1155.98 617.51C1155.98 616.026 1154.83 615.06 1152.88 615.06C1150.94 615.06 1149.79 616.026 1149.79 617.51C1149.79 618.63 1150.45 619.456 1151.47 619.806V619.918C1150.29 620.24 1149.49 621.01 1149.49 622.34C1149.49 623.95 1150.66 625.168 1152.88 625.168ZM1152.88 624.146C1151.52 624.146 1150.74 623.502 1150.74 622.396V622.102C1150.74 620.996 1151.52 620.352 1152.88 620.352C1154.24 620.352 1155.02 620.996 1155.02 622.102V622.396C1155.02 623.502 1154.24 624.146 1152.88 624.146ZM1152.88 619.372C1151.66 619.372 1151.01 618.826 1151.01 617.832V617.622C1151.01 616.628 1151.66 616.082 1152.88 616.082C1154.1 616.082 1154.76 616.628 1154.76 617.622V617.832C1154.76 618.826 1154.1 619.372 1152.88 619.372ZM1161.14 625.168C1162.5 625.168 1163.54 624.496 1164 623.516L1163.2 622.942C1162.82 623.74 1162.12 624.188 1161.21 624.188C1159.87 624.188 1159.07 623.25 1159.07 622.004V621.668H1164.26V621.136C1164.26 619.092 1163.07 617.608 1161.14 617.608C1159.18 617.608 1157.89 619.092 1157.89 621.388C1157.89 623.684 1159.18 625.168 1161.14 625.168ZM1161.14 618.546C1162.29 618.546 1163.06 619.4 1163.06 620.674V620.828H1159.07V620.73C1159.07 619.47 1159.92 618.546 1161.14 618.546ZM1169.84 621.346V620.142H1166.18V621.346H1169.84ZM1177.34 625V623.082H1178.75V622.102H1177.34V615.228H1175.59L1171.5 622.046V623.082H1176.22V625H1177.34ZM1176.15 616.138H1176.22V622.102H1172.61L1176.15 616.138Z" fill="black"/>
<path d="M1059 641C1068.07 639.32 1058.7 627.298 1067 619.668C1060.91 614.616 1067 600.52 1059 598" stroke="black"/>
<path d="M1127 621.174C1127 621.174 1127 621.122 1127 621.017C1127 620.913 1127.06 620.832 1127.17 620.776H1130.78V618.967L1130.79 617.157C1130.87 617.052 1130.94 617 1131.02 617C1131.12 617 1131.2 617.06 1131.26 617.181V620.776H1134.85C1134.97 620.84 1135.03 620.921 1135.03 621.017C1135.03 621.114 1134.97 621.194 1134.85 621.259H1131.26V624.854C1131.19 624.966 1131.12 625.022 1131.04 625.022H1131.02H1130.99C1130.9 625.022 1130.82 624.966 1130.78 624.854V621.259H1127.17C1127.06 621.202 1127 621.122 1127 621.017V621.174Z" fill="black"/>
<line x1="1127" y1="624.75" x2="1135" y2="624.75" stroke="black" stroke-width="0.5"/>
<line x1="994" y1="673" x2="994" y2="686" stroke="black" stroke-width="2" stroke-linecap="round" stroke-dasharray="0.1 6"/>
<path d="M927.5 713C927.5 712.724 927.276 712.5 927 712.5L922.5 712.5C922.224 712.5 922 712.724 922 713C922 713.276 922.224 713.5 922.5 713.5L926.5 713.5L926.5 717.5C926.5 717.776 926.724 718 927 718C927.276 718 927.5 717.776 927.5 717.5L927.5 713ZM860.354 780.354L927.354 713.354L926.646 712.646L859.646 779.646L860.354 780.354Z" fill="#121619"/>
<rect x="771" y="142" width="58" height="24" rx="12" fill="#DDE1E6"/>
<rect x="705" y="142" width="58" height="24" rx="12" fill="#DDE1E6"/>
<circle cx="717.5" cy="153.5" r="8.5" fill="white"/>
<circle cx="750.5" cy="153.5" r="8.5" fill="white"/>
<circle cx="783.5" cy="153.5" r="8.5" fill="white"/>
<circle cx="816.5" cy="153.5" r="8.5" fill="white"/>
<line x1="763" y1="153.5" x2="771" y2="153.5" stroke="#697077"/>
<line x1="726" y1="153.5" x2="742" y2="153.5" stroke="#697077"/>
<line x1="792" y1="153.5" x2="808" y2="153.5" stroke="#697077"/>
<path d="M720.91 158V156.684H718.53V148.228H716.122L713.63 150.93L714.596 151.798L716.864 149.376H716.976V156.684H714.232V158H720.91Z" fill="black"/>
<path d="M752.524 158V156.096H753.854V154.85H752.524V148.228H750.452L746.49 154.738V156.096H751.026V158H752.524ZM750.928 149.67H751.026V154.85H747.834L750.928 149.67Z" fill="black"/>
<path d="M783.06 158L786.504 149.6V148.228H779.882V151.336H781.24V149.53H784.936L781.394 158H783.06Z" fill="black"/>
<path d="M816.228 158.168C818.3 158.168 819.658 156.81 819.658 154.85C819.658 153.002 818.44 151.826 816.788 151.826C815.57 151.826 814.926 152.484 814.52 153.254L814.422 153.226C814.898 151.126 816.172 149.838 818.384 148.228H816.284C814.674 149.292 812.784 151.532 812.784 154.36C812.784 156.698 814.072 158.168 816.228 158.168ZM816.228 156.88C815.094 156.88 814.422 156.25 814.422 155.088V154.892C814.422 153.73 815.094 153.1 816.228 153.1C817.362 153.1 818.034 153.73 818.034 154.892V155.088C818.034 156.25 817.362 156.88 816.228 156.88Z" fill="black"/>
</g>
<defs>
<clipPath id="clip0_62_3459">
<rect width="1365" height="884" fill="white"/>
</clipPath>
</defs>
</svg>
