<svg width="975" height="267" viewBox="0 0 975 267" fill="none" xmlns="http://www.w3.org/2000/svg">
<g clip-path="url(#clip0_37_4394)">
<rect x="0.5" y="0.5" width="974" height="266" fill="white" fill-opacity="0.8" stroke="#DDE1E6"/>
<rect opacity="0.4" y="163" width="975" height="55" fill="#F2F4F8"/>
<rect opacity="0.4" y="54" width="975" height="54" fill="#F2F4F8"/>
<path fill-rule="evenodd" clip-rule="evenodd" d="M52.3996 77.1998H53.5996C54.5937 77.1998 55.3996 76.3939 55.3996 75.3998V70.5998C55.3996 69.6057 54.5937 68.7998 53.5996 68.7998H52.3996C51.4055 68.7998 50.5996 69.6057 50.5996 70.5998V75.3998C50.5996 76.3939 51.4055 77.1998 52.3996 77.1998ZM51.7996 70.5998C51.7996 70.2684 52.0682 69.9998 52.3996 69.9998H53.5996C53.931 69.9998 54.1996 70.2684 54.1996 70.5998V75.3998C54.1996 75.7312 53.931 75.9998 53.5996 75.9998H52.3996C52.0682 75.9998 51.7996 75.7312 51.7996 75.3998V70.5998Z" fill="#161616"/>
<path d="M58.0545 79L57 78.46L59.6804 73L57 67.54L58.0545 67L61 73L59.5272 76L58.0545 79Z" fill="#161616"/>
<rect x="47" y="67" width="1" height="12" fill="#161616"/>
<line x1="69" y1="72.5" x2="564" y2="72.5" stroke="black"/>
<path fill-rule="evenodd" clip-rule="evenodd" d="M52.3996 135.2H53.5996C54.5937 135.2 55.3996 134.394 55.3996 133.4V128.6C55.3996 127.606 54.5937 126.8 53.5996 126.8H52.3996C51.4055 126.8 50.5996 127.606 50.5996 128.6V133.4C50.5996 134.394 51.4055 135.2 52.3996 135.2ZM51.7996 128.6C51.7996 128.268 52.0682 128 52.3996 128H53.5996C53.931 128 54.1996 128.268 54.1996 128.6V133.4C54.1996 133.731 53.931 134 53.5996 134H52.3996C52.0682 134 51.7996 133.731 51.7996 133.4V128.6Z" fill="#161616"/>
<path d="M58.0545 137L57 136.46L59.6804 131L57 125.54L58.0545 125L61 131L59.5272 134L58.0545 137Z" fill="#161616"/>
<rect x="47" y="125" width="1" height="12" fill="#161616"/>
<line x1="69" y1="130.5" x2="564" y2="130.5" stroke="black"/>
<path fill-rule="evenodd" clip-rule="evenodd" d="M52.3996 205.2H53.5996C54.5937 205.2 55.3996 204.394 55.3996 203.4V198.6C55.3996 197.606 54.5937 196.8 53.5996 196.8H52.3996C51.4055 196.8 50.5996 197.606 50.5996 198.6V203.4C50.5996 204.394 51.4055 205.2 52.3996 205.2ZM51.7996 198.6C51.7996 198.268 52.0682 198 52.3996 198H53.5996C53.931 198 54.1996 198.268 54.1996 198.6V203.4C54.1996 203.731 53.931 204 53.5996 204H52.3996C52.0682 204 51.7996 203.731 51.7996 203.4V198.6Z" fill="#161616"/>
<path d="M58.0545 207L57 206.46L59.6804 201L57 195.54L58.0545 195L61 201L59.5272 204L58.0545 207Z" fill="#161616"/>
<rect x="47" y="195" width="1" height="12" fill="#161616"/>
<line x1="69" y1="200.5" x2="564" y2="200.5" stroke="black"/>
<line x1="592" y1="72.5" x2="891" y2="72.5" stroke="black"/>
<line x1="592" y1="130.5" x2="891" y2="130.5" stroke="black"/>
<line x1="592" y1="200.5" x2="891" y2="200.5" stroke="black"/>
<rect x="861" y="57" width="32" height="32" fill="#121619"/>
<path d="M884 72.89L886.427 68.6667L884.408 67.5L881.865 71.8983C877.573 70.3076 872.774 70.9158 869.014 73.5269C865.254 76.1381 863.008 80.4224 863 84.9999H865.333C865.336 81.2518 867.14 77.7333 870.181 75.5426C873.222 73.3518 877.131 72.7556 880.687 73.94L877 80.3333C875.944 80.3322 875.018 81.0409 874.744 82.061C874.47 83.0811 874.915 84.1581 875.83 84.6867C876.744 85.2154 877.9 85.0637 878.647 84.317C879.394 83.5702 879.546 82.4147 879.018 81.5L882.833 74.9083C886.439 76.9902 888.662 80.8361 888.667 84.9999H891C890.995 80.0034 888.327 75.3883 884 72.89Z" fill="white"/>
<rect x="861" y="115" width="32" height="32" fill="#121619"/>
<path d="M884 130.89L886.427 126.667L884.408 125.5L881.865 129.898C877.573 128.308 872.774 128.916 869.014 131.527C865.254 134.138 863.008 138.422 863 143H865.333C865.336 139.252 867.14 135.733 870.181 133.543C873.222 131.352 877.131 130.756 880.687 131.94L877 138.333C875.944 138.332 875.018 139.041 874.744 140.061C874.47 141.081 874.915 142.158 875.83 142.687C876.744 143.215 877.9 143.064 878.647 142.317C879.394 141.57 879.546 140.415 879.018 139.5L882.833 132.908C886.439 134.99 888.662 138.836 888.667 143H891C890.995 138.003 888.327 133.388 884 130.89Z" fill="white"/>
<rect x="861" y="184" width="32" height="32" fill="#121619"/>
<path d="M884 199.89L886.427 195.667L884.408 194.5L881.865 198.898C877.573 197.308 872.774 197.916 869.014 200.527C865.254 203.138 863.008 207.422 863 212H865.333C865.336 208.252 867.14 204.733 870.181 202.543C873.222 200.352 877.131 199.756 880.687 200.94L877 207.333C875.944 207.332 875.018 208.041 874.744 209.061C874.47 210.081 874.915 211.158 875.83 211.687C876.744 212.215 877.9 212.064 878.647 211.317C879.394 210.57 879.546 209.415 879.018 208.5L882.833 201.908C886.439 203.99 888.662 207.836 888.667 212H891C890.995 207.003 888.327 202.388 884 199.89Z" fill="white"/>
<line x1="112" y1="158" x2="112" y2="171" stroke="black" stroke-width="2" stroke-linecap="round" stroke-dasharray="0.1 6"/>
<rect width="32" height="32" transform="translate(97 57)" fill="#0043CE"/>
<rect width="32" height="32" transform="translate(97 115)" fill="#0043CE"/>
<rect width="32" height="159" transform="translate(149 57)" fill="#6929C4"/>
<rect width="32" height="159" transform="translate(203 57)" fill="#007D79"/>
<rect width="32" height="159" transform="translate(248 57)" fill="#0043CE"/>
<rect width="32" height="32" transform="translate(97 184)" fill="#0043CE"/>
<rect x="192.5" y="46.5" width="99" height="180" rx="4.5" stroke="black" stroke-dasharray="6 6"/>
<line x1="329" y1="158" x2="329" y2="171" stroke="black" stroke-width="2" stroke-linecap="round" stroke-dasharray="0.1 6"/>
<rect width="32" height="32" transform="translate(314 57)" fill="#0043CE"/>
<rect width="32" height="32" transform="translate(314 115)" fill="#0043CE"/>
<rect width="32" height="159" transform="translate(366 57)" fill="#6929C4"/>
<path d="M374.842 132.153C374.374 132.896 373.948 133.226 373.247 133.281C373.109 133.295 372.999 133.295 372.999 133.542C372.999 133.597 373.027 133.68 373.151 133.68C373.398 133.68 373.989 133.652 374.237 133.652C374.636 133.652 375.048 133.68 375.433 133.68C375.543 133.68 375.681 133.68 375.681 133.418C375.681 133.295 375.557 133.281 375.502 133.281C374.993 133.24 374.938 132.992 374.938 132.827C374.938 132.621 375.131 132.305 375.144 132.291L379.462 125.443L380.425 132.855C380.425 133.253 379.71 133.281 379.559 133.281C379.352 133.281 379.229 133.281 379.229 133.542C379.229 133.68 379.38 133.68 379.421 133.68C379.655 133.68 379.93 133.652 380.164 133.652H380.934C381.938 133.652 382.35 133.68 382.364 133.68C382.446 133.68 382.611 133.68 382.611 133.432C382.611 133.281 382.515 133.281 382.295 133.281C381.594 133.281 381.552 133.157 381.511 132.813L380.411 124.329C380.37 124.04 380.37 123.999 380.177 123.999C380.012 123.999 379.944 124.04 379.806 124.26L374.842 132.153Z" fill="white"/>
<path d="M389.863 119.253C389.863 119.009 389.846 119 389.615 119C389.265 119.361 388.812 119.577 388 119.577V119.875C388.231 119.875 388.692 119.875 389.188 119.632V124.26C389.188 124.594 389.162 124.702 388.35 124.702H388.051V125C388.402 124.973 389.137 124.973 389.521 124.973C389.906 124.973 390.65 124.973 391 125V124.702H390.701C389.889 124.702 389.863 124.594 389.863 124.26V119.253Z" fill="#FBFBFB"/>
<line x1="383" y1="121.75" x2="387" y2="121.75" stroke="white" stroke-width="0.5"/>
<rect width="32" height="159" transform="translate(420 57)" fill="#007D79"/>
<rect width="32" height="159" transform="translate(465 57)" fill="#0043CE"/>
<rect width="32" height="32" transform="translate(314 184)" fill="#0043CE"/>
<rect x="409.5" y="46.5" width="99" height="180" rx="4.5" stroke="black" stroke-dasharray="6 6"/>
<line x1="617" y1="158" x2="617" y2="171" stroke="black" stroke-width="2" stroke-linecap="round" stroke-dasharray="0.1 6"/>
<rect width="32" height="32" transform="translate(602 57)" fill="#0043CE"/>
<rect width="32" height="32" transform="translate(602 115)" fill="#0043CE"/>
<rect width="32" height="159" transform="translate(654 57)" fill="#6929C4"/>
<rect width="32" height="159" transform="translate(708 57)" fill="#007D79"/>
<rect width="32" height="159" transform="translate(753 57)" fill="#0043CE"/>
<rect width="32" height="32" transform="translate(602 184)" fill="#0043CE"/>
<line x1="537" y1="158" x2="537" y2="171" stroke="black" stroke-width="2" stroke-linecap="round" stroke-dasharray="0.1 6"/>
<rect width="32" height="32" transform="translate(522 57)" fill="#0043CE"/>
<rect width="32" height="32" transform="translate(522 115)" fill="#0043CE"/>
<rect width="32" height="32" transform="translate(522 184)" fill="#0043CE"/>
<line x1="828" y1="158" x2="828" y2="171" stroke="black" stroke-width="2" stroke-linecap="round" stroke-dasharray="0.1 6"/>
<line x1="877" y1="158" x2="877" y2="171" stroke="black" stroke-width="2" stroke-linecap="round" stroke-dasharray="0.1 6"/>
<rect width="32" height="32" transform="translate(813 57)" fill="#0043CE"/>
<rect width="32" height="32" transform="translate(813 115)" fill="#0043CE"/>
<rect width="32" height="32" transform="translate(813 184)" fill="#0043CE"/>
<rect x="697.5" y="46.5" width="99" height="180" rx="4.5" stroke="black" stroke-dasharray="6 6"/>
<line x1="568" y1="72.5" x2="588" y2="72.5" stroke="black" stroke-dasharray="4 4"/>
<line x1="568" y1="130.5" x2="588" y2="130.5" stroke="black" stroke-dasharray="4 4"/>
<line x1="568" y1="200.5" x2="588" y2="200.5" stroke="black" stroke-dasharray="4 4"/>
<path d="M157.843 132.153C157.375 132.896 156.949 133.226 156.248 133.281C156.11 133.295 156 133.295 156 133.542C156 133.597 156.028 133.68 156.152 133.68C156.399 133.68 156.99 133.652 157.238 133.652C157.637 133.652 158.049 133.68 158.434 133.68C158.544 133.68 158.682 133.68 158.682 133.418C158.682 133.295 158.558 133.281 158.503 133.281C157.994 133.24 157.939 132.992 157.939 132.827C157.939 132.621 158.132 132.305 158.145 132.291L162.463 125.443L163.426 132.855C163.426 133.253 162.711 133.281 162.56 133.281C162.353 133.281 162.23 133.281 162.23 133.542C162.23 133.68 162.381 133.68 162.422 133.68C162.656 133.68 162.931 133.652 163.165 133.652H163.935C164.939 133.652 165.351 133.68 165.365 133.68C165.447 133.68 165.612 133.68 165.612 133.432C165.612 133.281 165.516 133.281 165.296 133.281C164.595 133.281 164.553 133.157 164.512 132.813L163.412 124.329C163.371 124.04 163.371 123.999 163.178 123.999C163.013 123.999 162.945 124.04 162.807 124.26L157.843 132.153Z" fill="white"/>
<path d="M169.863 133.253C169.863 133.009 169.846 133 169.615 133C169.265 133.361 168.812 133.577 168 133.577V133.875C168.231 133.875 168.692 133.875 169.188 133.632V138.26C169.188 138.594 169.162 138.702 168.35 138.702H168.051V139C168.402 138.973 169.137 138.973 169.521 138.973C169.906 138.973 170.65 138.973 171 139V138.702H170.701C169.889 138.702 169.863 138.594 169.863 138.26V133.253Z" fill="#FBFBFB"/>
<path d="M212.842 132.153C212.374 132.896 211.948 133.226 211.247 133.281C211.109 133.295 210.999 133.295 210.999 133.542C210.999 133.597 211.027 133.68 211.151 133.68C211.398 133.68 211.989 133.652 212.237 133.652C212.636 133.652 213.048 133.68 213.433 133.68C213.543 133.68 213.681 133.68 213.681 133.418C213.681 133.295 213.557 133.281 213.502 133.281C212.993 133.24 212.938 132.992 212.938 132.827C212.938 132.621 213.131 132.305 213.144 132.291L217.462 125.443L218.425 132.855C218.425 133.253 217.71 133.281 217.559 133.281C217.352 133.281 217.229 133.281 217.229 133.542C217.229 133.68 217.38 133.68 217.421 133.68C217.655 133.68 217.93 133.652 218.164 133.652H218.934C219.938 133.652 220.35 133.68 220.364 133.68C220.446 133.68 220.611 133.68 220.611 133.432C220.611 133.281 220.515 133.281 220.295 133.281C219.594 133.281 219.552 133.157 219.511 132.813L218.411 124.329C218.37 124.04 218.37 123.999 218.177 123.999C218.012 123.999 217.944 124.04 217.806 124.26L212.842 132.153Z" fill="white"/>
<path d="M224.863 133.253C224.863 133.009 224.846 133 224.615 133C224.265 133.361 223.812 133.577 223 133.577V133.875C223.231 133.875 223.692 133.875 224.188 133.632V138.26C224.188 138.594 224.162 138.702 223.35 138.702H223.051V139C223.402 138.973 224.137 138.973 224.521 138.973C224.906 138.973 225.65 138.973 226 139V138.702H225.701C224.889 138.702 224.863 138.594 224.863 138.26V133.253Z" fill="#FBFBFB"/>
<path d="M268.863 133.253C268.863 133.009 268.846 133 268.615 133C268.265 133.361 267.812 133.577 267 133.577V133.875C267.231 133.875 267.692 133.875 268.188 133.632V138.26C268.188 138.594 268.162 138.702 267.35 138.702H267.051V139C267.402 138.973 268.137 138.973 268.521 138.973C268.906 138.973 269.65 138.973 270 139V138.702H269.701C268.889 138.702 268.863 138.594 268.863 138.26V133.253Z" fill="#FBFBFB"/>
<path d="M172.863 119.253C172.863 119.009 172.846 119 172.615 119C172.265 119.361 171.812 119.577 171 119.577V119.875C171.231 119.875 171.692 119.875 172.188 119.632V124.26C172.188 124.594 172.162 124.702 171.35 124.702H171.051V125C171.402 124.973 172.137 124.973 172.521 124.973C172.906 124.973 173.65 124.973 174 125V124.702H173.701C172.889 124.702 172.863 124.594 172.863 124.26V119.253Z" fill="#FBFBFB"/>
<line x1="166" y1="121.75" x2="170" y2="121.75" stroke="white" stroke-width="0.5"/>
<path d="M264.647 131.874C264.116 133.999 262.355 135.243 260.929 135.243C259.836 135.243 259.093 134.515 259.093 133.255C259.093 133.195 259.093 132.739 259.26 132.072L260.747 126.108C260.883 125.592 260.914 125.44 261.991 125.44C262.264 125.44 262.416 125.44 262.416 125.167C262.416 125 262.279 125 262.188 125C261.915 125 261.596 125.03 261.308 125.03H259.518C259.229 125.03 258.911 125 258.622 125C258.516 125 258.334 125 258.334 125.288C258.334 125.44 258.44 125.44 258.728 125.44C259.639 125.44 259.639 125.561 259.639 125.728C259.639 125.819 259.533 126.26 259.457 126.518L258.137 131.829C258.091 131.996 258 132.405 258 132.815C258 134.484 259.199 135.683 260.853 135.683C262.386 135.683 264.085 134.469 264.859 132.542C264.965 132.284 265.102 131.753 265.193 131.343C265.345 130.797 265.663 129.461 265.77 129.067L266.346 126.791C266.544 126.002 266.665 125.501 268 125.44C268.122 125.425 268.182 125.304 268.182 125.167C268.182 125 268.046 125 267.985 125C267.773 125 267.5 125.03 267.287 125.03H266.574C265.633 125.03 265.147 125 265.132 125C265.041 125 264.859 125 264.859 125.288C264.859 125.44 264.981 125.44 265.087 125.44C265.997 125.47 266.058 125.819 266.058 126.093C266.058 126.229 266.058 126.275 265.997 126.487L264.647 131.874Z" fill="white"/>
<path d="M481.647 131.874C481.116 133.999 479.355 135.243 477.929 135.243C476.836 135.243 476.093 134.515 476.093 133.255C476.093 133.195 476.093 132.739 476.26 132.072L477.747 126.108C477.883 125.592 477.914 125.44 478.991 125.44C479.264 125.44 479.416 125.44 479.416 125.167C479.416 125 479.279 125 479.188 125C478.915 125 478.596 125.03 478.308 125.03H476.518C476.229 125.03 475.911 125 475.622 125C475.516 125 475.334 125 475.334 125.288C475.334 125.44 475.44 125.44 475.728 125.44C476.639 125.44 476.639 125.561 476.639 125.728C476.639 125.819 476.533 126.26 476.457 126.518L475.137 131.829C475.091 131.996 475 132.405 475 132.815C475 134.484 476.199 135.683 477.853 135.683C479.386 135.683 481.085 134.469 481.859 132.542C481.965 132.284 482.102 131.753 482.193 131.343C482.345 130.797 482.663 129.461 482.77 129.067L483.346 126.791C483.544 126.002 483.665 125.501 485 125.44C485.122 125.425 485.182 125.304 485.182 125.167C485.182 125 485.046 125 484.985 125C484.773 125 484.5 125.03 484.287 125.03H483.574C482.633 125.03 482.147 125 482.132 125C482.041 125 481.859 125 481.859 125.288C481.859 125.44 481.981 125.44 482.087 125.44C482.997 125.47 483.058 125.819 483.058 126.093C483.058 126.229 483.058 126.275 482.997 126.487L481.647 131.874Z" fill="white"/>
<path d="M386.16 135.159C386.311 135.024 386.708 134.726 386.858 134.6C387.443 134.086 388 133.589 388 132.768C388 131.695 387.057 131 385.877 131C384.745 131 384 131.821 384 132.624C384 133.066 384.368 133.129 384.5 133.129C384.698 133.129 384.991 132.994 384.991 132.651C384.991 132.182 384.519 132.182 384.406 132.182C384.679 131.523 385.311 131.298 385.774 131.298C386.651 131.298 387.104 132.011 387.104 132.768C387.104 133.707 386.415 134.392 385.302 135.484L384.113 136.657C384 136.756 384 136.774 384 137H387.726L388 135.385H387.708C387.679 135.565 387.604 136.017 387.491 136.188C387.434 136.26 386.717 136.26 386.566 136.26H384.887L386.16 135.159Z" fill="white"/>
<path d="M429.842 132.153C429.374 132.896 428.948 133.226 428.247 133.281C428.109 133.295 427.999 133.295 427.999 133.542C427.999 133.597 428.027 133.68 428.151 133.68C428.398 133.68 428.989 133.652 429.237 133.652C429.636 133.652 430.048 133.68 430.433 133.68C430.543 133.68 430.681 133.68 430.681 133.418C430.681 133.295 430.557 133.281 430.502 133.281C429.993 133.24 429.938 132.992 429.938 132.827C429.938 132.621 430.131 132.305 430.144 132.291L434.462 125.443L435.425 132.855C435.425 133.253 434.71 133.281 434.559 133.281C434.352 133.281 434.229 133.281 434.229 133.542C434.229 133.68 434.38 133.68 434.421 133.68C434.655 133.68 434.93 133.652 435.164 133.652H435.934C436.938 133.652 437.35 133.68 437.364 133.68C437.446 133.68 437.611 133.68 437.611 133.432C437.611 133.281 437.515 133.281 437.295 133.281C436.594 133.281 436.552 133.157 436.511 132.813L435.411 124.329C435.37 124.04 435.37 123.999 435.177 123.999C435.012 123.999 434.944 124.04 434.806 124.26L429.842 132.153Z" fill="white"/>
<path d="M441.16 135.159C441.311 135.024 441.708 134.726 441.858 134.6C442.443 134.086 443 133.589 443 132.768C443 131.695 442.057 131 440.877 131C439.745 131 439 131.821 439 132.624C439 133.066 439.368 133.129 439.5 133.129C439.698 133.129 439.991 132.994 439.991 132.651C439.991 132.182 439.519 132.182 439.406 132.182C439.679 131.523 440.311 131.298 440.774 131.298C441.651 131.298 442.104 132.011 442.104 132.768C442.104 133.707 441.415 134.392 440.302 135.484L439.113 136.657C439 136.756 439 136.774 439 137H442.726L443 135.385H442.708C442.679 135.565 442.604 136.017 442.491 136.188C442.434 136.26 441.717 136.26 441.566 136.26H439.887L441.16 135.159Z" fill="white"/>
<path d="M486.16 135.159C486.311 135.024 486.708 134.726 486.858 134.6C487.443 134.086 488 133.589 488 132.768C488 131.695 487.057 131 485.877 131C484.745 131 484 131.821 484 132.624C484 133.066 484.368 133.129 484.5 133.129C484.698 133.129 484.991 132.994 484.991 132.651C484.991 132.182 484.519 132.182 484.406 132.182C484.679 131.523 485.311 131.298 485.774 131.298C486.651 131.298 487.104 132.011 487.104 132.768C487.104 133.707 486.415 134.392 485.302 135.484L484.113 136.657C484 136.756 484 136.774 484 137H487.726L488 135.385H487.708C487.679 135.565 487.604 136.017 487.491 136.188C487.434 136.26 486.717 136.26 486.566 136.26H484.887L486.16 135.159Z" fill="white"/>
<path d="M674.195 134.304C674.205 134.283 674.236 134.152 674.236 134.142C674.236 134.091 674.195 134 674.074 134L673.052 134.081C672.678 134.111 672.597 134.121 672.597 134.304C672.597 134.445 672.739 134.445 672.86 134.445C673.346 134.445 673.346 134.506 673.346 134.597C673.346 134.627 673.346 134.647 673.295 134.83L672.04 139.847C672 140.009 672 140.161 672 140.171C672 140.798 672.516 141.122 673.022 141.122C673.457 141.122 673.689 140.778 673.801 140.556C673.983 140.222 674.135 139.625 674.135 139.574C674.135 139.514 674.104 139.443 673.973 139.443C673.882 139.443 673.851 139.493 673.851 139.503C673.831 139.534 673.781 139.716 673.75 139.827C673.598 140.414 673.406 140.839 673.042 140.839C672.799 140.839 672.728 140.606 672.728 140.363C672.728 140.171 672.759 140.06 672.789 139.928L674.195 134.304Z" fill="white"/>
<path d="M662.842 135.153C662.374 135.896 661.948 136.226 661.247 136.281C661.109 136.295 660.999 136.295 660.999 136.542C660.999 136.597 661.027 136.68 661.151 136.68C661.398 136.68 661.989 136.652 662.237 136.652C662.636 136.652 663.048 136.68 663.433 136.68C663.543 136.68 663.681 136.68 663.681 136.418C663.681 136.295 663.557 136.281 663.502 136.281C662.993 136.24 662.938 135.992 662.938 135.827C662.938 135.621 663.131 135.305 663.144 135.291L667.462 128.443L668.425 135.855C668.425 136.253 667.71 136.281 667.559 136.281C667.352 136.281 667.229 136.281 667.229 136.542C667.229 136.68 667.38 136.68 667.421 136.68C667.655 136.68 667.93 136.652 668.164 136.652H668.934C669.938 136.652 670.35 136.68 670.364 136.68C670.446 136.68 670.611 136.68 670.611 136.432C670.611 136.281 670.515 136.281 670.295 136.281C669.594 136.281 669.552 136.157 669.511 135.813L668.411 127.329C668.37 127.04 668.37 126.999 668.177 126.999C668.012 126.999 667.944 127.04 667.806 127.26L662.842 135.153Z" fill="white"/>
<path d="M730.195 134.304C730.205 134.283 730.236 134.152 730.236 134.142C730.236 134.091 730.195 134 730.074 134L729.052 134.081C728.678 134.111 728.597 134.121 728.597 134.304C728.597 134.445 728.739 134.445 728.86 134.445C729.346 134.445 729.346 134.506 729.346 134.597C729.346 134.627 729.346 134.647 729.295 134.83L728.04 139.847C728 140.009 728 140.161 728 140.171C728 140.798 728.516 141.122 729.022 141.122C729.457 141.122 729.689 140.778 729.801 140.556C729.983 140.222 730.135 139.625 730.135 139.574C730.135 139.514 730.104 139.443 729.973 139.443C729.882 139.443 729.851 139.493 729.851 139.503C729.831 139.534 729.781 139.716 729.75 139.827C729.598 140.414 729.406 140.839 729.042 140.839C728.799 140.839 728.728 140.606 728.728 140.363C728.728 140.171 728.759 140.06 728.789 139.928L730.195 134.304Z" fill="white"/>
<path d="M774.195 134.304C774.205 134.283 774.236 134.152 774.236 134.142C774.236 134.091 774.195 134 774.074 134L773.052 134.081C772.678 134.111 772.597 134.121 772.597 134.304C772.597 134.445 772.739 134.445 772.86 134.445C773.346 134.445 773.346 134.506 773.346 134.597C773.346 134.627 773.346 134.647 773.295 134.83L772.04 139.847C772 140.009 772 140.161 772 140.171C772 140.798 772.516 141.122 773.022 141.122C773.457 141.122 773.689 140.778 773.801 140.556C773.983 140.222 774.135 139.625 774.135 139.574C774.135 139.514 774.104 139.443 773.973 139.443C773.882 139.443 773.851 139.493 773.851 139.503C773.831 139.534 773.781 139.716 773.75 139.827C773.598 140.414 773.406 140.839 773.042 140.839C772.799 140.839 772.728 140.606 772.728 140.363C772.728 140.171 772.759 140.06 772.789 139.928L774.195 134.304Z" fill="white"/>
<path d="M718.842 135.153C718.374 135.896 717.948 136.226 717.247 136.281C717.109 136.295 716.999 136.295 716.999 136.542C716.999 136.597 717.027 136.68 717.151 136.68C717.398 136.68 717.989 136.652 718.237 136.652C718.636 136.652 719.048 136.68 719.433 136.68C719.543 136.68 719.681 136.68 719.681 136.418C719.681 136.295 719.557 136.281 719.502 136.281C718.993 136.24 718.938 135.992 718.938 135.827C718.938 135.621 719.131 135.305 719.144 135.291L723.462 128.443L724.425 135.855C724.425 136.253 723.71 136.281 723.559 136.281C723.352 136.281 723.229 136.281 723.229 136.542C723.229 136.68 723.38 136.68 723.421 136.68C723.655 136.68 723.93 136.652 724.164 136.652H724.934C725.938 136.652 726.35 136.68 726.364 136.68C726.446 136.68 726.611 136.68 726.611 136.432C726.611 136.281 726.515 136.281 726.295 136.281C725.594 136.281 725.552 136.157 725.511 135.813L724.411 127.329C724.37 127.04 724.37 126.999 724.177 126.999C724.012 126.999 723.944 127.04 723.806 127.26L718.842 135.153Z" fill="white"/>
<path d="M677.863 122.253C677.863 122.009 677.846 122 677.615 122C677.265 122.361 676.812 122.577 676 122.577V122.875C676.231 122.875 676.692 122.875 677.188 122.632V127.26C677.188 127.594 677.162 127.702 676.35 127.702H676.051V128C676.402 127.973 677.137 127.973 677.521 127.973C677.906 127.973 678.65 127.973 679 128V127.702H678.701C677.889 127.702 677.863 127.594 677.863 127.26V122.253Z" fill="#FBFBFB"/>
<line x1="671" y1="124.75" x2="675" y2="124.75" stroke="white" stroke-width="0.5"/>
<path d="M770.647 133.874C770.116 135.999 768.355 137.243 766.929 137.243C765.836 137.243 765.093 136.515 765.093 135.255C765.093 135.195 765.093 134.739 765.26 134.072L766.747 128.108C766.883 127.592 766.914 127.44 767.991 127.44C768.264 127.44 768.416 127.44 768.416 127.167C768.416 127 768.279 127 768.188 127C767.915 127 767.596 127.03 767.308 127.03H765.518C765.229 127.03 764.911 127 764.622 127C764.516 127 764.334 127 764.334 127.288C764.334 127.44 764.44 127.44 764.728 127.44C765.639 127.44 765.639 127.561 765.639 127.728C765.639 127.819 765.533 128.26 765.457 128.518L764.137 133.829C764.091 133.996 764 134.405 764 134.815C764 136.484 765.199 137.683 766.853 137.683C768.386 137.683 770.085 136.469 770.859 134.542C770.965 134.284 771.102 133.753 771.193 133.343C771.345 132.797 771.663 131.461 771.77 131.067L772.346 128.791C772.544 128.002 772.665 127.501 774 127.44C774.122 127.425 774.182 127.304 774.182 127.167C774.182 127 774.046 127 773.985 127C773.773 127 773.5 127.03 773.287 127.03H772.574C771.633 127.03 771.147 127 771.132 127C771.041 127 770.859 127 770.859 127.288C770.859 127.44 770.981 127.44 771.087 127.44C771.997 127.47 772.058 127.819 772.058 128.093C772.058 128.229 772.058 128.275 771.997 128.487L770.647 133.874Z" fill="white"/>
<path d="M245.863 30.2526C245.863 30.009 245.846 30 245.615 30C245.265 30.3609 244.812 30.5774 244 30.5774V30.8752C244.231 30.8752 244.692 30.8752 245.188 30.6316V35.2602C245.188 35.594 245.162 35.7023 244.35 35.7023H244.051V36C244.402 35.9729 245.137 35.9729 245.521 35.9729C245.906 35.9729 246.65 35.9729 247 36V35.7023H246.701C245.889 35.7023 245.863 35.594 245.863 35.2602V30.2526Z" fill="black"/>
<path d="M242.647 28.8743C242.116 30.9988 240.355 32.2431 238.929 32.2431C237.836 32.2431 237.093 31.5147 237.093 30.2552C237.093 30.1945 237.093 29.7393 237.26 29.0716L238.747 23.1078C238.883 22.5918 238.914 22.4401 239.991 22.4401C240.264 22.4401 240.416 22.4401 240.416 22.1669C240.416 22 240.279 22 240.188 22C239.915 22 239.596 22.0304 239.308 22.0304H237.518C237.229 22.0304 236.911 22 236.622 22C236.516 22 236.334 22 236.334 22.2883C236.334 22.4401 236.44 22.4401 236.728 22.4401C237.639 22.4401 237.639 22.5615 237.639 22.7284C237.639 22.8195 237.533 23.2595 237.457 23.5175L236.137 28.8288C236.091 28.9957 236 29.4054 236 29.8151C236 31.4844 237.199 32.6832 238.853 32.6832C240.386 32.6832 242.085 31.4692 242.859 29.542C242.965 29.284 243.102 28.7529 243.193 28.3432C243.345 27.7969 243.663 26.4615 243.77 26.0669L244.346 23.7907C244.544 23.0016 244.665 22.5008 246 22.4401C246.122 22.4249 246.182 22.3035 246.182 22.1669C246.182 22 246.046 22 245.985 22C245.773 22 245.5 22.0304 245.287 22.0304H244.574C243.633 22.0304 243.147 22 243.132 22C243.041 22 242.859 22 242.859 22.2883C242.859 22.4401 242.981 22.4401 243.087 22.4401C243.997 22.4704 244.058 22.8195 244.058 23.0926C244.058 23.2292 244.058 23.2747 243.997 23.4872L242.647 28.8743Z" fill="black"/>
<path d="M238 19.9939C238 19.4578 238.175 18.9951 238.526 18.6059C238.876 18.2166 239.293 18.0184 239.775 18.011C240.103 18.011 240.396 18.0698 240.651 18.1873C240.907 18.3048 241.265 18.5435 241.725 18.9033C241.988 19.1016 242.174 19.2411 242.284 19.3219C242.393 19.4027 242.565 19.4908 242.799 19.5863C243.032 19.6818 243.255 19.7295 243.467 19.7295H243.511C243.912 19.7295 244.256 19.5936 244.541 19.3219C244.825 19.0502 244.979 18.7234 245.001 18.3415C245.001 18.1138 245.052 18 245.154 18C245.256 18 245.307 18.1175 245.307 18.3525C245.307 18.9107 245.128 19.3807 244.771 19.7626C244.413 20.1444 244.015 20.3391 243.576 20.3464H243.467C243.145 20.3464 242.82 20.2583 242.492 20.082C242.163 19.9058 241.878 19.7075 241.637 19.4872C241.396 19.2668 241.115 19.0722 240.794 18.9033C240.472 18.7344 240.155 18.6426 239.841 18.6279H239.797C239.395 18.6279 239.041 18.7748 238.734 19.0686C238.508 19.3182 238.372 19.5826 238.329 19.8617C238.285 20.1408 238.252 20.295 238.23 20.3244C238.208 20.3537 238.183 20.3648 238.153 20.3574C238.051 20.3574 238 20.2362 238 19.9939Z" fill="black"/>
<path d="M463.16 34.1594C463.311 34.0241 463.708 33.7263 463.858 33.6C464.443 33.0857 465 32.5895 465 31.7684C465 30.6947 464.057 30 462.877 30C461.745 30 461 30.8211 461 31.6241C461 32.0662 461.368 32.1293 461.5 32.1293C461.698 32.1293 461.991 31.994 461.991 31.6511C461.991 31.182 461.519 31.182 461.406 31.182C461.679 30.5233 462.311 30.2977 462.774 30.2977C463.651 30.2977 464.104 31.0105 464.104 31.7684C464.104 32.7068 463.415 33.3925 462.302 34.4842L461.113 35.6571C461 35.7564 461 35.7744 461 36H464.726L465 34.385H464.708C464.679 34.5654 464.604 35.0165 464.491 35.188C464.434 35.2602 463.717 35.2602 463.566 35.2602H461.887L463.16 34.1594Z" fill="black"/>
<path d="M459.647 28.8743C459.116 30.9988 457.355 32.2431 455.929 32.2431C454.836 32.2431 454.093 31.5147 454.093 30.2552C454.093 30.1945 454.093 29.7393 454.26 29.0716L455.747 23.1078C455.883 22.5918 455.914 22.4401 456.991 22.4401C457.264 22.4401 457.416 22.4401 457.416 22.1669C457.416 22 457.279 22 457.188 22C456.915 22 456.596 22.0304 456.308 22.0304H454.518C454.229 22.0304 453.911 22 453.622 22C453.516 22 453.334 22 453.334 22.2883C453.334 22.4401 453.44 22.4401 453.728 22.4401C454.639 22.4401 454.639 22.5615 454.639 22.7284C454.639 22.8195 454.533 23.2595 454.457 23.5175L453.137 28.8288C453.091 28.9957 453 29.4054 453 29.8151C453 31.4844 454.199 32.6832 455.853 32.6832C457.386 32.6832 459.085 31.4692 459.859 29.542C459.965 29.284 460.102 28.7529 460.193 28.3432C460.345 27.7969 460.663 26.4615 460.77 26.0669L461.346 23.7907C461.544 23.0016 461.665 22.5008 463 22.4401C463.122 22.4249 463.182 22.3035 463.182 22.1669C463.182 22 463.046 22 462.985 22C462.773 22 462.5 22.0304 462.287 22.0304H461.574C460.633 22.0304 460.147 22 460.132 22C460.041 22 459.859 22 459.859 22.2883C459.859 22.4401 459.981 22.4401 460.087 22.4401C460.997 22.4704 461.058 22.8195 461.058 23.0926C461.058 23.2292 461.058 23.2747 460.997 23.4872L459.647 28.8743Z" fill="black"/>
<path d="M455 19.9939C455 19.4578 455.175 18.9951 455.526 18.6059C455.876 18.2166 456.293 18.0184 456.775 18.011C457.103 18.011 457.396 18.0698 457.651 18.1873C457.907 18.3048 458.265 18.5435 458.725 18.9033C458.988 19.1016 459.174 19.2411 459.284 19.3219C459.393 19.4027 459.565 19.4908 459.799 19.5863C460.032 19.6818 460.255 19.7295 460.467 19.7295H460.511C460.912 19.7295 461.256 19.5936 461.541 19.3219C461.825 19.0502 461.979 18.7234 462.001 18.3415C462.001 18.1138 462.052 18 462.154 18C462.256 18 462.307 18.1175 462.307 18.3525C462.307 18.9107 462.128 19.3807 461.771 19.7626C461.413 20.1444 461.015 20.3391 460.576 20.3464H460.467C460.145 20.3464 459.82 20.2583 459.492 20.082C459.163 19.9058 458.878 19.7075 458.637 19.4872C458.396 19.2668 458.115 19.0722 457.794 18.9033C457.472 18.7344 457.155 18.6426 456.841 18.6279H456.797C456.395 18.6279 456.041 18.7748 455.734 19.0686C455.508 19.3182 455.372 19.5826 455.329 19.8617C455.285 20.1408 455.252 20.295 455.23 20.3244C455.208 20.3537 455.183 20.3648 455.153 20.3574C455.051 20.3574 455 20.2362 455 19.9939Z" fill="black"/>
<path d="M752.195 29.3035C752.205 29.2833 752.236 29.1518 752.236 29.1416C752.236 29.0911 752.195 29 752.074 29L751.052 29.0809C750.678 29.1113 750.597 29.1214 750.597 29.3035C750.597 29.4451 750.739 29.4451 750.86 29.4451C751.346 29.4451 751.346 29.5058 751.346 29.5969C751.346 29.6272 751.346 29.6475 751.295 29.8296L750.04 34.8474C750 35.0093 750 35.1611 750 35.1712C750 35.7984 750.516 36.1221 751.022 36.1221C751.457 36.1221 751.689 35.7782 751.801 35.5556C751.983 35.2218 752.135 34.6249 752.135 34.5743C752.135 34.5136 752.104 34.4428 751.973 34.4428C751.882 34.4428 751.851 34.4934 751.851 34.5035C751.831 34.5338 751.781 34.7159 751.75 34.8272C751.598 35.414 751.406 35.8389 751.042 35.8389C750.799 35.8389 750.728 35.6062 750.728 35.3634C750.728 35.1712 750.759 35.0599 750.789 34.9284L752.195 29.3035Z" fill="black"/>
<path d="M748.647 28.8743C748.116 30.9988 746.355 32.2431 744.929 32.2431C743.836 32.2431 743.093 31.5147 743.093 30.2552C743.093 30.1945 743.093 29.7393 743.26 29.0716L744.747 23.1078C744.883 22.5918 744.914 22.4401 745.991 22.4401C746.264 22.4401 746.416 22.4401 746.416 22.1669C746.416 22 746.279 22 746.188 22C745.915 22 745.596 22.0304 745.308 22.0304H743.518C743.229 22.0304 742.911 22 742.622 22C742.516 22 742.334 22 742.334 22.2883C742.334 22.4401 742.44 22.4401 742.728 22.4401C743.639 22.4401 743.639 22.5615 743.639 22.7284C743.639 22.8195 743.533 23.2595 743.457 23.5175L742.137 28.8288C742.091 28.9957 742 29.4054 742 29.8151C742 31.4844 743.199 32.6832 744.853 32.6832C746.386 32.6832 748.085 31.4692 748.859 29.542C748.965 29.284 749.102 28.7529 749.193 28.3432C749.345 27.7969 749.663 26.4615 749.77 26.0669L750.346 23.7907C750.544 23.0016 750.665 22.5008 752 22.4401C752.122 22.4249 752.182 22.3035 752.182 22.1669C752.182 22 752.046 22 751.985 22C751.773 22 751.5 22.0304 751.287 22.0304H750.574C749.633 22.0304 749.147 22 749.132 22C749.041 22 748.859 22 748.859 22.2883C748.859 22.4401 748.981 22.4401 749.087 22.4401C749.997 22.4704 750.058 22.8195 750.058 23.0926C750.058 23.2292 750.058 23.2747 749.997 23.4872L748.647 28.8743Z" fill="black"/>
<path d="M744 19.9939C744 19.4578 744.175 18.9951 744.526 18.6059C744.876 18.2166 745.293 18.0184 745.775 18.011C746.103 18.011 746.396 18.0698 746.651 18.1873C746.907 18.3048 747.265 18.5435 747.725 18.9033C747.988 19.1016 748.174 19.2411 748.284 19.3219C748.393 19.4027 748.565 19.4908 748.799 19.5863C749.032 19.6818 749.255 19.7295 749.467 19.7295H749.511C749.912 19.7295 750.256 19.5936 750.541 19.3219C750.825 19.0502 750.979 18.7234 751.001 18.3415C751.001 18.1138 751.052 18 751.154 18C751.256 18 751.307 18.1175 751.307 18.3525C751.307 18.9107 751.128 19.3807 750.771 19.7626C750.413 20.1444 750.015 20.3391 749.576 20.3464H749.467C749.145 20.3464 748.82 20.2583 748.492 20.082C748.163 19.9058 747.878 19.7075 747.637 19.4872C747.396 19.2668 747.115 19.0722 746.794 18.9033C746.472 18.7344 746.155 18.6426 745.841 18.6279H745.797C745.395 18.6279 745.041 18.7748 744.734 19.0686C744.508 19.3182 744.372 19.5826 744.329 19.8617C744.285 20.1408 744.252 20.295 744.23 20.3244C744.208 20.3537 744.183 20.3648 744.153 20.3574C744.051 20.3574 744 20.2362 744 19.9939Z" fill="black"/>
</g>
<defs>
<clipPath id="clip0_37_4394">
<rect width="975" height="267" fill="white"/>
</clipPath>
</defs>
</svg>
