<svg width="603" height="222" viewBox="0 0 603 222" fill="none" xmlns="http://www.w3.org/2000/svg">
<g clip-path="url(#clip0_65_4433)">
<rect x="0.5" y="0.5" width="602" height="221" fill="white" fill-opacity="0.8" stroke="#DDE1E6"/>
<rect opacity="0.4" y="205" width="602" height="16" fill="#F2F4F8"/>
<rect opacity="0.4" y="123" width="602" height="41" fill="#F2F4F8"/>
<rect opacity="0.4" y="41" width="602" height="41" fill="#F2F4F8"/>
<path d="M26.478 159V154.576H30.72V153.54H26.478V150.264H31.126V149.228H25.302V159H26.478ZM36.7403 159V158.02H35.3683V150.208H36.7403V149.228H32.8203V150.208H34.1923V158.02H32.8203V159H36.7403ZM45.3758 159H46.4678V153.974H43.1638V155.01H45.3198V155.976C45.3198 157.418 44.1858 158.118 42.8278 158.118C40.9658 158.118 39.8178 156.83 39.8178 154.898V153.316C39.8178 151.384 40.9938 150.11 42.7158 150.11C43.9478 150.11 44.8578 150.754 45.3058 151.79L46.2718 151.202C45.6418 149.928 44.4658 149.06 42.7158 149.06C40.2098 149.06 38.5578 150.866 38.5578 154.114C38.5578 157.39 40.2238 159.168 42.6178 159.168C44.1018 159.168 45.0958 158.482 45.3338 157.572H45.3758V159ZM58.7668 159V157.964H56.2467V149.228H54.4127L51.8227 151.65L52.5087 152.392L54.9727 150.096H55.0707V157.964H52.3407V159H58.7668ZM61.5673 159.168C62.1553 159.168 62.4213 158.832 62.4213 158.356V158.174C62.4213 157.698 62.1553 157.362 61.5673 157.362C60.9793 157.362 60.7133 157.698 60.7133 158.174V158.356C60.7133 158.832 60.9793 159.168 61.5673 159.168ZM71.8663 159V158.02H70.4943V150.208H71.8663V149.228H67.9463V150.208H69.3183V158.02H67.9463V159H71.8663ZM76.2458 159V158.02H75.1818V148.64H74.0618V157.838C74.0618 158.51 74.4818 159 75.2518 159H76.2458ZM80.1519 159V158.02H79.0879V148.64H77.9679V157.838C77.9679 158.51 78.3879 159 79.1579 159H80.1519ZM86.3943 159H87.5143V151.776H86.3943V156.774C86.3943 157.726 85.5263 158.16 84.6443 158.16C83.5663 158.16 82.9923 157.502 82.9923 156.214V151.776H81.8723V156.41C81.8723 158.16 82.8243 159.168 84.3083 159.168C85.5123 159.168 86.0583 158.51 86.3383 157.824H86.3943V159ZM92.2294 159.168C93.8814 159.168 94.9034 158.314 94.9034 156.914C94.9034 155.822 94.2874 155.122 92.6914 154.884L92.1314 154.8C91.2354 154.66 90.7454 154.38 90.7454 153.68C90.7454 152.994 91.2354 152.56 92.1594 152.56C93.0834 152.56 93.6994 152.994 94.0214 153.442L94.7634 152.77C94.1754 152.042 93.4054 151.608 92.2434 151.608C90.7734 151.608 89.6674 152.308 89.6674 153.736C89.6674 155.08 90.6614 155.626 91.9914 155.822L92.5654 155.906C93.5174 156.046 93.8254 156.48 93.8254 157.04C93.8254 157.782 93.2654 158.216 92.3134 158.216C91.4034 158.216 90.7314 157.81 90.1714 157.11L89.3734 157.754C90.0174 158.608 90.8994 159.168 92.2294 159.168ZM99.9419 159V158.02H98.4719V152.756H100.054V151.776H98.4719V149.774H97.4639V151.118C97.4639 151.608 97.3099 151.776 96.8339 151.776H96.1619V152.756H97.3519V157.81C97.3519 158.51 97.7719 159 98.5419 159H99.9419ZM103.134 159V154.1C103.134 153.414 103.862 152.896 105.066 152.896H105.724V151.776H105.29C104.114 151.776 103.456 152.42 103.204 153.106H103.134V151.776H102.014V159H103.134ZM113.14 159V158.02H112.314V154.044C112.314 152.518 111.278 151.608 109.542 151.608C108.24 151.608 107.372 152.252 106.98 153.022L107.652 153.652C108.044 152.994 108.618 152.574 109.486 152.574C110.634 152.574 111.194 153.134 111.194 154.156V154.87H109.766C107.666 154.87 106.686 155.626 106.686 156.984C106.686 158.328 107.582 159.168 109.108 159.168C110.116 159.168 110.886 158.706 111.194 157.824H111.264C111.348 158.496 111.684 159 112.51 159H113.14ZM109.29 158.216C108.422 158.216 107.862 157.81 107.862 157.096V156.802C107.862 156.102 108.436 155.71 109.71 155.71H111.194V156.9C111.194 157.642 110.396 158.216 109.29 158.216ZM117.895 159V158.02H116.425V152.756H118.007V151.776H116.425V149.774H115.417V151.118C115.417 151.608 115.263 151.776 114.787 151.776H114.115V152.756H115.305V157.81C115.305 158.51 115.725 159 116.495 159H117.895ZM120.527 150.082C121.003 150.082 121.213 149.83 121.213 149.452V149.27C121.213 148.892 121.003 148.64 120.527 148.64C120.051 148.64 119.841 148.892 119.841 149.27V149.452C119.841 149.83 120.051 150.082 120.527 150.082ZM119.967 159H121.087V151.776H119.967V159ZM126.357 159.168C128.289 159.168 129.619 157.684 129.619 155.388C129.619 153.092 128.289 151.608 126.357 151.608C124.425 151.608 123.095 153.092 123.095 155.388C123.095 157.684 124.425 159.168 126.357 159.168ZM126.357 158.174C125.153 158.174 124.299 157.432 124.299 155.906V154.87C124.299 153.344 125.153 152.602 126.357 152.602C127.561 152.602 128.415 153.344 128.415 154.87V155.906C128.415 157.432 127.561 158.174 126.357 158.174ZM132.741 159V153.988C132.741 153.064 133.609 152.616 134.505 152.616C135.583 152.616 136.143 153.274 136.143 154.562V159H137.263V154.366C137.263 152.616 136.325 151.608 134.841 151.608C133.763 151.608 133.147 152.14 132.797 152.952H132.741V151.776H131.621V159H132.741ZM145.936 159.168C147.868 159.168 149.198 157.684 149.198 155.388C149.198 153.092 147.868 151.608 145.936 151.608C144.004 151.608 142.674 153.092 142.674 155.388C142.674 157.684 144.004 159.168 145.936 159.168ZM145.936 158.174C144.732 158.174 143.878 157.432 143.878 155.906V154.87C143.878 153.344 144.732 152.602 145.936 152.602C147.14 152.602 147.994 153.344 147.994 154.87V155.906C147.994 157.432 147.14 158.174 145.936 158.174ZM151.51 159H152.63V152.756H154.184V151.776H152.63V149.62H154.184V148.64H153.092C152.028 148.64 151.51 149.326 151.51 150.32V151.776H150.334V152.756H151.51V159ZM162.282 159V158.02H160.812V152.756H162.394V151.776H160.812V149.774H159.804V151.118C159.804 151.608 159.65 151.776 159.174 151.776H158.502V152.756H159.692V157.81C159.692 158.51 160.112 159 160.882 159H162.282ZM164.354 159H165.474V153.988C165.474 153.064 166.342 152.616 167.238 152.616C168.316 152.616 168.876 153.274 168.876 154.562V159H169.996V154.366C169.996 152.616 169.058 151.608 167.574 151.608C166.496 151.608 165.88 152.14 165.53 152.952H165.474V148.64H164.354V159ZM175.187 159.168C176.545 159.168 177.581 158.496 178.043 157.516L177.245 156.942C176.867 157.74 176.167 158.188 175.257 158.188C173.913 158.188 173.115 157.25 173.115 156.004V155.668H178.309V155.136C178.309 153.092 177.119 151.608 175.187 151.608C173.227 151.608 171.939 153.092 171.939 155.388C171.939 157.684 173.227 159.168 175.187 159.168ZM175.187 152.546C176.335 152.546 177.105 153.4 177.105 154.674V154.828H173.115V154.73C173.115 153.47 173.969 152.546 175.187 152.546ZM183.755 154.632C183.755 157.362 184.903 159.742 186.289 160.918H187.353C185.841 159.574 184.805 157.208 184.805 155.248V154.044C184.805 152.084 185.799 149.76 187.353 148.36H186.289C184.861 149.578 183.755 151.93 183.755 154.632ZM194.513 159V158.02H193.687V154.044C193.687 152.518 192.651 151.608 190.915 151.608C189.613 151.608 188.745 152.252 188.353 153.022L189.025 153.652C189.417 152.994 189.991 152.574 190.859 152.574C192.007 152.574 192.567 153.134 192.567 154.156V154.87H191.139C189.039 154.87 188.059 155.626 188.059 156.984C188.059 158.328 188.955 159.168 190.481 159.168C191.489 159.168 192.259 158.706 192.567 157.824H192.637C192.721 158.496 193.057 159 193.883 159H194.513ZM190.663 158.216C189.795 158.216 189.235 157.81 189.235 157.096V156.802C189.235 156.102 189.809 155.71 191.083 155.71H192.567V156.9C192.567 157.642 191.769 158.216 190.663 158.216ZM198.609 154.632C198.609 151.93 197.503 149.578 196.075 148.36H195.011C196.565 149.76 197.559 152.084 197.559 154.044V155.248C197.559 157.208 196.523 159.574 195.011 160.918H196.075C197.461 159.742 198.609 157.362 198.609 154.632ZM205.709 159V153.988C205.709 153.064 206.549 152.616 207.431 152.616C208.495 152.616 208.985 153.274 208.985 154.562V159H210.105V153.988C210.105 153.064 210.917 152.616 211.799 152.616C212.891 152.616 213.381 153.288 213.381 154.562V159H214.501V154.366C214.501 152.616 213.619 151.608 212.149 151.608C210.917 151.608 210.217 152.294 209.951 153.078H209.923C209.531 152.042 208.663 151.608 207.711 151.608C206.591 151.608 206.087 152.21 205.765 152.952H205.709V151.776H204.589V159H205.709ZM219.688 159.168C221.046 159.168 222.082 158.496 222.544 157.516L221.746 156.942C221.368 157.74 220.668 158.188 219.758 158.188C218.414 158.188 217.616 157.25 217.616 156.004V155.668H222.81V155.136C222.81 153.092 221.62 151.608 219.688 151.608C217.728 151.608 216.44 153.092 216.44 155.388C216.44 157.684 217.728 159.168 219.688 159.168ZM219.688 152.546C220.836 152.546 221.606 153.4 221.606 154.674V154.828H217.616V154.73C217.616 153.47 218.47 152.546 219.688 152.546ZM230.696 159V158.02H229.87V154.044C229.87 152.518 228.834 151.608 227.098 151.608C225.796 151.608 224.928 152.252 224.536 153.022L225.208 153.652C225.6 152.994 226.174 152.574 227.042 152.574C228.19 152.574 228.75 153.134 228.75 154.156V154.87H227.322C225.222 154.87 224.242 155.626 224.242 156.984C224.242 158.328 225.138 159.168 226.664 159.168C227.672 159.168 228.442 158.706 228.75 157.824H228.82C228.904 158.496 229.24 159 230.066 159H230.696ZM226.846 158.216C225.978 158.216 225.418 157.81 225.418 157.096V156.802C225.418 156.102 225.992 155.71 227.266 155.71H228.75V156.9C228.75 157.642 227.952 158.216 226.846 158.216ZM234.624 159.168C236.276 159.168 237.298 158.314 237.298 156.914C237.298 155.822 236.682 155.122 235.086 154.884L234.526 154.8C233.63 154.66 233.14 154.38 233.14 153.68C233.14 152.994 233.63 152.56 234.554 152.56C235.478 152.56 236.094 152.994 236.416 153.442L237.158 152.77C236.57 152.042 235.8 151.608 234.638 151.608C233.168 151.608 232.062 152.308 232.062 153.736C232.062 155.08 233.056 155.626 234.386 155.822L234.96 155.906C235.912 156.046 236.22 156.48 236.22 157.04C236.22 157.782 235.66 158.216 234.708 158.216C233.798 158.216 233.126 157.81 232.566 157.11L231.768 157.754C232.412 158.608 233.294 159.168 234.624 159.168ZM243.888 159H245.008V151.776H243.888V156.774C243.888 157.726 243.02 158.16 242.138 158.16C241.06 158.16 240.486 157.502 240.486 156.214V151.776H239.366V156.41C239.366 158.16 240.318 159.168 241.802 159.168C243.006 159.168 243.552 158.51 243.832 157.824H243.888V159ZM248.674 159V154.1C248.674 153.414 249.402 152.896 250.606 152.896H251.264V151.776H250.83C249.654 151.776 248.996 152.42 248.744 153.106H248.674V151.776H247.554V159H248.674ZM255.502 159.168C256.86 159.168 257.896 158.496 258.358 157.516L257.56 156.942C257.182 157.74 256.482 158.188 255.572 158.188C254.228 158.188 253.43 157.25 253.43 156.004V155.668H258.624V155.136C258.624 153.092 257.434 151.608 255.502 151.608C253.542 151.608 252.254 153.092 252.254 155.388C252.254 157.684 253.542 159.168 255.502 159.168ZM255.502 152.546C256.65 152.546 257.42 153.4 257.42 154.674V154.828H253.43V154.73C253.43 153.47 254.284 152.546 255.502 152.546ZM261.749 159V153.988C261.749 153.064 262.589 152.616 263.471 152.616C264.535 152.616 265.025 153.274 265.025 154.562V159H266.145V153.988C266.145 153.064 266.957 152.616 267.839 152.616C268.931 152.616 269.421 153.288 269.421 154.562V159H270.541V154.366C270.541 152.616 269.659 151.608 268.189 151.608C266.957 151.608 266.257 152.294 265.991 153.078H265.963C265.571 152.042 264.703 151.608 263.751 151.608C262.631 151.608 262.127 152.21 261.805 152.952H261.749V151.776H260.629V159H261.749ZM275.728 159.168C277.086 159.168 278.122 158.496 278.584 157.516L277.786 156.942C277.408 157.74 276.708 158.188 275.798 158.188C274.454 158.188 273.656 157.25 273.656 156.004V155.668H278.85V155.136C278.85 153.092 277.66 151.608 275.728 151.608C273.768 151.608 272.48 153.092 272.48 155.388C272.48 157.684 273.768 159.168 275.728 159.168ZM275.728 152.546C276.876 152.546 277.646 153.4 277.646 154.674V154.828H273.656V154.73C273.656 153.47 274.51 152.546 275.728 152.546ZM281.976 159V153.988C281.976 153.064 282.844 152.616 283.74 152.616C284.818 152.616 285.378 153.274 285.378 154.562V159H286.498V154.366C286.498 152.616 285.56 151.608 284.076 151.608C282.998 151.608 282.382 152.14 282.032 152.952H281.976V151.776H280.856V159H281.976ZM291.969 159V158.02H290.499V152.756H292.081V151.776H290.499V149.774H289.491V151.118C289.491 151.608 289.337 151.776 288.861 151.776H288.189V152.756H289.379V157.81C289.379 158.51 289.799 159 290.569 159H291.969ZM303.389 159V158.02H302.563V154.044C302.563 152.518 301.527 151.608 299.791 151.608C298.489 151.608 297.621 152.252 297.229 153.022L297.901 153.652C298.293 152.994 298.867 152.574 299.735 152.574C300.883 152.574 301.443 153.134 301.443 154.156V154.87H300.015C297.915 154.87 296.935 155.626 296.935 156.984C296.935 158.328 297.831 159.168 299.357 159.168C300.365 159.168 301.135 158.706 301.443 157.824H301.513C301.597 158.496 301.933 159 302.759 159H303.389ZM299.539 158.216C298.671 158.216 298.111 157.81 298.111 157.096V156.802C298.111 156.102 298.685 155.71 299.959 155.71H301.443V156.9C301.443 157.642 300.645 158.216 299.539 158.216ZM306.268 159V153.988C306.268 153.064 307.136 152.616 308.032 152.616C309.11 152.616 309.67 153.274 309.67 154.562V159H310.79V154.366C310.79 152.616 309.852 151.608 308.368 151.608C307.29 151.608 306.674 152.14 306.324 152.952H306.268V151.776H305.148V159H306.268ZM317.885 159H319.005V148.64H317.885V152.952H317.829C317.451 152.042 316.709 151.608 315.715 151.608C313.909 151.608 312.775 153.078 312.775 155.388C312.775 157.698 313.909 159.168 315.715 159.168C316.709 159.168 317.395 158.72 317.829 157.824H317.885V159ZM316.023 158.16C314.763 158.16 313.979 157.292 313.979 156.004V154.772C313.979 153.484 314.763 152.616 316.023 152.616C317.045 152.616 317.885 153.204 317.885 154.002V156.69C317.885 157.628 317.045 158.16 316.023 158.16ZM324.987 154.632C324.987 157.362 326.135 159.742 327.521 160.918H328.585C327.073 159.574 326.037 157.208 326.037 155.248V154.044C326.037 152.084 327.031 149.76 328.585 148.36H327.521C326.093 149.578 324.987 151.93 324.987 154.632ZM329.864 159H330.984V157.824H331.04C331.474 158.72 332.16 159.168 333.154 159.168C334.96 159.168 336.094 157.698 336.094 155.388C336.094 153.078 334.96 151.608 333.154 151.608C332.16 151.608 331.418 152.042 331.04 152.952H330.984V148.64H329.864V159ZM332.846 158.16C331.824 158.16 330.984 157.628 330.984 156.69V154.002C330.984 153.204 331.824 152.616 332.846 152.616C334.106 152.616 334.89 153.484 334.89 154.772V156.004C334.89 157.292 334.106 158.16 332.846 158.16ZM340.483 154.632C340.483 151.93 339.377 149.578 337.949 148.36H336.885C338.439 149.76 339.433 152.084 339.433 154.044V155.248C339.433 157.208 338.397 159.574 336.885 160.918H337.949C339.335 159.742 340.483 157.362 340.483 154.632ZM349.151 159.168C350.523 159.168 351.461 158.496 351.923 157.46L351.111 156.914C350.719 157.74 350.061 158.174 349.151 158.174C347.821 158.174 347.135 157.264 347.135 156.004V154.772C347.135 153.512 347.821 152.602 349.151 152.602C350.033 152.602 350.649 153.036 350.915 153.778L351.853 153.302C351.433 152.308 350.579 151.608 349.151 151.608C347.121 151.608 345.931 153.078 345.931 155.388C345.931 157.698 347.121 159.168 349.151 159.168ZM359.544 159V158.02H358.718V154.044C358.718 152.518 357.682 151.608 355.946 151.608C354.644 151.608 353.776 152.252 353.384 153.022L354.056 153.652C354.448 152.994 355.022 152.574 355.89 152.574C357.038 152.574 357.598 153.134 357.598 154.156V154.87H356.17C354.07 154.87 353.09 155.626 353.09 156.984C353.09 158.328 353.986 159.168 355.512 159.168C356.52 159.168 357.29 158.706 357.598 157.824H357.668C357.752 158.496 358.088 159 358.914 159H359.544ZM355.694 158.216C354.826 158.216 354.266 157.81 354.266 157.096V156.802C354.266 156.102 354.84 155.71 356.114 155.71H357.598V156.9C357.598 157.642 356.8 158.216 355.694 158.216ZM363.487 159V158.02H362.423V148.64H361.303V157.838C361.303 158.51 361.723 159 362.493 159H363.487ZM365.837 150.082C366.313 150.082 366.523 149.83 366.523 149.452V149.27C366.523 148.892 366.313 148.64 365.837 148.64C365.361 148.64 365.151 148.892 365.151 149.27V149.452C365.151 149.83 365.361 150.082 365.837 150.082ZM365.277 159H366.397V151.776H365.277V159ZM368.937 159H370.057V157.824H370.113C370.547 158.72 371.233 159.168 372.227 159.168C374.033 159.168 375.167 157.698 375.167 155.388C375.167 153.078 374.033 151.608 372.227 151.608C371.233 151.608 370.491 152.042 370.113 152.952H370.057V148.64H368.937V159ZM371.919 158.16C370.897 158.16 370.057 157.628 370.057 156.69V154.002C370.057 153.204 370.897 152.616 371.919 152.616C373.179 152.616 373.963 153.484 373.963 154.772V156.004C373.963 157.292 373.179 158.16 371.919 158.16ZM378.338 159V154.1C378.338 153.414 379.066 152.896 380.27 152.896H380.928V151.776H380.494C379.318 151.776 378.66 152.42 378.408 153.106H378.338V151.776H377.218V159H378.338ZM388.344 159V158.02H387.518V154.044C387.518 152.518 386.482 151.608 384.746 151.608C383.444 151.608 382.576 152.252 382.184 153.022L382.856 153.652C383.248 152.994 383.822 152.574 384.69 152.574C385.838 152.574 386.398 153.134 386.398 154.156V154.87H384.97C382.87 154.87 381.89 155.626 381.89 156.984C381.89 158.328 382.786 159.168 384.312 159.168C385.32 159.168 386.09 158.706 386.398 157.824H386.468C386.552 158.496 386.888 159 387.714 159H388.344ZM384.494 158.216C383.626 158.216 383.066 157.81 383.066 157.096V156.802C383.066 156.102 383.64 155.71 384.914 155.71H386.398V156.9C386.398 157.642 385.6 158.216 384.494 158.216ZM393.099 159V158.02H391.629V152.756H393.211V151.776H391.629V149.774H390.621V151.118C390.621 151.608 390.467 151.776 389.991 151.776H389.319V152.756H390.509V157.81C390.509 158.51 390.929 159 391.699 159H393.099ZM395.731 150.082C396.207 150.082 396.417 149.83 396.417 149.452V149.27C396.417 148.892 396.207 148.64 395.731 148.64C395.255 148.64 395.045 148.892 395.045 149.27V149.452C395.045 149.83 395.255 150.082 395.731 150.082ZM395.171 159H396.291V151.776H395.171V159ZM401.561 159.168C403.493 159.168 404.823 157.684 404.823 155.388C404.823 153.092 403.493 151.608 401.561 151.608C399.629 151.608 398.299 153.092 398.299 155.388C398.299 157.684 399.629 159.168 401.561 159.168ZM401.561 158.174C400.357 158.174 399.503 157.432 399.503 155.906V154.87C399.503 153.344 400.357 152.602 401.561 152.602C402.765 152.602 403.619 153.344 403.619 154.87V155.906C403.619 157.432 402.765 158.174 401.561 158.174ZM407.945 159V153.988C407.945 153.064 408.813 152.616 409.709 152.616C410.787 152.616 411.347 153.274 411.347 154.562V159H412.467V154.366C412.467 152.616 411.529 151.608 410.045 151.608C408.967 151.608 408.351 152.14 408.001 152.952H407.945V151.776H406.825V159H407.945ZM421.099 159.168C422.471 159.168 423.409 158.496 423.871 157.46L423.059 156.914C422.667 157.74 422.009 158.174 421.099 158.174C419.769 158.174 419.083 157.264 419.083 156.004V154.772C419.083 153.512 419.769 152.602 421.099 152.602C421.981 152.602 422.597 153.036 422.863 153.778L423.801 153.302C423.381 152.308 422.527 151.608 421.099 151.608C419.069 151.608 417.879 153.078 417.879 155.388C417.879 157.698 419.069 159.168 421.099 159.168ZM426.172 150.082C426.648 150.082 426.858 149.83 426.858 149.452V149.27C426.858 148.892 426.648 148.64 426.172 148.64C425.696 148.64 425.486 148.892 425.486 149.27V149.452C425.486 149.83 425.696 150.082 426.172 150.082ZM425.612 159H426.732V151.776H425.612V159ZM430.392 159V154.1C430.392 153.414 431.12 152.896 432.324 152.896H432.982V151.776H432.548C431.372 151.776 430.714 152.42 430.462 153.106H430.392V151.776H429.272V159H430.392ZM437.192 159.168C438.564 159.168 439.502 158.496 439.964 157.46L439.152 156.914C438.76 157.74 438.102 158.174 437.192 158.174C435.862 158.174 435.176 157.264 435.176 156.004V154.772C435.176 153.512 435.862 152.602 437.192 152.602C438.074 152.602 438.69 153.036 438.956 153.778L439.894 153.302C439.474 152.308 438.62 151.608 437.192 151.608C435.162 151.608 433.972 153.078 433.972 155.388C433.972 157.698 435.162 159.168 437.192 159.168ZM446.157 159H447.277V151.776H446.157V156.774C446.157 157.726 445.289 158.16 444.407 158.16C443.329 158.16 442.755 157.502 442.755 156.214V151.776H441.635V156.41C441.635 158.16 442.587 159.168 444.071 159.168C445.275 159.168 445.821 158.51 446.101 157.824H446.157V159ZM450.382 150.082C450.858 150.082 451.068 149.83 451.068 149.452V149.27C451.068 148.892 450.858 148.64 450.382 148.64C449.906 148.64 449.696 148.892 449.696 149.27V149.452C449.696 149.83 449.906 150.082 450.382 150.082ZM449.822 159H450.942V151.776H449.822V159ZM456.478 159V158.02H455.008V152.756H456.59V151.776H455.008V149.774H454V151.118C454 151.608 453.846 151.776 453.37 151.776H452.698V152.756H453.888V157.81C453.888 158.51 454.308 159 455.078 159H456.478ZM460.72 159.168C462.372 159.168 463.394 158.314 463.394 156.914C463.394 155.822 462.778 155.122 461.182 154.884L460.622 154.8C459.726 154.66 459.236 154.38 459.236 153.68C459.236 152.994 459.726 152.56 460.65 152.56C461.574 152.56 462.19 152.994 462.512 153.442L463.254 152.77C462.666 152.042 461.896 151.608 460.734 151.608C459.264 151.608 458.158 152.308 458.158 153.736C458.158 155.08 459.152 155.626 460.482 155.822L461.056 155.906C462.008 156.046 462.316 156.48 462.316 157.04C462.316 157.782 461.756 158.216 460.804 158.216C459.894 158.216 459.222 157.81 458.662 157.11L457.864 157.754C458.508 158.608 459.39 159.168 460.72 159.168ZM473.453 159H474.573V151.776H473.453V156.774C473.453 157.726 472.585 158.16 471.703 158.16C470.625 158.16 470.051 157.502 470.051 156.214V151.776H468.931V156.41C468.931 158.16 469.883 159.168 471.367 159.168C472.571 159.168 473.117 158.51 473.397 157.824H473.453V159ZM479.288 159.168C480.94 159.168 481.962 158.314 481.962 156.914C481.962 155.822 481.346 155.122 479.75 154.884L479.19 154.8C478.294 154.66 477.804 154.38 477.804 153.68C477.804 152.994 478.294 152.56 479.218 152.56C480.142 152.56 480.758 152.994 481.08 153.442L481.822 152.77C481.234 152.042 480.464 151.608 479.302 151.608C477.832 151.608 476.726 152.308 476.726 153.736C476.726 155.08 477.72 155.626 479.05 155.822L479.624 155.906C480.576 156.046 480.884 156.48 480.884 157.04C480.884 157.782 480.324 158.216 479.372 158.216C478.462 158.216 477.79 157.81 477.23 157.11L476.432 157.754C477.076 158.608 477.958 159.168 479.288 159.168ZM486.816 159.168C488.174 159.168 489.21 158.496 489.672 157.516L488.874 156.942C488.496 157.74 487.796 158.188 486.886 158.188C485.542 158.188 484.744 157.25 484.744 156.004V155.668H489.938V155.136C489.938 153.092 488.748 151.608 486.816 151.608C484.856 151.608 483.568 153.092 483.568 155.388C483.568 157.684 484.856 159.168 486.816 159.168ZM486.816 152.546C487.964 152.546 488.734 153.4 488.734 154.674V154.828H484.744V154.73C484.744 153.47 485.598 152.546 486.816 152.546ZM496.564 159H497.684V148.64H496.564V152.952H496.508C496.13 152.042 495.388 151.608 494.394 151.608C492.588 151.608 491.454 153.078 491.454 155.388C491.454 157.698 492.588 159.168 494.394 159.168C495.388 159.168 496.074 158.72 496.508 157.824H496.564V159ZM494.702 158.16C493.442 158.16 492.658 157.292 492.658 156.004V154.772C492.658 153.484 493.442 152.616 494.702 152.616C495.724 152.616 496.564 153.204 496.564 154.002V156.69C496.564 157.628 495.724 158.16 494.702 158.16ZM504.086 159H505.206V152.756H506.76V151.776H505.206V149.62H506.76V148.64H505.668C504.604 148.64 504.086 149.326 504.086 150.32V151.776H502.91V152.756H504.086V159ZM511.068 159.168C513 159.168 514.33 157.684 514.33 155.388C514.33 153.092 513 151.608 511.068 151.608C509.136 151.608 507.806 153.092 507.806 155.388C507.806 157.684 509.136 159.168 511.068 159.168ZM511.068 158.174C509.864 158.174 509.01 157.432 509.01 155.906V154.87C509.01 153.344 509.864 152.602 511.068 152.602C512.272 152.602 513.126 153.344 513.126 154.87V155.906C513.126 157.432 512.272 158.174 511.068 158.174ZM517.452 159V154.1C517.452 153.414 518.18 152.896 519.384 152.896H520.042V151.776H519.608C518.432 151.776 517.774 152.42 517.522 153.106H517.452V151.776H516.332V159H517.452ZM528.097 159V158.02H526.627V152.756H528.209V151.776H526.627V149.774H525.619V151.118C525.619 151.608 525.465 151.776 524.989 151.776H524.317V152.756H525.507V157.81C525.507 158.51 525.927 159 526.697 159H528.097ZM530.169 159H531.289V153.988C531.289 153.064 532.157 152.616 533.053 152.616C534.131 152.616 534.691 153.274 534.691 154.562V159H535.811V154.366C535.811 152.616 534.873 151.608 533.389 151.608C532.311 151.608 531.695 152.14 531.345 152.952H531.289V148.64H530.169V159ZM541.002 159.168C542.36 159.168 543.396 158.496 543.858 157.516L543.06 156.942C542.682 157.74 541.982 158.188 541.072 158.188C539.728 158.188 538.93 157.25 538.93 156.004V155.668H544.124V155.136C544.124 153.092 542.934 151.608 541.002 151.608C539.042 151.608 537.754 153.092 537.754 155.388C537.754 157.684 539.042 159.168 541.002 159.168ZM541.002 152.546C542.15 152.546 542.92 153.4 542.92 154.674V154.828H538.93V154.73C538.93 153.47 539.784 152.546 541.002 152.546ZM27.906 179.168C29.264 179.168 30.3 178.496 30.762 177.516L29.964 176.942C29.586 177.74 28.886 178.188 27.976 178.188C26.632 178.188 25.834 177.25 25.834 176.004V175.668H31.028V175.136C31.028 173.092 29.838 171.608 27.906 171.608C25.946 171.608 24.658 173.092 24.658 175.388C24.658 177.684 25.946 179.168 27.906 179.168ZM27.906 172.546C29.054 172.546 29.824 173.4 29.824 174.674V174.828H25.834V174.73C25.834 173.47 26.688 172.546 27.906 172.546ZM35.2036 179.168C36.8556 179.168 37.8776 178.314 37.8776 176.914C37.8776 175.822 37.2616 175.122 35.6656 174.884L35.1056 174.8C34.2096 174.66 33.7196 174.38 33.7196 173.68C33.7196 172.994 34.2096 172.56 35.1336 172.56C36.0576 172.56 36.6736 172.994 36.9956 173.442L37.7376 172.77C37.1496 172.042 36.3796 171.608 35.2176 171.608C33.7476 171.608 32.6416 172.308 32.6416 173.736C32.6416 175.08 33.6356 175.626 34.9656 175.822L35.5396 175.906C36.4916 176.046 36.7996 176.48 36.7996 177.04C36.7996 177.782 36.2396 178.216 35.2876 178.216C34.3776 178.216 33.7056 177.81 33.1456 177.11L32.3476 177.754C32.9916 178.608 33.8736 179.168 35.2036 179.168ZM42.9162 179V178.02H41.4462V172.756H43.0282V171.776H41.4462V169.774H40.4382V171.118C40.4382 171.608 40.2842 171.776 39.8082 171.776H39.1362V172.756H40.3262V177.81C40.3262 178.51 40.7462 179 41.5162 179H42.9162ZM45.5484 170.082C46.0244 170.082 46.2344 169.83 46.2344 169.452V169.27C46.2344 168.892 46.0244 168.64 45.5484 168.64C45.0724 168.64 44.8624 168.892 44.8624 169.27V169.452C44.8624 169.83 45.0724 170.082 45.5484 170.082ZM44.9884 179H46.1084V171.776H44.9884V179ZM49.7684 179V173.988C49.7684 173.064 50.6084 172.616 51.4904 172.616C52.5544 172.616 53.0444 173.274 53.0444 174.562V179H54.1644V173.988C54.1644 173.064 54.9764 172.616 55.8584 172.616C56.9504 172.616 57.4404 173.288 57.4404 174.562V179H58.5604V174.366C58.5604 172.616 57.6784 171.608 56.2084 171.608C54.9764 171.608 54.2764 172.294 54.0104 173.078H53.9824C53.5904 172.042 52.7224 171.608 51.7704 171.608C50.6504 171.608 50.1464 172.21 49.8244 172.952H49.7684V171.776H48.6484V179H49.7684ZM66.911 179V178.02H66.085V174.044C66.085 172.518 65.049 171.608 63.313 171.608C62.011 171.608 61.143 172.252 60.751 173.022L61.423 173.652C61.815 172.994 62.389 172.574 63.257 172.574C64.405 172.574 64.965 173.134 64.965 174.156V174.87H63.537C61.437 174.87 60.457 175.626 60.457 176.984C60.457 178.328 61.353 179.168 62.879 179.168C63.887 179.168 64.657 178.706 64.965 177.824H65.035C65.119 178.496 65.455 179 66.281 179H66.911ZM63.061 178.216C62.193 178.216 61.633 177.81 61.633 177.096V176.802C61.633 176.102 62.207 175.71 63.481 175.71H64.965V176.9C64.965 177.642 64.167 178.216 63.061 178.216ZM71.6655 179V178.02H70.1955V172.756H71.7775V171.776H70.1955V169.774H69.1875V171.118C69.1875 171.608 69.0335 171.776 68.5575 171.776H67.8855V172.756H69.0755V177.81C69.0755 178.51 69.4955 179 70.2655 179H71.6655ZM74.2977 170.082C74.7737 170.082 74.9837 169.83 74.9837 169.452V169.27C74.9837 168.892 74.7737 168.64 74.2977 168.64C73.8217 168.64 73.6117 168.892 73.6117 169.27V169.452C73.6117 169.83 73.8217 170.082 74.2977 170.082ZM73.7377 179H74.8577V171.776H73.7377V179ZM80.1277 179.168C82.0597 179.168 83.3897 177.684 83.3897 175.388C83.3897 173.092 82.0597 171.608 80.1277 171.608C78.1957 171.608 76.8657 173.092 76.8657 175.388C76.8657 177.684 78.1957 179.168 80.1277 179.168ZM80.1277 178.174C78.9237 178.174 78.0697 177.432 78.0697 175.906V174.87C78.0697 173.344 78.9237 172.602 80.1277 172.602C81.3317 172.602 82.1857 173.344 82.1857 174.87V175.906C82.1857 177.432 81.3317 178.174 80.1277 178.174ZM86.5117 179V173.988C86.5117 173.064 87.3797 172.616 88.2757 172.616C89.3537 172.616 89.9137 173.274 89.9137 174.562V179H91.0337V174.366C91.0337 172.616 90.0957 171.608 88.6117 171.608C87.5337 171.608 86.9177 172.14 86.5677 172.952H86.5117V171.776H85.3917V179H86.5117ZM99.7073 179.168C101.639 179.168 102.969 177.684 102.969 175.388C102.969 173.092 101.639 171.608 99.7073 171.608C97.7753 171.608 96.4453 173.092 96.4453 175.388C96.4453 177.684 97.7753 179.168 99.7073 179.168ZM99.7073 178.174C98.5033 178.174 97.6493 177.432 97.6493 175.906V174.87C97.6493 173.344 98.5033 172.602 99.7073 172.602C100.911 172.602 101.765 173.344 101.765 174.87V175.906C101.765 177.432 100.911 178.174 99.7073 178.174ZM105.281 179H106.401V172.756H107.955V171.776H106.401V169.62H107.955V168.64H106.863C105.799 168.64 105.281 169.326 105.281 170.32V171.776H104.105V172.756H105.281V179ZM115.773 179.168C117.131 179.168 118.167 178.496 118.629 177.516L117.831 176.942C117.453 177.74 116.753 178.188 115.843 178.188C114.499 178.188 113.701 177.25 113.701 176.004V175.668H118.895V175.136C118.895 173.092 117.705 171.608 115.773 171.608C113.813 171.608 112.525 173.092 112.525 175.388C112.525 177.684 113.813 179.168 115.773 179.168ZM115.773 172.546C116.921 172.546 117.691 173.4 117.691 174.674V174.828H113.701V174.73C113.701 173.47 114.555 172.546 115.773 172.546ZM122.021 179V174.1C122.021 173.414 122.749 172.896 123.953 172.896H124.611V171.776H124.177C123.001 171.776 122.343 172.42 122.091 173.106H122.021V171.776H120.901V179H122.021ZM127.321 179V174.1C127.321 173.414 128.049 172.896 129.253 172.896H129.911V171.776H129.477C128.301 171.776 127.643 172.42 127.391 173.106H127.321V171.776H126.201V179H127.321ZM134.163 179.168C136.095 179.168 137.425 177.684 137.425 175.388C137.425 173.092 136.095 171.608 134.163 171.608C132.231 171.608 130.901 173.092 130.901 175.388C130.901 177.684 132.231 179.168 134.163 179.168ZM134.163 178.174C132.959 178.174 132.105 177.432 132.105 175.906V174.87C132.105 173.344 132.959 172.602 134.163 172.602C135.367 172.602 136.221 173.344 136.221 174.87V175.906C136.221 177.432 135.367 178.174 134.163 178.174ZM140.547 179V174.1C140.547 173.414 141.275 172.896 142.479 172.896H143.137V171.776H142.703C141.527 171.776 140.869 172.42 140.617 173.106H140.547V171.776H139.427V179H140.547ZM147.885 175.346V174.142H144.231V175.346H147.885ZM151.326 179V173.988C151.326 173.064 152.166 172.616 153.048 172.616C154.112 172.616 154.602 173.274 154.602 174.562V179H155.722V173.988C155.722 173.064 156.534 172.616 157.416 172.616C158.508 172.616 158.998 173.288 158.998 174.562V179H160.118V174.366C160.118 172.616 159.236 171.608 157.766 171.608C156.534 171.608 155.834 172.294 155.568 173.078H155.54C155.148 172.042 154.28 171.608 153.328 171.608C152.208 171.608 151.704 172.21 151.382 172.952H151.326V171.776H150.206V179H151.326ZM163.149 170.082C163.625 170.082 163.835 169.83 163.835 169.452V169.27C163.835 168.892 163.625 168.64 163.149 168.64C162.673 168.64 162.463 168.892 162.463 169.27V169.452C162.463 169.83 162.673 170.082 163.149 170.082ZM162.589 179H163.709V171.776H162.589V179ZM169.245 179V178.02H167.775V172.756H169.357V171.776H167.775V169.774H166.767V171.118C166.767 171.608 166.613 171.776 166.137 171.776H165.465V172.756H166.655V177.81C166.655 178.51 167.075 179 167.845 179H169.245ZM171.877 170.082C172.353 170.082 172.563 169.83 172.563 169.452V169.27C172.563 168.892 172.353 168.64 171.877 168.64C171.401 168.64 171.191 168.892 171.191 169.27V169.452C171.191 169.83 171.401 170.082 171.877 170.082ZM171.317 179H172.437V171.776H171.317V179ZM181.067 179.798C181.067 178.608 180.297 177.88 178.505 177.88H176.965C176.307 177.88 175.859 177.768 175.859 177.334C175.859 176.886 176.335 176.648 176.811 176.522C177.021 176.564 177.273 176.592 177.511 176.592C179.163 176.592 180.241 175.57 180.241 174.1C180.241 173.33 179.933 172.686 179.415 172.238V171.776H180.787V170.796H179.709C179.107 170.796 178.869 171.202 178.869 171.762V171.888C178.477 171.706 178.015 171.608 177.497 171.608C175.859 171.608 174.781 172.63 174.781 174.1C174.781 175.108 175.285 175.906 176.139 176.312V176.368C175.411 176.55 174.893 176.9 174.893 177.628C174.893 178.118 175.131 178.44 175.537 178.636V178.79C174.823 178.986 174.389 179.406 174.389 180.19C174.389 181.324 175.313 181.968 177.567 181.968C179.891 181.968 181.067 181.282 181.067 179.798ZM180.017 179.882C180.017 180.666 179.289 181.058 178.043 181.058H177.007C175.873 181.058 175.439 180.54 175.439 179.91C175.439 179.462 175.649 179.14 176.111 178.93H178.519C179.639 178.93 180.017 179.308 180.017 179.882ZM177.511 175.696C176.559 175.696 175.957 175.248 175.957 174.296V173.904C175.957 172.952 176.559 172.504 177.511 172.504C178.463 172.504 179.065 172.952 179.065 173.904V174.296C179.065 175.248 178.463 175.696 177.511 175.696ZM188.373 179V178.02H187.547V174.044C187.547 172.518 186.511 171.608 184.775 171.608C183.473 171.608 182.605 172.252 182.213 173.022L182.885 173.652C183.277 172.994 183.851 172.574 184.719 172.574C185.867 172.574 186.427 173.134 186.427 174.156V174.87H184.999C182.899 174.87 181.919 175.626 181.919 176.984C181.919 178.328 182.815 179.168 184.341 179.168C185.349 179.168 186.119 178.706 186.427 177.824H186.497C186.581 178.496 186.917 179 187.743 179H188.373ZM184.523 178.216C183.655 178.216 183.095 177.81 183.095 177.096V176.802C183.095 176.102 183.669 175.71 184.943 175.71H186.427V176.9C186.427 177.642 185.629 178.216 184.523 178.216ZM193.127 179V178.02H191.657V172.756H193.239V171.776H191.657V169.774H190.649V171.118C190.649 171.608 190.495 171.776 190.019 171.776H189.347V172.756H190.537V177.81C190.537 178.51 190.957 179 191.727 179H193.127ZM197.861 179.168C199.219 179.168 200.255 178.496 200.717 177.516L199.919 176.942C199.541 177.74 198.841 178.188 197.931 178.188C196.587 178.188 195.789 177.25 195.789 176.004V175.668H200.983V175.136C200.983 173.092 199.793 171.608 197.861 171.608C195.901 171.608 194.613 173.092 194.613 175.388C194.613 177.684 195.901 179.168 197.861 179.168ZM197.861 172.546C199.009 172.546 199.779 173.4 199.779 174.674V174.828H195.789V174.73C195.789 173.47 196.643 172.546 197.861 172.546ZM207.608 179H208.728V168.64H207.608V172.952H207.552C207.174 172.042 206.432 171.608 205.438 171.608C203.632 171.608 202.498 173.078 202.498 175.388C202.498 177.698 203.632 179.168 205.438 179.168C206.432 179.168 207.118 178.72 207.552 177.824H207.608V179ZM205.746 178.16C204.486 178.16 203.702 177.292 203.702 176.004V174.772C203.702 173.484 204.486 172.616 205.746 172.616C206.768 172.616 207.608 173.204 207.608 174.002V176.69C207.608 177.628 206.768 178.16 205.746 178.16ZM220.618 179V178.02H219.792V174.044C219.792 172.518 218.756 171.608 217.02 171.608C215.718 171.608 214.85 172.252 214.458 173.022L215.13 173.652C215.522 172.994 216.096 172.574 216.964 172.574C218.112 172.574 218.672 173.134 218.672 174.156V174.87H217.244C215.144 174.87 214.164 175.626 214.164 176.984C214.164 178.328 215.06 179.168 216.586 179.168C217.594 179.168 218.364 178.706 218.672 177.824H218.742C218.826 178.496 219.162 179 219.988 179H220.618ZM216.768 178.216C215.9 178.216 215.34 177.81 215.34 177.096V176.802C215.34 176.102 215.914 175.71 217.188 175.71H218.672V176.9C218.672 177.642 217.874 178.216 216.768 178.216ZM225.165 179L227.713 171.776H226.635L225.347 175.36L224.563 177.824H224.493L223.709 175.36L222.449 171.776H221.329L223.863 179H225.165ZM231.924 179.168C233.282 179.168 234.318 178.496 234.78 177.516L233.982 176.942C233.604 177.74 232.904 178.188 231.994 178.188C230.65 178.188 229.852 177.25 229.852 176.004V175.668H235.046V175.136C235.046 173.092 233.856 171.608 231.924 171.608C229.964 171.608 228.676 173.092 228.676 175.388C228.676 177.684 229.964 179.168 231.924 179.168ZM231.924 172.546C233.072 172.546 233.842 173.4 233.842 174.674V174.828H229.852V174.73C229.852 173.47 230.706 172.546 231.924 172.546ZM238.172 179V174.1C238.172 173.414 238.9 172.896 240.104 172.896H240.762V171.776H240.328C239.152 171.776 238.494 172.42 238.242 173.106H238.172V171.776H237.052V179H238.172ZM248.178 179V178.02H247.352V174.044C247.352 172.518 246.316 171.608 244.58 171.608C243.278 171.608 242.41 172.252 242.018 173.022L242.69 173.652C243.082 172.994 243.656 172.574 244.524 172.574C245.672 172.574 246.232 173.134 246.232 174.156V174.87H244.804C242.704 174.87 241.724 175.626 241.724 176.984C241.724 178.328 242.62 179.168 244.146 179.168C245.154 179.168 245.924 178.706 246.232 177.824H246.302C246.386 178.496 246.722 179 247.548 179H248.178ZM244.328 178.216C243.46 178.216 242.9 177.81 242.9 177.096V176.802C242.9 176.102 243.474 175.71 244.748 175.71H246.232V176.9C246.232 177.642 245.434 178.216 244.328 178.216ZM256.026 179.798C256.026 178.608 255.256 177.88 253.464 177.88H251.924C251.266 177.88 250.818 177.768 250.818 177.334C250.818 176.886 251.294 176.648 251.77 176.522C251.98 176.564 252.232 176.592 252.47 176.592C254.122 176.592 255.2 175.57 255.2 174.1C255.2 173.33 254.892 172.686 254.374 172.238V171.776H255.746V170.796H254.668C254.066 170.796 253.828 171.202 253.828 171.762V171.888C253.436 171.706 252.974 171.608 252.456 171.608C250.818 171.608 249.74 172.63 249.74 174.1C249.74 175.108 250.244 175.906 251.098 176.312V176.368C250.37 176.55 249.852 176.9 249.852 177.628C249.852 178.118 250.09 178.44 250.496 178.636V178.79C249.782 178.986 249.348 179.406 249.348 180.19C249.348 181.324 250.272 181.968 252.526 181.968C254.85 181.968 256.026 181.282 256.026 179.798ZM254.976 179.882C254.976 180.666 254.248 181.058 253.002 181.058H251.966C250.832 181.058 250.398 180.54 250.398 179.91C250.398 179.462 250.608 179.14 251.07 178.93H253.478C254.598 178.93 254.976 179.308 254.976 179.882ZM252.47 175.696C251.518 175.696 250.916 175.248 250.916 174.296V173.904C250.916 172.952 251.518 172.504 252.47 172.504C253.422 172.504 254.024 172.952 254.024 173.904V174.296C254.024 175.248 253.422 175.696 252.47 175.696ZM260.127 179.168C261.485 179.168 262.521 178.496 262.983 177.516L262.185 176.942C261.807 177.74 261.107 178.188 260.197 178.188C258.853 178.188 258.055 177.25 258.055 176.004V175.668H263.249V175.136C263.249 173.092 262.059 171.608 260.127 171.608C258.167 171.608 256.879 173.092 256.879 175.388C256.879 177.684 258.167 179.168 260.127 179.168ZM260.127 172.546C261.275 172.546 262.045 173.4 262.045 174.674V174.828H258.055V174.73C258.055 173.47 258.909 172.546 260.127 172.546ZM267.425 179.168C269.077 179.168 270.099 178.314 270.099 176.914C270.099 175.822 269.483 175.122 267.887 174.884L267.327 174.8C266.431 174.66 265.941 174.38 265.941 173.68C265.941 172.994 266.431 172.56 267.355 172.56C268.279 172.56 268.895 172.994 269.217 173.442L269.959 172.77C269.371 172.042 268.601 171.608 267.439 171.608C265.969 171.608 264.863 172.308 264.863 173.736C264.863 175.08 265.857 175.626 267.187 175.822L267.761 175.906C268.713 176.046 269.021 176.48 269.021 177.04C269.021 177.782 268.461 178.216 267.509 178.216C266.599 178.216 265.927 177.81 265.367 177.11L264.569 177.754C265.213 178.608 266.095 179.168 267.425 179.168ZM272.882 179.168C273.47 179.168 273.736 178.832 273.736 178.356V178.174C273.736 177.698 273.47 177.362 272.882 177.362C272.294 177.362 272.028 177.698 272.028 178.174V178.356C272.028 178.832 272.294 179.168 272.882 179.168Z" fill="#121619"/>
<line x1="46" y1="61.5" x2="275" y2="61.5" stroke="black"/>
<path fill-rule="evenodd" clip-rule="evenodd" d="M29.3996 65.2008H30.5996C31.5937 65.2008 32.3996 64.3949 32.3996 63.4008V58.6008C32.3996 57.6067 31.5937 56.8008 30.5996 56.8008H29.3996C28.4055 56.8008 27.5996 57.6067 27.5996 58.6008V63.4008C27.5996 64.3949 28.4055 65.2008 29.3996 65.2008ZM28.7996 58.6008C28.7996 58.2694 29.0682 58.0008 29.3996 58.0008H30.5996C30.931 58.0008 31.1996 58.2694 31.1996 58.6008V63.4008C31.1996 63.7322 30.931 64.0008 30.5996 64.0008H29.3996C29.0682 64.0008 28.7996 63.7322 28.7996 63.4008V58.6008Z" fill="#161616"/>
<path d="M35.0545 67L34 66.46L36.6804 61L34 55.54L35.0545 55L38 61L36.5272 64L35.0545 67Z" fill="#161616"/>
<rect x="24" y="55" width="1" height="12" fill="#161616"/>
<rect width="32" height="32" transform="translate(115 46)" fill="#0043CE"/>
<path d="M137 56.8633C137 56.7227 136.879 56.7227 136.845 56.7227C136.811 56.7227 136.742 56.7227 136.604 56.8789L135.416 58.1913C134.813 57.2539 133.867 56.7227 132.575 56.7227C128.857 56.7227 125 60.1442 125 63.8157C125 66.4248 127.014 68.0497 129.528 68.0497C130.905 68.0497 132.11 67.5185 133.109 66.7529C134.607 65.6124 135.055 64.0969 135.055 63.9719C135.055 63.8313 134.917 63.8313 134.865 63.8313C134.71 63.8313 134.693 63.9251 134.659 63.9876C133.867 66.4248 131.542 67.5966 129.821 67.5966C127.996 67.5966 126.412 66.5342 126.412 64.3157C126.412 63.8157 126.584 61.0972 128.529 59.0506C129.476 58.0507 131.095 57.1757 132.73 57.1757C134.624 57.1757 135.468 58.5975 135.468 60.1911C135.468 60.5973 135.416 60.941 135.416 61.0035C135.416 61.1441 135.588 61.1441 135.64 61.1441C135.829 61.1441 135.846 61.1285 135.915 60.8472L137 56.8633Z" fill="white"/>
<rect width="32" height="32" transform="translate(179 46)" fill="#6929C4"/>
<path d="M192.485 59.9662H195.511C197.997 59.9662 200.483 58.2989 200.483 56.4355C200.483 55.1605 199.294 54 197.024 54H191.458C191.116 54 190.954 54 190.954 54.3106C190.954 54.474 191.116 54.474 191.386 54.474C192.485 54.474 192.485 54.6048 192.485 54.7846C192.485 54.8173 192.485 54.9154 192.413 55.1605L189.981 63.9545C189.819 64.5266 189.783 64.69 188.522 64.69C188.18 64.69 188 64.69 188 64.9843C188 65.1641 188.162 65.1641 188.27 65.1641C188.612 65.1641 188.973 65.1314 189.315 65.1314H191.422C191.765 65.1314 192.143 65.1641 192.485 65.1641C192.629 65.1641 192.827 65.1641 192.827 64.8535C192.827 64.69 192.665 64.69 192.395 64.69C191.314 64.69 191.296 64.5756 191.296 64.4122C191.296 64.3304 191.314 64.216 191.332 64.1343L192.485 59.9662ZM193.782 55.1115C193.944 54.5067 194.016 54.474 194.719 54.474H196.502C197.853 54.474 198.97 54.8663 198.97 56.0922C198.97 56.5172 198.735 57.9066 197.907 58.6585C197.601 58.9527 196.736 59.5739 195.097 59.5739H192.557L193.782 55.1115Z" fill="white"/>
<path d="M201.065 63.1885C201.065 63.1314 201.014 63.0857 200.951 63.0857C200.85 63.0857 200.359 63.4972 200.12 63.8974C199.893 63.3829 199.502 63.0742 198.961 63.0742C197.537 63.0742 196 64.7434 196 66.4354C196 67.5672 196.731 68.2303 197.587 68.2303C198.255 68.2303 198.809 67.773 199.074 67.5101L199.087 67.5215L198.608 69.2364L198.494 69.648C198.381 69.9909 198.192 69.9909 197.6 70.0024C197.461 70.0024 197.335 70.0024 197.335 70.2196C197.335 70.2996 197.411 70.3339 197.499 70.3339C197.676 70.3339 197.902 70.3111 198.079 70.3111H199.364C199.553 70.3111 199.767 70.3339 199.956 70.3339C200.031 70.3339 200.183 70.3339 200.183 70.1167C200.183 70.0024 200.082 70.0024 199.893 70.0024C199.301 70.0024 199.263 69.9223 199.263 69.8309C199.263 69.7737 199.276 69.7623 199.313 69.6137L201.065 63.1885ZM199.288 66.7555C199.225 66.9499 199.225 66.9727 199.049 67.19C198.772 67.5101 198.217 68.0017 197.625 68.0017C197.109 68.0017 196.819 67.5787 196.819 66.9041C196.819 66.2753 197.209 64.9949 197.449 64.5147C197.877 63.7144 198.469 63.3029 198.961 63.3029C199.792 63.3029 199.956 64.2403 199.956 64.3318C199.956 64.3432 199.918 64.4919 199.906 64.5147L199.288 66.7555Z" fill="white"/>
<rect x="243" y="46" width="32" height="32" fill="#121619"/>
<path d="M266 61.89L268.427 57.6667L266.408 56.5L263.865 60.8983C259.573 59.3076 254.774 59.9158 251.014 62.5269C247.254 65.1381 245.008 69.4224 245 73.9999H247.333C247.336 70.2518 249.14 66.7333 252.181 64.5426C255.222 62.3518 259.131 61.7556 262.687 62.94L259 69.3333C257.944 69.3322 257.018 70.0409 256.744 71.061C256.47 72.0811 256.915 73.1581 257.83 73.6867C258.744 74.2154 259.9 74.0637 260.647 73.317C261.394 72.5702 261.546 71.4147 261.018 70.5L264.833 63.9083C268.439 65.9902 270.662 69.8361 270.667 73.9999H273C272.995 69.0034 270.327 64.3883 266 61.89Z" fill="white"/>
<line x1="74.576" y1="72.735" x2="89.576" y2="48.735" stroke="black"/>
<line x1="384" y1="61.5" x2="549" y2="61.5" stroke="black"/>
<path fill-rule="evenodd" clip-rule="evenodd" d="M367.4 65.2008H368.6C369.594 65.2008 370.4 64.3949 370.4 63.4008V58.6008C370.4 57.6067 369.594 56.8008 368.6 56.8008H367.4C366.405 56.8008 365.6 57.6067 365.6 58.6008V63.4008C365.6 64.3949 366.405 65.2008 367.4 65.2008ZM366.8 58.6008C366.8 58.2694 367.068 58.0008 367.4 58.0008H368.6C368.931 58.0008 369.2 58.2694 369.2 58.6008V63.4008C369.2 63.7322 368.931 64.0008 368.6 64.0008H367.4C367.068 64.0008 366.8 63.7322 366.8 63.4008V58.6008Z" fill="#161616"/>
<path d="M373.054 67L372 66.46L374.68 61L372 55.54L373.054 55L376 61L374.527 64L373.054 67Z" fill="#161616"/>
<rect x="362" y="55" width="1" height="12" fill="#161616"/>
<rect width="32" height="32" transform="translate(453 46)" fill="#6929C4"/>
<path d="M466.485 59.9662H469.511C471.997 59.9662 474.483 58.2989 474.483 56.4355C474.483 55.1605 473.294 54 471.024 54H465.458C465.116 54 464.954 54 464.954 54.3106C464.954 54.474 465.116 54.474 465.386 54.474C466.485 54.474 466.485 54.6048 466.485 54.7846C466.485 54.8173 466.485 54.9154 466.413 55.1605L463.981 63.9545C463.819 64.5266 463.783 64.69 462.522 64.69C462.18 64.69 462 64.69 462 64.9843C462 65.1641 462.162 65.1641 462.27 65.1641C462.612 65.1641 462.973 65.1314 463.315 65.1314H465.422C465.765 65.1314 466.143 65.1641 466.485 65.1641C466.629 65.1641 466.827 65.1641 466.827 64.8535C466.827 64.69 466.665 64.69 466.395 64.69C465.314 64.69 465.296 64.5756 465.296 64.4122C465.296 64.3304 465.314 64.216 465.332 64.1343L466.485 59.9662ZM467.782 55.1115C467.944 54.5067 468.016 54.474 468.719 54.474H470.502C471.853 54.474 472.97 54.8663 472.97 56.0922C472.97 56.5172 472.735 57.9066 471.907 58.6585C471.601 58.9527 470.736 59.5739 469.097 59.5739H466.557L467.782 55.1115Z" fill="white"/>
<path d="M475.065 63.1885C475.065 63.1314 475.014 63.0857 474.951 63.0857C474.85 63.0857 474.359 63.4972 474.12 63.8974C473.893 63.3829 473.502 63.0742 472.961 63.0742C471.537 63.0742 470 64.7434 470 66.4354C470 67.5672 470.731 68.2303 471.587 68.2303C472.255 68.2303 472.809 67.773 473.074 67.5101L473.087 67.5215L472.608 69.2364L472.494 69.648C472.381 69.9909 472.192 69.9909 471.6 70.0024C471.461 70.0024 471.335 70.0024 471.335 70.2196C471.335 70.2996 471.411 70.3339 471.499 70.3339C471.676 70.3339 471.902 70.3111 472.079 70.3111H473.364C473.553 70.3111 473.767 70.3339 473.956 70.3339C474.031 70.3339 474.183 70.3339 474.183 70.1167C474.183 70.0024 474.082 70.0024 473.893 70.0024C473.301 70.0024 473.263 69.9223 473.263 69.8309C473.263 69.7737 473.276 69.7623 473.313 69.6137L475.065 63.1885ZM473.288 66.7555C473.225 66.9499 473.225 66.9727 473.049 67.19C472.772 67.5101 472.217 68.0017 471.625 68.0017C471.109 68.0017 470.819 67.5787 470.819 66.9041C470.819 66.2753 471.209 64.9949 471.449 64.5147C471.877 63.7144 472.469 63.3029 472.961 63.3029C473.792 63.3029 473.956 64.2403 473.956 64.3318C473.956 64.3432 473.918 64.4919 473.906 64.5147L473.288 66.7555Z" fill="white"/>
<rect x="517" y="46" width="32" height="32" fill="#121619"/>
<path d="M540 61.89L542.427 57.6667L540.408 56.5L537.865 60.8983C533.573 59.3076 528.774 59.9158 525.014 62.5269C521.254 65.1381 519.008 69.4224 519 73.9999H521.333C521.336 70.2518 523.14 66.7333 526.181 64.5426C529.222 62.3518 533.131 61.7556 536.687 62.94L533 69.3333C531.944 69.3322 531.018 70.0409 530.744 71.061C530.47 72.0811 530.915 73.1581 531.83 73.6867C532.744 74.2154 533.9 74.0637 534.647 73.317C535.394 72.5702 535.546 71.4147 535.018 70.5L538.833 63.9083C542.439 65.9902 544.662 69.8361 544.667 73.9999H547C546.995 69.0034 544.327 64.3883 540 61.89Z" fill="white"/>
<line x1="412.576" y1="72.735" x2="427.576" y2="48.735" stroke="black"/>
</g>
<defs>
<clipPath id="clip0_65_4433">
<rect width="603" height="222" fill="white"/>
</clipPath>
</defs>
</svg>
