<svg width="1713" height="487" viewBox="0 0 1713 487" fill="none" xmlns="http://www.w3.org/2000/svg">
<g clip-path="url(#clip0_36_4196)">
<rect x="0.5" y="0.5" width="1712" height="486" fill="white" fill-opacity="0.8" stroke="#DDE1E6"/>
<rect opacity="0.4" y="367.967" width="1935" height="94.7221" fill="#F2F4F8"/>
<rect opacity="0.4" y="178.523" width="1935" height="94.7221" fill="#F2F4F8"/>
<rect opacity="0.4" y="-10.9209" width="1935" height="94.7221" fill="#F2F4F8"/>
<path d="M85.1855 397L85.1855 47" stroke="black"/>
<path d="M85.1855 397H435.186" stroke="black"/>
<path d="M184.214 428.213H185.978V418.441H184.466V425.917H184.424L183.346 423.845L180.154 418.441H178.39V428.213H179.902V420.737H179.944L181.022 422.809L184.214 428.213ZM191.288 428.381C193.318 428.381 194.634 426.897 194.634 424.573C194.634 422.249 193.318 420.765 191.288 420.765C189.258 420.765 187.942 422.249 187.942 424.573C187.942 426.897 189.258 428.381 191.288 428.381ZM191.288 427.121C190.252 427.121 189.552 426.477 189.552 425.189V423.957C189.552 422.669 190.252 422.025 191.288 422.025C192.324 422.025 193.024 422.669 193.024 423.957V425.189C193.024 426.477 192.324 427.121 191.288 427.121ZM197.264 419.631C197.894 419.631 198.16 419.295 198.16 418.833V418.595C198.16 418.133 197.894 417.797 197.264 417.797C196.634 417.797 196.354 418.133 196.354 418.595V418.833C196.354 419.295 196.634 419.631 197.264 419.631ZM196.494 428.213H198.02V420.933H196.494V428.213ZM202.669 428.381C204.419 428.381 205.553 427.443 205.553 426.043C205.553 424.867 204.839 424.167 203.243 423.929L202.571 423.845C201.801 423.719 201.451 423.467 201.451 422.907C201.451 422.361 201.843 421.997 202.683 421.997C203.467 421.997 204.083 422.375 204.461 422.823L205.399 421.927C204.741 421.199 203.999 420.765 202.683 420.765C201.087 420.765 199.981 421.591 199.981 423.005C199.981 424.349 200.891 424.993 202.375 425.175L203.047 425.259C203.803 425.357 204.083 425.707 204.083 426.169C204.083 426.785 203.635 427.149 202.753 427.149C201.885 427.149 201.227 426.757 200.695 426.113L199.715 427.009C200.401 427.863 201.297 428.381 202.669 428.381ZM210.293 428.381C211.651 428.381 212.715 427.793 213.261 426.911L212.365 426.029C211.945 426.701 211.343 427.121 210.447 427.121C209.215 427.121 208.529 426.323 208.529 425.203V424.965H213.527V424.391C213.527 422.375 212.435 420.765 210.293 420.765C208.221 420.765 206.947 422.249 206.947 424.573C206.947 426.897 208.221 428.381 210.293 428.381ZM210.293 421.955C211.301 421.955 211.917 422.697 211.917 423.817V423.957H208.529V423.859C208.529 422.739 209.243 421.955 210.293 421.955ZM225.033 428.213V426.967H224.263V423.313C224.263 421.689 223.213 420.765 221.337 420.765C219.923 420.765 219.069 421.367 218.593 422.179L219.503 423.005C219.867 422.431 220.385 422.011 221.239 422.011C222.261 422.011 222.737 422.529 222.737 423.411V424.027H221.421C219.391 424.027 218.313 424.769 218.313 426.211C218.313 427.527 219.167 428.381 220.665 428.381C221.729 428.381 222.513 427.905 222.793 426.995H222.863C222.961 427.709 223.381 428.213 224.179 428.213H225.033ZM221.099 427.219C220.343 427.219 219.867 426.883 219.867 426.239V425.987C219.867 425.357 220.385 425.007 221.449 425.007H222.737V426.057C222.737 426.771 222.037 427.219 221.099 427.219ZM228.215 428.213V423.327C228.215 422.487 228.957 422.081 229.713 422.081C230.609 422.081 231.043 422.641 231.043 423.775V428.213H232.569V423.327C232.569 422.487 233.283 422.081 234.053 422.081C234.977 422.081 235.397 422.655 235.397 423.775V428.213H236.923V423.593C236.923 421.801 236.069 420.765 234.627 420.765C233.451 420.765 232.695 421.437 232.429 422.249H232.387C232.037 421.241 231.211 420.765 230.231 420.765C229.125 420.765 228.579 421.381 228.285 422.137H228.215V420.933H226.689V428.213H228.215ZM239.194 431.013H240.72V427.009H240.79C241.098 427.863 241.868 428.381 242.834 428.381C244.668 428.381 245.732 426.967 245.732 424.573C245.732 422.179 244.668 420.765 242.834 420.765C241.868 420.765 241.098 421.269 240.79 422.137H240.72V420.933H239.194V431.013ZM242.372 427.065C241.448 427.065 240.72 426.561 240.72 425.819V423.327C240.72 422.585 241.448 422.081 242.372 422.081C243.422 422.081 244.122 422.823 244.122 423.943V425.203C244.122 426.323 243.422 427.065 242.372 427.065ZM250.173 428.213V426.967H249.165V417.853H247.639V426.701C247.639 427.639 248.157 428.213 249.193 428.213H250.173ZM252.562 419.631C253.192 419.631 253.458 419.295 253.458 418.833V418.595C253.458 418.133 253.192 417.797 252.562 417.797C251.932 417.797 251.652 418.133 251.652 418.595V418.833C251.652 419.295 251.932 419.631 252.562 419.631ZM251.792 428.213H253.318V420.933H251.792V428.213ZM256.035 428.213H257.561V422.179H260.361V428.213H261.887V420.933H257.561V419.099H259.087V417.853H257.883C256.665 417.853 256.035 418.553 256.035 419.729V420.933H254.929V422.179H256.035V428.213ZM261.131 419.631C261.761 419.631 262.027 419.295 262.027 418.833V418.595C262.027 418.133 261.761 417.797 261.131 417.797C260.501 417.797 260.221 418.133 260.221 418.595V418.833C260.221 419.295 260.501 419.631 261.131 419.631ZM267.039 428.381C268.439 428.381 269.433 427.723 269.909 426.533L268.747 425.917C268.439 426.645 267.921 427.121 267.039 427.121C265.919 427.121 265.345 426.351 265.345 425.231V423.929C265.345 422.809 265.919 422.039 267.039 422.039C267.865 422.039 268.383 422.473 268.593 423.145L269.853 422.557C269.419 421.479 268.495 420.765 267.039 420.765C264.939 420.765 263.735 422.249 263.735 424.573C263.735 426.897 264.939 428.381 267.039 428.381ZM277.71 428.213V426.967H276.94V423.313C276.94 421.689 275.89 420.765 274.014 420.765C272.6 420.765 271.746 421.367 271.27 422.179L272.18 423.005C272.544 422.431 273.062 422.011 273.916 422.011C274.938 422.011 275.414 422.529 275.414 423.411V424.027H274.098C272.068 424.027 270.99 424.769 270.99 426.211C270.99 427.527 271.844 428.381 273.342 428.381C274.406 428.381 275.19 427.905 275.47 426.995H275.54C275.638 427.709 276.058 428.213 276.856 428.213H277.71ZM273.776 427.219C273.02 427.219 272.544 426.883 272.544 426.239V425.987C272.544 425.357 273.062 425.007 274.126 425.007H275.414V426.057C275.414 426.771 274.714 427.219 273.776 427.219ZM282.67 428.213V426.967H281.256V422.179H282.782V420.933H281.256V418.945H279.884V420.219C279.884 420.723 279.716 420.933 279.212 420.933H278.596V422.179H279.73V426.631C279.73 427.625 280.29 428.213 281.34 428.213H282.67ZM285.367 419.631C285.997 419.631 286.263 419.295 286.263 418.833V418.595C286.263 418.133 285.997 417.797 285.367 417.797C284.737 417.797 284.457 418.133 284.457 418.595V418.833C284.457 419.295 284.737 419.631 285.367 419.631ZM284.597 428.213H286.123V420.933H284.597V428.213ZM291.319 428.381C293.349 428.381 294.665 426.897 294.665 424.573C294.665 422.249 293.349 420.765 291.319 420.765C289.289 420.765 287.973 422.249 287.973 424.573C287.973 426.897 289.289 428.381 291.319 428.381ZM291.319 427.121C290.283 427.121 289.583 426.477 289.583 425.189V423.957C289.583 422.669 290.283 422.025 291.319 422.025C292.355 422.025 293.055 422.669 293.055 423.957V425.189C293.055 426.477 292.355 427.121 291.319 427.121ZM298.051 428.213V423.341C298.051 422.487 298.835 422.081 299.633 422.081C300.571 422.081 301.005 422.655 301.005 423.789V428.213H302.531V423.593C302.531 421.801 301.649 420.765 300.165 420.765C299.045 420.765 298.429 421.353 298.121 422.137H298.051V420.933H296.525V428.213H298.051ZM308.653 428.213H310.179V422.179H311.705V420.933H310.179V419.099H311.705V417.853H310.501C309.283 417.853 308.653 418.553 308.653 419.729V420.933H307.547V422.179H308.653V428.213ZM319.38 428.213V426.967H318.61V423.313C318.61 421.689 317.56 420.765 315.684 420.765C314.27 420.765 313.416 421.367 312.94 422.179L313.85 423.005C314.214 422.431 314.732 422.011 315.586 422.011C316.608 422.011 317.084 422.529 317.084 423.411V424.027H315.768C313.738 424.027 312.66 424.769 312.66 426.211C312.66 427.527 313.514 428.381 315.012 428.381C316.076 428.381 316.86 427.905 317.14 426.995H317.21C317.308 427.709 317.728 428.213 318.526 428.213H319.38ZM315.446 427.219C314.69 427.219 314.214 426.883 314.214 426.239V425.987C314.214 425.357 314.732 425.007 315.796 425.007H317.084V426.057C317.084 426.771 316.384 427.219 315.446 427.219ZM323.85 428.381C325.25 428.381 326.244 427.723 326.72 426.533L325.558 425.917C325.25 426.645 324.732 427.121 323.85 427.121C322.73 427.121 322.156 426.351 322.156 425.231V423.929C322.156 422.809 322.73 422.039 323.85 422.039C324.676 422.039 325.194 422.473 325.404 423.145L326.664 422.557C326.23 421.479 325.306 420.765 323.85 420.765C321.75 420.765 320.546 422.249 320.546 424.573C320.546 426.897 321.75 428.381 323.85 428.381ZM331.679 428.213V426.967H330.265V422.179H331.791V420.933H330.265V418.945H328.893V420.219C328.893 420.723 328.725 420.933 328.221 420.933H327.605V422.179H328.739V426.631C328.739 427.625 329.299 428.213 330.349 428.213H331.679ZM336.407 428.381C338.437 428.381 339.753 426.897 339.753 424.573C339.753 422.249 338.437 420.765 336.407 420.765C334.377 420.765 333.061 422.249 333.061 424.573C333.061 426.897 334.377 428.381 336.407 428.381ZM336.407 427.121C335.371 427.121 334.671 426.477 334.671 425.189V423.957C334.671 422.669 335.371 422.025 336.407 422.025C337.443 422.025 338.143 422.669 338.143 423.957V425.189C338.143 426.477 337.443 427.121 336.407 427.121ZM343.14 428.213V423.565C343.14 422.809 343.812 422.403 345.016 422.403H345.618V420.933H345.212C344.05 420.933 343.42 421.591 343.21 422.333H343.14V420.933H341.614V428.213H343.14Z" fill="#121619"/>
<path d="M178.334 279.228V284.996C178.334 287.852 179.314 289.168 181.988 289.168C184.662 289.168 185.642 287.852 185.642 284.996V279.228H184.088V285.248C184.088 286.9 183.514 287.754 181.988 287.754C180.462 287.754 179.888 286.9 179.888 285.248V279.228H178.334ZM189.561 289V284.128C189.561 283.274 190.345 282.868 191.143 282.868C192.081 282.868 192.515 283.442 192.515 284.576V289H194.041V284.38C194.041 282.588 193.159 281.552 191.675 281.552C190.555 281.552 189.939 282.14 189.631 282.924H189.561V281.72H188.035V289H189.561ZM197.842 289V284.114C197.842 283.274 198.584 282.868 199.34 282.868C200.236 282.868 200.67 283.428 200.67 284.562V289H202.196V284.114C202.196 283.274 202.91 282.868 203.68 282.868C204.604 282.868 205.024 283.442 205.024 284.562V289H206.55V284.38C206.55 282.588 205.696 281.552 204.254 281.552C203.078 281.552 202.322 282.224 202.056 283.036H202.014C201.664 282.028 200.838 281.552 199.858 281.552C198.752 281.552 198.206 282.168 197.912 282.924H197.842V281.72H196.316V289H197.842ZM209.592 280.418C210.222 280.418 210.488 280.082 210.488 279.62V279.382C210.488 278.92 210.222 278.584 209.592 278.584C208.962 278.584 208.682 278.92 208.682 279.382V279.62C208.682 280.082 208.962 280.418 209.592 280.418ZM208.822 289H210.348V281.72H208.822V289ZM216.033 289V287.754H214.619V282.966H216.145V281.72H214.619V279.732H213.247V281.006C213.247 281.51 213.079 281.72 212.575 281.72H211.959V282.966H213.093V287.418C213.093 288.412 213.653 289 214.703 289H216.033ZM218.73 280.418C219.36 280.418 219.626 280.082 219.626 279.62V279.382C219.626 278.92 219.36 278.584 218.73 278.584C218.1 278.584 217.82 278.92 217.82 279.382V279.62C217.82 280.082 218.1 280.418 218.73 280.418ZM217.96 289H219.486V281.72H217.96V289ZM228.209 289.686C228.209 288.426 227.453 287.67 225.661 287.67H223.869C223.225 287.67 222.847 287.516 222.847 287.124C222.847 286.76 223.183 286.522 223.547 286.396C223.813 286.466 224.149 286.508 224.499 286.508C226.347 286.508 227.411 285.514 227.411 284.044C227.411 283.204 227.047 282.504 226.389 282.07V281.776H227.873V280.544H226.753C226.109 280.544 225.801 280.936 225.801 281.58V281.776C225.423 281.622 224.975 281.552 224.485 281.552C222.637 281.552 221.587 282.56 221.587 284.044C221.587 285.024 222.063 285.794 222.917 286.2V286.256C222.217 286.424 221.629 286.788 221.629 287.544C221.629 288.09 221.923 288.496 222.455 288.664V288.818C221.685 288.986 221.209 289.42 221.209 290.218C221.209 291.324 222.133 291.968 224.513 291.968C227.131 291.968 228.209 291.198 228.209 289.686ZM226.781 289.854C226.781 290.526 226.193 290.862 225.003 290.862H224.051C222.917 290.862 222.483 290.456 222.483 289.868C222.483 289.518 222.651 289.224 222.987 289.028H225.451C226.445 289.028 226.781 289.35 226.781 289.854ZM224.499 285.402C223.603 285.402 223.085 284.996 223.085 284.17V283.89C223.085 283.064 223.603 282.658 224.499 282.658C225.395 282.658 225.913 283.064 225.913 283.89V284.17C225.913 284.996 225.395 285.402 224.499 285.402ZM235.652 289V287.754H234.882V284.1C234.882 282.476 233.832 281.552 231.956 281.552C230.542 281.552 229.688 282.154 229.212 282.966L230.122 283.792C230.486 283.218 231.004 282.798 231.858 282.798C232.88 282.798 233.356 283.316 233.356 284.198V284.814H232.04C230.01 284.814 228.932 285.556 228.932 286.998C228.932 288.314 229.786 289.168 231.284 289.168C232.348 289.168 233.132 288.692 233.412 287.782H233.482C233.58 288.496 234 289 234.798 289H235.652ZM231.718 288.006C230.962 288.006 230.486 287.67 230.486 287.026V286.774C230.486 286.144 231.004 285.794 232.068 285.794H233.356V286.844C233.356 287.558 232.656 288.006 231.718 288.006ZM240.613 289V287.754H239.199V282.966H240.725V281.72H239.199V279.732H237.827V281.006C237.827 281.51 237.659 281.72 237.155 281.72H236.539V282.966H237.673V287.418C237.673 288.412 238.233 289 239.283 289H240.613ZM245.341 289.168C246.699 289.168 247.763 288.58 248.309 287.698L247.413 286.816C246.993 287.488 246.391 287.908 245.495 287.908C244.263 287.908 243.577 287.11 243.577 285.99V285.752H248.575V285.178C248.575 283.162 247.483 281.552 245.341 281.552C243.269 281.552 241.995 283.036 241.995 285.36C241.995 287.684 243.269 289.168 245.341 289.168ZM245.341 282.742C246.349 282.742 246.965 283.484 246.965 284.604V284.744H243.577V284.646C243.577 283.526 244.291 282.742 245.341 282.742ZM255.002 289H256.528V278.64H255.002V282.924H254.932C254.624 282.056 253.854 281.552 252.888 281.552C251.054 281.552 249.99 282.966 249.99 285.36C249.99 287.754 251.054 289.168 252.888 289.168C253.854 289.168 254.624 288.65 254.932 287.796H255.002V289ZM253.35 287.852C252.3 287.852 251.6 287.11 251.6 285.99V284.73C251.6 283.61 252.3 282.868 253.35 282.868C254.274 282.868 255.002 283.372 255.002 284.114V286.606C255.002 287.348 254.274 287.852 253.35 287.852ZM265.712 289L268.218 281.72H266.762L265.628 285.038L264.886 287.586H264.802L264.06 285.038L262.954 281.72H261.442L263.92 289H265.712ZM275.727 289V287.754H274.957V284.1C274.957 282.476 273.907 281.552 272.031 281.552C270.617 281.552 269.763 282.154 269.287 282.966L270.197 283.792C270.561 283.218 271.079 282.798 271.933 282.798C272.955 282.798 273.431 283.316 273.431 284.198V284.814H272.115C270.085 284.814 269.007 285.556 269.007 286.998C269.007 288.314 269.861 289.168 271.359 289.168C272.423 289.168 273.207 288.692 273.487 287.782H273.557C273.655 288.496 274.075 289 274.873 289H275.727ZM271.793 288.006C271.037 288.006 270.561 287.67 270.561 287.026V286.774C270.561 286.144 271.079 285.794 272.143 285.794H273.431V286.844C273.431 287.558 272.731 288.006 271.793 288.006ZM279.917 289V287.754H278.909V278.64H277.383V287.488C277.383 288.426 277.901 289 278.937 289H279.917ZM285.945 289H287.471V281.72H285.945V286.592C285.945 287.446 285.175 287.852 284.391 287.852C283.453 287.852 282.991 287.264 282.991 286.158V281.72H281.465V286.354C281.465 288.146 282.347 289.168 283.845 289.168C285.049 289.168 285.623 288.51 285.889 287.796H285.945V289ZM292.672 289.168C294.03 289.168 295.094 288.58 295.64 287.698L294.744 286.816C294.324 287.488 293.722 287.908 292.826 287.908C291.594 287.908 290.908 287.11 290.908 285.99V285.752H295.906V285.178C295.906 283.162 294.814 281.552 292.672 281.552C290.6 281.552 289.326 283.036 289.326 285.36C289.326 287.684 290.6 289.168 292.672 289.168ZM292.672 282.742C293.68 282.742 294.296 283.484 294.296 284.604V284.744H290.908V284.646C290.908 283.526 291.622 282.742 292.672 282.742Z" fill="#0043CE"/>
<path d="M106.39 343H107.902V335.524H107.972L108.742 337.106L110.884 341.012L113.026 337.106L113.796 335.524H113.866V343H115.378V333.228H113.586L110.968 338.198H110.884L108.266 333.228H106.39V343ZM118.61 334.418C119.24 334.418 119.506 334.082 119.506 333.62V333.382C119.506 332.92 119.24 332.584 118.61 332.584C117.98 332.584 117.7 332.92 117.7 333.382V333.62C117.7 334.082 117.98 334.418 118.61 334.418ZM117.84 343H119.366V335.72H117.84V343ZM125.051 343V341.754H123.637V336.966H125.163V335.72H123.637V333.732H122.265V335.006C122.265 335.51 122.097 335.72 121.593 335.72H120.977V336.966H122.111V341.418C122.111 342.412 122.671 343 123.721 343H125.051ZM127.748 334.418C128.378 334.418 128.644 334.082 128.644 333.62V333.382C128.644 332.92 128.378 332.584 127.748 332.584C127.118 332.584 126.838 332.92 126.838 333.382V333.62C126.838 334.082 127.118 334.418 127.748 334.418ZM126.978 343H128.504V335.72H126.978V343ZM137.227 343.686C137.227 342.426 136.471 341.67 134.679 341.67H132.887C132.243 341.67 131.865 341.516 131.865 341.124C131.865 340.76 132.201 340.522 132.565 340.396C132.831 340.466 133.167 340.508 133.517 340.508C135.365 340.508 136.429 339.514 136.429 338.044C136.429 337.204 136.065 336.504 135.407 336.07V335.776H136.891V334.544H135.771C135.127 334.544 134.819 334.936 134.819 335.58V335.776C134.441 335.622 133.993 335.552 133.503 335.552C131.655 335.552 130.605 336.56 130.605 338.044C130.605 339.024 131.081 339.794 131.935 340.2V340.256C131.235 340.424 130.647 340.788 130.647 341.544C130.647 342.09 130.941 342.496 131.473 342.664V342.818C130.703 342.986 130.227 343.42 130.227 344.218C130.227 345.324 131.151 345.968 133.531 345.968C136.149 345.968 137.227 345.198 137.227 343.686ZM135.799 343.854C135.799 344.526 135.211 344.862 134.021 344.862H133.069C131.935 344.862 131.501 344.456 131.501 343.868C131.501 343.518 131.669 343.224 132.005 343.028H134.469C135.463 343.028 135.799 343.35 135.799 343.854ZM133.517 339.402C132.621 339.402 132.103 338.996 132.103 338.17V337.89C132.103 337.064 132.621 336.658 133.517 336.658C134.413 336.658 134.931 337.064 134.931 337.89V338.17C134.931 338.996 134.413 339.402 133.517 339.402ZM144.67 343V341.754H143.9V338.1C143.9 336.476 142.85 335.552 140.974 335.552C139.56 335.552 138.706 336.154 138.23 336.966L139.14 337.792C139.504 337.218 140.022 336.798 140.876 336.798C141.898 336.798 142.374 337.316 142.374 338.198V338.814H141.058C139.028 338.814 137.95 339.556 137.95 340.998C137.95 342.314 138.804 343.168 140.302 343.168C141.366 343.168 142.15 342.692 142.43 341.782H142.5C142.598 342.496 143.018 343 143.816 343H144.67ZM140.736 342.006C139.98 342.006 139.504 341.67 139.504 341.026V340.774C139.504 340.144 140.022 339.794 141.086 339.794H142.374V340.844C142.374 341.558 141.674 342.006 140.736 342.006ZM149.63 343V341.754H148.216V336.966H149.742V335.72H148.216V333.732H146.844V335.006C146.844 335.51 146.676 335.72 146.172 335.72H145.556V336.966H146.69V341.418C146.69 342.412 147.25 343 148.3 343H149.63ZM154.359 343.168C155.717 343.168 156.781 342.58 157.327 341.698L156.431 340.816C156.011 341.488 155.409 341.908 154.513 341.908C153.281 341.908 152.595 341.11 152.595 339.99V339.752H157.593V339.178C157.593 337.162 156.501 335.552 154.359 335.552C152.287 335.552 151.013 337.036 151.013 339.36C151.013 341.684 152.287 343.168 154.359 343.168ZM154.359 336.742C155.367 336.742 155.983 337.484 155.983 338.604V338.744H152.595V338.646C152.595 337.526 153.309 336.742 154.359 336.742ZM164.02 343H165.546V332.64H164.02V336.924H163.95C163.642 336.056 162.872 335.552 161.906 335.552C160.072 335.552 159.008 336.966 159.008 339.36C159.008 341.754 160.072 343.168 161.906 343.168C162.872 343.168 163.642 342.65 163.95 341.796H164.02V343ZM162.368 341.852C161.318 341.852 160.618 341.11 160.618 339.99V338.73C160.618 337.61 161.318 336.868 162.368 336.868C163.292 336.868 164.02 337.372 164.02 338.114V340.606C164.02 341.348 163.292 341.852 162.368 341.852ZM174.73 343L177.236 335.72H175.78L174.646 339.038L173.904 341.586H173.82L173.078 339.038L171.972 335.72H170.46L172.938 343H174.73ZM184.745 343V341.754H183.975V338.1C183.975 336.476 182.925 335.552 181.049 335.552C179.635 335.552 178.781 336.154 178.305 336.966L179.215 337.792C179.579 337.218 180.097 336.798 180.951 336.798C181.973 336.798 182.449 337.316 182.449 338.198V338.814H181.133C179.103 338.814 178.025 339.556 178.025 340.998C178.025 342.314 178.879 343.168 180.377 343.168C181.441 343.168 182.225 342.692 182.505 341.782H182.575C182.673 342.496 183.093 343 183.891 343H184.745ZM180.811 342.006C180.055 342.006 179.579 341.67 179.579 341.026V340.774C179.579 340.144 180.097 339.794 181.161 339.794H182.449V340.844C182.449 341.558 181.749 342.006 180.811 342.006ZM188.935 343V341.754H187.927V332.64H186.401V341.488C186.401 342.426 186.919 343 187.955 343H188.935ZM194.963 343H196.489V335.72H194.963V340.592C194.963 341.446 194.193 341.852 193.409 341.852C192.471 341.852 192.009 341.264 192.009 340.158V335.72H190.483V340.354C190.483 342.146 191.365 343.168 192.863 343.168C194.067 343.168 194.641 342.51 194.907 341.796H194.963V343ZM201.69 343.168C203.048 343.168 204.112 342.58 204.658 341.698L203.762 340.816C203.342 341.488 202.74 341.908 201.844 341.908C200.612 341.908 199.926 341.11 199.926 339.99V339.752H204.924V339.178C204.924 337.162 203.832 335.552 201.69 335.552C199.618 335.552 198.344 337.036 198.344 339.36C198.344 341.684 199.618 343.168 201.69 343.168ZM201.69 336.742C202.698 336.742 203.314 337.484 203.314 338.604V338.744H199.926V338.646C199.926 337.526 200.64 336.742 201.69 336.742Z" fill="#198038"/>
<path d="M456.648 359V357.6H451.972V354.744H456.214V353.344H451.972V350.628H456.648V349.228H450.39V359H456.648ZM457.924 359H459.548L461.298 356.354H461.34L463.02 359H464.784L462.25 355.304L464.742 351.72H463.118L461.438 354.254H461.396L459.758 351.72H457.994L460.486 355.318L457.924 359ZM472.508 359V357.754H471.738V354.1C471.738 352.476 470.688 351.552 468.812 351.552C467.398 351.552 466.544 352.154 466.068 352.966L466.978 353.792C467.342 353.218 467.86 352.798 468.714 352.798C469.736 352.798 470.212 353.316 470.212 354.198V354.814H468.896C466.866 354.814 465.788 355.556 465.788 356.998C465.788 358.314 466.642 359.168 468.14 359.168C469.204 359.168 469.988 358.692 470.268 357.782H470.338C470.436 358.496 470.856 359 471.654 359H472.508ZM468.574 358.006C467.818 358.006 467.342 357.67 467.342 357.026V356.774C467.342 356.144 467.86 355.794 468.924 355.794H470.212V356.844C470.212 357.558 469.512 358.006 468.574 358.006ZM476.978 359.168C478.378 359.168 479.372 358.51 479.848 357.32L478.686 356.704C478.378 357.432 477.86 357.908 476.978 357.908C475.858 357.908 475.284 357.138 475.284 356.018V354.716C475.284 353.596 475.858 352.826 476.978 352.826C477.804 352.826 478.322 353.26 478.532 353.932L479.792 353.344C479.358 352.266 478.434 351.552 476.978 351.552C474.878 351.552 473.674 353.036 473.674 355.36C473.674 357.684 474.878 359.168 476.978 359.168ZM484.807 359V357.754H483.393V352.966H484.919V351.72H483.393V349.732H482.021V351.006C482.021 351.51 481.853 351.72 481.349 351.72H480.733V352.966H481.867V357.418C481.867 358.412 482.427 359 483.477 359H484.807ZM493.576 359L496.082 351.72H494.626L493.492 355.038L492.75 357.586H492.666L491.924 355.038L490.818 351.72H489.306L491.784 359H493.576ZM503.591 359V357.754H502.821V354.1C502.821 352.476 501.771 351.552 499.895 351.552C498.481 351.552 497.627 352.154 497.151 352.966L498.061 353.792C498.425 353.218 498.943 352.798 499.797 352.798C500.819 352.798 501.295 353.316 501.295 354.198V354.814H499.979C497.949 354.814 496.871 355.556 496.871 356.998C496.871 358.314 497.725 359.168 499.223 359.168C500.287 359.168 501.071 358.692 501.351 357.782H501.421C501.519 358.496 501.939 359 502.737 359H503.591ZM499.657 358.006C498.901 358.006 498.425 357.67 498.425 357.026V356.774C498.425 356.144 498.943 355.794 500.007 355.794H501.295V356.844C501.295 357.558 500.595 358.006 499.657 358.006ZM507.781 359V357.754H506.773V348.64H505.247V357.488C505.247 358.426 505.765 359 506.801 359H507.781ZM513.809 359H515.335V351.72H513.809V356.592C513.809 357.446 513.039 357.852 512.255 357.852C511.317 357.852 510.855 357.264 510.855 356.158V351.72H509.329V356.354C509.329 358.146 510.211 359.168 511.709 359.168C512.913 359.168 513.487 358.51 513.753 357.796H513.809V359ZM520.536 359.168C521.894 359.168 522.958 358.58 523.504 357.698L522.608 356.816C522.188 357.488 521.586 357.908 520.69 357.908C519.458 357.908 518.772 357.11 518.772 355.99V355.752H523.77V355.178C523.77 353.162 522.678 351.552 520.536 351.552C518.464 351.552 517.19 353.036 517.19 355.36C517.19 357.684 518.464 359.168 520.536 359.168ZM520.536 352.742C521.544 352.742 522.16 353.484 522.16 354.604V354.744H518.772V354.646C518.772 353.526 519.486 352.742 520.536 352.742Z" fill="#121619"/>
<path d="M61 269.538H59.6V274.214H56.744V269.972H55.344V274.214H52.628V269.538H51.228V275.796H61V269.538ZM61 268.261V266.637L58.354 264.887V264.845L61 263.165V261.401L57.304 263.935L53.72 261.443V263.067L56.254 264.747V264.789L53.72 266.427V268.191L57.318 265.699L61 268.261ZM63.8 259.865V258.339H59.796V258.269C60.65 257.961 61.168 257.191 61.168 256.225C61.168 254.391 59.754 253.327 57.36 253.327C54.966 253.327 53.552 254.391 53.552 256.225C53.552 257.191 54.056 257.961 54.924 258.269V258.339H53.72V259.865H63.8ZM59.852 256.687C59.852 257.611 59.348 258.339 58.606 258.339H56.114C55.372 258.339 54.868 257.611 54.868 256.687C54.868 255.637 55.61 254.937 56.73 254.937H57.99C59.11 254.937 59.852 255.637 59.852 256.687ZM61.168 248.564C61.168 247.206 60.58 246.142 59.698 245.596L58.816 246.492C59.488 246.912 59.908 247.514 59.908 248.41C59.908 249.642 59.11 250.328 57.99 250.328H57.752V245.33H57.178C55.162 245.33 53.552 246.422 53.552 248.564C53.552 250.636 55.036 251.91 57.36 251.91C59.684 251.91 61.168 250.636 61.168 248.564ZM54.742 248.564C54.742 247.556 55.484 246.94 56.604 246.94H56.744V250.328H56.646C55.526 250.328 54.742 249.614 54.742 248.564ZM61.168 240.667C61.168 239.267 60.51 238.273 59.32 237.797L58.704 238.959C59.432 239.267 59.908 239.785 59.908 240.667C59.908 241.787 59.138 242.361 58.018 242.361H56.716C55.596 242.361 54.826 241.787 54.826 240.667C54.826 239.841 55.26 239.323 55.932 239.113L55.344 237.853C54.266 238.287 53.552 239.211 53.552 240.667C53.552 242.767 55.036 243.971 57.36 243.971C59.684 243.971 61.168 242.767 61.168 240.667ZM61 232.838H59.754V234.252H54.966V232.726H53.72V234.252H51.732V235.624H53.006C53.51 235.624 53.72 235.792 53.72 236.296V236.912H54.966V235.778H59.418C60.412 235.778 61 235.218 61 234.168V232.838ZM61 224.723H59.754V225.493H56.1C54.476 225.493 53.552 226.543 53.552 228.419C53.552 229.833 54.154 230.687 54.966 231.163L55.792 230.253C55.218 229.889 54.798 229.371 54.798 228.517C54.798 227.495 55.316 227.019 56.198 227.019H56.814V228.335C56.814 230.365 57.556 231.443 58.998 231.443C60.314 231.443 61.168 230.589 61.168 229.091C61.168 228.027 60.692 227.243 59.782 226.963V226.893C60.496 226.795 61 226.375 61 225.577V224.723ZM60.006 228.657C60.006 229.413 59.67 229.889 59.026 229.889H58.774C58.144 229.889 57.794 229.371 57.794 228.307V227.019H58.844C59.558 227.019 60.006 227.719 60.006 228.657ZM61 219.762H59.754V221.176H54.966V219.65H53.72V221.176H51.732V222.548H53.006C53.51 222.548 53.72 222.716 53.72 223.22V223.836H54.966V222.702H59.418C60.412 222.702 61 222.142 61 221.092V219.762ZM52.418 217.065C52.418 216.435 52.082 216.169 51.62 216.169H51.382C50.92 216.169 50.584 216.435 50.584 217.065C50.584 217.695 50.92 217.975 51.382 217.975H51.62C52.082 217.975 52.418 217.695 52.418 217.065ZM61 217.835V216.309H53.72V217.835H61ZM61.168 211.114C61.168 209.084 59.684 207.768 57.36 207.768C55.036 207.768 53.552 209.084 53.552 211.114C53.552 213.144 55.036 214.46 57.36 214.46C59.684 214.46 61.168 213.144 61.168 211.114ZM59.908 211.114C59.908 212.15 59.264 212.85 57.976 212.85H56.744C55.456 212.85 54.812 212.15 54.812 211.114C54.812 210.078 55.456 209.378 56.744 209.378H57.976C59.264 209.378 59.908 210.078 59.908 211.114ZM61 204.382H56.128C55.274 204.382 54.868 203.598 54.868 202.8C54.868 201.862 55.442 201.428 56.576 201.428H61V199.902H56.38C54.588 199.902 53.552 200.784 53.552 202.268C53.552 203.388 54.14 204.004 54.924 204.312V204.382H53.72V205.908H61V204.382ZM61 190.784L53.72 188.278L53.72 189.734L57.038 190.868L59.586 191.61V191.694L57.038 192.436L53.72 193.542V195.054L61 192.576V190.784ZM61 180.769H59.754V181.539H56.1C54.476 181.539 53.552 182.589 53.552 184.465C53.552 185.879 54.154 186.733 54.966 187.209L55.792 186.299C55.218 185.935 54.798 185.417 54.798 184.563C54.798 183.541 55.316 183.065 56.198 183.065H56.814V184.381C56.814 186.411 57.556 187.489 58.998 187.489C60.314 187.489 61.168 186.635 61.168 185.137C61.168 184.073 60.692 183.289 59.782 183.009V182.939C60.496 182.841 61 182.421 61 181.623V180.769ZM60.006 184.703C60.006 185.459 59.67 185.935 59.026 185.935H58.774C58.144 185.935 57.794 185.417 57.794 184.353V183.065H58.844C59.558 183.065 60.006 183.765 60.006 184.703ZM61 176.579H59.754V177.587H50.64V179.113H59.488C60.426 179.113 61 178.595 61 177.559V176.579ZM61 170.551V169.025H53.72V170.551H58.592C59.446 170.551 59.852 171.321 59.852 172.105C59.852 173.043 59.264 173.505 58.158 173.505H53.72V175.031H58.354C60.146 175.031 61.168 174.149 61.168 172.651C61.168 171.447 60.51 170.873 59.796 170.607V170.551H61ZM61.168 163.824C61.168 162.466 60.58 161.402 59.698 160.856L58.816 161.752C59.488 162.172 59.908 162.774 59.908 163.67C59.908 164.902 59.11 165.588 57.99 165.588H57.752L57.752 160.59H57.178C55.162 160.59 53.552 161.682 53.552 163.824C53.552 165.896 55.036 167.17 57.36 167.17C59.684 167.17 61.168 165.896 61.168 163.824ZM54.742 163.824C54.742 162.816 55.484 162.2 56.604 162.2H56.744V165.588H56.646C55.526 165.588 54.742 164.874 54.742 163.824Z" fill="#121619"/>
<path d="M85.1855 355H436.186" stroke="black" stroke-dasharray="6 6"/>
<rect x="144.186" y="273" width="20" height="20" fill="#0043CE"/>
<path d="M85.1855 327L87.8797 335.292H96.5982L89.5448 340.416L92.239 348.708L85.1855 343.584L78.1321 348.708L80.8263 340.416L73.7729 335.292H82.4914L85.1855 327Z" fill="#198038"/>
<path d="M640.186 397L640.186 47" stroke="black"/>
<path d="M640.371 397H990.371" stroke="black"/>
<path d="M747.214 428.213H748.978V418.441H747.466V425.917H747.424L746.346 423.845L743.154 418.441H741.39V428.213H742.902V420.737H742.944L744.022 422.809L747.214 428.213ZM754.288 428.381C756.318 428.381 757.634 426.897 757.634 424.573C757.634 422.249 756.318 420.765 754.288 420.765C752.258 420.765 750.942 422.249 750.942 424.573C750.942 426.897 752.258 428.381 754.288 428.381ZM754.288 427.121C753.252 427.121 752.552 426.477 752.552 425.189V423.957C752.552 422.669 753.252 422.025 754.288 422.025C755.324 422.025 756.024 422.669 756.024 423.957V425.189C756.024 426.477 755.324 427.121 754.288 427.121ZM760.264 419.631C760.894 419.631 761.16 419.295 761.16 418.833V418.595C761.16 418.133 760.894 417.797 760.264 417.797C759.634 417.797 759.354 418.133 759.354 418.595V418.833C759.354 419.295 759.634 419.631 760.264 419.631ZM759.494 428.213H761.02V420.933H759.494V428.213ZM765.669 428.381C767.419 428.381 768.553 427.443 768.553 426.043C768.553 424.867 767.839 424.167 766.243 423.929L765.571 423.845C764.801 423.719 764.451 423.467 764.451 422.907C764.451 422.361 764.843 421.997 765.683 421.997C766.467 421.997 767.083 422.375 767.461 422.823L768.399 421.927C767.741 421.199 766.999 420.765 765.683 420.765C764.087 420.765 762.981 421.591 762.981 423.005C762.981 424.349 763.891 424.993 765.375 425.175L766.047 425.259C766.803 425.357 767.083 425.707 767.083 426.169C767.083 426.785 766.635 427.149 765.753 427.149C764.885 427.149 764.227 426.757 763.695 426.113L762.715 427.009C763.401 427.863 764.297 428.381 765.669 428.381ZM773.293 428.381C774.651 428.381 775.715 427.793 776.261 426.911L775.365 426.029C774.945 426.701 774.343 427.121 773.447 427.121C772.215 427.121 771.529 426.323 771.529 425.203V424.965H776.527V424.391C776.527 422.375 775.435 420.765 773.293 420.765C771.221 420.765 769.947 422.249 769.947 424.573C769.947 426.897 771.221 428.381 773.293 428.381ZM773.293 421.955C774.301 421.955 774.917 422.697 774.917 423.817V423.957H771.529V423.859C771.529 422.739 772.243 421.955 773.293 421.955ZM788.033 428.213V426.967H787.263V423.313C787.263 421.689 786.213 420.765 784.337 420.765C782.923 420.765 782.069 421.367 781.593 422.179L782.503 423.005C782.867 422.431 783.385 422.011 784.239 422.011C785.261 422.011 785.737 422.529 785.737 423.411V424.027H784.421C782.391 424.027 781.313 424.769 781.313 426.211C781.313 427.527 782.167 428.381 783.665 428.381C784.729 428.381 785.513 427.905 785.793 426.995H785.863C785.961 427.709 786.381 428.213 787.179 428.213H788.033ZM784.099 427.219C783.343 427.219 782.867 426.883 782.867 426.239V425.987C782.867 425.357 783.385 425.007 784.449 425.007H785.737V426.057C785.737 426.771 785.037 427.219 784.099 427.219ZM791.215 428.213V423.327C791.215 422.487 791.957 422.081 792.713 422.081C793.609 422.081 794.043 422.641 794.043 423.775V428.213H795.569V423.327C795.569 422.487 796.283 422.081 797.053 422.081C797.977 422.081 798.397 422.655 798.397 423.775V428.213H799.923V423.593C799.923 421.801 799.069 420.765 797.627 420.765C796.451 420.765 795.695 421.437 795.429 422.249H795.387C795.037 421.241 794.211 420.765 793.231 420.765C792.125 420.765 791.579 421.381 791.285 422.137H791.215V420.933H789.689V428.213H791.215ZM802.194 431.013H803.72V427.009H803.79C804.098 427.863 804.868 428.381 805.834 428.381C807.668 428.381 808.732 426.967 808.732 424.573C808.732 422.179 807.668 420.765 805.834 420.765C804.868 420.765 804.098 421.269 803.79 422.137H803.72V420.933H802.194V431.013ZM805.372 427.065C804.448 427.065 803.72 426.561 803.72 425.819V423.327C803.72 422.585 804.448 422.081 805.372 422.081C806.422 422.081 807.122 422.823 807.122 423.943V425.203C807.122 426.323 806.422 427.065 805.372 427.065ZM813.173 428.213V426.967H812.165V417.853H810.639V426.701C810.639 427.639 811.157 428.213 812.193 428.213H813.173ZM815.562 419.631C816.192 419.631 816.458 419.295 816.458 418.833V418.595C816.458 418.133 816.192 417.797 815.562 417.797C814.932 417.797 814.652 418.133 814.652 418.595V418.833C814.652 419.295 814.932 419.631 815.562 419.631ZM814.792 428.213H816.318V420.933H814.792V428.213ZM819.035 428.213H820.561V422.179H823.361V428.213H824.887V420.933H820.561V419.099H822.087V417.853H820.883C819.665 417.853 819.035 418.553 819.035 419.729V420.933H817.929V422.179H819.035V428.213ZM824.131 419.631C824.761 419.631 825.027 419.295 825.027 418.833V418.595C825.027 418.133 824.761 417.797 824.131 417.797C823.501 417.797 823.221 418.133 823.221 418.595V418.833C823.221 419.295 823.501 419.631 824.131 419.631ZM830.039 428.381C831.439 428.381 832.433 427.723 832.909 426.533L831.747 425.917C831.439 426.645 830.921 427.121 830.039 427.121C828.919 427.121 828.345 426.351 828.345 425.231V423.929C828.345 422.809 828.919 422.039 830.039 422.039C830.865 422.039 831.383 422.473 831.593 423.145L832.853 422.557C832.419 421.479 831.495 420.765 830.039 420.765C827.939 420.765 826.735 422.249 826.735 424.573C826.735 426.897 827.939 428.381 830.039 428.381ZM840.71 428.213V426.967H839.94V423.313C839.94 421.689 838.89 420.765 837.014 420.765C835.6 420.765 834.746 421.367 834.27 422.179L835.18 423.005C835.544 422.431 836.062 422.011 836.916 422.011C837.938 422.011 838.414 422.529 838.414 423.411V424.027H837.098C835.068 424.027 833.99 424.769 833.99 426.211C833.99 427.527 834.844 428.381 836.342 428.381C837.406 428.381 838.19 427.905 838.47 426.995H838.54C838.638 427.709 839.058 428.213 839.856 428.213H840.71ZM836.776 427.219C836.02 427.219 835.544 426.883 835.544 426.239V425.987C835.544 425.357 836.062 425.007 837.126 425.007H838.414V426.057C838.414 426.771 837.714 427.219 836.776 427.219ZM845.67 428.213V426.967H844.256V422.179H845.782V420.933H844.256V418.945H842.884V420.219C842.884 420.723 842.716 420.933 842.212 420.933H841.596V422.179H842.73V426.631C842.73 427.625 843.29 428.213 844.34 428.213H845.67ZM848.367 419.631C848.997 419.631 849.263 419.295 849.263 418.833V418.595C849.263 418.133 848.997 417.797 848.367 417.797C847.737 417.797 847.457 418.133 847.457 418.595V418.833C847.457 419.295 847.737 419.631 848.367 419.631ZM847.597 428.213H849.123V420.933H847.597V428.213ZM854.319 428.381C856.349 428.381 857.665 426.897 857.665 424.573C857.665 422.249 856.349 420.765 854.319 420.765C852.289 420.765 850.973 422.249 850.973 424.573C850.973 426.897 852.289 428.381 854.319 428.381ZM854.319 427.121C853.283 427.121 852.583 426.477 852.583 425.189V423.957C852.583 422.669 853.283 422.025 854.319 422.025C855.355 422.025 856.055 422.669 856.055 423.957V425.189C856.055 426.477 855.355 427.121 854.319 427.121ZM861.051 428.213V423.341C861.051 422.487 861.835 422.081 862.633 422.081C863.571 422.081 864.005 422.655 864.005 423.789V428.213H865.531V423.593C865.531 421.801 864.649 420.765 863.165 420.765C862.045 420.765 861.429 421.353 861.121 422.137H861.051V420.933H859.525V428.213H861.051ZM871.653 428.213H873.179V422.179H874.705V420.933H873.179V419.099H874.705V417.853H873.501C872.283 417.853 871.653 418.553 871.653 419.729V420.933H870.547V422.179H871.653V428.213ZM882.38 428.213V426.967H881.61V423.313C881.61 421.689 880.56 420.765 878.684 420.765C877.27 420.765 876.416 421.367 875.94 422.179L876.85 423.005C877.214 422.431 877.732 422.011 878.586 422.011C879.608 422.011 880.084 422.529 880.084 423.411V424.027H878.768C876.738 424.027 875.66 424.769 875.66 426.211C875.66 427.527 876.514 428.381 878.012 428.381C879.076 428.381 879.86 427.905 880.14 426.995H880.21C880.308 427.709 880.728 428.213 881.526 428.213H882.38ZM878.446 427.219C877.69 427.219 877.214 426.883 877.214 426.239V425.987C877.214 425.357 877.732 425.007 878.796 425.007H880.084V426.057C880.084 426.771 879.384 427.219 878.446 427.219ZM886.85 428.381C888.25 428.381 889.244 427.723 889.72 426.533L888.558 425.917C888.25 426.645 887.732 427.121 886.85 427.121C885.73 427.121 885.156 426.351 885.156 425.231V423.929C885.156 422.809 885.73 422.039 886.85 422.039C887.676 422.039 888.194 422.473 888.404 423.145L889.664 422.557C889.23 421.479 888.306 420.765 886.85 420.765C884.75 420.765 883.546 422.249 883.546 424.573C883.546 426.897 884.75 428.381 886.85 428.381ZM894.679 428.213V426.967H893.265V422.179H894.791V420.933H893.265V418.945H891.893V420.219C891.893 420.723 891.725 420.933 891.221 420.933H890.605V422.179H891.739V426.631C891.739 427.625 892.299 428.213 893.349 428.213H894.679ZM899.407 428.381C901.437 428.381 902.753 426.897 902.753 424.573C902.753 422.249 901.437 420.765 899.407 420.765C897.377 420.765 896.061 422.249 896.061 424.573C896.061 426.897 897.377 428.381 899.407 428.381ZM899.407 427.121C898.371 427.121 897.671 426.477 897.671 425.189V423.957C897.671 422.669 898.371 422.025 899.407 422.025C900.443 422.025 901.143 422.669 901.143 423.957V425.189C901.143 426.477 900.443 427.121 899.407 427.121ZM906.14 428.213V423.565C906.14 422.809 906.812 422.403 908.016 422.403H908.618V420.933H908.212C907.05 420.933 906.42 421.591 906.21 422.333H906.14V420.933H904.614V428.213H906.14Z" fill="#121619"/>
<path d="M733.519 279.228V284.996C733.519 287.852 734.499 289.168 737.173 289.168C739.847 289.168 740.827 287.852 740.827 284.996V279.228H739.273V285.248C739.273 286.9 738.699 287.754 737.173 287.754C735.647 287.754 735.073 286.9 735.073 285.248V279.228H733.519ZM744.747 289V284.128C744.747 283.274 745.531 282.868 746.329 282.868C747.267 282.868 747.701 283.442 747.701 284.576V289H749.227V284.38C749.227 282.588 748.345 281.552 746.861 281.552C745.741 281.552 745.125 282.14 744.817 282.924H744.747V281.72H743.221V289H744.747ZM753.028 289V284.114C753.028 283.274 753.77 282.868 754.526 282.868C755.422 282.868 755.856 283.428 755.856 284.562V289H757.382V284.114C757.382 283.274 758.096 282.868 758.866 282.868C759.79 282.868 760.21 283.442 760.21 284.562V289H761.736V284.38C761.736 282.588 760.882 281.552 759.44 281.552C758.264 281.552 757.508 282.224 757.242 283.036H757.2C756.85 282.028 756.024 281.552 755.044 281.552C753.938 281.552 753.392 282.168 753.098 282.924H753.028V281.72H751.502V289H753.028ZM764.778 280.418C765.408 280.418 765.674 280.082 765.674 279.62V279.382C765.674 278.92 765.408 278.584 764.778 278.584C764.148 278.584 763.868 278.92 763.868 279.382V279.62C763.868 280.082 764.148 280.418 764.778 280.418ZM764.008 289H765.534V281.72H764.008V289ZM771.219 289V287.754H769.805V282.966H771.331V281.72H769.805V279.732H768.433V281.006C768.433 281.51 768.265 281.72 767.761 281.72H767.145V282.966H768.279V287.418C768.279 288.412 768.839 289 769.889 289H771.219ZM773.916 280.418C774.546 280.418 774.812 280.082 774.812 279.62V279.382C774.812 278.92 774.546 278.584 773.916 278.584C773.286 278.584 773.006 278.92 773.006 279.382V279.62C773.006 280.082 773.286 280.418 773.916 280.418ZM773.146 289H774.672V281.72H773.146V289ZM783.395 289.686C783.395 288.426 782.639 287.67 780.847 287.67H779.055C778.411 287.67 778.033 287.516 778.033 287.124C778.033 286.76 778.369 286.522 778.733 286.396C778.999 286.466 779.335 286.508 779.685 286.508C781.533 286.508 782.597 285.514 782.597 284.044C782.597 283.204 782.233 282.504 781.575 282.07V281.776H783.059V280.544H781.939C781.295 280.544 780.987 280.936 780.987 281.58V281.776C780.609 281.622 780.161 281.552 779.671 281.552C777.823 281.552 776.773 282.56 776.773 284.044C776.773 285.024 777.249 285.794 778.103 286.2V286.256C777.403 286.424 776.815 286.788 776.815 287.544C776.815 288.09 777.109 288.496 777.641 288.664V288.818C776.871 288.986 776.395 289.42 776.395 290.218C776.395 291.324 777.319 291.968 779.699 291.968C782.317 291.968 783.395 291.198 783.395 289.686ZM781.967 289.854C781.967 290.526 781.379 290.862 780.189 290.862H779.237C778.103 290.862 777.669 290.456 777.669 289.868C777.669 289.518 777.837 289.224 778.173 289.028H780.637C781.631 289.028 781.967 289.35 781.967 289.854ZM779.685 285.402C778.789 285.402 778.271 284.996 778.271 284.17V283.89C778.271 283.064 778.789 282.658 779.685 282.658C780.581 282.658 781.099 283.064 781.099 283.89V284.17C781.099 284.996 780.581 285.402 779.685 285.402ZM790.837 289V287.754H790.067V284.1C790.067 282.476 789.017 281.552 787.141 281.552C785.727 281.552 784.873 282.154 784.397 282.966L785.307 283.792C785.671 283.218 786.189 282.798 787.043 282.798C788.065 282.798 788.541 283.316 788.541 284.198V284.814H787.225C785.195 284.814 784.117 285.556 784.117 286.998C784.117 288.314 784.971 289.168 786.469 289.168C787.533 289.168 788.317 288.692 788.597 287.782H788.667C788.765 288.496 789.185 289 789.983 289H790.837ZM786.903 288.006C786.147 288.006 785.671 287.67 785.671 287.026V286.774C785.671 286.144 786.189 285.794 787.253 285.794H788.541V286.844C788.541 287.558 787.841 288.006 786.903 288.006ZM795.798 289V287.754H794.384V282.966H795.91V281.72H794.384V279.732H793.012V281.006C793.012 281.51 792.844 281.72 792.34 281.72H791.724V282.966H792.858V287.418C792.858 288.412 793.418 289 794.468 289H795.798ZM800.527 289.168C801.885 289.168 802.949 288.58 803.495 287.698L802.599 286.816C802.179 287.488 801.577 287.908 800.681 287.908C799.449 287.908 798.763 287.11 798.763 285.99V285.752H803.761V285.178C803.761 283.162 802.669 281.552 800.527 281.552C798.455 281.552 797.181 283.036 797.181 285.36C797.181 287.684 798.455 289.168 800.527 289.168ZM800.527 282.742C801.535 282.742 802.151 283.484 802.151 284.604V284.744H798.763V284.646C798.763 283.526 799.477 282.742 800.527 282.742ZM810.188 289H811.714V278.64H810.188V282.924H810.118C809.81 282.056 809.04 281.552 808.074 281.552C806.24 281.552 805.176 282.966 805.176 285.36C805.176 287.754 806.24 289.168 808.074 289.168C809.04 289.168 809.81 288.65 810.118 287.796H810.188V289ZM808.536 287.852C807.486 287.852 806.786 287.11 806.786 285.99V284.73C806.786 283.61 807.486 282.868 808.536 282.868C809.46 282.868 810.188 283.372 810.188 284.114V286.606C810.188 287.348 809.46 287.852 808.536 287.852ZM820.898 289L823.404 281.72H821.948L820.814 285.038L820.072 287.586H819.988L819.246 285.038L818.14 281.72H816.628L819.106 289H820.898ZM830.913 289V287.754H830.143V284.1C830.143 282.476 829.093 281.552 827.217 281.552C825.803 281.552 824.949 282.154 824.473 282.966L825.383 283.792C825.747 283.218 826.265 282.798 827.119 282.798C828.141 282.798 828.617 283.316 828.617 284.198V284.814H827.301C825.271 284.814 824.193 285.556 824.193 286.998C824.193 288.314 825.047 289.168 826.545 289.168C827.609 289.168 828.393 288.692 828.673 287.782H828.743C828.841 288.496 829.261 289 830.059 289H830.913ZM826.979 288.006C826.223 288.006 825.747 287.67 825.747 287.026V286.774C825.747 286.144 826.265 285.794 827.329 285.794H828.617V286.844C828.617 287.558 827.917 288.006 826.979 288.006ZM835.102 289V287.754H834.094V278.64H832.568V287.488C832.568 288.426 833.086 289 834.122 289H835.102ZM841.131 289H842.657V281.72H841.131V286.592C841.131 287.446 840.361 287.852 839.577 287.852C838.639 287.852 838.177 287.264 838.177 286.158V281.72H836.651V286.354C836.651 288.146 837.533 289.168 839.031 289.168C840.235 289.168 840.809 288.51 841.075 287.796H841.131V289ZM847.858 289.168C849.216 289.168 850.28 288.58 850.826 287.698L849.93 286.816C849.51 287.488 848.908 287.908 848.012 287.908C846.78 287.908 846.094 287.11 846.094 285.99V285.752H851.092V285.178C851.092 283.162 850 281.552 847.858 281.552C845.786 281.552 844.512 283.036 844.512 285.36C844.512 287.684 845.786 289.168 847.858 289.168ZM847.858 282.742C848.866 282.742 849.482 283.484 849.482 284.604V284.744H846.094V284.646C846.094 283.526 846.808 282.742 847.858 282.742Z" fill="#0043CE"/>
<path d="M883.399 179H885.163V169.228H883.651V176.704H883.609L882.531 174.632L879.339 169.228H877.575V179H879.087V171.524H879.129L880.207 173.596L883.399 179ZM890.473 179.168C892.503 179.168 893.819 177.684 893.819 175.36C893.819 173.036 892.503 171.552 890.473 171.552C888.443 171.552 887.127 173.036 887.127 175.36C887.127 177.684 888.443 179.168 890.473 179.168ZM890.473 177.908C889.437 177.908 888.737 177.264 888.737 175.976V174.744C888.737 173.456 889.437 172.812 890.473 172.812C891.509 172.812 892.209 173.456 892.209 174.744V175.976C892.209 177.264 891.509 177.908 890.473 177.908ZM896.45 170.418C897.08 170.418 897.346 170.082 897.346 169.62V169.382C897.346 168.92 897.08 168.584 896.45 168.584C895.82 168.584 895.54 168.92 895.54 169.382V169.62C895.54 170.082 895.82 170.418 896.45 170.418ZM895.68 179H897.206V171.72H895.68V179ZM901.855 179.168C903.605 179.168 904.739 178.23 904.739 176.83C904.739 175.654 904.025 174.954 902.429 174.716L901.757 174.632C900.987 174.506 900.637 174.254 900.637 173.694C900.637 173.148 901.029 172.784 901.869 172.784C902.653 172.784 903.269 173.162 903.647 173.61L904.585 172.714C903.927 171.986 903.185 171.552 901.869 171.552C900.273 171.552 899.167 172.378 899.167 173.792C899.167 175.136 900.077 175.78 901.561 175.962L902.233 176.046C902.989 176.144 903.269 176.494 903.269 176.956C903.269 177.572 902.821 177.936 901.939 177.936C901.071 177.936 900.413 177.544 899.881 176.9L898.901 177.796C899.587 178.65 900.483 179.168 901.855 179.168ZM909.479 179.168C910.837 179.168 911.901 178.58 912.447 177.698L911.551 176.816C911.131 177.488 910.529 177.908 909.633 177.908C908.401 177.908 907.715 177.11 907.715 175.99V175.752H912.713V175.178C912.713 173.162 911.621 171.552 909.479 171.552C907.407 171.552 906.133 173.036 906.133 175.36C906.133 177.684 907.407 179.168 909.479 179.168ZM909.479 172.742C910.487 172.742 911.103 173.484 911.103 174.604V174.744H907.715V174.646C907.715 173.526 908.429 172.742 909.479 172.742ZM924.219 179V177.754H923.449V174.1C923.449 172.476 922.399 171.552 920.523 171.552C919.109 171.552 918.255 172.154 917.779 172.966L918.689 173.792C919.053 173.218 919.571 172.798 920.425 172.798C921.447 172.798 921.923 173.316 921.923 174.198V174.814H920.607C918.577 174.814 917.499 175.556 917.499 176.998C917.499 178.314 918.353 179.168 919.851 179.168C920.915 179.168 921.699 178.692 921.979 177.782H922.049C922.147 178.496 922.567 179 923.365 179H924.219ZM920.285 178.006C919.529 178.006 919.053 177.67 919.053 177.026V176.774C919.053 176.144 919.571 175.794 920.635 175.794H921.923V176.844C921.923 177.558 921.223 178.006 920.285 178.006ZM927.4 179V174.114C927.4 173.274 928.142 172.868 928.898 172.868C929.794 172.868 930.228 173.428 930.228 174.562V179H931.754V174.114C931.754 173.274 932.468 172.868 933.238 172.868C934.162 172.868 934.582 173.442 934.582 174.562V179H936.108V174.38C936.108 172.588 935.254 171.552 933.812 171.552C932.636 171.552 931.88 172.224 931.614 173.036H931.572C931.222 172.028 930.396 171.552 929.416 171.552C928.31 171.552 927.764 172.168 927.47 172.924H927.4V171.72H925.874V179H927.4ZM938.38 181.8H939.906V177.796H939.976C940.284 178.65 941.054 179.168 942.02 179.168C943.854 179.168 944.918 177.754 944.918 175.36C944.918 172.966 943.854 171.552 942.02 171.552C941.054 171.552 940.284 172.056 939.976 172.924H939.906V171.72H938.38V181.8ZM941.558 177.852C940.634 177.852 939.906 177.348 939.906 176.606V174.114C939.906 173.372 940.634 172.868 941.558 172.868C942.608 172.868 943.308 173.61 943.308 174.73V175.99C943.308 177.11 942.608 177.852 941.558 177.852ZM949.359 179V177.754H948.351V168.64H946.825V177.488C946.825 178.426 947.343 179 948.379 179H949.359ZM951.747 170.418C952.377 170.418 952.643 170.082 952.643 169.62V169.382C952.643 168.92 952.377 168.584 951.747 168.584C951.117 168.584 950.837 168.92 950.837 169.382V169.62C950.837 170.082 951.117 170.418 951.747 170.418ZM950.977 179H952.503V171.72H950.977V179ZM955.22 179H956.746V172.966H959.546V179H961.072V171.72H956.746V169.886H958.272V168.64H957.068C955.85 168.64 955.22 169.34 955.22 170.516V171.72H954.114V172.966H955.22V179ZM960.316 170.418C960.946 170.418 961.212 170.082 961.212 169.62V169.382C961.212 168.92 960.946 168.584 960.316 168.584C959.686 168.584 959.406 168.92 959.406 169.382V169.62C959.406 170.082 959.686 170.418 960.316 170.418ZM966.266 179.168C967.624 179.168 968.688 178.58 969.234 177.698L968.338 176.816C967.918 177.488 967.316 177.908 966.42 177.908C965.188 177.908 964.502 177.11 964.502 175.99V175.752H969.5V175.178C969.5 173.162 968.408 171.552 966.266 171.552C964.194 171.552 962.92 173.036 962.92 175.36C962.92 177.684 964.194 179.168 966.266 179.168ZM966.266 172.742C967.274 172.742 967.89 173.484 967.89 174.604V174.744H964.502V174.646C964.502 173.526 965.216 172.742 966.266 172.742ZM975.928 179H977.454V168.64H975.928V172.924H975.858C975.55 172.056 974.78 171.552 973.814 171.552C971.98 171.552 970.916 172.966 970.916 175.36C970.916 177.754 971.98 179.168 973.814 179.168C974.78 179.168 975.55 178.65 975.858 177.796H975.928V179ZM974.276 177.852C973.226 177.852 972.526 177.11 972.526 175.99V174.73C972.526 173.61 973.226 172.868 974.276 172.868C975.2 172.868 975.928 173.372 975.928 174.114V176.606C975.928 177.348 975.2 177.852 974.276 177.852ZM986.637 179L989.143 171.72H987.687L986.553 175.038L985.811 177.586H985.727L984.985 175.038L983.879 171.72H982.367L984.845 179H986.637ZM996.652 179V177.754H995.882V174.1C995.882 172.476 994.832 171.552 992.956 171.552C991.542 171.552 990.688 172.154 990.212 172.966L991.122 173.792C991.486 173.218 992.004 172.798 992.858 172.798C993.88 172.798 994.356 173.316 994.356 174.198V174.814H993.04C991.01 174.814 989.932 175.556 989.932 176.998C989.932 178.314 990.786 179.168 992.284 179.168C993.348 179.168 994.132 178.692 994.412 177.782H994.482C994.58 178.496 995 179 995.798 179H996.652ZM992.718 178.006C991.962 178.006 991.486 177.67 991.486 177.026V176.774C991.486 176.144 992.004 175.794 993.068 175.794H994.356V176.844C994.356 177.558 993.656 178.006 992.718 178.006ZM1000.84 179V177.754H999.834V168.64H998.308V177.488C998.308 178.426 998.826 179 999.862 179H1000.84ZM1006.87 179H1008.4V171.72H1006.87V176.592C1006.87 177.446 1006.1 177.852 1005.32 177.852C1004.38 177.852 1003.92 177.264 1003.92 176.158V171.72H1002.39V176.354C1002.39 178.146 1003.27 179.168 1004.77 179.168C1005.97 179.168 1006.55 178.51 1006.81 177.796H1006.87V179ZM1013.6 179.168C1014.96 179.168 1016.02 178.58 1016.57 177.698L1015.67 176.816C1015.25 177.488 1014.65 177.908 1013.75 177.908C1012.52 177.908 1011.83 177.11 1011.83 175.99V175.752H1016.83V175.178C1016.83 173.162 1015.74 171.552 1013.6 171.552C1011.53 171.552 1010.25 173.036 1010.25 175.36C1010.25 177.684 1011.53 179.168 1013.6 179.168ZM1013.6 172.742C1014.61 172.742 1015.22 173.484 1015.22 174.604V174.744H1011.83V174.646C1011.83 173.526 1012.55 172.742 1013.6 172.742ZM1020.99 179.168C1022.74 179.168 1023.87 178.23 1023.87 176.83C1023.87 175.654 1023.16 174.954 1021.56 174.716L1020.89 174.632C1020.12 174.506 1019.77 174.254 1019.77 173.694C1019.77 173.148 1020.16 172.784 1021 172.784C1021.79 172.784 1022.4 173.162 1022.78 173.61L1023.72 172.714C1023.06 171.986 1022.32 171.552 1021 171.552C1019.41 171.552 1018.3 172.378 1018.3 173.792C1018.3 175.136 1019.21 175.78 1020.7 175.962L1021.37 176.046C1022.12 176.144 1022.4 176.494 1022.4 176.956C1022.4 177.572 1021.96 177.936 1021.07 177.936C1020.21 177.936 1019.55 177.544 1019.02 176.9L1018.04 177.796C1018.72 178.65 1019.62 179.168 1020.99 179.168Z" fill="#0043CE"/>
<path d="M1011.65 359V357.6H1006.97V354.744H1011.21V353.344H1006.97V350.628H1011.65V349.228H1005.39V359H1011.65ZM1012.92 359H1014.55L1016.3 356.354H1016.34L1018.02 359H1019.78L1017.25 355.304L1019.74 351.72H1018.12L1016.44 354.254H1016.4L1014.76 351.72H1012.99L1015.49 355.318L1012.92 359ZM1027.51 359V357.754H1026.74V354.1C1026.74 352.476 1025.69 351.552 1023.81 351.552C1022.4 351.552 1021.54 352.154 1021.07 352.966L1021.98 353.792C1022.34 353.218 1022.86 352.798 1023.71 352.798C1024.74 352.798 1025.21 353.316 1025.21 354.198V354.814H1023.9C1021.87 354.814 1020.79 355.556 1020.79 356.998C1020.79 358.314 1021.64 359.168 1023.14 359.168C1024.2 359.168 1024.99 358.692 1025.27 357.782H1025.34C1025.44 358.496 1025.86 359 1026.65 359H1027.51ZM1023.57 358.006C1022.82 358.006 1022.34 357.67 1022.34 357.026V356.774C1022.34 356.144 1022.86 355.794 1023.92 355.794H1025.21V356.844C1025.21 357.558 1024.51 358.006 1023.57 358.006ZM1031.98 359.168C1033.38 359.168 1034.37 358.51 1034.85 357.32L1033.69 356.704C1033.38 357.432 1032.86 357.908 1031.98 357.908C1030.86 357.908 1030.28 357.138 1030.28 356.018V354.716C1030.28 353.596 1030.86 352.826 1031.98 352.826C1032.8 352.826 1033.32 353.26 1033.53 353.932L1034.79 353.344C1034.36 352.266 1033.43 351.552 1031.98 351.552C1029.88 351.552 1028.67 353.036 1028.67 355.36C1028.67 357.684 1029.88 359.168 1031.98 359.168ZM1039.81 359V357.754H1038.39V352.966H1039.92V351.72H1038.39V349.732H1037.02V351.006C1037.02 351.51 1036.85 351.72 1036.35 351.72H1035.73V352.966H1036.87V357.418C1036.87 358.412 1037.43 359 1038.48 359H1039.81ZM1048.58 359L1051.08 351.72H1049.63L1048.49 355.038L1047.75 357.586H1047.67L1046.92 355.038L1045.82 351.72H1044.31L1046.78 359H1048.58ZM1058.59 359V357.754H1057.82V354.1C1057.82 352.476 1056.77 351.552 1054.9 351.552C1053.48 351.552 1052.63 352.154 1052.15 352.966L1053.06 353.792C1053.43 353.218 1053.94 352.798 1054.8 352.798C1055.82 352.798 1056.3 353.316 1056.3 354.198V354.814H1054.98C1052.95 354.814 1051.87 355.556 1051.87 356.998C1051.87 358.314 1052.73 359.168 1054.22 359.168C1055.29 359.168 1056.07 358.692 1056.35 357.782H1056.42C1056.52 358.496 1056.94 359 1057.74 359H1058.59ZM1054.66 358.006C1053.9 358.006 1053.43 357.67 1053.43 357.026V356.774C1053.43 356.144 1053.94 355.794 1055.01 355.794H1056.3V356.844C1056.3 357.558 1055.6 358.006 1054.66 358.006ZM1062.78 359V357.754H1061.77V348.64H1060.25V357.488C1060.25 358.426 1060.76 359 1061.8 359H1062.78ZM1068.81 359H1070.34V351.72H1068.81V356.592C1068.81 357.446 1068.04 357.852 1067.26 357.852C1066.32 357.852 1065.86 357.264 1065.86 356.158V351.72H1064.33V356.354C1064.33 358.146 1065.21 359.168 1066.71 359.168C1067.91 359.168 1068.49 358.51 1068.75 357.796H1068.81V359ZM1075.54 359.168C1076.89 359.168 1077.96 358.58 1078.5 357.698L1077.61 356.816C1077.19 357.488 1076.59 357.908 1075.69 357.908C1074.46 357.908 1073.77 357.11 1073.77 355.99V355.752H1078.77V355.178C1078.77 353.162 1077.68 351.552 1075.54 351.552C1073.46 351.552 1072.19 353.036 1072.19 355.36C1072.19 357.684 1073.46 359.168 1075.54 359.168ZM1075.54 352.742C1076.54 352.742 1077.16 353.484 1077.16 354.604V354.744H1073.77V354.646C1073.77 353.526 1074.49 352.742 1075.54 352.742Z" fill="#121619"/>
<path d="M616.186 269.538H614.786V274.214H611.93V269.972H610.53V274.214H607.814V269.538H606.414V275.796H616.186V269.538ZM616.186 268.261V266.637L613.54 264.887V264.845L616.186 263.165V261.401L612.49 263.935L608.906 261.443V263.067L611.44 264.747V264.789L608.906 266.427V268.191L612.504 265.699L616.186 268.261ZM618.986 259.865V258.339H614.982V258.269C615.836 257.961 616.354 257.191 616.354 256.225C616.354 254.391 614.94 253.327 612.546 253.327C610.152 253.327 608.738 254.391 608.738 256.225C608.738 257.191 609.242 257.961 610.11 258.269V258.339H608.906V259.865H618.986ZM615.038 256.687C615.038 257.611 614.534 258.339 613.792 258.339H611.3C610.558 258.339 610.054 257.611 610.054 256.687C610.054 255.637 610.796 254.937 611.916 254.937H613.176C614.296 254.937 615.038 255.637 615.038 256.687ZM616.354 248.564C616.354 247.206 615.766 246.142 614.884 245.596L614.002 246.492C614.674 246.912 615.094 247.514 615.094 248.41C615.094 249.642 614.296 250.328 613.176 250.328H612.938V245.33H612.364C610.348 245.33 608.738 246.422 608.738 248.564C608.738 250.636 610.222 251.91 612.546 251.91C614.87 251.91 616.354 250.636 616.354 248.564ZM609.928 248.564C609.928 247.556 610.67 246.94 611.79 246.94H611.93V250.328H611.832C610.712 250.328 609.928 249.614 609.928 248.564ZM616.354 240.667C616.354 239.267 615.696 238.273 614.506 237.797L613.89 238.959C614.618 239.267 615.094 239.785 615.094 240.667C615.094 241.787 614.324 242.361 613.204 242.361H611.902C610.782 242.361 610.012 241.787 610.012 240.667C610.012 239.841 610.446 239.323 611.118 239.113L610.53 237.853C609.452 238.287 608.738 239.211 608.738 240.667C608.738 242.767 610.222 243.971 612.546 243.971C614.87 243.971 616.354 242.767 616.354 240.667ZM616.186 232.838H614.94V234.252H610.152V232.726H608.906V234.252H606.918V235.624H608.192C608.696 235.624 608.906 235.792 608.906 236.296V236.912H610.152V235.778H614.604C615.598 235.778 616.186 235.218 616.186 234.168V232.838ZM616.186 224.723H614.94V225.493H611.286C609.662 225.493 608.738 226.543 608.738 228.419C608.738 229.833 609.34 230.687 610.152 231.163L610.978 230.253C610.404 229.889 609.984 229.371 609.984 228.517C609.984 227.495 610.502 227.019 611.384 227.019H612V228.335C612 230.365 612.742 231.443 614.184 231.443C615.5 231.443 616.354 230.589 616.354 229.091C616.354 228.027 615.878 227.243 614.968 226.963V226.893C615.682 226.795 616.186 226.375 616.186 225.577V224.723ZM615.192 228.657C615.192 229.413 614.856 229.889 614.212 229.889H613.96C613.33 229.889 612.98 229.371 612.98 228.307V227.019H614.03C614.744 227.019 615.192 227.719 615.192 228.657ZM616.186 219.762H614.94V221.176H610.152V219.65H608.906V221.176H606.918V222.548H608.192C608.696 222.548 608.906 222.716 608.906 223.22V223.836H610.152V222.702H614.604C615.598 222.702 616.186 222.142 616.186 221.092V219.762ZM607.604 217.065C607.604 216.435 607.268 216.169 606.806 216.169H606.568C606.106 216.169 605.77 216.435 605.77 217.065C605.77 217.695 606.106 217.975 606.568 217.975H606.806C607.268 217.975 607.604 217.695 607.604 217.065ZM616.186 217.835V216.309H608.906V217.835H616.186ZM616.354 211.114C616.354 209.084 614.87 207.768 612.546 207.768C610.222 207.768 608.738 209.084 608.738 211.114C608.738 213.144 610.222 214.46 612.546 214.46C614.87 214.46 616.354 213.144 616.354 211.114ZM615.094 211.114C615.094 212.15 614.45 212.85 613.162 212.85H611.93C610.642 212.85 609.998 212.15 609.998 211.114C609.998 210.078 610.642 209.378 611.93 209.378H613.162C614.45 209.378 615.094 210.078 615.094 211.114ZM616.186 204.382H611.314C610.46 204.382 610.054 203.598 610.054 202.8C610.054 201.862 610.628 201.428 611.762 201.428H616.186V199.902H611.566C609.774 199.902 608.738 200.784 608.738 202.268C608.738 203.388 609.326 204.004 610.11 204.312V204.382H608.906V205.908H616.186V204.382ZM616.186 190.784L608.906 188.278V189.734L612.224 190.868L614.772 191.61V191.694L612.224 192.436L608.906 193.542V195.054L616.186 192.576V190.784ZM616.186 180.769H614.94V181.539H611.286C609.662 181.539 608.738 182.589 608.738 184.465C608.738 185.879 609.34 186.733 610.152 187.209L610.978 186.299C610.404 185.935 609.984 185.417 609.984 184.563C609.984 183.541 610.502 183.065 611.384 183.065H612V184.381C612 186.411 612.742 187.489 614.184 187.489C615.5 187.489 616.354 186.635 616.354 185.137C616.354 184.073 615.878 183.289 614.968 183.009V182.939C615.682 182.841 616.186 182.421 616.186 181.623V180.769ZM615.192 184.703C615.192 185.459 614.856 185.935 614.212 185.935H613.96C613.33 185.935 612.98 185.417 612.98 184.353V183.065H614.03C614.744 183.065 615.192 183.765 615.192 184.703ZM616.186 176.579H614.94V177.587H605.826V179.113H614.674C615.612 179.113 616.186 178.595 616.186 177.559V176.579ZM616.186 170.551V169.025H608.906V170.551H613.778C614.632 170.551 615.038 171.321 615.038 172.105C615.038 173.043 614.45 173.505 613.344 173.505H608.906V175.031H613.54C615.332 175.031 616.354 174.149 616.354 172.651C616.354 171.447 615.696 170.873 614.982 170.607V170.551H616.186ZM616.354 163.824C616.354 162.466 615.766 161.402 614.884 160.856L614.002 161.752C614.674 162.172 615.094 162.774 615.094 163.67C615.094 164.902 614.296 165.588 613.176 165.588H612.938V160.59H612.364C610.348 160.59 608.738 161.682 608.738 163.824C608.738 165.896 610.222 167.17 612.546 167.17C614.87 167.17 616.354 165.896 616.354 163.824ZM609.928 163.824C609.928 162.816 610.67 162.2 611.79 162.2H611.93V165.588H611.832C610.712 165.588 609.928 164.874 609.928 163.824Z" fill="#121619"/>
<path d="M640.186 355H990.186" stroke="black" stroke-dasharray="6 6"/>
<path d="M640.371 327L643.065 335.292H651.784L644.73 340.416L647.425 348.708L640.371 343.584L633.318 348.708L636.012 340.416L628.958 335.292H637.677L640.371 327Z" fill="#198038"/>
<circle cx="777.371" cy="222" r="10" fill="#0043CE"/>
<circle cx="852.371" cy="174" r="10" fill="#0043CE"/>
<circle cx="909.371" cy="114" r="10" fill="#0043CE"/>
<circle cx="976.371" cy="73" r="10" fill="#0043CE"/>
<rect x="699.371" y="273" width="20" height="20" fill="#0043CE"/>
<path d="M1195.19 397L1195.19 47" stroke="black"/>
<path d="M1195.37 397H1545.37" stroke="black"/>
<path d="M1302.21 428.213H1303.98V418.441H1302.47V425.917H1302.42L1301.35 423.845L1298.15 418.441H1296.39V428.213H1297.9V420.737H1297.94L1299.02 422.809L1302.21 428.213ZM1309.29 428.381C1311.32 428.381 1312.63 426.897 1312.63 424.573C1312.63 422.249 1311.32 420.765 1309.29 420.765C1307.26 420.765 1305.94 422.249 1305.94 424.573C1305.94 426.897 1307.26 428.381 1309.29 428.381ZM1309.29 427.121C1308.25 427.121 1307.55 426.477 1307.55 425.189V423.957C1307.55 422.669 1308.25 422.025 1309.29 422.025C1310.32 422.025 1311.02 422.669 1311.02 423.957V425.189C1311.02 426.477 1310.32 427.121 1309.29 427.121ZM1315.26 419.631C1315.89 419.631 1316.16 419.295 1316.16 418.833V418.595C1316.16 418.133 1315.89 417.797 1315.26 417.797C1314.63 417.797 1314.35 418.133 1314.35 418.595V418.833C1314.35 419.295 1314.63 419.631 1315.26 419.631ZM1314.49 428.213H1316.02V420.933H1314.49V428.213ZM1320.67 428.381C1322.42 428.381 1323.55 427.443 1323.55 426.043C1323.55 424.867 1322.84 424.167 1321.24 423.929L1320.57 423.845C1319.8 423.719 1319.45 423.467 1319.45 422.907C1319.45 422.361 1319.84 421.997 1320.68 421.997C1321.47 421.997 1322.08 422.375 1322.46 422.823L1323.4 421.927C1322.74 421.199 1322 420.765 1320.68 420.765C1319.09 420.765 1317.98 421.591 1317.98 423.005C1317.98 424.349 1318.89 424.993 1320.38 425.175L1321.05 425.259C1321.8 425.357 1322.08 425.707 1322.08 426.169C1322.08 426.785 1321.64 427.149 1320.75 427.149C1319.89 427.149 1319.23 426.757 1318.7 426.113L1317.72 427.009C1318.4 427.863 1319.3 428.381 1320.67 428.381ZM1328.29 428.381C1329.65 428.381 1330.72 427.793 1331.26 426.911L1330.37 426.029C1329.95 426.701 1329.34 427.121 1328.45 427.121C1327.22 427.121 1326.53 426.323 1326.53 425.203V424.965H1331.53V424.391C1331.53 422.375 1330.44 420.765 1328.29 420.765C1326.22 420.765 1324.95 422.249 1324.95 424.573C1324.95 426.897 1326.22 428.381 1328.29 428.381ZM1328.29 421.955C1329.3 421.955 1329.92 422.697 1329.92 423.817V423.957H1326.53V423.859C1326.53 422.739 1327.24 421.955 1328.29 421.955ZM1343.03 428.213V426.967H1342.26V423.313C1342.26 421.689 1341.21 420.765 1339.34 420.765C1337.92 420.765 1337.07 421.367 1336.59 422.179L1337.5 423.005C1337.87 422.431 1338.38 422.011 1339.24 422.011C1340.26 422.011 1340.74 422.529 1340.74 423.411V424.027H1339.42C1337.39 424.027 1336.31 424.769 1336.31 426.211C1336.31 427.527 1337.17 428.381 1338.66 428.381C1339.73 428.381 1340.51 427.905 1340.79 426.995H1340.86C1340.96 427.709 1341.38 428.213 1342.18 428.213H1343.03ZM1339.1 427.219C1338.34 427.219 1337.87 426.883 1337.87 426.239V425.987C1337.87 425.357 1338.38 425.007 1339.45 425.007H1340.74V426.057C1340.74 426.771 1340.04 427.219 1339.1 427.219ZM1346.21 428.213V423.327C1346.21 422.487 1346.96 422.081 1347.71 422.081C1348.61 422.081 1349.04 422.641 1349.04 423.775V428.213H1350.57V423.327C1350.57 422.487 1351.28 422.081 1352.05 422.081C1352.98 422.081 1353.4 422.655 1353.4 423.775V428.213H1354.92V423.593C1354.92 421.801 1354.07 420.765 1352.63 420.765C1351.45 420.765 1350.69 421.437 1350.43 422.249H1350.39C1350.04 421.241 1349.21 420.765 1348.23 420.765C1347.12 420.765 1346.58 421.381 1346.28 422.137H1346.21V420.933H1344.69V428.213H1346.21ZM1357.19 431.013H1358.72V427.009H1358.79C1359.1 427.863 1359.87 428.381 1360.83 428.381C1362.67 428.381 1363.73 426.967 1363.73 424.573C1363.73 422.179 1362.67 420.765 1360.83 420.765C1359.87 420.765 1359.1 421.269 1358.79 422.137H1358.72V420.933H1357.19V431.013ZM1360.37 427.065C1359.45 427.065 1358.72 426.561 1358.72 425.819V423.327C1358.72 422.585 1359.45 422.081 1360.37 422.081C1361.42 422.081 1362.12 422.823 1362.12 423.943V425.203C1362.12 426.323 1361.42 427.065 1360.37 427.065ZM1368.17 428.213V426.967H1367.17V417.853H1365.64V426.701C1365.64 427.639 1366.16 428.213 1367.19 428.213H1368.17ZM1370.56 419.631C1371.19 419.631 1371.46 419.295 1371.46 418.833V418.595C1371.46 418.133 1371.19 417.797 1370.56 417.797C1369.93 417.797 1369.65 418.133 1369.65 418.595V418.833C1369.65 419.295 1369.93 419.631 1370.56 419.631ZM1369.79 428.213H1371.32V420.933H1369.79V428.213ZM1374.03 428.213H1375.56V422.179H1378.36V428.213H1379.89V420.933H1375.56V419.099H1377.09V417.853H1375.88C1374.66 417.853 1374.03 418.553 1374.03 419.729V420.933H1372.93V422.179H1374.03V428.213ZM1379.13 419.631C1379.76 419.631 1380.03 419.295 1380.03 418.833V418.595C1380.03 418.133 1379.76 417.797 1379.13 417.797C1378.5 417.797 1378.22 418.133 1378.22 418.595V418.833C1378.22 419.295 1378.5 419.631 1379.13 419.631ZM1385.04 428.381C1386.44 428.381 1387.43 427.723 1387.91 426.533L1386.75 425.917C1386.44 426.645 1385.92 427.121 1385.04 427.121C1383.92 427.121 1383.34 426.351 1383.34 425.231V423.929C1383.34 422.809 1383.92 422.039 1385.04 422.039C1385.86 422.039 1386.38 422.473 1386.59 423.145L1387.85 422.557C1387.42 421.479 1386.49 420.765 1385.04 420.765C1382.94 420.765 1381.73 422.249 1381.73 424.573C1381.73 426.897 1382.94 428.381 1385.04 428.381ZM1395.71 428.213V426.967H1394.94V423.313C1394.94 421.689 1393.89 420.765 1392.01 420.765C1390.6 420.765 1389.75 421.367 1389.27 422.179L1390.18 423.005C1390.54 422.431 1391.06 422.011 1391.92 422.011C1392.94 422.011 1393.41 422.529 1393.41 423.411V424.027H1392.1C1390.07 424.027 1388.99 424.769 1388.99 426.211C1388.99 427.527 1389.84 428.381 1391.34 428.381C1392.41 428.381 1393.19 427.905 1393.47 426.995H1393.54C1393.64 427.709 1394.06 428.213 1394.86 428.213H1395.71ZM1391.78 427.219C1391.02 427.219 1390.54 426.883 1390.54 426.239V425.987C1390.54 425.357 1391.06 425.007 1392.13 425.007H1393.41V426.057C1393.41 426.771 1392.71 427.219 1391.78 427.219ZM1400.67 428.213V426.967H1399.26V422.179H1400.78V420.933H1399.26V418.945H1397.88V420.219C1397.88 420.723 1397.72 420.933 1397.21 420.933H1396.6V422.179H1397.73V426.631C1397.73 427.625 1398.29 428.213 1399.34 428.213H1400.67ZM1403.37 419.631C1404 419.631 1404.26 419.295 1404.26 418.833V418.595C1404.26 418.133 1404 417.797 1403.37 417.797C1402.74 417.797 1402.46 418.133 1402.46 418.595V418.833C1402.46 419.295 1402.74 419.631 1403.37 419.631ZM1402.6 428.213H1404.12V420.933H1402.6V428.213ZM1409.32 428.381C1411.35 428.381 1412.66 426.897 1412.66 424.573C1412.66 422.249 1411.35 420.765 1409.32 420.765C1407.29 420.765 1405.97 422.249 1405.97 424.573C1405.97 426.897 1407.29 428.381 1409.32 428.381ZM1409.32 427.121C1408.28 427.121 1407.58 426.477 1407.58 425.189V423.957C1407.58 422.669 1408.28 422.025 1409.32 422.025C1410.35 422.025 1411.05 422.669 1411.05 423.957V425.189C1411.05 426.477 1410.35 427.121 1409.32 427.121ZM1416.05 428.213V423.341C1416.05 422.487 1416.83 422.081 1417.63 422.081C1418.57 422.081 1419 422.655 1419 423.789V428.213H1420.53V423.593C1420.53 421.801 1419.65 420.765 1418.16 420.765C1417.04 420.765 1416.43 421.353 1416.12 422.137H1416.05V420.933H1414.52V428.213H1416.05ZM1426.65 428.213H1428.18V422.179H1429.7V420.933H1428.18V419.099H1429.7V417.853H1428.5C1427.28 417.853 1426.65 418.553 1426.65 419.729V420.933H1425.55V422.179H1426.65V428.213ZM1437.38 428.213V426.967H1436.61V423.313C1436.61 421.689 1435.56 420.765 1433.68 420.765C1432.27 420.765 1431.42 421.367 1430.94 422.179L1431.85 423.005C1432.21 422.431 1432.73 422.011 1433.59 422.011C1434.61 422.011 1435.08 422.529 1435.08 423.411V424.027H1433.77C1431.74 424.027 1430.66 424.769 1430.66 426.211C1430.66 427.527 1431.51 428.381 1433.01 428.381C1434.08 428.381 1434.86 427.905 1435.14 426.995H1435.21C1435.31 427.709 1435.73 428.213 1436.53 428.213H1437.38ZM1433.45 427.219C1432.69 427.219 1432.21 426.883 1432.21 426.239V425.987C1432.21 425.357 1432.73 425.007 1433.8 425.007H1435.08V426.057C1435.08 426.771 1434.38 427.219 1433.45 427.219ZM1441.85 428.381C1443.25 428.381 1444.24 427.723 1444.72 426.533L1443.56 425.917C1443.25 426.645 1442.73 427.121 1441.85 427.121C1440.73 427.121 1440.16 426.351 1440.16 425.231V423.929C1440.16 422.809 1440.73 422.039 1441.85 422.039C1442.68 422.039 1443.19 422.473 1443.4 423.145L1444.66 422.557C1444.23 421.479 1443.31 420.765 1441.85 420.765C1439.75 420.765 1438.55 422.249 1438.55 424.573C1438.55 426.897 1439.75 428.381 1441.85 428.381ZM1449.68 428.213V426.967H1448.26V422.179H1449.79V420.933H1448.26V418.945H1446.89V420.219C1446.89 420.723 1446.72 420.933 1446.22 420.933H1445.6V422.179H1446.74V426.631C1446.74 427.625 1447.3 428.213 1448.35 428.213H1449.68ZM1454.41 428.381C1456.44 428.381 1457.75 426.897 1457.75 424.573C1457.75 422.249 1456.44 420.765 1454.41 420.765C1452.38 420.765 1451.06 422.249 1451.06 424.573C1451.06 426.897 1452.38 428.381 1454.41 428.381ZM1454.41 427.121C1453.37 427.121 1452.67 426.477 1452.67 425.189V423.957C1452.67 422.669 1453.37 422.025 1454.41 422.025C1455.44 422.025 1456.14 422.669 1456.14 423.957V425.189C1456.14 426.477 1455.44 427.121 1454.41 427.121ZM1461.14 428.213V423.565C1461.14 422.809 1461.81 422.403 1463.02 422.403H1463.62V420.933H1463.21C1462.05 420.933 1461.42 421.591 1461.21 422.333H1461.14V420.933H1459.61V428.213H1461.14Z" fill="#121619"/>
<path d="M1288.52 279.228V284.996C1288.52 287.852 1289.5 289.168 1292.17 289.168C1294.85 289.168 1295.83 287.852 1295.83 284.996V279.228H1294.27V285.248C1294.27 286.9 1293.7 287.754 1292.17 287.754C1290.65 287.754 1290.07 286.9 1290.07 285.248V279.228H1288.52ZM1299.75 289V284.128C1299.75 283.274 1300.53 282.868 1301.33 282.868C1302.27 282.868 1302.7 283.442 1302.7 284.576V289H1304.23V284.38C1304.23 282.588 1303.34 281.552 1301.86 281.552C1300.74 281.552 1300.12 282.14 1299.82 282.924H1299.75V281.72H1298.22V289H1299.75ZM1308.03 289V284.114C1308.03 283.274 1308.77 282.868 1309.53 282.868C1310.42 282.868 1310.86 283.428 1310.86 284.562V289H1312.38V284.114C1312.38 283.274 1313.1 282.868 1313.87 282.868C1314.79 282.868 1315.21 283.442 1315.21 284.562V289H1316.74V284.38C1316.74 282.588 1315.88 281.552 1314.44 281.552C1313.26 281.552 1312.51 282.224 1312.24 283.036H1312.2C1311.85 282.028 1311.02 281.552 1310.04 281.552C1308.94 281.552 1308.39 282.168 1308.1 282.924H1308.03V281.72H1306.5V289H1308.03ZM1319.78 280.418C1320.41 280.418 1320.67 280.082 1320.67 279.62V279.382C1320.67 278.92 1320.41 278.584 1319.78 278.584C1319.15 278.584 1318.87 278.92 1318.87 279.382V279.62C1318.87 280.082 1319.15 280.418 1319.78 280.418ZM1319.01 289H1320.53V281.72H1319.01V289ZM1326.22 289V287.754H1324.8V282.966H1326.33V281.72H1324.8V279.732H1323.43V281.006C1323.43 281.51 1323.26 281.72 1322.76 281.72H1322.14V282.966H1323.28V287.418C1323.28 288.412 1323.84 289 1324.89 289H1326.22ZM1328.92 280.418C1329.55 280.418 1329.81 280.082 1329.81 279.62V279.382C1329.81 278.92 1329.55 278.584 1328.92 278.584C1328.29 278.584 1328.01 278.92 1328.01 279.382V279.62C1328.01 280.082 1328.29 280.418 1328.92 280.418ZM1328.15 289H1329.67V281.72H1328.15V289ZM1338.39 289.686C1338.39 288.426 1337.64 287.67 1335.85 287.67H1334.05C1333.41 287.67 1333.03 287.516 1333.03 287.124C1333.03 286.76 1333.37 286.522 1333.73 286.396C1334 286.466 1334.33 286.508 1334.68 286.508C1336.53 286.508 1337.6 285.514 1337.6 284.044C1337.6 283.204 1337.23 282.504 1336.57 282.07V281.776H1338.06V280.544H1336.94C1336.29 280.544 1335.99 280.936 1335.99 281.58V281.776C1335.61 281.622 1335.16 281.552 1334.67 281.552C1332.82 281.552 1331.77 282.56 1331.77 284.044C1331.77 285.024 1332.25 285.794 1333.1 286.2V286.256C1332.4 286.424 1331.81 286.788 1331.81 287.544C1331.81 288.09 1332.11 288.496 1332.64 288.664V288.818C1331.87 288.986 1331.39 289.42 1331.39 290.218C1331.39 291.324 1332.32 291.968 1334.7 291.968C1337.32 291.968 1338.39 291.198 1338.39 289.686ZM1336.97 289.854C1336.97 290.526 1336.38 290.862 1335.19 290.862H1334.24C1333.1 290.862 1332.67 290.456 1332.67 289.868C1332.67 289.518 1332.84 289.224 1333.17 289.028H1335.64C1336.63 289.028 1336.97 289.35 1336.97 289.854ZM1334.68 285.402C1333.79 285.402 1333.27 284.996 1333.27 284.17V283.89C1333.27 283.064 1333.79 282.658 1334.68 282.658C1335.58 282.658 1336.1 283.064 1336.1 283.89V284.17C1336.1 284.996 1335.58 285.402 1334.68 285.402ZM1345.84 289V287.754H1345.07V284.1C1345.07 282.476 1344.02 281.552 1342.14 281.552C1340.73 281.552 1339.87 282.154 1339.4 282.966L1340.31 283.792C1340.67 283.218 1341.19 282.798 1342.04 282.798C1343.07 282.798 1343.54 283.316 1343.54 284.198V284.814H1342.23C1340.2 284.814 1339.12 285.556 1339.12 286.998C1339.12 288.314 1339.97 289.168 1341.47 289.168C1342.53 289.168 1343.32 288.692 1343.6 287.782H1343.67C1343.77 288.496 1344.19 289 1344.98 289H1345.84ZM1341.9 288.006C1341.15 288.006 1340.67 287.67 1340.67 287.026V286.774C1340.67 286.144 1341.19 285.794 1342.25 285.794H1343.54V286.844C1343.54 287.558 1342.84 288.006 1341.9 288.006ZM1350.8 289V287.754H1349.38V282.966H1350.91V281.72H1349.38V279.732H1348.01V281.006C1348.01 281.51 1347.84 281.72 1347.34 281.72H1346.72V282.966H1347.86V287.418C1347.86 288.412 1348.42 289 1349.47 289H1350.8ZM1355.53 289.168C1356.88 289.168 1357.95 288.58 1358.49 287.698L1357.6 286.816C1357.18 287.488 1356.58 287.908 1355.68 287.908C1354.45 287.908 1353.76 287.11 1353.76 285.99V285.752H1358.76V285.178C1358.76 283.162 1357.67 281.552 1355.53 281.552C1353.45 281.552 1352.18 283.036 1352.18 285.36C1352.18 287.684 1353.45 289.168 1355.53 289.168ZM1355.53 282.742C1356.53 282.742 1357.15 283.484 1357.15 284.604V284.744H1353.76V284.646C1353.76 283.526 1354.48 282.742 1355.53 282.742ZM1365.19 289H1366.71V278.64H1365.19V282.924H1365.12C1364.81 282.056 1364.04 281.552 1363.07 281.552C1361.24 281.552 1360.18 282.966 1360.18 285.36C1360.18 287.754 1361.24 289.168 1363.07 289.168C1364.04 289.168 1364.81 288.65 1365.12 287.796H1365.19V289ZM1363.54 287.852C1362.49 287.852 1361.79 287.11 1361.79 285.99V284.73C1361.79 283.61 1362.49 282.868 1363.54 282.868C1364.46 282.868 1365.19 283.372 1365.19 284.114V286.606C1365.19 287.348 1364.46 287.852 1363.54 287.852ZM1375.9 289L1378.4 281.72H1376.95L1375.81 285.038L1375.07 287.586H1374.99L1374.25 285.038L1373.14 281.72H1371.63L1374.11 289H1375.9ZM1385.91 289V287.754H1385.14V284.1C1385.14 282.476 1384.09 281.552 1382.22 281.552C1380.8 281.552 1379.95 282.154 1379.47 282.966L1380.38 283.792C1380.75 283.218 1381.26 282.798 1382.12 282.798C1383.14 282.798 1383.62 283.316 1383.62 284.198V284.814H1382.3C1380.27 284.814 1379.19 285.556 1379.19 286.998C1379.19 288.314 1380.05 289.168 1381.54 289.168C1382.61 289.168 1383.39 288.692 1383.67 287.782H1383.74C1383.84 288.496 1384.26 289 1385.06 289H1385.91ZM1381.98 288.006C1381.22 288.006 1380.75 287.67 1380.75 287.026V286.774C1380.75 286.144 1381.26 285.794 1382.33 285.794H1383.62V286.844C1383.62 287.558 1382.92 288.006 1381.98 288.006ZM1390.1 289V287.754H1389.09V278.64H1387.57V287.488C1387.57 288.426 1388.09 289 1389.12 289H1390.1ZM1396.13 289H1397.66V281.72H1396.13V286.592C1396.13 287.446 1395.36 287.852 1394.58 287.852C1393.64 287.852 1393.18 287.264 1393.18 286.158V281.72H1391.65V286.354C1391.65 288.146 1392.53 289.168 1394.03 289.168C1395.23 289.168 1395.81 288.51 1396.07 287.796H1396.13V289ZM1402.86 289.168C1404.22 289.168 1405.28 288.58 1405.83 287.698L1404.93 286.816C1404.51 287.488 1403.91 287.908 1403.01 287.908C1401.78 287.908 1401.09 287.11 1401.09 285.99V285.752H1406.09V285.178C1406.09 283.162 1405 281.552 1402.86 281.552C1400.79 281.552 1399.51 283.036 1399.51 285.36C1399.51 287.684 1400.79 289.168 1402.86 289.168ZM1402.86 282.742C1403.87 282.742 1404.48 283.484 1404.48 284.604V284.744H1401.09V284.646C1401.09 283.526 1401.81 282.742 1402.86 282.742Z" fill="#0043CE"/>
<path d="M1438.4 179H1440.16V169.228H1438.65V176.704H1438.61L1437.53 174.632L1434.34 169.228H1432.58V179H1434.09V171.524H1434.13L1435.21 173.596L1438.4 179ZM1445.47 179.168C1447.5 179.168 1448.82 177.684 1448.82 175.36C1448.82 173.036 1447.5 171.552 1445.47 171.552C1443.44 171.552 1442.13 173.036 1442.13 175.36C1442.13 177.684 1443.44 179.168 1445.47 179.168ZM1445.47 177.908C1444.44 177.908 1443.74 177.264 1443.74 175.976V174.744C1443.74 173.456 1444.44 172.812 1445.47 172.812C1446.51 172.812 1447.21 173.456 1447.21 174.744V175.976C1447.21 177.264 1446.51 177.908 1445.47 177.908ZM1451.45 170.418C1452.08 170.418 1452.35 170.082 1452.35 169.62V169.382C1452.35 168.92 1452.08 168.584 1451.45 168.584C1450.82 168.584 1450.54 168.92 1450.54 169.382V169.62C1450.54 170.082 1450.82 170.418 1451.45 170.418ZM1450.68 179H1452.21V171.72H1450.68V179ZM1456.85 179.168C1458.6 179.168 1459.74 178.23 1459.74 176.83C1459.74 175.654 1459.02 174.954 1457.43 174.716L1456.76 174.632C1455.99 174.506 1455.64 174.254 1455.64 173.694C1455.64 173.148 1456.03 172.784 1456.87 172.784C1457.65 172.784 1458.27 173.162 1458.65 173.61L1459.58 172.714C1458.93 171.986 1458.18 171.552 1456.87 171.552C1455.27 171.552 1454.17 172.378 1454.17 173.792C1454.17 175.136 1455.08 175.78 1456.56 175.962L1457.23 176.046C1457.99 176.144 1458.27 176.494 1458.27 176.956C1458.27 177.572 1457.82 177.936 1456.94 177.936C1456.07 177.936 1455.41 177.544 1454.88 176.9L1453.9 177.796C1454.59 178.65 1455.48 179.168 1456.85 179.168ZM1464.48 179.168C1465.84 179.168 1466.9 178.58 1467.45 177.698L1466.55 176.816C1466.13 177.488 1465.53 177.908 1464.63 177.908C1463.4 177.908 1462.71 177.11 1462.71 175.99V175.752H1467.71V175.178C1467.71 173.162 1466.62 171.552 1464.48 171.552C1462.41 171.552 1461.13 173.036 1461.13 175.36C1461.13 177.684 1462.41 179.168 1464.48 179.168ZM1464.48 172.742C1465.49 172.742 1466.1 173.484 1466.1 174.604V174.744H1462.71V174.646C1462.71 173.526 1463.43 172.742 1464.48 172.742ZM1479.22 179V177.754H1478.45V174.1C1478.45 172.476 1477.4 171.552 1475.52 171.552C1474.11 171.552 1473.25 172.154 1472.78 172.966L1473.69 173.792C1474.05 173.218 1474.57 172.798 1475.42 172.798C1476.45 172.798 1476.92 173.316 1476.92 174.198V174.814H1475.61C1473.58 174.814 1472.5 175.556 1472.5 176.998C1472.5 178.314 1473.35 179.168 1474.85 179.168C1475.91 179.168 1476.7 178.692 1476.98 177.782H1477.05C1477.15 178.496 1477.57 179 1478.36 179H1479.22ZM1475.28 178.006C1474.53 178.006 1474.05 177.67 1474.05 177.026V176.774C1474.05 176.144 1474.57 175.794 1475.63 175.794H1476.92V176.844C1476.92 177.558 1476.22 178.006 1475.28 178.006ZM1482.4 179V174.114C1482.4 173.274 1483.14 172.868 1483.9 172.868C1484.79 172.868 1485.23 173.428 1485.23 174.562V179H1486.75V174.114C1486.75 173.274 1487.47 172.868 1488.24 172.868C1489.16 172.868 1489.58 173.442 1489.58 174.562V179H1491.11V174.38C1491.11 172.588 1490.25 171.552 1488.81 171.552C1487.64 171.552 1486.88 172.224 1486.61 173.036H1486.57C1486.22 172.028 1485.4 171.552 1484.42 171.552C1483.31 171.552 1482.76 172.168 1482.47 172.924H1482.4V171.72H1480.87V179H1482.4ZM1493.38 181.8H1494.91V177.796H1494.98C1495.28 178.65 1496.05 179.168 1497.02 179.168C1498.85 179.168 1499.92 177.754 1499.92 175.36C1499.92 172.966 1498.85 171.552 1497.02 171.552C1496.05 171.552 1495.28 172.056 1494.98 172.924H1494.91V171.72H1493.38V181.8ZM1496.56 177.852C1495.63 177.852 1494.91 177.348 1494.91 176.606V174.114C1494.91 173.372 1495.63 172.868 1496.56 172.868C1497.61 172.868 1498.31 173.61 1498.31 174.73V175.99C1498.31 177.11 1497.61 177.852 1496.56 177.852ZM1504.36 179V177.754H1503.35V168.64H1501.82V177.488C1501.82 178.426 1502.34 179 1503.38 179H1504.36ZM1506.75 170.418C1507.38 170.418 1507.64 170.082 1507.64 169.62V169.382C1507.64 168.92 1507.38 168.584 1506.75 168.584C1506.12 168.584 1505.84 168.92 1505.84 169.382V169.62C1505.84 170.082 1506.12 170.418 1506.75 170.418ZM1505.98 179H1507.5V171.72H1505.98V179ZM1510.22 179H1511.75V172.966H1514.55V179H1516.07V171.72H1511.75V169.886H1513.27V168.64H1512.07C1510.85 168.64 1510.22 169.34 1510.22 170.516V171.72H1509.11V172.966H1510.22V179ZM1515.32 170.418C1515.95 170.418 1516.21 170.082 1516.21 169.62V169.382C1516.21 168.92 1515.95 168.584 1515.32 168.584C1514.69 168.584 1514.41 168.92 1514.41 169.382V169.62C1514.41 170.082 1514.69 170.418 1515.32 170.418ZM1521.27 179.168C1522.62 179.168 1523.69 178.58 1524.23 177.698L1523.34 176.816C1522.92 177.488 1522.32 177.908 1521.42 177.908C1520.19 177.908 1519.5 177.11 1519.5 175.99V175.752H1524.5V175.178C1524.5 173.162 1523.41 171.552 1521.27 171.552C1519.19 171.552 1517.92 173.036 1517.92 175.36C1517.92 177.684 1519.19 179.168 1521.27 179.168ZM1521.27 172.742C1522.27 172.742 1522.89 173.484 1522.89 174.604V174.744H1519.5V174.646C1519.5 173.526 1520.22 172.742 1521.27 172.742ZM1530.93 179H1532.45V168.64H1530.93V172.924H1530.86C1530.55 172.056 1529.78 171.552 1528.81 171.552C1526.98 171.552 1525.92 172.966 1525.92 175.36C1525.92 177.754 1526.98 179.168 1528.81 179.168C1529.78 179.168 1530.55 178.65 1530.86 177.796H1530.93V179ZM1529.28 177.852C1528.23 177.852 1527.53 177.11 1527.53 175.99V174.73C1527.53 173.61 1528.23 172.868 1529.28 172.868C1530.2 172.868 1530.93 173.372 1530.93 174.114V176.606C1530.93 177.348 1530.2 177.852 1529.28 177.852ZM1541.64 179L1544.14 171.72H1542.69L1541.55 175.038L1540.81 177.586H1540.73L1539.99 175.038L1538.88 171.72H1537.37L1539.85 179H1541.64ZM1551.65 179V177.754H1550.88V174.1C1550.88 172.476 1549.83 171.552 1547.96 171.552C1546.54 171.552 1545.69 172.154 1545.21 172.966L1546.12 173.792C1546.49 173.218 1547 172.798 1547.86 172.798C1548.88 172.798 1549.36 173.316 1549.36 174.198V174.814H1548.04C1546.01 174.814 1544.93 175.556 1544.93 176.998C1544.93 178.314 1545.79 179.168 1547.28 179.168C1548.35 179.168 1549.13 178.692 1549.41 177.782H1549.48C1549.58 178.496 1550 179 1550.8 179H1551.65ZM1547.72 178.006C1546.96 178.006 1546.49 177.67 1546.49 177.026V176.774C1546.49 176.144 1547 175.794 1548.07 175.794H1549.36V176.844C1549.36 177.558 1548.66 178.006 1547.72 178.006ZM1555.84 179V177.754H1554.83V168.64H1553.31V177.488C1553.31 178.426 1553.83 179 1554.86 179H1555.84ZM1561.87 179H1563.4V171.72H1561.87V176.592C1561.87 177.446 1561.1 177.852 1560.32 177.852C1559.38 177.852 1558.92 177.264 1558.92 176.158V171.72H1557.39V176.354C1557.39 178.146 1558.27 179.168 1559.77 179.168C1560.97 179.168 1561.55 178.51 1561.81 177.796H1561.87V179ZM1568.6 179.168C1569.96 179.168 1571.02 178.58 1571.57 177.698L1570.67 176.816C1570.25 177.488 1569.65 177.908 1568.75 177.908C1567.52 177.908 1566.83 177.11 1566.83 175.99V175.752H1571.83V175.178C1571.83 173.162 1570.74 171.552 1568.6 171.552C1566.53 171.552 1565.25 173.036 1565.25 175.36C1565.25 177.684 1566.53 179.168 1568.6 179.168ZM1568.6 172.742C1569.61 172.742 1570.22 173.484 1570.22 174.604V174.744H1566.83V174.646C1566.83 173.526 1567.55 172.742 1568.6 172.742ZM1575.99 179.168C1577.74 179.168 1578.87 178.23 1578.87 176.83C1578.87 175.654 1578.16 174.954 1576.56 174.716L1575.89 174.632C1575.12 174.506 1574.77 174.254 1574.77 173.694C1574.77 173.148 1575.16 172.784 1576 172.784C1576.79 172.784 1577.4 173.162 1577.78 173.61L1578.72 172.714C1578.06 171.986 1577.32 171.552 1576 171.552C1574.41 171.552 1573.3 172.378 1573.3 173.792C1573.3 175.136 1574.21 175.78 1575.7 175.962L1576.37 176.046C1577.12 176.144 1577.4 176.494 1577.4 176.956C1577.4 177.572 1576.96 177.936 1576.07 177.936C1575.21 177.936 1574.55 177.544 1574.02 176.9L1573.04 177.796C1573.72 178.65 1574.62 179.168 1575.99 179.168Z" fill="#0043CE"/>
<path d="M1216.58 343H1218.09V335.524H1218.16L1218.93 337.106L1221.07 341.012L1223.21 337.106L1223.98 335.524H1224.05V343H1225.56V333.228H1223.77L1221.15 338.198H1221.07L1218.45 333.228H1216.58V343ZM1228.8 334.418C1229.43 334.418 1229.69 334.082 1229.69 333.62V333.382C1229.69 332.92 1229.43 332.584 1228.8 332.584C1228.17 332.584 1227.89 332.92 1227.89 333.382V333.62C1227.89 334.082 1228.17 334.418 1228.8 334.418ZM1228.03 343H1229.55V335.72H1228.03V343ZM1235.24 343V341.754H1233.82V336.966H1235.35V335.72H1233.82V333.732H1232.45V335.006C1232.45 335.51 1232.28 335.72 1231.78 335.72H1231.16V336.966H1232.3V341.418C1232.3 342.412 1232.86 343 1233.91 343H1235.24ZM1237.93 334.418C1238.56 334.418 1238.83 334.082 1238.83 333.62V333.382C1238.83 332.92 1238.56 332.584 1237.93 332.584C1237.3 332.584 1237.02 332.92 1237.02 333.382V333.62C1237.02 334.082 1237.3 334.418 1237.93 334.418ZM1237.16 343H1238.69V335.72H1237.16V343ZM1247.41 343.686C1247.41 342.426 1246.66 341.67 1244.86 341.67H1243.07C1242.43 341.67 1242.05 341.516 1242.05 341.124C1242.05 340.76 1242.39 340.522 1242.75 340.396C1243.02 340.466 1243.35 340.508 1243.7 340.508C1245.55 340.508 1246.61 339.514 1246.61 338.044C1246.61 337.204 1246.25 336.504 1245.59 336.07V335.776H1247.08V334.544H1245.96C1245.31 334.544 1245 334.936 1245 335.58V335.776C1244.63 335.622 1244.18 335.552 1243.69 335.552C1241.84 335.552 1240.79 336.56 1240.79 338.044C1240.79 339.024 1241.27 339.794 1242.12 340.2V340.256C1241.42 340.424 1240.83 340.788 1240.83 341.544C1240.83 342.09 1241.13 342.496 1241.66 342.664V342.818C1240.89 342.986 1240.41 343.42 1240.41 344.218C1240.41 345.324 1241.34 345.968 1243.72 345.968C1246.33 345.968 1247.41 345.198 1247.41 343.686ZM1245.98 343.854C1245.98 344.526 1245.4 344.862 1244.21 344.862H1243.25C1242.12 344.862 1241.69 344.456 1241.69 343.868C1241.69 343.518 1241.85 343.224 1242.19 343.028H1244.65C1245.65 343.028 1245.98 343.35 1245.98 343.854ZM1243.7 339.402C1242.81 339.402 1242.29 338.996 1242.29 338.17V337.89C1242.29 337.064 1242.81 336.658 1243.7 336.658C1244.6 336.658 1245.12 337.064 1245.12 337.89V338.17C1245.12 338.996 1244.6 339.402 1243.7 339.402ZM1254.86 343V341.754H1254.09V338.1C1254.09 336.476 1253.04 335.552 1251.16 335.552C1249.75 335.552 1248.89 336.154 1248.42 336.966L1249.33 337.792C1249.69 337.218 1250.21 336.798 1251.06 336.798C1252.08 336.798 1252.56 337.316 1252.56 338.198V338.814H1251.24C1249.21 338.814 1248.14 339.556 1248.14 340.998C1248.14 342.314 1248.99 343.168 1250.49 343.168C1251.55 343.168 1252.34 342.692 1252.62 341.782H1252.69C1252.78 342.496 1253.2 343 1254 343H1254.86ZM1250.92 342.006C1250.17 342.006 1249.69 341.67 1249.69 341.026V340.774C1249.69 340.144 1250.21 339.794 1251.27 339.794H1252.56V340.844C1252.56 341.558 1251.86 342.006 1250.92 342.006ZM1259.82 343V341.754H1258.4V336.966H1259.93V335.72H1258.4V333.732H1257.03V335.006C1257.03 335.51 1256.86 335.72 1256.36 335.72H1255.74V336.966H1256.88V341.418C1256.88 342.412 1257.44 343 1258.49 343H1259.82ZM1264.54 343.168C1265.9 343.168 1266.97 342.58 1267.51 341.698L1266.62 340.816C1266.2 341.488 1265.59 341.908 1264.7 341.908C1263.47 341.908 1262.78 341.11 1262.78 339.99V339.752H1267.78V339.178C1267.78 337.162 1266.69 335.552 1264.54 335.552C1262.47 335.552 1261.2 337.036 1261.2 339.36C1261.2 341.684 1262.47 343.168 1264.54 343.168ZM1264.54 336.742C1265.55 336.742 1266.17 337.484 1266.17 338.604V338.744H1262.78V338.646C1262.78 337.526 1263.49 336.742 1264.54 336.742ZM1274.21 343H1275.73V332.64H1274.21V336.924H1274.14C1273.83 336.056 1273.06 335.552 1272.09 335.552C1270.26 335.552 1269.19 336.966 1269.19 339.36C1269.19 341.754 1270.26 343.168 1272.09 343.168C1273.06 343.168 1273.83 342.65 1274.14 341.796H1274.21V343ZM1272.55 341.852C1271.5 341.852 1270.8 341.11 1270.8 339.99V338.73C1270.8 337.61 1271.5 336.868 1272.55 336.868C1273.48 336.868 1274.21 337.372 1274.21 338.114V340.606C1274.21 341.348 1273.48 341.852 1272.55 341.852ZM1284.92 343L1287.42 335.72H1285.97L1284.83 339.038L1284.09 341.586H1284.01L1283.26 339.038L1282.16 335.72H1280.65L1283.12 343H1284.92ZM1294.93 343V341.754H1294.16V338.1C1294.16 336.476 1293.11 335.552 1291.23 335.552C1289.82 335.552 1288.97 336.154 1288.49 336.966L1289.4 337.792C1289.76 337.218 1290.28 336.798 1291.14 336.798C1292.16 336.798 1292.63 337.316 1292.63 338.198V338.814H1291.32C1289.29 338.814 1288.21 339.556 1288.21 340.998C1288.21 342.314 1289.06 343.168 1290.56 343.168C1291.63 343.168 1292.41 342.692 1292.69 341.782H1292.76C1292.86 342.496 1293.28 343 1294.08 343H1294.93ZM1291 342.006C1290.24 342.006 1289.76 341.67 1289.76 341.026V340.774C1289.76 340.144 1290.28 339.794 1291.35 339.794H1292.63V340.844C1292.63 341.558 1291.93 342.006 1291 342.006ZM1299.12 343V341.754H1298.11V332.64H1296.59V341.488C1296.59 342.426 1297.1 343 1298.14 343H1299.12ZM1305.15 343H1306.67V335.72H1305.15V340.592C1305.15 341.446 1304.38 341.852 1303.59 341.852C1302.66 341.852 1302.19 341.264 1302.19 340.158V335.72H1300.67V340.354C1300.67 342.146 1301.55 343.168 1303.05 343.168C1304.25 343.168 1304.83 342.51 1305.09 341.796H1305.15V343ZM1311.88 343.168C1313.23 343.168 1314.3 342.58 1314.84 341.698L1313.95 340.816C1313.53 341.488 1312.93 341.908 1312.03 341.908C1310.8 341.908 1310.11 341.11 1310.11 339.99V339.752H1315.11V339.178C1315.11 337.162 1314.02 335.552 1311.88 335.552C1309.8 335.552 1308.53 337.036 1308.53 339.36C1308.53 341.684 1309.8 343.168 1311.88 343.168ZM1311.88 336.742C1312.88 336.742 1313.5 337.484 1313.5 338.604V338.744H1310.11V338.646C1310.11 337.526 1310.83 336.742 1311.88 336.742Z" fill="#198038"/>
<path d="M1561.65 359V357.6H1556.97V354.744H1561.21V353.344H1556.97V350.628H1561.65V349.228H1555.39V359H1561.65ZM1562.92 359H1564.55L1566.3 356.354H1566.34L1568.02 359H1569.78L1567.25 355.304L1569.74 351.72H1568.12L1566.44 354.254H1566.4L1564.76 351.72H1562.99L1565.49 355.318L1562.92 359ZM1577.51 359V357.754H1576.74V354.1C1576.74 352.476 1575.69 351.552 1573.81 351.552C1572.4 351.552 1571.54 352.154 1571.07 352.966L1571.98 353.792C1572.34 353.218 1572.86 352.798 1573.71 352.798C1574.74 352.798 1575.21 353.316 1575.21 354.198V354.814H1573.9C1571.87 354.814 1570.79 355.556 1570.79 356.998C1570.79 358.314 1571.64 359.168 1573.14 359.168C1574.2 359.168 1574.99 358.692 1575.27 357.782H1575.34C1575.44 358.496 1575.86 359 1576.65 359H1577.51ZM1573.57 358.006C1572.82 358.006 1572.34 357.67 1572.34 357.026V356.774C1572.34 356.144 1572.86 355.794 1573.92 355.794H1575.21V356.844C1575.21 357.558 1574.51 358.006 1573.57 358.006ZM1581.98 359.168C1583.38 359.168 1584.37 358.51 1584.85 357.32L1583.69 356.704C1583.38 357.432 1582.86 357.908 1581.98 357.908C1580.86 357.908 1580.28 357.138 1580.28 356.018V354.716C1580.28 353.596 1580.86 352.826 1581.98 352.826C1582.8 352.826 1583.32 353.26 1583.53 353.932L1584.79 353.344C1584.36 352.266 1583.43 351.552 1581.98 351.552C1579.88 351.552 1578.67 353.036 1578.67 355.36C1578.67 357.684 1579.88 359.168 1581.98 359.168ZM1589.81 359V357.754H1588.39V352.966H1589.92V351.72H1588.39V349.732H1587.02V351.006C1587.02 351.51 1586.85 351.72 1586.35 351.72H1585.73V352.966H1586.87V357.418C1586.87 358.412 1587.43 359 1588.48 359H1589.81ZM1598.58 359L1601.08 351.72H1599.63L1598.49 355.038L1597.75 357.586H1597.67L1596.92 355.038L1595.82 351.72H1594.31L1596.78 359H1598.58ZM1608.59 359V357.754H1607.82V354.1C1607.82 352.476 1606.77 351.552 1604.9 351.552C1603.48 351.552 1602.63 352.154 1602.15 352.966L1603.06 353.792C1603.43 353.218 1603.94 352.798 1604.8 352.798C1605.82 352.798 1606.3 353.316 1606.3 354.198V354.814H1604.98C1602.95 354.814 1601.87 355.556 1601.87 356.998C1601.87 358.314 1602.73 359.168 1604.22 359.168C1605.29 359.168 1606.07 358.692 1606.35 357.782H1606.42C1606.52 358.496 1606.94 359 1607.74 359H1608.59ZM1604.66 358.006C1603.9 358.006 1603.43 357.67 1603.43 357.026V356.774C1603.43 356.144 1603.94 355.794 1605.01 355.794H1606.3V356.844C1606.3 357.558 1605.6 358.006 1604.66 358.006ZM1612.78 359V357.754H1611.77V348.64H1610.25V357.488C1610.25 358.426 1610.76 359 1611.8 359H1612.78ZM1618.81 359H1620.34V351.72H1618.81V356.592C1618.81 357.446 1618.04 357.852 1617.26 357.852C1616.32 357.852 1615.86 357.264 1615.86 356.158V351.72H1614.33V356.354C1614.33 358.146 1615.21 359.168 1616.71 359.168C1617.91 359.168 1618.49 358.51 1618.75 357.796H1618.81V359ZM1625.54 359.168C1626.89 359.168 1627.96 358.58 1628.5 357.698L1627.61 356.816C1627.19 357.488 1626.59 357.908 1625.69 357.908C1624.46 357.908 1623.77 357.11 1623.77 355.99V355.752H1628.77V355.178C1628.77 353.162 1627.68 351.552 1625.54 351.552C1623.46 351.552 1622.19 353.036 1622.19 355.36C1622.19 357.684 1623.46 359.168 1625.54 359.168ZM1625.54 352.742C1626.54 352.742 1627.16 353.484 1627.16 354.604V354.744H1623.77V354.646C1623.77 353.526 1624.49 352.742 1625.54 352.742Z" fill="#121619"/>
<path d="M1170.19 269.538H1168.79V274.214H1165.93V269.972H1164.53V274.214H1161.81V269.538H1160.41V275.796H1170.19V269.538ZM1170.19 268.261V266.637L1167.54 264.887V264.845L1170.19 263.165V261.401L1166.49 263.935L1162.91 261.443V263.067L1165.44 264.747V264.789L1162.91 266.427V268.191L1166.5 265.699L1170.19 268.261ZM1172.99 259.865V258.339H1168.98V258.269C1169.84 257.961 1170.35 257.191 1170.35 256.225C1170.35 254.391 1168.94 253.327 1166.55 253.327C1164.15 253.327 1162.74 254.391 1162.74 256.225C1162.74 257.191 1163.24 257.961 1164.11 258.269V258.339H1162.91V259.865H1172.99ZM1169.04 256.687C1169.04 257.611 1168.53 258.339 1167.79 258.339H1165.3C1164.56 258.339 1164.05 257.611 1164.05 256.687C1164.05 255.637 1164.8 254.937 1165.92 254.937H1167.18C1168.3 254.937 1169.04 255.637 1169.04 256.687ZM1170.35 248.564C1170.35 247.206 1169.77 246.142 1168.88 245.596L1168 246.492C1168.67 246.912 1169.09 247.514 1169.09 248.41C1169.09 249.642 1168.3 250.328 1167.18 250.328H1166.94V245.33H1166.36C1164.35 245.33 1162.74 246.422 1162.74 248.564C1162.74 250.636 1164.22 251.91 1166.55 251.91C1168.87 251.91 1170.35 250.636 1170.35 248.564ZM1163.93 248.564C1163.93 247.556 1164.67 246.94 1165.79 246.94H1165.93V250.328H1165.83C1164.71 250.328 1163.93 249.614 1163.93 248.564ZM1170.35 240.667C1170.35 239.267 1169.7 238.273 1168.51 237.797L1167.89 238.959C1168.62 239.267 1169.09 239.785 1169.09 240.667C1169.09 241.787 1168.32 242.361 1167.2 242.361H1165.9C1164.78 242.361 1164.01 241.787 1164.01 240.667C1164.01 239.841 1164.45 239.323 1165.12 239.113L1164.53 237.853C1163.45 238.287 1162.74 239.211 1162.74 240.667C1162.74 242.767 1164.22 243.971 1166.55 243.971C1168.87 243.971 1170.35 242.767 1170.35 240.667ZM1170.19 232.838H1168.94V234.252H1164.15V232.726H1162.91V234.252H1160.92V235.624H1162.19C1162.7 235.624 1162.91 235.792 1162.91 236.296V236.912H1164.15V235.778H1168.6C1169.6 235.778 1170.19 235.218 1170.19 234.168V232.838ZM1170.19 224.723H1168.94V225.493H1165.29C1163.66 225.493 1162.74 226.543 1162.74 228.419C1162.74 229.833 1163.34 230.687 1164.15 231.163L1164.98 230.253C1164.4 229.889 1163.98 229.371 1163.98 228.517C1163.98 227.495 1164.5 227.019 1165.38 227.019H1166V228.335C1166 230.365 1166.74 231.443 1168.18 231.443C1169.5 231.443 1170.35 230.589 1170.35 229.091C1170.35 228.027 1169.88 227.243 1168.97 226.963V226.893C1169.68 226.795 1170.19 226.375 1170.19 225.577V224.723ZM1169.19 228.657C1169.19 229.413 1168.86 229.889 1168.21 229.889H1167.96C1167.33 229.889 1166.98 229.371 1166.98 228.307V227.019H1168.03C1168.74 227.019 1169.19 227.719 1169.19 228.657ZM1170.19 219.762H1168.94V221.176H1164.15V219.65H1162.91V221.176H1160.92V222.548H1162.19C1162.7 222.548 1162.91 222.716 1162.91 223.22V223.836H1164.15V222.702H1168.6C1169.6 222.702 1170.19 222.142 1170.19 221.092V219.762ZM1161.6 217.065C1161.6 216.435 1161.27 216.169 1160.81 216.169H1160.57C1160.11 216.169 1159.77 216.435 1159.77 217.065C1159.77 217.695 1160.11 217.975 1160.57 217.975H1160.81C1161.27 217.975 1161.6 217.695 1161.6 217.065ZM1170.19 217.835V216.309H1162.91V217.835H1170.19ZM1170.35 211.114C1170.35 209.084 1168.87 207.768 1166.55 207.768C1164.22 207.768 1162.74 209.084 1162.74 211.114C1162.74 213.144 1164.22 214.46 1166.55 214.46C1168.87 214.46 1170.35 213.144 1170.35 211.114ZM1169.09 211.114C1169.09 212.15 1168.45 212.85 1167.16 212.85H1165.93C1164.64 212.85 1164 212.15 1164 211.114C1164 210.078 1164.64 209.378 1165.93 209.378H1167.16C1168.45 209.378 1169.09 210.078 1169.09 211.114ZM1170.19 204.382H1165.31C1164.46 204.382 1164.05 203.598 1164.05 202.8C1164.05 201.862 1164.63 201.428 1165.76 201.428H1170.19V199.902H1165.57C1163.77 199.902 1162.74 200.784 1162.74 202.268C1162.74 203.388 1163.33 204.004 1164.11 204.312V204.382H1162.91V205.908H1170.19V204.382ZM1170.19 190.784L1162.91 188.278V189.734L1166.22 190.868L1168.77 191.61V191.694L1166.22 192.436L1162.91 193.542V195.054L1170.19 192.576V190.784ZM1170.19 180.769H1168.94V181.539H1165.29C1163.66 181.539 1162.74 182.589 1162.74 184.465C1162.74 185.879 1163.34 186.733 1164.15 187.209L1164.98 186.299C1164.4 185.935 1163.98 185.417 1163.98 184.563C1163.98 183.541 1164.5 183.065 1165.38 183.065H1166V184.381C1166 186.411 1166.74 187.489 1168.18 187.489C1169.5 187.489 1170.35 186.635 1170.35 185.137C1170.35 184.073 1169.88 183.289 1168.97 183.009V182.939C1169.68 182.841 1170.19 182.421 1170.19 181.623V180.769ZM1169.19 184.703C1169.19 185.459 1168.86 185.935 1168.21 185.935H1167.96C1167.33 185.935 1166.98 185.417 1166.98 184.353V183.065H1168.03C1168.74 183.065 1169.19 183.765 1169.19 184.703ZM1170.19 176.579H1168.94V177.587H1159.83V179.113H1168.67C1169.61 179.113 1170.19 178.595 1170.19 177.559V176.579ZM1170.19 170.551V169.025H1162.91V170.551H1167.78C1168.63 170.551 1169.04 171.321 1169.04 172.105C1169.04 173.043 1168.45 173.505 1167.34 173.505H1162.91V175.031H1167.54C1169.33 175.031 1170.35 174.149 1170.35 172.651C1170.35 171.447 1169.7 170.873 1168.98 170.607V170.551H1170.19ZM1170.35 163.824C1170.35 162.466 1169.77 161.402 1168.88 160.856L1168 161.752C1168.67 162.172 1169.09 162.774 1169.09 163.67C1169.09 164.902 1168.3 165.588 1167.18 165.588H1166.94V160.59H1166.36C1164.35 160.59 1162.74 161.682 1162.74 163.824C1162.74 165.896 1164.22 167.17 1166.55 167.17C1168.87 167.17 1170.35 165.896 1170.35 163.824ZM1163.93 163.824C1163.93 162.816 1164.67 162.2 1165.79 162.2H1165.93V165.588H1165.83C1164.71 165.588 1163.93 164.874 1163.93 163.824Z" fill="#121619"/>
<path d="M1195.19 355H1545.19" stroke="black" stroke-dasharray="6 6"/>
<line x1="1196.06" y1="338.612" x2="1540.87" y2="57.6124" stroke="#198038"/>
<rect x="1254.37" y="273" width="20" height="20" fill="#0043CE"/>
<path d="M1195.37 327L1198.07 335.292H1206.78L1199.73 340.416L1202.42 348.708L1195.37 343.584L1188.32 348.708L1191.01 340.416L1183.96 335.292H1192.68L1195.37 327Z" fill="#198038"/>
<circle cx="1332.37" cy="222" r="10" fill="#0043CE"/>
<circle cx="1407.37" cy="174" r="10" fill="#0043CE"/>
<circle cx="1464.37" cy="114" r="10" fill="#0043CE"/>
<circle cx="1531.37" cy="73" r="10" fill="#0043CE"/>
</g>
<defs>
<clipPath id="clip0_36_4196">
<rect width="1713" height="487" fill="white"/>
</clipPath>
</defs>
</svg>
